<svg xmlns="http://www.w3.org/2000/svg" xmlns:xlink="http://www.w3.org/1999/xlink" width="99.224" height="120" viewBox="0 0 99.224 120">
  <defs>
    <clipPath id="clip-path">
      <rect id="Rectangle_151431" data-name="Rectangle 151431" width="99.224" height="120" fill="none"/>
    </clipPath>
    <clipPath id="clip-path-3">
      <rect id="Rectangle_151427" data-name="Rectangle 151427" width="12.668" height="59.617" fill="none"/>
    </clipPath>
    <clipPath id="clip-path-4">
      <rect id="Rectangle_151428" data-name="Rectangle 151428" width="27.019" height="24.806" fill="none"/>
    </clipPath>
    <clipPath id="clip-path-5">
      <rect id="Rectangle_151429" data-name="Rectangle 151429" width="22.962" height="24.806" fill="none"/>
    </clipPath>
  </defs>
  <g id="Group_172678" data-name="Group 172678" transform="translate(0 -67)">
    <g id="Group_171465" data-name="Group 171465" transform="translate(0 67)" clip-path="url(#clip-path)">
      <g id="Group_171464" data-name="Group 171464">
        <g id="Group_171463" data-name="Group 171463" clip-path="url(#clip-path)">
          <path id="Path_44225" data-name="Path 44225" d="M27,119.784c-.254-.073-6.342-1.877-16.335-10.381C.34,100.615.009,86.1,0,85.489a1.876,1.876,0,0,1,1.854-1.9l17.719-.208.044,3.752L3.9,87.314c.445,3.962,2.218,13.291,9.2,19.232,9.274,7.893,14.887,9.617,14.943,9.633Z" transform="translate(0 -70.105)" fill="#fcab28"/>
          <path id="Path_44226" data-name="Path 44226" d="M448.283,119.784l-1.031-3.608c.047-.014,5.659-1.738,14.934-9.631,6.98-5.94,8.753-15.268,9.2-19.232l-15.717-.185.044-3.752,17.718.208a1.876,1.876,0,0,1,1.854,1.9c-.009.613-.34,15.126-10.666,23.914-9.992,8.5-16.08,10.308-16.335,10.381" transform="translate(-376.059 -70.105)" fill="#fcab28"/>
          <path id="Path_44227" data-name="Path 44227" d="M105.569,13.48a3.546,3.546,0,0,1-2.293-3.127c0-2.293-.417-3.335,1.668-5.42S122.8,0,135.517,0,165.6,3.474,167.689,5.35s1.251,6.879.834,7.713-2.085.625-2.085.625Z" transform="translate(-86.808)" fill="#ffcf3f"/>
          <path id="Path_44228" data-name="Path 44228" d="M144.367,44.089c-7.849,0-24.389,1.042-30.434,5.42,0,0,0,22.513,6.253,33.978s17.3,20.845,17.3,20.845H152.5s11.048-9.38,17.3-20.845,6.253-33.978,6.253-33.978c-6.67-4.378-23.836-5.42-31.685-5.42" transform="translate(-95.797 -37.071)" fill="#ffd733"/>
          <path id="Path_44229" data-name="Path 44229" d="M144.367,44.089c-7.849,0-24.389,1.042-30.434,5.42,0,0,0,22.513,6.253,33.978A73.786,73.786,0,0,0,130.617,97.6a22.346,22.346,0,0,0,8.33,1.729c19.178.417,24.181-15.842,26.265-21.679,3.284-9.2,5.153-23.635,5.887-30.336-8.058-2.548-20.413-3.225-26.733-3.225" transform="translate(-95.797 -37.071)" fill="#ffe266"/>
          <path id="Path_44230" data-name="Path 44230" d="M217.114,470.945c-1.876-5.628-5.837-4.794-5.837-4.794s-.007-1.809-2.779-2.069c-1.718-.528-6.144-2.229-7.644-6.061-1.876-4.794-1.042-10.84-1.042-10.84l-4.169-.544-4.169.544s.834,6.045-1.042,10.84c-1.5,3.832-5.926,5.532-7.644,6.061-2.772.259-2.779,2.069-2.779,2.069s-3.961-.834-5.837,4.794Z" transform="translate(-146.448 -375.542)" fill="#ffce45"/>
          <path id="Path_44231" data-name="Path 44231" d="M210.84,566.925q3.908-.252,7.817-.338c2.606-.07,5.211-.088,7.817-.1,2.606.008,5.211.026,7.817.1s5.211.17,7.817.34q-3.909.254-7.817.34c-2.606.069-5.211.088-7.817.1-2.606-.009-5.211-.027-7.817-.1s-5.212-.17-7.817-.338" transform="translate(-177.279 -476.317)" fill="#fcab28"/>
          <path id="Path_44232" data-name="Path 44232" d="M269.214,423.268h-14.8a1.668,1.668,0,0,1,0-3.335h14.8a1.668,1.668,0,1,1,0,3.335" transform="translate(-212.514 -353.089)" fill="#fcab28"/>
          <path id="Path_44233" data-name="Path 44233" d="M273.776,438.478H260.644a1.48,1.48,0,1,1,0-2.959h13.133a1.48,1.48,0,1,1,0,2.959" transform="translate(-217.911 -366.194)" fill="#fcab28"/>
          <path id="Path_44234" data-name="Path 44234" d="M156.009,598.034H201.5a2.79,2.79,0,0,1,2.79,2.79V620.05a2.79,2.79,0,0,1-2.79,2.79H156.009a2.79,2.79,0,0,1-2.79-2.79V600.824a2.79,2.79,0,0,1,2.79-2.79" transform="translate(-128.83 -502.84)" fill="#6c554f"/>
          <path id="Path_44235" data-name="Path 44235" d="M212.132,625.011h30.142a1.292,1.292,0,0,1,1.292,1.292V636.81a1.292,1.292,0,0,1-1.292,1.292H212.132a1.292,1.292,0,0,1-1.292-1.292V626.3a1.292,1.292,0,0,1,1.292-1.292" transform="translate(-177.279 -525.523)" fill="#fcab28"/>
          <path id="Path_44236" data-name="Path 44236" d="M242.714,625.011h10.367c.246,0,.445.579.445,1.292V636.81c0,.714-.2,1.292-.445,1.292H242.714c-.245,0-.444-.579-.444-1.292V626.3c0-.714.2-1.292.444-1.292" transform="translate(-203.706 -525.523)" fill="#ffd733"/>
          <path id="Path_44237" data-name="Path 44237" d="M261.913,421.4c1.251-.09,2.5-.132,3.752-.167s2.5-.045,3.752-.051,2.5.011,3.752.05l1.876.061c.625.036,1.251.057,1.876.107-.626.049-1.251.07-1.876.107l-1.876.061c-1.251.039-2.5.045-3.752.05s-2.5-.011-3.752-.051-2.5-.077-3.752-.167" transform="translate(-220.222 -354.142)" fill="#ffe266"/>
          <path id="Path_44238" data-name="Path 44238" d="M262.349,437.118c1.274-.09,2.548-.132,3.822-.167s2.548-.045,3.822-.051,2.548.011,3.822.05l1.911.061c.637.036,1.274.057,1.911.107-.637.049-1.274.07-1.911.107l-1.911.061c-1.274.039-2.548.045-3.822.05s-2.548-.011-3.822-.051-2.548-.077-3.822-.167" transform="translate(-220.589 -367.356)" fill="#ffe266"/>
          <path id="Path_44239" data-name="Path 44239" d="M283.779,454.579a33.053,33.053,0,0,1,4.024-.217,32.652,32.652,0,0,1,4.024.217,32.712,32.712,0,0,1-4.024.217,33.059,33.059,0,0,1-4.024-.217" transform="translate(-238.608 -382.037)" fill="#ffe266"/>
          <path id="Path_44240" data-name="Path 44240" d="M179.846,584.387q5.142-.253,10.284-.339c3.428-.069,6.856-.088,10.284-.1,3.428.008,6.856.026,10.284.1s6.856.17,10.284.34q-5.142.254-10.284.34c-3.428.069-6.856.088-10.284.1-3.428-.009-6.856-.027-10.284-.1s-6.856-.17-10.284-.338" transform="translate(-151.218 -491)" fill="#fcab28"/>
          <g id="Group_171456" data-name="Group 171456" transform="translate(27.981 0.557)" opacity="0.48">
            <g id="Group_171455" data-name="Group 171455">
              <g id="Group_171454" data-name="Group 171454" clip-path="url(#clip-path-3)">
                <path id="Path_44241" data-name="Path 44241" d="M185.837,3.5c-3.5.341-6.9.813-9.872,1.351-.345,10.294-.454,27.495,2.063,37,3.752,14.175,10.423,21.262,10.423,21.262s-4.169-20.846-3.752-39.189c.2-8.784.686-15.651,1.139-20.428" transform="translate(-175.783 -3.497)" fill="#fffffd"/>
              </g>
            </g>
          </g>
          <path id="Path_44242" data-name="Path 44242" d="M176.051,47.236a26.863,26.863,0,0,0-7.44-2.665,76.792,76.792,0,0,0-7.815-1.323c-2.627-.308-5.262-.551-7.9-.708s-5.286-.272-7.928-.283-5.287.065-7.927.212-5.278.372-7.9.676a73.907,73.907,0,0,0-7.814,1.314,23.937,23.937,0,0,0-7.386,2.778,15.787,15.787,0,0,1,3.5-1.91c.309-.124.615-.259.927-.375l.947-.321c.628-.227,1.27-.407,1.912-.586a64.753,64.753,0,0,1,7.832-1.574,112.218,112.218,0,0,1,15.925-1.084,121.463,121.463,0,0,1,15.916,1.19,66.816,66.816,0,0,1,7.829,1.583c.646.161,1.279.373,1.914.577.639.188,1.259.436,1.88.678a19.561,19.561,0,0,1,1.824.813,6.684,6.684,0,0,1,.87.487Z" transform="translate(-95.796 -34.799)" fill="#fcab28"/>
          <path id="Path_44243" data-name="Path 44243" d="M205.238,88.753l1.947-3.411,1.822,3.48,3.411,1.947-3.48,1.822L206.992,96l-1.822-3.48-3.411-1.947Z" transform="translate(-169.643 -71.757)" fill="#fff"/>
          <g id="Group_171459" data-name="Group 171459" transform="translate(29.341 95.194)" opacity="0.35">
            <g id="Group_171458" data-name="Group 171458">
              <g id="Group_171457" data-name="Group 171457" clip-path="url(#clip-path-4)">
                <path id="Path_44244" data-name="Path 44244" d="M184.329,622.84h7.726l19.294-24.806h-8.877Z" transform="translate(-184.329 -598.034)" fill="#fff"/>
              </g>
            </g>
          </g>
          <g id="Group_171462" data-name="Group 171462" transform="translate(44.587 95.194)" opacity="0.35">
            <g id="Group_171461" data-name="Group 171461">
              <g id="Group_171460" data-name="Group 171460" clip-path="url(#clip-path-5)">
                <path id="Path_44245" data-name="Path 44245" d="M283.935,622.84l19.136-24.806h-3.628L280.108,622.84Z" transform="translate(-280.108 -598.034)" fill="#fff"/>
              </g>
            </g>
          </g>
        </g>
      </g>
    </g>
  </g>
</svg>
