<svg xmlns="http://www.w3.org/2000/svg" xmlns:xlink="http://www.w3.org/1999/xlink" width="424.809" height="405" viewBox="0 0 424.809 405">
  <defs>
    <clipPath id="clip-path">
      <rect id="Rectangle_151820" data-name="Rectangle 151820" width="393.172" height="320" fill="none"/>
    </clipPath>
  </defs>
  <g id="Group_172577" data-name="Group 172577" transform="translate(-755.191 -282)" opacity="0.81">
    <circle id="Ellipse_446" data-name="Ellipse 446" cx="175" cy="175" r="175" transform="translate(830 282)" fill="rgba(1,171,193,0.1)"/>
    <g id="Group_172576" data-name="Group 172576" transform="translate(75.191 -2)">
      <g id="Group_172575" data-name="Group 172575" transform="translate(680 369)">
        <g id="Group_172574" data-name="Group 172574" clip-path="url(#clip-path)">
          <path id="Path_46390" data-name="Path 46390" d="M123.361,96.533a12.505,12.505,0,0,0-21.052-3.442A20.315,20.315,0,0,0,75.429,82.675,23.881,23.881,0,0,0,31.408,92.988a12.5,12.5,0,0,0-20.96,3.545Z" transform="translate(-0.703 -4.806)" fill="#76c8ce"/>
          <path id="Path_46391" data-name="Path 46391" d="M85.909,159.492s11.6,2.832,15.87,11.8,20.837,14.693,20.837,14.693,2.143,15.155,0,14.892-31.487-8.058-35.451-13.149-1.256-28.235-1.256-28.235" transform="translate(-5.719 -10.73)" fill="#e4e0ff"/>
          <path id="Path_46392" data-name="Path 46392" d="M182.658,22.5s17.755,5.685,42.161,5.508c10.235-.074,7.5.9,8.631,6.179S220.7,44.745,208.436,44.367,181.268,43.143,179,38.614,182.658,22.5,182.658,22.5" transform="translate(-12.009 -1.514)" fill="#4a3d6d"/>
          <path id="Path_46393" data-name="Path 46393" d="M146.2,64.74s-16.554-27.014-10.477-32.145C146.5,23.5,173.33,18.656,180.973,23c2.331,1.324,1.083,10.989.377,13.153-9.957,30.53,15.624,30.573-5.315,33.023S146.2,64.74,146.2,64.74" transform="translate(-9.042 -1.439)" fill="#4a3d6d"/>
          <path id="Path_46394" data-name="Path 46394" d="M153.939,14.787l-4.487,10.592s2.689,3.975,6.876,2.671a8.2,8.2,0,0,0,5.325-4.78Z" transform="translate(-10.054 -0.995)" fill="#ffc09c"/>
          <path id="Path_46395" data-name="Path 46395" d="M154.614,14.93s-.826-.034-1.041-.487.891-5.093,1.337-5.295a1.28,1.28,0,0,1,1.657.6c.351.751-1.953,5.185-1.953,5.185" transform="translate(-10.331 -0.609)" fill="#ffd8bc"/>
          <path id="Path_46396" data-name="Path 46396" d="M172.158,9.124a17.764,17.764,0,0,1-.359,4.794c-.538,1.726-2.974,2.346-4.816,7.3-.374,1.009-4.45,4.722-6.179,4.624a9.976,9.976,0,0,1-5.252-1.853c-.635-.565-2.393-1.65-1.563-9.042.259-2.315,4.989-13.384,5.894-13.591s12.671,2.115,12.276,7.768" transform="translate(-10.345 -0.09)" fill="#ffd8bc"/>
          <path id="Path_46397" data-name="Path 46397" d="M159.984,1.349s-1.024-.772-2.553,1.445c-1.046,1.518-1.89,7.738-1.938,8.184s-.191,1.315-.191,1.315a4.4,4.4,0,0,0,1.321-.944c.469-.557,1.119-4.294,3.124-6.026s3.364-2.3,2.405-3.368a2.02,2.02,0,0,0-2.168-.605" transform="translate(-10.447 -0.082)" fill="#4a3d6d"/>
          <path id="Path_46398" data-name="Path 46398" d="M171.013,2.727a10.943,10.943,0,0,0-9.1-2.548,3.237,3.237,0,0,0-2.267,2.4l1.678,1.035a2.382,2.382,0,0,0-1.279,1.628c-1.373,7.379,7.231,10.12,11.979,10.191a3.466,3.466,0,0,0,3.616-2.559s-1.885-7.455-4.624-10.144" transform="translate(-10.741 0)" fill="#4a3d6d"/>
          <path id="Path_46399" data-name="Path 46399" d="M156.824,8.948s3.17.506,4.647-1.516-1.663-3.5-2.017-3.342-2.63,4.858-2.63,4.858" transform="translate(-10.55 -0.274)" fill="#4a3d6d"/>
          <path id="Path_46400" data-name="Path 46400" d="M17.531,320.162h376.82s-3.148-21.578-22.735-20.646-10.653-23.043-35.327-45.82c-18.188-16.79-57.145-17.105-79.7,4.939S128.428,252.065,97.7,268.855,79.091,301.5,56.705,298.7,19.4,308.978,17.531,320.162" transform="translate(-1.179 -16.251)" fill="rgba(1,171,193,0.2)"/>
          <path id="Path_46401" data-name="Path 46401" d="M228.16,28.4v2.74s2.74,2.836,4.086,3.116a39.9,39.9,0,0,0,4.83.324s.557-1.347-.557-1.671-2.973-1-2.973-1l-.373-.765h10.633s0-.785-.554-1.017S238,28.452,237.309,28.36s-9.149.041-9.149.041" transform="translate(-15.35 -1.906)" fill="#ffd8bc"/>
          <path id="Path_46402" data-name="Path 46402" d="M130.975,335.989c0,3.42-21.533,6.2-48.1,6.2s-48.1-2.775-48.1-6.2,21.533-6.2,48.1-6.2,48.1,2.775,48.1,6.2" transform="translate(-2.34 -22.185)" fill="rgba(1,171,193,0.2)"/>
          <path id="Path_46403" data-name="Path 46403" d="M387.755,335.989c0,3.42-21.534,6.2-48.1,6.2s-48.1-2.775-48.1-6.2,21.535-6.2,48.1-6.2,48.1,2.775,48.1,6.2" transform="translate(-19.616 -22.185)" fill="rgba(1,171,193,0.2)"/>
          <path id="Path_46404" data-name="Path 46404" d="M353.193,15.884a9.166,9.166,0,1,1-9.168-9.165,9.167,9.167,0,0,1,9.168,9.165" transform="translate(-22.529 -0.452)" fill="#ffcc26"/>
          <path id="Path_46405" data-name="Path 46405" d="M376.267,27.054A12.465,12.465,0,0,0,366.8,31.4,20.321,20.321,0,0,0,339.922,20.98,23.884,23.884,0,0,0,295.9,31.293a12.5,12.5,0,0,0-20.956,3.544H387.854a12.519,12.519,0,0,0-11.587-7.783" transform="translate(-18.496 -0.656)" fill="#76c8ce"/>
          <path id="Path_46406" data-name="Path 46406" d="M303.405,305.6V54.747a1.868,1.868,0,0,0-1.868-1.868H116.547a1.867,1.867,0,0,0-1.866,1.868V305.6a1.867,1.867,0,0,0,1.866,1.867h184.99a1.867,1.867,0,0,0,1.868-1.867" transform="translate(-7.715 -3.558)" fill="#01abc1"/>
          <rect id="Rectangle_151806" data-name="Rectangle 151806" width="167.815" height="233.679" transform="translate(118.519 60.875)" fill="#8d81e3"/>
          <rect id="Rectangle_151807" data-name="Rectangle 151807" width="165.618" height="231.482" transform="translate(118.519 60.875)" fill="#fff"/>
          <path id="Path_46407" data-name="Path 46407" d="M246.464,51.419l-.307-1.558-.151-.737-.483-2.453-2.175-10.95c-.538-2.733-1.994-4.57-3.626-4.57H187.1c-1.632,0-3.088,1.838-3.639,4.57l-2.172,10.95-.485,2.453-.148.737-.31,1.558-.793,4h67.716ZM213.4,43.827a2.952,2.952,0,1,1,2.956-2.947,2.946,2.946,0,0,1-2.956,2.947" transform="translate(-12.08 -2.096)" fill="#01abc1"/>
          <path id="Path_46408" data-name="Path 46408" d="M246.521,52.715H180.4l.307-1.558.151-.736h65.207l.148.736Z" transform="translate(-12.136 -3.392)" fill="#76c8ce"/>
          <rect id="Rectangle_151808" data-name="Rectangle 151808" width="96.386" height="16.141" transform="translate(136.469 128.662)" fill="rgba(1,171,193,0.2)"/>
          <rect id="Rectangle_151809" data-name="Rectangle 151809" width="16.247" height="16.247" transform="translate(247.286 128.662)" fill="rgba(1,171,193,0.2)"/>
          <rect id="Rectangle_151810" data-name="Rectangle 151810" width="96.386" height="16.141" transform="translate(136.469 168.536)" fill="rgba(1,171,193,0.2)"/>
          <rect id="Rectangle_151811" data-name="Rectangle 151811" width="16.247" height="16.247" transform="translate(247.286 168.536)" fill="rgba(1,171,193,0.2)"/>
          <rect id="Rectangle_151812" data-name="Rectangle 151812" width="96.386" height="16.141" transform="translate(136.469 208.411)" fill="rgba(1,171,193,0.2)"/>
          <rect id="Rectangle_151813" data-name="Rectangle 151813" width="16.247" height="16.247" transform="translate(247.286 208.411)" fill="rgba(1,171,193,0.2)"/>
          <rect id="Rectangle_151814" data-name="Rectangle 151814" width="96.386" height="16.141" transform="translate(136.469 248.285)" fill="rgba(1,171,193,0.2)"/>
          <rect id="Rectangle_151815" data-name="Rectangle 151815" width="16.247" height="16.247" transform="translate(247.286 248.285)" fill="rgba(1,171,193,0.2)"/>
          <rect id="Rectangle_151816" data-name="Rectangle 151816" width="96.385" height="16.141" transform="translate(139.796 90.417) rotate(-10.95)" fill="rgba(1,171,193,0.2)"/>
          <path id="Path_46409" data-name="Path 46409" d="M145.7,34.018c-1.71-3.315-9.056-4.311-12.464,1.94-7.255,13.317-2.191,29.953,1.768,38.3C140.137,85.07,165.991,91.3,165.991,91.3s2.642-9.248,2.455-10S146.554,73.62,148.93,50.985A29.006,29.006,0,0,0,145.7,34.018" transform="translate(-8.717 -2.112)" fill="#4a3d6d"/>
          <path id="Path_46410" data-name="Path 46410" d="M169.189,93a16.082,16.082,0,0,0,4.185,1.9c2.36.661,7.549-.81,7.739-1.255s-.13-6.73-1.056-7.173S171.11,84.9,171.11,84.9Z" transform="translate(-11.383 -5.712)" fill="#ffd8bc"/>
          <path id="Path_46411" data-name="Path 46411" d="M367.015,289.085h-51.93a2.793,2.793,0,1,1,0-5.587h51.93a2.793,2.793,0,0,1,0,5.587" transform="translate(-21.011 -19.071)" fill="#4b7e31"/>
          <rect id="Rectangle_151817" data-name="Rectangle 151817" width="5.363" height="41.349" transform="translate(299.9 270.012)" fill="#4a3d6d"/>
          <rect id="Rectangle_151818" data-name="Rectangle 151818" width="5.363" height="41.349" transform="translate(335.11 270.012)" fill="#4a3d6d"/>
          <path id="Path_46412" data-name="Path 46412" d="M39.212,208.765s3.965,3.87,7.236,4.064,6.344-2.638,6.344-2.638l-4.857-4.1Z" transform="translate(-2.638 -13.865)" fill="#ffbf9d"/>
          <path id="Path_46413" data-name="Path 46413" d="M98.171,321.779c-1.214-.093-1.468.908-5.139-.233a1.036,1.036,0,0,1-.191-.055s-9.992-51.818-16.651-76.158c-2.6,27.406-6.308,76.158-6.308,76.158a.9.9,0,0,1-.182.055c-3.672,1.141-3.934.14-5.146.233-.588.041-7.342-54.64-4.177-91.11l31.2-1.3c5,36.443,7.224,92.454,6.6,92.413" transform="translate(-4.006 -15.43)" fill="#4a3d6d"/>
          <path id="Path_46414" data-name="Path 46414" d="M95.326,326.777a32.058,32.058,0,0,0,.24,5.94c.413,1.426,3.72,1.626,4.64,2.035a23.9,23.9,0,0,0,7.816,1.964c1.375.159,1.558-.828-.093-1.667a15.482,15.482,0,0,1-7.25-7.539Z" transform="translate(-6.411 -21.983)" fill="#321707"/>
          <path id="Path_46415" data-name="Path 46415" d="M69.638,326.777a32.2,32.2,0,0,1-.241,5.94c-.413,1.426-3.72,1.626-4.642,2.035a23.884,23.884,0,0,1-7.815,1.964c-1.375.159-1.559-.828.092-1.667a15.485,15.485,0,0,0,7.252-7.539Z" transform="translate(-3.758 -21.983)" fill="#321707"/>
          <path id="Path_46416" data-name="Path 46416" d="M94.386,223.306c-.063,1.156-1.023,1.816-2.141,2.147-4.02,1.19-15.835,2.228-24.3,2.379-5.21.1-9.151-.141-9.223-.879-.46-4.773-1.015-9.715-1.61-14.641-2.926-24.1-7.009-47.992-4.869-49.2,9.385-5.285,21.146-4.712,31.418-3.671,4.053.407,8.922,11.8,8.658,23.356-.333,14.568,2.5,32.136,2.064,40.507" transform="translate(-3.475 -10.68)" fill="#e4e0ff"/>
          <path id="Path_46417" data-name="Path 46417" d="M68.471,148.62s-.839.218-1.2-.171-.658-5.39-.272-5.729a1.344,1.344,0,0,1,1.847.093c.583.649-.378,5.807-.378,5.807" transform="translate(-4.495 -9.58)" fill="#ffd8bc"/>
          <path id="Path_46418" data-name="Path 46418" d="M72.294,162.8a6.077,6.077,0,0,1-2.546-1.706,1.8,1.8,0,0,1-.464-1.418l.939-8.44,10.516-.671.178,9.425c-1.489,2.954-5.729,3.716-8.624,2.81" transform="translate(-4.66 -10.13)" fill="#ffc09c"/>
          <path id="Path_46419" data-name="Path 46419" d="M84.553,137.306s1.217,1.644.063,4.724c-1.8,4.808-.315,3.7-1.571,9.013-.261,1.1-2.478,5.277-4.4,6.372-2.258,1.286-5.436.277-6.246-.1s-2.909-.928-4.332-8.609c-.445-2.408.928-14.978,1.774-15.461s13.381-1.743,14.712,4.058" transform="translate(-4.574 -8.934)" fill="#ffd8bc"/>
          <path id="Path_46420" data-name="Path 46420" d="M69.86,133.253s-1.085-.1-1.26,1.832-.4,8.754-.316,9.216a9.009,9.009,0,0,1,.049,1.429,1.039,1.039,0,0,0,.9-.7c.3-.7.113-5.362,1.6-7.715s2.679-3.334,1.389-4.119a2.124,2.124,0,0,0-2.363.053" transform="translate(-4.593 -8.938)" fill="#4a3d6d"/>
          <path id="Path_46421" data-name="Path 46421" d="M7.586,192.81l6.635-18.71L103.2,206l-6.635,18.71Z" transform="translate(-0.51 -11.712)" fill="#65a743"/>
          <path id="Path_46422" data-name="Path 46422" d="M9.6,187.891l2.876-8.11,88.984,31.9-2.876,8.11Z" transform="translate(-0.646 -12.094)" fill="#7cc159"/>
          <path id="Path_46423" data-name="Path 46423" d="M102.989,227.011l6.636-18.71,11.334,9.286,4.784,3.919,6.549,5.364-8.465.041-6.186.03Z" transform="translate(-6.929 -14.013)" fill="#ffbf9d"/>
          <path id="Path_46424" data-name="Path 46424" d="M125.328,227.865l1.917-5.406,6.549,5.364Z" transform="translate(-8.432 -14.966)" fill="#4a3d6d"/>
          <path id="Path_46425" data-name="Path 46425" d="M10.491,193.89,3.6,191.446a5.406,5.406,0,0,1-3.285-6.9l3.365-9.491c.032-.086.063-.171.1-.252a4.379,4.379,0,0,1,5.495-2.409l7.855,2.786-4.752,13.4Z" transform="translate(0 -11.581)" fill="#e4e0ff"/>
          <path id="Path_46426" data-name="Path 46426" d="M12.51,188.578l-6.884-2.439a5.406,5.406,0,0,1-3.286-6.9L3.913,174.8a4.382,4.382,0,0,1,5.494-2.411l7.855,2.786Z" transform="translate(-0.136 -11.581)" fill="#efedff"/>
          <path id="Path_46427" data-name="Path 46427" d="M50.378,163.43s-26.7,20.021-26.488,25.614,4.6,13.508,11.713,17.688c0,0,5.213,2.183,8.787-1.839,0,0-5.961-11.1-5.021-12.04,1.851-1.853,18.736-9.5,18.736-9.5s5.856-19.41-7.729-19.925" transform="translate(-1.607 -10.995)" fill="#e4e0ff"/>
          <path id="Path_46428" data-name="Path 46428" d="M69.96,135.915s.26,5.463,4.431,3.427a2.942,2.942,0,0,1,3.7.938c1.635,2.328,2.725,3.613,4.9,2.077s1.419,2.042,4.213.668c1.778-.874,1.38-2.7.29-3.811a1.549,1.549,0,0,1-.418-1.205c.123-1.717.022-5.715-3.491-6.356a3.63,3.63,0,0,0-1.4.016,2.549,2.549,0,0,1-2.625-.959,6.259,6.259,0,0,0-7.172-2.349c-8.612,2.263-5.047,12.18-4.207,15.62.564,2.309,1.779-8.067,1.779-8.067" transform="translate(-4.49 -8.616)" fill="#4a3d6d"/>
          <path id="Path_46429" data-name="Path 46429" d="M335.71,117.273s-3.87,9.717.206,13.713,11.327-1.023,11.938-1.637-12.144-12.075-12.144-12.075" transform="translate(-22.472 -7.889)" fill="#ffd8bc"/>
          <path id="Path_46430" data-name="Path 46430" d="M334.574,192.084s-14.28-3.384-13.91.513c3.675,38.316,8.06,84.459,8.516,84.769,1.665,1.13,3.327-.483,3.384-.507,0,0,5.981-74.1,2.01-84.775" transform="translate(-21.574 -12.831)" fill="#ffbf9d"/>
          <path id="Path_46431" data-name="Path 46431" d="M355.552,194.2s-13.57-5.6-13.814-1.692c-2.422,38.417-5.378,84.673-4.978,85.049,1.462,1.379,3.36.049,3.42.036,0,0,17.61-72.228,15.372-83.393" transform="translate(-22.655 -12.859)" fill="#ffbf9d"/>
          <path id="Path_46432" data-name="Path 46432" d="M353,139.193a51.242,51.242,0,0,0-8.817-3.128c.392-.25-10.306.437-9.341.222a41.756,41.756,0,0,0-9.237,3.574c-1.286.677,1.72,2.061,1.9,3.5l6.686,30.019-10.6,8.974c0,1.264,2.062,2.291,3.689,2.287l7.526-.015c2.7-.226,4.089-1.326,4.591-2.4a5.809,5.809,0,0,0,4.221,1.8h7.526c1.624,0,.645,3.439.645,2.178l-5.68-13.035,7.4-28.727c.324-2.009,1.347-4.391-.5-5.251" transform="translate(-21.77 -9.15)" fill="#65a743"/>
          <path id="Path_46433" data-name="Path 46433" d="M328.259,151.8s-9.039,24.225-28.953,69.557c0,0,24.214,21.089,70.135,6.467,0,0-6.083-41.253-22.393-61.665Z" transform="translate(-20.138 -10.212)" fill="#65a743"/>
          <path id="Path_46434" data-name="Path 46434" d="M291.175,119.967c-2.186-4.06-10.644-3.31-10.644-3.992s.137-1.364.957-1.5,13.233-.546,13.644,0a22.744,22.744,0,0,1,1.273,3.438s-4.564,3.292-5.23,2.056" transform="translate(-18.872 -7.682)" fill="#ffd8bc"/>
          <path id="Path_46435" data-name="Path 46435" d="M342.7,108.108s-11.428,1.842-6.516,13.711c5.129,12.389,4.561,14.68,1.536,25.484-2.485,8.869-3.639,19.166,5.831,22.616,9.552,3.48,27.7-5.835,23.325-22.231-2.855-10.721-4.767-8.465-6.95-17.691-1.445-6.115-.3-10.633-3.228-15.814-2.688-4.758-7.109-7.3-14-6.076" transform="translate(-22.533 -7.252)" fill="#4a3d6d"/>
          <path id="Path_46436" data-name="Path 46436" d="M328.671,280.253s-8.337,1.563-8.543,2.323l-.208.757h13.548s.34-.417,0-1.988-.548-1.906-.82-1.906-3.977.815-3.977.815" transform="translate(-21.521 -18.799)" fill="#383266"/>
          <path id="Path_46437" data-name="Path 46437" d="M336.879,280.253s-8.343,1.563-8.546,2.323l-.2.757h13.543s.337-.417,0-1.988-.546-1.906-.82-1.906-3.974.815-3.974.815" transform="translate(-22.076 -18.799)" fill="#383266"/>
          <path id="Path_46438" data-name="Path 46438" d="M327.76,149.507s-24.195-2.456-26.734-5.116-9.7-24.219-9.086-24.187,6.365-2.832,6.867-2.422,7.871,19.239,10.734,19.649,22.516-2.2,22.516-2.2Z" transform="translate(-19.637 -7.921)" fill="#65a743"/>
          <rect id="Rectangle_151819" data-name="Rectangle 151819" width="16.247" height="16.247" transform="translate(260.645 90.039)" fill="rgba(1,171,193,0.2)"/>
        </g>
      </g>
    </g>
  </g>
</svg>
