<svg xmlns="http://www.w3.org/2000/svg" xmlns:xlink="http://www.w3.org/1999/xlink" width="543.465" height="405" viewBox="0 0 543.465 405">
  <defs>
    <clipPath id="clip-path">
      <rect id="Rectangle_151860" data-name="Rectangle 151860" width="543.465" height="405" fill="none"/>
    </clipPath>
    <clipPath id="clip-path-3">
      <rect id="Rectangle_151846" data-name="Rectangle 151846" width="19.318" height="25.966" fill="none"/>
    </clipPath>
    <clipPath id="clip-path-4">
      <rect id="Rectangle_151847" data-name="Rectangle 151847" width="6.275" height="21.057" fill="none"/>
    </clipPath>
    <clipPath id="clip-path-5">
      <rect id="Rectangle_151848" data-name="Rectangle 151848" width="10.169" height="11.732" fill="none"/>
    </clipPath>
    <clipPath id="clip-path-6">
      <rect id="Rectangle_151849" data-name="Rectangle 151849" width="16.334" height="14.25" fill="none"/>
    </clipPath>
    <clipPath id="clip-path-7">
      <rect id="Rectangle_151850" data-name="Rectangle 151850" width="52.859" height="62.165" fill="none"/>
    </clipPath>
    <clipPath id="clip-path-8">
      <rect id="Rectangle_151851" data-name="Rectangle 151851" width="6.791" height="8.836" fill="none"/>
    </clipPath>
    <clipPath id="clip-path-9">
      <rect id="Rectangle_151852" data-name="Rectangle 151852" width="13.367" height="73.77" fill="none"/>
    </clipPath>
    <clipPath id="clip-path-10">
      <rect id="Rectangle_151853" data-name="Rectangle 151853" width="19.805" height="26.299" fill="none"/>
    </clipPath>
    <clipPath id="clip-path-11">
      <rect id="Rectangle_151854" data-name="Rectangle 151854" width="42.808" height="4.434" fill="none"/>
    </clipPath>
    <clipPath id="clip-path-12">
      <rect id="Rectangle_151855" data-name="Rectangle 151855" width="199.847" height="199.836" fill="none"/>
    </clipPath>
    <clipPath id="clip-path-13">
      <rect id="Rectangle_151856" data-name="Rectangle 151856" width="101.477" height="179.604" fill="none"/>
    </clipPath>
    <clipPath id="clip-path-14">
      <rect id="Rectangle_151857" data-name="Rectangle 151857" width="117.79" height="192.918" fill="none"/>
    </clipPath>
    <clipPath id="clip-path-15">
      <rect id="Rectangle_151858" data-name="Rectangle 151858" width="328.801" height="199.943" fill="none"/>
    </clipPath>
  </defs>
  <g id="Group_172622" data-name="Group 172622" opacity="0.8">
    <g id="Group_172621" data-name="Group 172621" clip-path="url(#clip-path)">
      <rect id="Rectangle_151821" data-name="Rectangle 151821" width="543.465" height="0.272" transform="translate(0 355.911)" fill="#ebebeb"/>
      <rect id="Rectangle_151822" data-name="Rectangle 151822" width="36.001" height="0.272" transform="translate(453.01 373.406)" fill="#ebebeb"/>
      <rect id="Rectangle_151823" data-name="Rectangle 151823" width="76.962" height="0.272" transform="translate(362.362 373.406)" fill="#ebebeb"/>
      <rect id="Rectangle_151824" data-name="Rectangle 151824" width="20.861" height="0.272" transform="translate(299.059 363.313)" fill="#ebebeb"/>
      <rect id="Rectangle_151825" data-name="Rectangle 151825" width="37.271" height="0.272" transform="translate(57.019 365.139)" fill="#ebebeb"/>
      <rect id="Rectangle_151826" data-name="Rectangle 151826" width="67.768" height="0.272" transform="translate(103.967 365.139)" fill="#ebebeb"/>
      <rect id="Rectangle_151827" data-name="Rectangle 151827" width="40.014" height="0.271" transform="translate(204.705 369.729)" fill="#ebebeb"/>
      <g id="Group_172620" data-name="Group 172620">
        <g id="Group_172619" data-name="Group 172619" clip-path="url(#clip-path)">
          <path id="Path_46439" data-name="Path 46439" d="M254.3,307.435H44.411a6.211,6.211,0,0,1-6.2-6.2V6.2a6.212,6.212,0,0,1,6.2-6.2H254.3a6.212,6.212,0,0,1,6.2,6.2V301.231a6.211,6.211,0,0,1-6.2,6.2M44.411.272A5.939,5.939,0,0,0,38.479,6.2V301.231a5.939,5.939,0,0,0,5.932,5.932H254.3a5.939,5.939,0,0,0,5.931-5.932V6.2A5.939,5.939,0,0,0,254.3.272Z" transform="translate(3.321)" fill="#ebebeb"/>
          <path id="Path_46440" data-name="Path 46440" d="M470.593,307.435H260.708a6.21,6.21,0,0,1-6.2-6.2V6.2a6.211,6.211,0,0,1,6.2-6.2H470.593a6.212,6.212,0,0,1,6.2,6.2V301.231a6.211,6.211,0,0,1-6.2,6.2M260.708.272A5.938,5.938,0,0,0,254.777,6.2V301.231a5.938,5.938,0,0,0,5.931,5.932H470.593a5.939,5.939,0,0,0,5.932-5.932V6.2A5.939,5.939,0,0,0,470.593.272Z" transform="translate(22.124)" fill="#ebebeb"/>
          <rect id="Rectangle_151828" data-name="Rectangle 151828" width="147.495" height="127.791" transform="translate(82.425 22.498)" fill="#e6e6e6"/>
          <rect id="Rectangle_151829" data-name="Rectangle 151829" width="147.495" height="127.791" transform="translate(79.148 22.498)" fill="#f5f5f5"/>
          <rect id="Rectangle_151830" data-name="Rectangle 151830" width="135.728" height="118.658" transform="translate(85.032 27.065)" fill="#fafafa"/>
          <path id="Path_46441" data-name="Path 46441" d="M157.136,143.558,181.726,24.9H130.28L105.689,143.558Z" transform="translate(9.188 2.165)" fill="#fff"/>
          <rect id="Rectangle_151831" data-name="Rectangle 151831" width="2.478" height="118.658" transform="translate(85.031 27.065)" fill="#e6e6e6"/>
          <rect id="Rectangle_151832" data-name="Rectangle 151832" width="142.628" height="6.131" transform="translate(81.582 118.315)" fill="#f5f5f5"/>
          <rect id="Rectangle_151833" data-name="Rectangle 151833" width="23.552" height="102.141" transform="translate(223.088 247.298)" fill="#f0f0f0"/>
          <rect id="Rectangle_151834" data-name="Rectangle 151834" width="172.856" height="6.472" transform="translate(69.262 349.439)" fill="#f0f0f0"/>
          <rect id="Rectangle_151835" data-name="Rectangle 151835" width="158.348" height="102.141" transform="translate(64.74 247.298)" fill="#f5f5f5"/>
          <rect id="Rectangle_151836" data-name="Rectangle 151836" width="139.829" height="33.499" transform="translate(73.999 259.869)" fill="#f0f0f0"/>
          <rect id="Rectangle_151837" data-name="Rectangle 151837" width="139.829" height="33.499" transform="translate(73.999 303.367)" fill="#f0f0f0"/>
          <path id="Path_46442" data-name="Path 46442" d="M97.916,256.976h75.372a2.3,2.3,0,0,0,0-4.594H97.916a2.3,2.3,0,0,0,0,4.594" transform="translate(8.312 21.94)" fill="#f5f5f5"/>
          <path id="Path_46443" data-name="Path 46443" d="M97.916,297h75.372a2.3,2.3,0,0,0,0-4.594H97.916a2.3,2.3,0,0,0,0,4.594" transform="translate(8.312 25.418)" fill="#f5f5f5"/>
          <path id="Path_46444" data-name="Path 46444" d="M432.9,85.186c13.413-3.7,18-28.031-15.9-37.964,7.476,24.471-7.49,44.409,15.9,37.964" transform="translate(36.25 4.105)" fill="#ebebeb"/>
          <path id="Path_46445" data-name="Path 46445" d="M437.353,94.2c10.569-11.428.572-37.268-37.512-26.711,21.546,18.853,19.084,46.636,37.512,26.711" transform="translate(34.758 5.651)" fill="#e0e0e0"/>
          <path id="Path_46446" data-name="Path 46446" d="M424.971,96.868c-8.851-8.762,3.826-39.247,33.043-25.119-16.556,15.829-17.612,40.394-33.043,25.119" transform="translate(36.702 5.917)" fill="#fafafa"/>
          <path id="Path_46447" data-name="Path 46447" d="M416.789,111.663h25.748l1.943-17.421H414.846Z" transform="translate(36.063 8.192)" fill="#e6e6e6"/>
          <path id="Path_46448" data-name="Path 46448" d="M414.733,97.414h30.215a1.922,1.922,0,1,0,0-3.844H414.733a1.922,1.922,0,1,0,0,3.844" transform="translate(35.886 8.134)" fill="#e6e6e6"/>
          <path id="Path_46449" data-name="Path 46449" d="M219.274,316.818h0V287.311h24.581V257.8h24.582V228.3h24.581V198.79H317.6V169.284h24.582V139.777h24.581V110.27H526.54V346.325H194.693V316.818Z" transform="translate(16.925 9.586)" fill="#fafafa"/>
          <path id="Path_46450" data-name="Path 46450" d="M343.659,316.818h0V287.311H368.24V257.8h24.582V228.3H417.4V198.79h24.581V169.284h24.582V139.777h24.581V110.27h24.581V346.325H319.078V316.818Z" transform="translate(27.738 9.586)" fill="#e0e0e0"/>
          <rect id="Rectangle_151838" data-name="Rectangle 151838" width="136.646" height="8.852" transform="translate(210.17 326.404)" fill="#ebebeb"/>
          <rect id="Rectangle_151839" data-name="Rectangle 151839" width="136.646" height="8.852" transform="translate(234.751 296.897)" fill="#ebebeb"/>
          <rect id="Rectangle_151840" data-name="Rectangle 151840" width="136.646" height="8.852" transform="translate(259.332 267.39)" fill="#ebebeb"/>
          <rect id="Rectangle_151841" data-name="Rectangle 151841" width="136.646" height="8.852" transform="translate(283.913 237.883)" fill="#ebebeb"/>
          <rect id="Rectangle_151842" data-name="Rectangle 151842" width="136.646" height="8.852" transform="translate(308.495 208.376)" fill="#ebebeb"/>
          <rect id="Rectangle_151843" data-name="Rectangle 151843" width="136.646" height="8.852" transform="translate(333.076 178.87)" fill="#ebebeb"/>
          <rect id="Rectangle_151844" data-name="Rectangle 151844" width="136.646" height="8.852" transform="translate(357.657 149.363)" fill="#ebebeb"/>
          <rect id="Rectangle_151845" data-name="Rectangle 151845" width="136.646" height="8.852" transform="translate(382.239 119.856)" fill="#ebebeb"/>
          <path id="Path_46451" data-name="Path 46451" d="M477.6,362.27c0,6.8-94.353,12.307-210.744,12.307S56.111,369.068,56.111,362.27s94.353-12.307,210.744-12.307S477.6,355.474,477.6,362.27" transform="translate(4.878 30.422)" fill="#f5f5f5"/>
          <path id="Path_46452" data-name="Path 46452" d="M337.943,103.722c-.187,3.258-.568,6.252-.993,9.352-.427,3.075-1,6.126-1.658,9.169a101.993,101.993,0,0,1-5.488,18.014l-.982,2.192-.246.547-.123.274c-.04.088-.073.166-.167.348a8.643,8.643,0,0,1-1.254,1.886,7.317,7.317,0,0,1-2.08,1.643,7.215,7.215,0,0,1-2.483.78,9.376,9.376,0,0,1-3.947-.411,19.242,19.242,0,0,1-5.042-2.6,43.024,43.024,0,0,1-3.863-3.1,89.9,89.9,0,0,1-12.282-14.061l3.608-3.049c2.116,2.009,4.327,4.037,6.534,5.964a86.48,86.48,0,0,0,6.765,5.431,35.217,35.217,0,0,0,3.431,2.222,11.666,11.666,0,0,0,3.066,1.309c.377.078.636.034.516.008a1.183,1.183,0,0,0-.692.307c-.063.057-.065.051-.048-.015l.349-.909.76-1.975a116.514,116.514,0,0,0,4.405-16.691c.571-2.853.976-5.748,1.406-8.632.412-2.863.742-5.852.991-8.6Z" transform="translate(25.847 8.965)" fill="#ffc3bd"/>
          <path id="Path_46453" data-name="Path 46453" d="M329.189,92.723c-4.051,1.031-6.885,17.7-6.885,17.7l11.163,7.592s10.7-16.817,7.587-21.271c-3.246-4.638-5.954-5.527-11.865-4.022" transform="translate(28.018 8.002)" fill="#407bff"/>
          <path id="Path_46454" data-name="Path 46454" d="M329.189,92.723c-4.051,1.031-6.885,17.7-6.885,17.7l11.163,7.592s10.7-16.817,7.587-21.271c-3.246-4.638-5.954-5.527-11.865-4.022" transform="translate(28.018 8.002)" fill="#01abc1"/>
          <g id="Group_172582" data-name="Group 172582" transform="translate(350.322 100.052)" opacity="0.4">
            <g id="Group_172581" data-name="Group 172581">
              <g id="Group_172580" data-name="Group 172580" clip-path="url(#clip-path-3)">
                <path id="Path_46455" data-name="Path 46455" d="M329.189,92.723c-4.051,1.031-6.885,17.7-6.885,17.7l11.163,7.592s10.7-16.817,7.587-21.271c-3.246-4.638-5.954-5.527-11.865-4.022" transform="translate(-322.304 -92.05)"/>
              </g>
            </g>
          </g>
          <g id="Group_172585" data-name="Group 172585" transform="translate(354.46 104.447)" opacity="0.3">
            <g id="Group_172584" data-name="Group 172584">
              <g id="Group_172583" data-name="Group 172583" clip-path="url(#clip-path-4)">
                <path id="Path_46456" data-name="Path 46456" d="M329.223,96.094l-3.112,16.8,6.274,4.254Z" transform="translate(-326.111 -96.094)"/>
              </g>
            </g>
          </g>
          <path id="Path_46457" data-name="Path 46457" d="M301.512,123l-5.31-8.387-3.012,9.53s4.355,4.568,8.293,3.479Z" transform="translate(25.487 9.964)" fill="#ffc3bd"/>
          <path id="Path_46458" data-name="Path 46458" d="M288.967,112.065l-2.089,8.115,6.862,4.189,3.011-9.53Z" transform="translate(24.938 9.742)" fill="#ffc3bd"/>
          <path id="Path_46459" data-name="Path 46459" d="M349.64,352.623h-9.828l-.657-22.76h9.828Z" transform="translate(29.483 28.675)" fill="#ffc3bd"/>
          <path id="Path_46460" data-name="Path 46460" d="M430.564,310.025l-7.491,6.363-17.143-15.3,7.491-6.364Z" transform="translate(35.288 25.62)" fill="#ffc3bd"/>
          <path id="Path_46461" data-name="Path 46461" d="M420.111,314.64l7.265-8.315a.778.778,0,0,1,1.022-.15l7.406,4.8a1.579,1.579,0,0,1,.279,2.337c-2.583,2.855-3.973,4.1-7.168,7.761-1.965,2.249-4.6,5.74-7.317,8.847-2.654,3.039-5.931.589-5.079-.948,3.821-6.89,2.9-9.31,2.966-12.7a2.565,2.565,0,0,1,.626-1.635" transform="translate(36.196 26.605)" fill="#263238"/>
          <path id="Path_46462" data-name="Path 46462" d="M340.725,349.756h11.042a.778.778,0,0,1,.784.672l1.259,8.736a1.579,1.579,0,0,1-1.576,1.748c-3.85-.066-5.7-.292-10.561-.292-2.987,0-9.166.311-13.292.311-4.035,0-4.344-4.079-2.627-4.449,7.7-1.656,10.733-3.941,13.329-6.12a2.561,2.561,0,0,1,1.642-.6" transform="translate(28.232 30.404)" fill="#263238"/>
          <g id="Group_172588" data-name="Group 172588" transform="translate(368.64 358.544)" opacity="0.2">
            <g id="Group_172587" data-name="Group 172587">
              <g id="Group_172586" data-name="Group 172586" clip-path="url(#clip-path-5)">
                <path id="Path_46463" data-name="Path 46463" d="M339.157,329.868l.337,11.732h9.832l-.337-11.732Z" transform="translate(-339.157 -329.868)"/>
              </g>
            </g>
          </g>
          <g id="Group_172591" data-name="Group 172591" transform="translate(441.221 320.346)" opacity="0.2">
            <g id="Group_172590" data-name="Group 172590">
              <g id="Group_172589" data-name="Group 172589" clip-path="url(#clip-path-6)">
                <path id="Path_46464" data-name="Path 46464" d="M413.426,294.726l-7.494,6.366,8.841,7.883,7.493-6.366Z" transform="translate(-405.933 -294.726)"/>
              </g>
            </g>
          </g>
          <path id="Path_46465" data-name="Path 46465" d="M328.732,92.9s-4.683,1.649,4.7,59.319h39.917c-.67-16.245-.689-26.263,7.076-59.6a117.827,117.827,0,0,0-16.951-2.234,126.909,126.909,0,0,0-18.126,0c-7.786.71-16.614,2.517-16.614,2.517" transform="translate(28.475 7.828)" fill="#01abc1"/>
          <g id="Group_172594" data-name="Group 172594" transform="translate(356.038 97.879)" opacity="0.4">
            <g id="Group_172593" data-name="Group 172593">
              <g id="Group_172592" data-name="Group 172592" clip-path="url(#clip-path-7)">
                <path id="Path_46466" data-name="Path 46466" d="M328.732,92.9s-4.683,1.649,4.7,59.319h39.917c-.67-16.245-.689-26.263,7.076-59.6a117.827,117.827,0,0,0-16.951-2.234,126.909,126.909,0,0,0-18.126,0c-7.786.71-16.614,2.517-16.614,2.517" transform="translate(-327.563 -90.051)"/>
              </g>
            </g>
          </g>
          <path id="Path_46467" data-name="Path 46467" d="M362.353,90.373a127.547,127.547,0,0,0-18.13.011c-.978.087-1.978.2-2.967.315a4.831,4.831,0,0,0-.543,4.239c1.272,3.163,5.859,3.533,9.206,3.533,12.358,0,14.445-7.217,14.532-7.522l.12-.435c-.739-.054-1.478-.109-2.217-.141" transform="translate(29.594 7.828)" fill="#fff"/>
          <path id="Path_46468" data-name="Path 46468" d="M360.383,71.575c-1.143,5.832-2.285,16.518,1.8,20.409,0,0-1.595,5.916-12.43,5.916-11.916,0-5.7-5.915-5.7-5.915,6.5-1.553,6.336-6.378,5.2-10.91Z" transform="translate(29.767 6.222)" fill="#ffc3bd"/>
          <g id="Group_172597" data-name="Group 172597" transform="translate(379.028 81.674)" opacity="0.2">
            <g id="Group_172596" data-name="Group 172596">
              <g id="Group_172595" data-name="Group 172595" clip-path="url(#clip-path-8)">
                <path id="Path_46469" data-name="Path 46469" d="M355.3,75.142l-6.586,5.618a18.634,18.634,0,0,1,.559,3.218c2.485-.36,5.9-3.087,6.162-5.688a8.724,8.724,0,0,0-.135-3.149" transform="translate(-348.714 -75.142)"/>
              </g>
            </g>
          </g>
          <path id="Path_46470" data-name="Path 46470" d="M352.772,44.924c-1.012-3.416-1.884-8.815,4.223-11.2-2.376-2.912-2.958-8.391-.038-11.646s7.389-2.051,7.389-2.051,1.3-7.945,10.965-6.555,5.359,7.788,5.359,7.788,13.187-2.612,14.067,9.811-6.69,10.89-6.69,10.89,5.883,4.93,2.626,10.355-10.8,3.555-10.8,3.555-3.542,9.583-11.888,4.13-15.217-15.077-15.217-15.077" transform="translate(30.604 1.157)" fill="#263238"/>
          <path id="Path_46471" data-name="Path 46471" d="M334.847,49.541c-3.268,4.21-1.825,8.988,1.057,10.829,7.012,4.478,17.151-14.294,14.515-16.545s-12.3,1.506-15.571,5.716" transform="translate(28.946 3.751)" fill="#263238"/>
          <path id="Path_46472" data-name="Path 46472" d="M362.69,39.868c-4.612-1.859-9.28.083-10.741,2.891-3.556,6.835,12.586,19.153,17.26,10.605,2.776-5.075-1.766-11.58-6.519-13.5" transform="translate(30.551 3.402)" fill="#01abc1"/>
          <path id="Path_46473" data-name="Path 46473" d="M362.17,60.062c.334,9.749.684,13.868-3.735,19.311-6.645,8.189-18.693,6.466-21.932-2.986-2.916-8.508-2.973-23.021,6.144-27.787A13.3,13.3,0,0,1,362.17,60.062" transform="translate(29.101 4.088)" fill="#ffc3bd"/>
          <path id="Path_46474" data-name="Path 46474" d="M360.631,65.767c-4.315-1.615-5.44-6.7-4.73-8.648-2.156-.091-6.931-.867-8.718-3.567-3.39,2.131-10.553,4.34-11.333.734s10.042-12.929,18.213-13.643c9.713-.848,19.307,8.706,16.829,17.84s-10.26,7.285-10.26,7.285" transform="translate(29.192 3.528)" fill="#263238"/>
          <path id="Path_46475" data-name="Path 46475" d="M333.531,147.244s-7.752,75.71-7.109,105.682C327.093,284.1,338.516,355.2,338.516,355.2h13.29s-2.1-69.28-.928-99.9c1.28-33.377,11.883-108.062,11.883-108.062Z" transform="translate(28.373 12.8)" fill="#263238"/>
          <path id="Path_46476" data-name="Path 46476" d="M352.172,339.457H336.579l-1.145-4.974,17.463-.609Z" transform="translate(29.159 29.024)" fill="#407bff"/>
          <g id="Group_172600" data-name="Group 172600" transform="translate(374.365 174.199)" opacity="0.2">
            <g id="Group_172599" data-name="Group 172599">
              <g id="Group_172598" data-name="Group 172598" clip-path="url(#clip-path-9)">
                <path id="Path_46477" data-name="Path 46477" d="M349.18,164.95c-9.8,19.722-1.968,55.7,1.5,69.087,1.778-20.1,4.775-44.678,7.112-62.725-1.486-10.211-4.089-15.456-8.611-6.363" transform="translate(-344.424 -160.267)"/>
              </g>
            </g>
          </g>
          <path id="Path_46478" data-name="Path 46478" d="M342.658,147.244s9.042,78.71,15.87,103.98c8.107,30,58.466,70.377,58.466,70.377l10.215-8.677s-36.5-43.86-42.7-59.665c-13.229-33.732-1.905-84-12.478-106.015Z" transform="translate(29.787 12.8)" fill="#263238"/>
          <path id="Path_46479" data-name="Path 46479" d="M423.339,299.677l-12.673,10.764-4.734-2.837,14.336-13.334Z" transform="translate(35.288 25.581)" fill="#01abc1"/>
          <path id="Path_46480" data-name="Path 46480" d="M346.843,62.916c.075.789-.282,1.47-.8,1.518s-1-.55-1.073-1.339.282-1.47.8-1.518.995.55,1.072,1.339" transform="translate(29.988 5.353)" fill="#263238"/>
          <path id="Path_46481" data-name="Path 46481" d="M338.636,63.7c.076.789-.282,1.47-.8,1.518s-1-.55-1.072-1.339.282-1.47.8-1.518.995.55,1.071,1.339" transform="translate(29.274 5.421)" fill="#263238"/>
          <path id="Path_46482" data-name="Path 46482" d="M337.87,62.413l-1.948-.364s1.114,1.387,1.948.364" transform="translate(29.202 5.394)" fill="#263238"/>
          <path id="Path_46483" data-name="Path 46483" d="M340.961,64.635a21.161,21.161,0,0,1-2.33,5.306,3.408,3.408,0,0,0,2.864.258Z" transform="translate(29.437 5.619)" fill="#ed847e"/>
          <path id="Path_46484" data-name="Path 46484" d="M345.427,72.41a7.606,7.606,0,0,1-1.313.241.233.233,0,0,1-.043-.464,6.271,6.271,0,0,0,4.862-2.931.233.233,0,0,1,.413.215,6.5,6.5,0,0,1-3.918,2.939" transform="translate(29.892 6.01)" fill="#263238"/>
          <path id="Path_46485" data-name="Path 46485" d="M362.644,65.565A7.133,7.133,0,0,1,359.95,70.3c-1.985,1.52-3.9-.033-4.126-2.39-.2-2.123.589-5.471,2.954-6.065a3.2,3.2,0,0,1,3.865,3.723" transform="translate(30.929 5.367)" fill="#ffc3bd"/>
          <path id="Path_46486" data-name="Path 46486" d="M347.921,57.789a.47.47,0,0,1-.364-.049,3.705,3.705,0,0,0-3.347-.329.466.466,0,0,1-.408-.838,4.619,4.619,0,0,1,4.234.368.465.465,0,0,1-.115.848" transform="translate(29.864 4.888)" fill="#263238"/>
          <path id="Path_46487" data-name="Path 46487" d="M334.518,60.41a.465.465,0,0,1-.535-.668,4.618,4.618,0,0,1,3.446-2.487.466.466,0,0,1,.082.928,3.681,3.681,0,0,0-2.706,2,.465.465,0,0,1-.286.228" transform="translate(29.028 4.977)" fill="#263238"/>
          <path id="Path_46488" data-name="Path 46488" d="M381.031,102.162a156.127,156.127,0,0,1,5.723,16.588,103.386,103.386,0,0,1,3.606,17.433c.186,1.5.238,3.071.312,4.621l.007.146v.242l-.014.5c-.023.315-.051.636-.1.921a11.77,11.77,0,0,1-.366,1.612,16.1,16.1,0,0,1-1.071,2.616,38.187,38.187,0,0,1-5.507,7.707,93.547,93.547,0,0,1-13.011,11.874l-3.185-3.488c3.623-4.223,7.28-8.565,10.37-13a35.878,35.878,0,0,0,3.809-6.566,9.424,9.424,0,0,0,.429-1.378,2.614,2.614,0,0,0,.061-.478.9.9,0,0,0,0-.142c0-.017-.01-.021-.011-.032l-.016-.146c-.141-1.288-.243-2.563-.485-3.88a119.806,119.806,0,0,0-3.9-15.862c-1.665-5.256-3.522-10.6-5.477-15.68Z" transform="translate(31.94 8.881)" fill="#ffc3bd"/>
          <path id="Path_46489" data-name="Path 46489" d="M377.074,92.425c4,1.216,8.8,14.987,8.8,14.987L370.361,118.5s-5.659-11.5-3.978-16.665c1.75-5.384,6.127-10.8,10.691-9.415" transform="translate(31.823 8.015)" fill="#01abc1"/>
          <g id="Group_172603" data-name="Group 172603" transform="translate(397.894 100.22)" opacity="0.4">
            <g id="Group_172602" data-name="Group 172602">
              <g id="Group_172601" data-name="Group 172601" clip-path="url(#clip-path-10)">
                <path id="Path_46490" data-name="Path 46490" d="M377.074,92.425c4,1.216,8.8,14.987,8.8,14.987L370.361,118.5s-5.659-11.5-3.978-16.665c1.75-5.384,6.127-10.8,10.691-9.415" transform="translate(-366.071 -92.205)"/>
              </g>
            </g>
          </g>
          <path id="Path_46491" data-name="Path 46491" d="M417.444,318.607a1.359,1.359,0,0,1-1.039-.531.794.794,0,0,1-.188-.779c.363-1.2,3.778-2.181,4.166-2.289a.232.232,0,0,1,.267.333c-.61,1.156-1.82,3.117-3.06,3.26a1.327,1.327,0,0,1-.147.008m2.523-2.99c-1.354.432-3.113,1.183-3.3,1.814a.33.33,0,0,0,.095.34.88.88,0,0,0,.78.365c.67-.076,1.56-1.006,2.428-2.52" transform="translate(36.179 27.383)" fill="#01abc1"/>
          <path id="Path_46492" data-name="Path 46492" d="M418.911,315.793c-1.133,0-2.406-.228-2.843-.8a.813.813,0,0,1,.026-1.017,1.212,1.212,0,0,1,.883-.537c1.41-.18,3.555,1.67,3.647,1.749a.232.232,0,0,1-.077.395,5.443,5.443,0,0,1-1.635.207m-1.726-1.9a1.1,1.1,0,0,0-.149.01.754.754,0,0,0-.557.337c-.168.248-.111.383-.043.472.421.546,2.353.754,3.529.542a5.865,5.865,0,0,0-2.78-1.361" transform="translate(36.155 27.247)" fill="#01abc1"/>
          <path id="Path_46493" data-name="Path 46493" d="M336.279,351.535a3.684,3.684,0,0,1-2.383-.605,1.287,1.287,0,0,1-.421-1.133.747.747,0,0,1,.395-.62c1.2-.661,5.122,1.341,5.564,1.572a.231.231,0,0,1,.124.239.235.235,0,0,1-.186.2,16.792,16.792,0,0,1-3.093.351m-1.751-2.034a.919.919,0,0,0-.435.085.288.288,0,0,0-.154.252.837.837,0,0,0,.268.746c.6.536,2.215.63,4.392.267a12.664,12.664,0,0,0-4.072-1.35" transform="translate(28.988 30.343)" fill="#407bff"/>
          <path id="Path_46494" data-name="Path 46494" d="M339.131,351.373a.226.226,0,0,1-.1-.021c-1.172-.529-3.489-2.649-3.308-3.762.043-.264.229-.591.875-.656a1.7,1.7,0,0,1,1.289.4c1.235,1.029,1.462,3.675,1.471,3.787a.232.232,0,0,1-.232.251m-2.341-3.984a1.213,1.213,0,0,0-.14.008c-.425.042-.453.213-.462.268-.11.668,1.464,2.336,2.658,3.059a5.392,5.392,0,0,0-1.252-3.031,1.219,1.219,0,0,0-.8-.3" transform="translate(29.184 30.158)" fill="#407bff"/>
          <path id="Path_46495" data-name="Path 46495" d="M373.573,145.113l1.021,3.573c.14.277-.188.56-.65.56H332.861c-.36,0-.658-.176-.68-.4l-.36-3.573c-.025-.248.287-.458.68-.458h40.422a.726.726,0,0,1,.65.3" transform="translate(28.845 12.589)" fill="#01abc1"/>
          <g id="Group_172606" data-name="Group 172606" transform="translate(360.664 157.402)" opacity="0.3">
            <g id="Group_172605" data-name="Group 172605">
              <g id="Group_172604" data-name="Group 172604" clip-path="url(#clip-path-11)">
                <path id="Path_46496" data-name="Path 46496" d="M373.573,145.113l1.021,3.573c.14.277-.188.56-.65.56H332.861c-.36,0-.658-.176-.68-.4l-.36-3.573c-.025-.248.287-.458.68-.458h40.422a.726.726,0,0,1,.65.3" transform="translate(-331.819 -144.813)" fill="#fff"/>
              </g>
            </g>
          </g>
          <path id="Path_46497" data-name="Path 46497" d="M365.313,149.659H366.4c.215,0,.379-.111.365-.247l-.508-4.642c-.015-.136-.2-.247-.42-.247h-1.083c-.215,0-.379.111-.365.247l.509,4.642c.014.136.2.247.418.247" transform="translate(31.676 12.563)" fill="#263238"/>
          <path id="Path_46498" data-name="Path 46498" d="M335.651,149.659h1.083c.215,0,.379-.111.365-.247l-.508-4.642c-.015-.136-.2-.247-.42-.247h-1.083c-.215,0-.379.111-.365.247l.509,4.642c.014.136.2.247.418.247" transform="translate(29.098 12.563)" fill="#263238"/>
          <path id="Path_46499" data-name="Path 46499" d="M350.482,149.659h1.083c.215,0,.38-.111.365-.247l-.508-4.642c-.015-.136-.2-.247-.42-.247H349.92c-.215,0-.379.111-.365.247l.509,4.642c.014.136.2.247.418.247" transform="translate(30.387 12.563)" fill="#263238"/>
          <path id="Path_46500" data-name="Path 46500" d="M346.077,61.626l-1.948-.365s1.114,1.388,1.948.365" transform="translate(29.915 5.325)" fill="#263238"/>
          <g id="Group_172609" data-name="Group 172609" transform="translate(203.909 12.341)" opacity="0.2">
            <g id="Group_172608" data-name="Group 172608">
              <g id="Group_172607" data-name="Group 172607" clip-path="url(#clip-path-12)">
                <path id="Path_46501" data-name="Path 46501" d="M323.7,204.38A99.89,99.89,0,1,1,380.638,75.085,99.891,99.891,0,0,1,323.7,204.38" transform="translate(-187.601 -11.354)" fill="#407bff"/>
              </g>
            </g>
          </g>
          <g id="Group_172612" data-name="Group 172612" transform="translate(220.457 12.349)" opacity="0.1">
            <g id="Group_172611" data-name="Group 172611">
              <g id="Group_172610" data-name="Group 172610" clip-path="url(#clip-path-13)">
                <path id="Path_46502" data-name="Path 46502" d="M304.3,13.027,225.96,190.966c-1.212-.914-2.4-1.86-3.573-2.824a98.536,98.536,0,0,1-19.559-21.828l0-.01L270.49,12.615a99.11,99.11,0,0,1,33.812.412" transform="translate(-202.825 -11.361)" fill="#fff"/>
              </g>
            </g>
          </g>
          <g id="Group_172615" data-name="Group 172615" transform="translate(259.839 19.256)" opacity="0.1">
            <g id="Group_172614" data-name="Group 172614">
              <g id="Group_172613" data-name="Group 172613" clip-path="url(#clip-path-14)">
                <path id="Path_46503" data-name="Path 46503" d="M356.848,43.35,283.188,210.634a99.788,99.788,0,0,1-44.13-10.237l80.43-182.68a99.924,99.924,0,0,1,37.36,25.633" transform="translate(-239.058 -17.716)" fill="#fff"/>
              </g>
            </g>
          </g>
          <path id="Path_46504" data-name="Path 46504" d="M205.805,44.482a106.255,106.255,0,1,1,14.929,149.53,106.258,106.258,0,0,1-14.929-149.53M363.542,173.567a97.568,97.568,0,1,0-137.308,13.724,97.568,97.568,0,0,0,137.308-13.724" transform="translate(15.802 0.48)" fill="#65a743"/>
          <path id="Path_46505" data-name="Path 46505" d="M358.39,159.857c10.466,6.25,20.422,13.122,30.206,20.206s19.316,14.475,28.7,22.044,18.582,15.37,27.462,23.557q6.675,6.124,13.073,12.584c4.259,4.316,8.453,8.71,12.394,13.413a6.121,6.121,0,0,1-7.617,9.307c-5.389-2.934-10.526-6.176-15.6-9.5q-7.591-5-14.921-10.325c-9.782-7.086-19.251-14.555-28.524-22.26s-18.4-15.589-27.286-23.774S358.7,178.523,350.5,169.5a6.3,6.3,0,0,1,7.891-9.642" transform="translate(30.327 13.819)" fill="#65a743"/>
          <path id="Path_46506" data-name="Path 46506" d="M369.227,157.065l-10.5,1.6,7.517,6.587s5.932-2.153,6.517-6.2Z" transform="translate(31.184 13.654)" fill="#ffc3bd"/>
          <path id="Path_46507" data-name="Path 46507" d="M353.514,164.546l6.592,5.174,8.054-5.257-8.978-5.929Z" transform="translate(30.731 13.781)" fill="#ffc3bd"/>
          <path id="Path_46508" data-name="Path 46508" d="M324.816,175.321h0a13.8,13.8,0,0,1,12.727-9.051H424.55a10.271,10.271,0,0,1,10.563,11.666l-22.47,188.637A13.677,13.677,0,0,1,399.3,378.239H123.2a10.271,10.271,0,0,1-10.564-11.666l18.875-158.448a13.678,13.678,0,0,1,13.343-11.666H295.091a32.24,32.24,0,0,0,29.724-21.138" transform="translate(9.784 14.454)" fill="#01abc1"/>
          <path id="Path_46509" data-name="Path 46509" d="M117.235,368.82H405.709l16.438-194.105H133.673Z" transform="translate(10.191 15.188)" fill="#f0f0f0"/>
          <path id="Path_46510" data-name="Path 46510" d="M117.235,368.82H405.709L417.6,174.715H133.673Z" transform="translate(10.191 15.188)" fill="#e0e0e0"/>
          <path id="Path_46511" data-name="Path 46511" d="M117.235,369.312H405.709l9.916-200.265H127.151Z" transform="translate(10.191 14.695)" fill="#f0f0f0"/>
          <path id="Path_46512" data-name="Path 46512" d="M117.235,369.312H405.709l3.924-200.265H127.151Z" transform="translate(10.191 14.695)" fill="#e0e0e0"/>
          <path id="Path_46513" data-name="Path 46513" d="M117.235,369.747H405.709l1.718-205.7H118.954Z" transform="translate(10.191 14.261)" fill="#f0f0f0"/>
          <path id="Path_46514" data-name="Path 46514" d="M117.56,369.435H406.034l-5.919-201.8H113.5Z" transform="translate(9.866 14.572)" fill="#e0e0e0"/>
          <path id="Path_46515" data-name="Path 46515" d="M117.92,369.312H406.393l-8.562-200.265H109.358Z" transform="translate(9.507 14.695)" fill="#f0f0f0"/>
          <path id="Path_46516" data-name="Path 46516" d="M118.326,369.071H406.8L393.165,171.826H104.691Z" transform="translate(9.101 14.937)" fill="#e0e0e0"/>
          <path id="Path_46517" data-name="Path 46517" d="M118.5,368.936H406.973L391.165,173.381H102.691Z" transform="translate(8.927 15.072)" fill="#f0f0f0"/>
          <path id="Path_46518" data-name="Path 46518" d="M264.781,186.608h0c.189-5.427,4.269-9.274,9.838-9.274h87.008c6.6,0,13,5.352,14.287,11.953l34.373,176.036c1.289,6.6-3.017,11.954-9.618,11.954H124.563c-6.6,0-13-5.352-14.287-11.954l-28.334-145.1c-1.289-6.6,3.018-11.953,9.619-11.953H241.8c13.007,0,22.536-8.982,22.978-21.658" transform="translate(7.103 15.416)" fill="#01abc1"/>
        </g>
      </g>
    </g>
  </g>
</svg>
