<svg xmlns="http://www.w3.org/2000/svg" width="249.384" height="256.282" viewBox="0 0 249.384 256.282">
  <g id="Group_171159" data-name="Group 171159" transform="translate(-129.563 12.951)">
    <g id="Deadline-pana" transform="translate(129.563 -12.951)">
      <g id="freepik--background-complete--inject-5" transform="translate(0 22.607)">
        <path id="Path_43129" data-name="Path 43129" d="M387.369,349.86V362.6H385.24v1.384h2.129V372.5h39.788v-7.749h-2.943v-1.692h2.943v-2.533h1.309V359.37H426.89v-9.51Z" transform="translate(-187.463 -183.134)" fill="#f5f5f5"/>
        <path id="Path_43130" data-name="Path 43130" d="M444.12,349.9v22.47h10.559v-7.76h-2.943v-1.549l2.943.053v-2.533h1.336l-.027-1.309-1.554-.037V349.86Z" transform="translate(-215.007 -183.135)" fill="#e0e0e0"/>
        <path id="Path_43131" data-name="Path 43131" d="M417.28,375.928c0,.08-7.2.144-16.067.144s-16.073-.064-16.073-.144,7.2-.138,16.073-.138S417.28,375.854,417.28,375.928Z" transform="translate(-187.417 -195.295)" fill="#e0e0e0"/>
        <path id="Path_43132" data-name="Path 43132" d="M417.28,373.494c0,.08-7.2.144-16.067.144s-16.073-.064-16.073-.144,7.2-.144,16.073-.144S417.28,373.414,417.28,373.494Z" transform="translate(-187.417 -194.165)" fill="#e0e0e0"/>
        <path id="Path_43133" data-name="Path 43133" d="M421.16,366.954c0,.074-7.2.138-16.067.138s-16.073-.064-16.073-.138,7.2-.144,16.073-.144S421.16,366.874,421.16,366.954Z" transform="translate(-189.232 -191.134)" fill="#e0e0e0"/>
        <path id="Path_43134" data-name="Path 43134" d="M421.535,384.788c0,.08-7.2.144-16.073.144s-16.073-.064-16.073-.144,7.2-.138,16.073-.138S421.535,384.709,421.535,384.788Z" transform="translate(-189.405 -199.401)" fill="#e0e0e0"/>
        <path id="Path_43135" data-name="Path 43135" d="M393.009,391.24v12.741H390.88v1.384h2.129v8.515h39.766v-7.749h-2.948v-1.714h2.948v-2.533h1.309v-1.155H432.53V391.24Z" transform="translate(-190.102 -202.094)" fill="#f5f5f5"/>
        <path id="Path_43136" data-name="Path 43136" d="M449.76,391.277v22.47h10.559v-7.76H457.37v-1.549l2.948.053v-2.533h1.336l-.027-1.309-1.554-.037V391.24Z" transform="translate(-217.646 -202.094)" fill="#e0e0e0"/>
        <path id="Path_43137" data-name="Path 43137" d="M422.92,417.308c0,.08-7.2.144-16.067.144s-16.073-.064-16.073-.144,7.19-.138,16.073-.138S422.92,417.234,422.92,417.308Z" transform="translate(-190.055 -214.224)" fill="#e0e0e0"/>
        <path id="Path_43138" data-name="Path 43138" d="M422.92,414.874c0,.08-7.2.144-16.067.144s-16.073-.064-16.073-.144,7.19-.144,16.073-.144S422.92,414.794,422.92,414.874Z" transform="translate(-190.055 -213.083)" fill="#e0e0e0"/>
        <path id="Path_43139" data-name="Path 43139" d="M426.8,408.328c0,.08-7.2.144-16.072.144s-16.067-.064-16.067-.144,7.19-.138,16.067-.138S426.8,408.254,426.8,408.328Z" transform="translate(-191.87 -210.023)" fill="#e0e0e0"/>
        <path id="Path_43140" data-name="Path 43140" d="M427.17,426.168c0,.08-7.2.144-16.067.144s-16.073-.064-16.073-.144,7.2-.138,16.073-.138S427.17,426.089,427.17,426.168Z" transform="translate(-192.043 -218.369)" fill="#e0e0e0"/>
        <path id="Path_43141" data-name="Path 43141" d="M386.459,432.06V444.8H384.33v1.384h2.129V454.7h39.766v-7.77h-2.948v-1.687h2.948v-2.517h1.309v-1.15H425.98V432.06Z" transform="translate(-187.038 -221.19)" fill="#f5f5f5"/>
        <path id="Path_43142" data-name="Path 43142" d="M443.21,432.1v22.47h10.559v-7.76H450.82v-1.543l2.948.048v-2.533H455.1l-.027-1.309-1.554-.037V432.06Z" transform="translate(-214.581 -221.19)" fill="#e0e0e0"/>
        <path id="Path_43143" data-name="Path 43143" d="M416.37,458.128c0,.08-7.2.144-16.067.144s-16.073-.064-16.073-.144,7.2-.138,16.073-.138S416.37,458.054,416.37,458.128Z" transform="translate(-186.991 -233.32)" fill="#e0e0e0"/>
        <path id="Path_43144" data-name="Path 43144" d="M416.37,455.7c0,.08-7.2.144-16.067.144s-16.073-.064-16.073-.144,7.2-.138,16.073-.138S416.37,455.624,416.37,455.7Z" transform="translate(-186.991 -232.183)" fill="#e0e0e0"/>
        <path id="Path_43145" data-name="Path 43145" d="M420.25,449.154c0,.075-7.2.138-16.073.138s-16.067-.064-16.067-.138,7.19-.144,16.067-.144S420.25,449.074,420.25,449.154Z" transform="translate(-188.806 -229.119)" fill="#e0e0e0"/>
        <path id="Path_43146" data-name="Path 43146" d="M420.62,466.988c0,.08-7.2.144-16.067.144s-16.073-.064-16.073-.144,7.2-.138,16.073-.138S420.62,466.93,420.62,466.988Z" transform="translate(-188.979 -237.464)" fill="#e0e0e0"/>
        <path id="Path_43147" data-name="Path 43147" d="M40,349.86V362.6H37.87v1.384H40V372.5H79.765v-7.749H76.817v-1.692h2.948v-2.533h1.309V359.37H79.52v-9.51Z" transform="translate(-29.759 -183.134)" fill="#f5f5f5"/>
        <path id="Path_43148" data-name="Path 43148" d="M96.75,349.9v22.47h10.559v-7.76h-2.948v-1.549l2.948.053v-2.533h1.331l-.021-1.309-1.554-.037V349.86Z" transform="translate(-56.485 -183.135)" fill="#e0e0e0"/>
        <path id="Path_43149" data-name="Path 43149" d="M69.91,375.928c0,.08-7.2.144-16.073.144s-16.067-.064-16.067-.144,7.19-.138,16.067-.138S69.91,375.854,69.91,375.928Z" transform="translate(-29.712 -195.295)" fill="#e0e0e0"/>
        <path id="Path_43150" data-name="Path 43150" d="M69.91,373.494c0,.08-7.2.144-16.073.144s-16.067-.064-16.067-.144,7.19-.144,16.067-.144S69.91,373.414,69.91,373.494Z" transform="translate(-29.712 -194.165)" fill="#e0e0e0"/>
        <path id="Path_43151" data-name="Path 43151" d="M73.745,366.954c0,.074-7.2.138-16.073.138s-16.073-.064-16.073-.138,7.2-.144,16.073-.144S73.745,366.874,73.745,366.954Z" transform="translate(-31.504 -191.134)" fill="#e0e0e0"/>
        <path id="Path_43152" data-name="Path 43152" d="M74.16,384.788c0,.08-7.2.144-16.067.144s-16.073-.064-16.073-.144,7.19-.138,16.073-.138S74.16,384.709,74.16,384.788Z" transform="translate(-31.701 -199.401)" fill="#e0e0e0"/>
        <path id="Path_43153" data-name="Path 43153" d="M400.069,313.13v12.746H397.94v1.378h2.129v8.515h39.766v-7.744h-2.948v-1.692h2.948V323.8h1.3v-1.16h-1.554v-9.51Z" transform="translate(-193.404 -166.129)" fill="#f5f5f5"/>
        <path id="Path_43154" data-name="Path 43154" d="M456.81,313.167v22.475h10.559v-7.76h-2.943v-1.549l2.943.053v-2.533H468.7l-.021-1.309-1.559-.037V313.13Z" transform="translate(-220.944 -166.13)" fill="#e0e0e0"/>
        <path id="Path_43155" data-name="Path 43155" d="M429.975,339.208c0,.08-7.2.144-16.073.144s-16.073-.064-16.073-.144,7.2-.138,16.073-.138S429.975,339.129,429.975,339.208Z" transform="translate(-193.353 -178.278)" fill="#e0e0e0"/>
        <path id="Path_43156" data-name="Path 43156" d="M429.975,336.774c0,.08-7.2.138-16.073.138s-16.073-.059-16.073-.138,7.2-.144,16.073-.144S429.975,336.694,429.975,336.774Z" transform="translate(-193.353 -177.147)" fill="#e0e0e0"/>
        <path id="Path_43157" data-name="Path 43157" d="M433.855,330.228c0,.08-7.2.144-16.073.144s-16.072-.064-16.072-.144,7.2-.138,16.072-.138S433.855,330.154,433.855,330.228Z" transform="translate(-195.168 -174.116)" fill="#e0e0e0"/>
        <path id="Path_43158" data-name="Path 43158" d="M434.225,348.064c0,.08-7.2.138-16.073.138s-16.073-.059-16.073-.138,7.2-.144,16.073-.144S434.225,347.963,434.225,348.064Z" transform="translate(-195.341 -182.379)" fill="#e0e0e0"/>
        <path id="Path_43159" data-name="Path 43159" d="M43.969,391.24v12.741H41.84v1.384h2.129v8.515H83.73v-7.749H80.776v-1.714h2.943v-2.533h1.315v-1.155H83.48V391.24Z" transform="translate(-31.616 -202.094)" fill="#f5f5f5"/>
        <path id="Path_43160" data-name="Path 43160" d="M100.71,391.277v22.47h10.564v-7.76h-2.948v-1.549l2.948.053v-2.533H112.6l-.027-1.309-1.554-.037V391.24Z" transform="translate(-58.293 -202.094)" fill="#e0e0e0"/>
        <path id="Path_43161" data-name="Path 43161" d="M73.875,417.308c0,.08-7.2.144-16.073.144s-16.073-.064-16.073-.144,7.2-.138,16.073-.138S73.875,417.234,73.875,417.308Z" transform="translate(-31.565 -214.224)" fill="#e0e0e0"/>
        <path id="Path_43162" data-name="Path 43162" d="M73.875,414.874c0,.08-7.2.144-16.073.144s-16.073-.064-16.073-.144,7.2-.144,16.073-.144S73.875,414.794,73.875,414.874Z" transform="translate(-31.565 -213.083)" fill="#e0e0e0"/>
        <path id="Path_43163" data-name="Path 43163" d="M77.75,408.328c0,.08-7.2.144-16.067.144s-16.073-.064-16.073-.144,7.2-.138,16.073-.138S77.75,408.254,77.75,408.328Z" transform="translate(-33.38 -210.023)" fill="#e0e0e0"/>
        <path id="Path_43164" data-name="Path 43164" d="M78.125,426.154c0,.08-7.2.144-16.073.144s-16.073-.064-16.073-.144,7.2-.154,16.073-.154S78.125,426.075,78.125,426.154Z" transform="translate(-33.553 -218.355)" fill="#e0e0e0"/>
        <path id="Path_43165" data-name="Path 43165" d="M52.879,432.06V444.8H50.75v1.384h2.129V454.7H92.645v-7.77H89.7v-1.687h2.948v-2.517h1.309v-1.15H92.395V432.06Z" transform="translate(-35.784 -221.19)" fill="#f5f5f5"/>
        <path id="Path_43166" data-name="Path 43166" d="M109.63,432.1v22.47h10.559v-7.76h-2.948v-1.543l2.948.048v-2.533h1.336l-.027-1.309-1.554-.037V432.06Z" transform="translate(-62.368 -221.19)" fill="#e0e0e0"/>
        <path id="Path_43167" data-name="Path 43167" d="M82.75,458.133c0,.08-7.2.144-16.073.144s-16.067-.064-16.067-.144S57.821,458,66.7,458,82.75,458.059,82.75,458.133Z" transform="translate(-35.719 -233.324)" fill="#e0e0e0"/>
        <path id="Path_43168" data-name="Path 43168" d="M82.75,455.7c0,.08-7.2.144-16.073.144s-16.067-.064-16.067-.144,7.19-.138,16.067-.138S82.75,455.624,82.75,455.7Z" transform="translate(-35.719 -232.183)" fill="#e0e0e0"/>
        <path id="Path_43169" data-name="Path 43169" d="M86.665,449.149c0,.075-7.2.138-16.073.138s-16.073-.064-16.073-.138S61.694,449,70.593,449,86.665,449.069,86.665,449.149Z" transform="translate(-37.548 -229.114)" fill="#e0e0e0"/>
        <path id="Path_43170" data-name="Path 43170" d="M87.04,466.988c0,.08-7.2.144-16.067.144s-16.073-.064-16.073-.144,7.2-.138,16.073-.138S87.04,466.93,87.04,466.988Z" transform="translate(-37.726 -237.464)" fill="#e0e0e0"/>
        <path id="Path_43171" data-name="Path 43171" d="M299.785,432.58v12.347H297.72v1.341h2.065v8.265h38.532v-7.52h-2.853v-1.639h2.853v-2.459h1.272V441.8h-1.506V432.58Z" transform="translate(-147.826 -221.433)" fill="#f5f5f5"/>
        <path id="Path_43172" data-name="Path 43172" d="M354.78,432.617V454.4h10.234v-7.52h-2.853v-1.5l2.853.053v-2.459l1.293.005-.021-1.272-1.506-.037V432.58Z" transform="translate(-174.347 -221.433)" fill="#e0e0e0"/>
        <path id="Path_43173" data-name="Path 43173" d="M328.77,457.878c0,.074-6.972.138-15.572.138s-15.578-.064-15.578-.138,6.972-.138,15.578-.138S328.77,457.788,328.77,457.878Z" transform="translate(-147.957 -233.203)" fill="#e0e0e0"/>
        <path id="Path_43174" data-name="Path 43174" d="M328.77,455.488c0,.075-6.972.138-15.572.138s-15.578-.064-15.578-.138,6.972-.138,15.578-.138S328.77,455.414,328.77,455.488Z" transform="translate(-147.957 -232.085)" fill="#e0e0e0"/>
        <path id="Path_43175" data-name="Path 43175" d="M332.53,449.148c0,.075-6.972.138-15.572.138s-15.578-.064-15.578-.138,6.972-.138,15.578-.138S332.53,449.074,332.53,449.148Z" transform="translate(-149.67 -229.119)" fill="#e0e0e0"/>
        <path id="Path_43176" data-name="Path 43176" d="M332.89,466.433c0,.08-6.972.138-15.572.138s-15.578-.059-15.578-.138,6.972-.133,15.578-.133S332.89,466.359,332.89,466.433Z" transform="translate(-149.835 -237.207)" fill="#e0e0e0"/>
        <path id="Path_43177" data-name="Path 43177" d="M165.769,391.24v12.741H163.64v1.384h2.129v8.515h39.766v-7.749h-2.943v-1.714h2.943v-2.533h1.309v-1.155H205.29V391.24Z" transform="translate(-86.793 -202.094)" fill="#f5f5f5"/>
        <path id="Path_43178" data-name="Path 43178" d="M222.52,391.277v22.47h10.559v-7.76h-2.943v-1.549l2.943.053v-2.533h1.336l-.027-1.309-1.554-.037V391.24Z" transform="translate(-113.931 -202.094)" fill="#e0e0e0"/>
        <path id="Path_43179" data-name="Path 43179" d="M195.68,417.308c0,.08-7.2.144-16.067.144s-16.073-.064-16.073-.144,7.2-.138,16.073-.138S195.68,417.234,195.68,417.308Z" transform="translate(-86.842 -214.224)" fill="#e0e0e0"/>
        <path id="Path_43180" data-name="Path 43180" d="M195.68,414.874c0,.08-7.2.144-16.067.144s-16.073-.064-16.073-.144,7.2-.144,16.073-.144S195.68,414.794,195.68,414.874Z" transform="translate(-86.842 -213.083)" fill="#e0e0e0"/>
        <path id="Path_43181" data-name="Path 43181" d="M199.56,408.328c0,.08-7.2.144-16.067.144s-16.073-.064-16.073-.144,7.2-.138,16.073-.138S199.56,408.254,199.56,408.328Z" transform="translate(-88.61 -210.023)" fill="#e0e0e0"/>
        <path id="Path_43182" data-name="Path 43182" d="M199.935,426.154c0,.08-7.2.144-16.073.144s-16.073-.064-16.073-.144,7.2-.154,16.078-.154S199.935,426.075,199.935,426.154Z" transform="translate(-88.778 -218.355)" fill="#e0e0e0"/>
        <path id="Path_43183" data-name="Path 43183" d="M159.219,432.06V444.8H157.09v1.384h2.129V454.7h39.766v-7.77h-2.943v-1.687h2.943v-2.517h1.309v-1.15H198.74V432.06Z" transform="translate(-83.812 -221.19)" fill="#f5f5f5"/>
        <path id="Path_43184" data-name="Path 43184" d="M215.97,432.1v22.47h10.559v-7.76h-2.943v-1.543l2.943.048v-2.533h1.336l-.027-1.309-1.554-.037V432.06Z" transform="translate(-110.939 -221.19)" fill="#e0e0e0"/>
        <path id="Path_43185" data-name="Path 43185" d="M189.13,458.128c0,.08-7.2.144-16.067.144s-16.073-.064-16.073-.144,7.2-.138,16.073-.138S189.13,458.054,189.13,458.128Z" transform="translate(-83.857 -233.32)" fill="#e0e0e0"/>
        <path id="Path_43186" data-name="Path 43186" d="M189.134,455.7c0,.08-7.2.144-16.067.144S157,455.794,157,455.7s7.2-.138,16.073-.138S189.134,455.624,189.134,455.7Z" transform="translate(-83.862 -232.183)" fill="#e0e0e0"/>
        <path id="Path_43187" data-name="Path 43187" d="M193.01,449.154c0,.075-7.2.138-16.067.138s-16.073-.064-16.073-.138,7.2-.144,16.073-.144S193.01,449.074,193.01,449.154Z" transform="translate(-85.625 -229.119)" fill="#e0e0e0"/>
        <path id="Path_43188" data-name="Path 43188" d="M193.385,466.988c0,.08-7.2.144-16.073.144s-16.073-.064-16.073-.144,7.2-.138,16.073-.138S193.385,466.93,193.385,466.988Z" transform="translate(-85.794 -237.464)" fill="#e0e0e0"/>
        <path id="Path_43189" data-name="Path 43189" d="M22.63,376.19c.431,3.454,3.087,6.307,6.168,7.93s6.573,2.225,10,2.853,6.919,1.33,9.9,3.119l5.934-16.5s-7.318-3.39-14.9-3.087c-6.126.239-10.99-7.877-10.99-7.877Z" transform="translate(-22.63 -188.711)" fill="#e0e0e0"/>
        <path id="Path_43190" data-name="Path 43190" d="M63.023,448.436a29.59,29.59,0,0,1,19.644-9.505c-1.873-2.911-5.194-8.59-7.062-11.5-9.942.053-17.669,5.663-22.885,14.018C56.387,444.1,59.346,445.786,63.023,448.436Z" transform="translate(-36.706 -219.024)" fill="#e0e0e0"/>
        <path id="Path_43191" data-name="Path 43191" d="M417.13,125.6a13.609,13.609,0,0,1,3.337-1.448l.687-3.3,5.577-.1.788,3.273a13.55,13.55,0,0,1,3.385,1.336l2.821-1.852,4.013,3.874-1.7,2.885a13.836,13.836,0,0,1,1.448,3.337l3.3.687.1,5.578-3.278.8a13.536,13.536,0,0,1-1.331,3.385l1.847,2.821-3.874,4.013-2.879-1.751a13.806,13.806,0,0,1-3.337,1.453l-.687,3.3-5.578.1-.8-3.278a13.534,13.534,0,0,1-3.385-1.331l-2.831,1.836-4.013-3.874,1.746-2.885a13.663,13.663,0,0,1-1.448-3.332l-3.3-.687-.1-5.583,3.278-.8a13.534,13.534,0,0,1,1.331-3.385l-1.847-2.821,3.874-4.013,2.879,1.746Zm2.975,7.451a4.232,4.232,0,1,0,0-.021Z" transform="translate(-197.937 -77.042)" fill="#ebebeb"/>
        <path id="Path_43192" data-name="Path 43192" d="M53.084,227.4a16.5,16.5,0,0,1,4.023-1.746l.83-3.981,6.722-.117.969,3.96a16.4,16.4,0,0,1,4.082,1.6l3.4-2.225,4.838,4.673-2.129,3.47a16.5,16.5,0,0,1,1.751,4.023l3.981.83.117,6.727-3.949.969a16.462,16.462,0,0,1-1.6,4.077l2.23,3.4L73.68,257.9,70.2,255.775a16.611,16.611,0,0,1-4.023,1.746l-.83,3.981-6.722.117-.969-3.949a16.419,16.419,0,0,1-4.082-1.6l-3.4,2.23-4.838-4.673,2.129-3.475a16.425,16.425,0,0,1-1.751-4.023l-3.981-.825-.117-6.727,3.928-.963a16.626,16.626,0,0,1,1.6-4.082l-2.23-3.4,4.673-4.843,3.475,2.129Zm3.587,8.962a7.217,7.217,0,1,0,10.2-.2A7.217,7.217,0,0,0,56.671,236.366Z" transform="translate(-31.513 -123.655)" fill="#ebebeb"/>
        <rect id="Rectangle_151355" data-name="Rectangle 151355" width="62.938" height="49.969" transform="matrix(0.984, -0.178, 0.178, 0.984, 4.055, 15.149)" fill="#fff"/>
        <rect id="Rectangle_151356" data-name="Rectangle 151356" width="62.938" height="13.076" transform="matrix(0.984, -0.178, 0.178, 0.984, 4.054, 15.149)" fill="#ebebeb"/>
        <path id="Path_43193" data-name="Path 43193" d="M50.633,100.835a5.035,5.035,0,0,1-.16-.665c-.1-.468-.224-1.064-.373-1.809-.314-1.549-.75-3.725-1.24-6.349l.2.138-8.851,1.6c-.032.053.3-.431.16-.224h0v.144l.027.149.053.3.112.6c.069.4.144.793.213,1.187l.41,2.288c.261,1.485.532,2.89.734,4.183l-.2-.138c2.624-.458,4.822-.82,6.386-1.064l1.825-.282a5.4,5.4,0,0,1,.681-.085,3.274,3.274,0,0,1-.6.149l-1.772.367c-1.538.309-3.768.75-6.461,1.256l-.165.032-.032-.17c-.239-1.293-.5-2.693-.777-4.172-.133-.745-.271-1.511-.415-2.288-.075-.394-.144-.788-.218-1.187l-.106-.6-.059-.3v-.3h0c-.138.2.192-.282.16-.229l8.861-1.6.17-.032v.17c.474,2.693.836,4.939,1.064,6.488.112.729.208,1.32.277,1.788A3.991,3.991,0,0,1,50.633,100.835Z" transform="translate(-30.744 -63.884)" fill="#e0e0e0"/>
        <path id="Path_43194" data-name="Path 43194" d="M72.465,96.919a5.068,5.068,0,0,1-.16-.66c-.1-.474-.224-1.064-.373-1.815-.314-1.549-.745-3.725-1.235-6.349l.2.138-8.851,1.629c-.037.048.3-.436.154-.229h0v.144l.032.149.053.3.106.6c.075.4.144.793.213,1.187l.41,2.288c.261,1.485.532,2.89.734,4.183l-.2-.138c2.624-.458,4.822-.814,6.386-1.064L71.767,97a5.392,5.392,0,0,1,.676-.085,3.1,3.1,0,0,1-.6.149l-1.772.367c-1.538.309-3.768.75-6.456,1.256l-.17.032-.032-.17c-.239-1.293-.5-2.693-.772-4.172-.138-.745-.277-1.511-.42-2.288-.069-.394-.144-.788-.213-1.187l-.09-.6-.053-.3v-.3h0c-.144.2.192-.282.16-.229l8.856-1.6.17-.032.032.17c.468,2.693.836,4.939,1.064,6.488.117.729.208,1.32.282,1.788a3.428,3.428,0,0,1,.032.623Z" transform="translate(-40.969 -62.065)" fill="#e0e0e0"/>
        <path id="Path_43195" data-name="Path 43195" d="M94.174,93.005a6.455,6.455,0,0,1-.16-.66c-.1-.474-.218-1.064-.373-1.815-.309-1.549-.745-3.725-1.235-6.349l.2.138-8.856,1.6c-.037.048.3-.436.16-.229h0v.3l.053.3.112.6c.069.4.138.793.213,1.187.138.777.271,1.543.4,2.288.266,1.485.532,2.89.74,4.183l-.2-.138c2.618-.458,4.79-.814,6.386-1.064l1.825-.287a5.52,5.52,0,0,1,.676-.085,3.1,3.1,0,0,1-.591.149l-1.772.367c-1.543.309-3.768.75-6.461,1.256l-.165.032-.032-.17c-.24-1.293-.5-2.693-.777-4.172-.133-.745-.277-1.511-.42-2.288-.069-.394-.138-.788-.213-1.187l-.112-.6-.053-.3-.027-.154v-.138h0c-.144.2.192-.282.16-.229l8.861-1.6.165-.032.032.17c.468,2.693.836,4.939,1.064,6.488.112.729.208,1.32.277,1.788a3.428,3.428,0,0,1,.117.649Z" transform="translate(-51.087 -60.222)" fill="#e0e0e0"/>
        <path id="Path_43196" data-name="Path 43196" d="M115.966,89.033a4.79,4.79,0,0,1-.16-.66c-.1-.474-.224-1.064-.373-1.815-.314-1.549-.75-3.725-1.24-6.349l.2.138-8.856,1.629.16-.229h0v.3l.059.3.106.6c.069.4.144.793.213,1.187.138.782.277,1.543.41,2.288.261,1.485.532,2.89.734,4.183l-.2-.138c2.624-.458,4.822-.814,6.386-1.064l1.825-.287c.431-.064.665-.09.681-.085a3.105,3.105,0,0,1-.6.149l-1.772.367c-1.538.309-3.768.75-6.461,1.256l-.165.032-.032-.17c-.239-1.288-.5-2.693-.772-4.172-.138-.745-.277-1.511-.42-2.288-.075-.394-.144-.788-.218-1.187l-.106-.6-.053-.3-.032-.154v-.133h0c-.138.2.2-.277.16-.229l8.861-1.6.17-.032.027.17c.474,2.693.841,4.939,1.064,6.488.117.729.208,1.32.282,1.788A3.428,3.428,0,0,1,115.966,89.033Z" transform="translate(-60.375 -58.378)" fill="#e0e0e0"/>
        <path id="Path_43197" data-name="Path 43197" d="M137.823,85.109a5.322,5.322,0,0,1-.16-.665c-.1-.474-.218-1.064-.373-1.809-.314-1.554-.745-3.725-1.235-6.355l.2.138L127.4,78.046c-.037.048.3-.431.16-.229h0v.3l.053.3.106.6c.075.4.144.793.213,1.187.144.782.277,1.543.41,2.288.261,1.485.532,2.89.74,4.183l-.2-.138c2.624-.458,4.822-.814,6.386-1.064l1.825-.287a4.717,4.717,0,0,1,.676-.08,3.508,3.508,0,0,1-.6.144l-1.772.367c-1.538.309-3.768.75-6.456,1.256l-.17.032v-.17c-.24-1.288-.5-2.693-.777-4.172-.138-.745-.277-1.506-.42-2.288-.069-.394-.144-.788-.213-1.187l-.112-.6-.053-.3V77.9h0l.16-.229,8.861-1.6.165-.032.032.17c.468,2.693.836,4.939,1.064,6.488.112.729.2,1.325.277,1.788A3.456,3.456,0,0,1,137.823,85.109Z" transform="translate(-70.399 -56.54)" fill="#e0e0e0"/>
        <path id="Path_43198" data-name="Path 43198" d="M54.547,122.259a5.071,5.071,0,0,1-.16-.66c-.1-.474-.224-1.064-.373-1.815-.314-1.549-.75-3.725-1.24-6.349l.2.138-8.851,1.645.16-.229h0v.144l.027.149.053.3.128.591c.069.4.144.793.213,1.187l.41,2.288c.261,1.485.532,2.89.734,4.183l-.2-.138c2.624-.458,4.822-.82,6.386-1.064l1.825-.287a5.522,5.522,0,0,1,.681-.085,3.277,3.277,0,0,1-.6.149l-1.772.367c-1.538.309-3.768.75-6.461,1.256l-.165.032-.032-.17c-.239-1.293-.5-2.693-.777-4.172-.133-.745-.271-1.511-.415-2.288-.075-.394-.144-.788-.218-1.187l-.106-.6-.059-.3v-.3h0c-.138.2.192-.282.16-.229l8.861-1.6.17-.032.027.17c.474,2.693.836,4.939,1.064,6.488.112.729.208,1.32.277,1.788a3.992,3.992,0,0,1,.048.623Z" transform="translate(-32.583 -73.582)" fill="#e0e0e0"/>
        <path id="Path_43199" data-name="Path 43199" d="M76.349,118.323a5.072,5.072,0,0,1-.16-.66c-.1-.474-.224-1.064-.373-1.815-.314-1.549-.745-3.725-1.235-6.349l.2.138-8.851,1.613c-.037.048.3-.436.154-.229h0v.144l.032.149.053.3.106.6c.075.4.144.793.213,1.187l.41,2.288c.261,1.485.532,2.89.734,4.183l-.16-.112c2.624-.458,4.822-.814,6.386-1.064l1.831-.287a5.4,5.4,0,0,1,.676-.085,3.1,3.1,0,0,1-.6.149L74,118.845c-1.538.309-3.768.75-6.456,1.256l-.17.032-.032-.17c-.239-1.293-.495-2.693-.772-4.172-.138-.745-.277-1.511-.42-2.288-.069-.394-.144-.788-.213-1.187l-.112-.6-.053-.3v-.3h0c-.144.2.192-.282.16-.229l8.856-1.6.17-.032.032.17c.468,2.693.836,4.939,1.064,6.488.117.729.208,1.32.282,1.788A3.427,3.427,0,0,1,76.349,118.323Z" transform="translate(-42.793 -71.761)" fill="#e0e0e0"/>
        <path id="Path_43200" data-name="Path 43200" d="M98.072,114.374a6,6,0,0,1-.16-.66c-.1-.474-.218-1.064-.373-1.815-.309-1.549-.745-3.725-1.235-6.349l.2.138-8.851,1.629c-.037.048.3-.436.16-.229h0v.3l.053.3.112.6c.069.4.138.793.213,1.187.138.782.271,1.543.4,2.288.266,1.485.532,2.89.74,4.183l-.2-.138c2.618-.458,4.79-.814,6.386-1.064l1.825-.287c.426-.064.665-.09.676-.085a3.1,3.1,0,0,1-.591.149l-1.772.367c-1.543.309-3.768.75-6.461,1.256l-.165.032L89,116c-.239-1.293-.5-2.693-.777-4.172-.133-.745-.277-1.511-.42-2.288-.069-.394-.138-.788-.213-1.187l-.106-.6-.059-.3v-.3h0c-.144.2.192-.282.16-.229l8.861-1.6.165-.032.032.17c.468,2.693.836,4.939,1.064,6.488.112.729.208,1.32.277,1.788a3.426,3.426,0,0,1,.085.628Z" transform="translate(-52.926 -70.228)" fill="#e0e0e0"/>
        <path id="Path_43201" data-name="Path 43201" d="M119.836,110.449a5.323,5.323,0,0,1-.16-.665c-.1-.474-.224-1.064-.373-1.81-.314-1.554-.75-3.725-1.24-6.355l.2.138-8.856,1.629.16-.229h0v.3l.059.3.106.6c.069.4.144.793.213,1.187.138.782.277,1.543.41,2.288.261,1.485.506,2.89.734,4.183l-.2-.138c2.624-.458,4.822-.814,6.386-1.064l1.825-.287a4.817,4.817,0,0,1,.681-.08,4.358,4.358,0,0,1-.6.144l-1.772.367c-1.538.309-3.768.75-6.461,1.256l-.165.032-.032-.17c-.239-1.288-.5-2.693-.772-4.172-.138-.745-.277-1.511-.42-2.288-.075-.394-.144-.788-.218-1.187l-.106-.6-.053-.3-.032-.154v-.133h0c-.138.2.2-.277.16-.229l8.861-1.6.17-.032v.17c.474,2.693.841,4.939,1.064,6.488.117.729.208,1.32.282,1.788a3.408,3.408,0,0,1,.138.623Z" transform="translate(-62.143 -68.394)" fill="#e0e0e0"/>
        <path id="Path_43202" data-name="Path 43202" d="M141.639,106.509a5.325,5.325,0,0,1-.16-.665c-.1-.474-.218-1.064-.373-1.809-.314-1.554-.745-3.725-1.235-6.355l.2.138-8.851,1.629c-.037.048.3-.431.16-.229h0v.3l.053.3.106.6c.074.4.144.793.213,1.187.144.782.277,1.543.41,2.288.261,1.485.532,2.89.74,4.183l-.2-.138c2.624-.458,4.822-.814,6.386-1.064l1.825-.287a4.715,4.715,0,0,1,.676-.08,3.505,3.505,0,0,1-.6.144l-1.772.367c-1.538.309-3.768.75-6.456,1.256l-.17.032v-.17c-.239-1.288-.5-2.693-.777-4.172-.138-.745-.277-1.506-.42-2.288-.069-.394-.144-.788-.213-1.187l-.112-.6-.053-.3-.027-.154V99.3h0l.16-.229,8.861-1.6.165-.032.032.17c.468,2.693.836,4.939,1.064,6.488.112.729.2,1.325.277,1.788A3.455,3.455,0,0,1,141.639,106.509Z" transform="translate(-72.13 -66.551)" fill="#e0e0e0"/>
        <rect id="Rectangle_151357" data-name="Rectangle 151357" width="9" height="9" transform="matrix(0.984, -0.178, 0.178, 0.984, 13.424, 52.142)" fill="#e0e0e0"/>
        <path id="Path_43203" data-name="Path 43203" d="M79.953,138.3a5.324,5.324,0,0,1-.154-.676c-.1-.474-.218-1.064-.373-1.809-.314-1.554-.745-3.725-1.235-6.355l.2.138-8.856,1.639c-.037.048.3-.431.16-.229h0v.3l.053.3.106.6c.075.4.144.793.213,1.187.144.782.277,1.543.41,2.288.261,1.485.532,2.89.74,4.183l-.2-.138c2.624-.458,4.822-.814,6.386-1.064l1.825-.287a4.717,4.717,0,0,1,.676-.08,3.509,3.509,0,0,1-.6.144l-1.772.367c-1.538.309-3.768.75-6.456,1.256l-.17.032v-.17c-.239-1.288-.5-2.693-.777-4.172-.138-.745-.277-1.506-.42-2.288-.069-.394-.144-.788-.213-1.187l-.112-.6-.053-.3v-.287h0l.16-.229,8.861-1.6.165-.032.032.17c.468,2.693.836,4.939,1.064,6.488.112.729.2,1.325.277,1.788A3.454,3.454,0,0,1,79.953,138.3Z" transform="translate(-44.476 -81.012)" fill="#e0e0e0"/>
        <path id="Path_43204" data-name="Path 43204" d="M101.689,134.377a5.321,5.321,0,0,1-.16-.665c-.1-.474-.224-1.064-.373-1.809-.314-1.554-.75-3.725-1.24-6.355l.2.138-8.851,1.629.16-.229h0v.3l.053.3.112.6c.069.4.144.793.213,1.187.138.782.277,1.543.41,2.288.261,1.485.506,2.89.734,4.183l-.2-.138c2.624-.458,4.822-.814,6.386-1.064l1.825-.287a4.736,4.736,0,0,1,.681-.08,3.943,3.943,0,0,1-.6.144l-1.772.367c-1.538.309-3.768.75-6.461,1.256l-.165.032-.032-.17c-.239-1.288-.5-2.693-.777-4.172-.133-.745-.277-1.506-.415-2.288-.075-.389-.144-.788-.218-1.182l-.106-.6-.059-.3v-.266h0c-.138.208.192-.277.16-.229l8.861-1.6.17-.032v.17c.474,2.693.836,4.939,1.064,6.488.112.729.208,1.325.277,1.788a4.009,4.009,0,0,1,.117.6Z" transform="translate(-54.616 -79.205)" fill="#e0e0e0"/>
        <path id="Path_43205" data-name="Path 43205" d="M123.529,130.442a5.324,5.324,0,0,1-.16-.665c-.1-.474-.224-1.064-.373-1.809-.314-1.554-.745-3.725-1.235-6.354l.2.138-8.851,1.629c-.037.048.3-.431.154-.229h0v.133l.032.154.053.3.144.639c.075.4.144.8.213,1.187.138.782.277,1.543.41,2.288.261,1.485.532,2.89.734,4.183l-.2-.138c2.624-.458,4.822-.814,6.386-1.064l1.831-.287a4.718,4.718,0,0,1,.676-.08,3.506,3.506,0,0,1-.6.144l-1.772.367c-1.538.309-3.768.756-6.456,1.256l-.17.032-.032-.17c-.239-1.288-.5-2.661-.772-4.172-.138-.745-.277-1.506-.42-2.288-.069-.389-.144-.788-.213-1.181l-.112-.6-.053-.3v-.293h0c-.144.208.192-.277.154-.229l8.861-1.6.17-.032v.17c.474,2.693.841,4.939,1.064,6.488.117.729.208,1.325.282,1.788A3.455,3.455,0,0,1,123.529,130.442Z" transform="translate(-63.872 -77.385)" fill="#e0e0e0"/>
        <path id="Path_43206" data-name="Path 43206" d="M145.307,126.465s-.069-.245-.16-.665-.218-1.064-.373-1.809c-.309-1.554-.745-3.725-1.235-6.355l.2.138-8.851,1.629c-.037.048.3-.431.16-.229h0v.133l.027.154.053.3.112.6c.069.4.138.8.213,1.187.138.782.271,1.543.4,2.288.261,1.485.532,2.89.74,4.183l-.2-.138c2.618-.458,4.816-.814,6.386-1.064l1.825-.287a4.789,4.789,0,0,1,.676-.08,3.508,3.508,0,0,1-.591.144l-1.778.367c-1.538.309-3.768.756-6.456,1.256l-.165.032-.032-.17-.777-4.172c-.133-.745-.277-1.506-.42-2.288-.069-.389-.138-.788-.213-1.181l-.112-.6-.053-.3v-.293h0l.16-.229,8.861-1.6.165-.032.032.17c.468,2.7.836,4.939,1.064,6.488.112.729.2,1.325.277,1.788A3.454,3.454,0,0,1,145.307,126.465Z" transform="translate(-73.821 -75.522)" fill="#e0e0e0"/>
        <rect id="Rectangle_151358" data-name="Rectangle 151358" width="2.783" height="8.254" rx="1.392" transform="matrix(0.984, -0.178, 0.178, 0.984, 14.85, 9.016)" fill="#e0e0e0"/>
        <rect id="Rectangle_151359" data-name="Rectangle 151359" width="2.783" height="8.254" rx="1.392" transform="matrix(0.984, -0.178, 0.178, 0.984, 32.646, 5.794)" fill="#e0e0e0"/>
        <rect id="Rectangle_151360" data-name="Rectangle 151360" width="2.783" height="8.254" rx="1.392" transform="translate(51.453 2.576) rotate(-10.26)" fill="#e0e0e0"/>
        <path id="Path_43207" data-name="Path 43207" d="M101.072,96.7s-.069-.319-.186-.926-.282-1.511-.506-2.661c-.431-2.347-1.064-5.774-1.873-10.112-1.6-8.733-3.89-21.219-6.647-36.275l.192.128L30.129,58.051h0l.154-.229C33.551,75.917,36.632,93,39.331,107.849l-.2-.138,44.737-7.983,12.688-2.246,3.364-.585.873-.149.3-.043-.282.059-.846.165-3.326.623L84.009,99.882l-44.822,8.2-.17.032-.032-.176c-2.7-14.9-5.79-31.959-9.047-50.027l-.037-.192.192-.037h0L92.029,46.5l.16-.032.032.165c2.693,15.109,4.934,27.637,6.5,36.408.766,4.353,1.373,7.775,1.783,10.112l.463,2.661C101.029,96.4,101.072,96.7,101.072,96.7Z" transform="translate(-26.031 -42.707)" fill="#e0e0e0"/>
        <path id="Path_43208" data-name="Path 43208" d="M345.437,47.1a21.821,21.821,0,0,1,5.3-2.3l1.091-5.242,8.856-.154,1.277,5.2a21.7,21.7,0,0,1,5.375,2.129l4.476-2.938,6.386,6.158-2.773,4.572a21.93,21.93,0,0,1,2.3,5.322l5.242,1.064.154,8.856-5.2,1.277a21.74,21.74,0,0,1-2.129,5.37l2.938,4.481-6.158,6.386L368,84.5a21.709,21.709,0,0,1-5.322,2.3l-1.091,5.242-8.856.16L351.456,87a21.763,21.763,0,0,1-5.375-2.129L341.6,87.8l-6.386-6.152,2.773-4.577a21.585,21.585,0,0,1-2.3-5.322l-5.242-1.064-.16-8.856,5.2-1.277a21.473,21.473,0,0,1,2.129-5.375L334.691,50.7l6.152-6.386,4.577,2.773Zm4.721,11.778a9.505,9.505,0,1,0,13.438-.234,9.505,9.505,0,0,0-13.438.234Z" transform="translate(-161.758 -39.4)" fill="#ebebeb"/>
      </g>
      <g id="freepik--Floor--inject-5" transform="translate(15.439 255.659)">
        <path id="Path_43209" data-name="Path 43209" d="M265.441,473.878c0,.075-47.865.138-106.9.138s-106.906-.043-106.906-.138,47.854-.138,106.906-.138S265.441,473.82,265.441,473.878Z" transform="translate(-51.64 -473.74)" fill="#263238"/>
      </g>
      <g id="freepik--Clock--inject-5" transform="translate(6.345)">
        <rect id="Rectangle_151361" data-name="Rectangle 151361" width="10.282" height="16.041" transform="translate(118.415 27.194)" fill="#263238"/>
        <path id="Path_43210" data-name="Path 43210" d="M263.531,40.575H242.36V23.3a40.387,40.387,0,0,1,21.171,0Z" transform="translate(-129.322 -8.601)" fill="#ff4a4a"/>
        <path id="Path_43211" data-name="Path 43211" d="M263.711,24.675a3.684,3.684,0,0,1-.782.389,19.588,19.588,0,0,1-2.2.846,26.043,26.043,0,0,1-3.433.814,29.729,29.729,0,0,1-4.311.367,29.271,29.271,0,0,1-4.311-.325,25.942,25.942,0,0,1-3.443-.782,20.425,20.425,0,0,1-2.235-.8,4.1,4.1,0,0,1-.782-.378c0-.064,1.166.415,3.092.931a29.711,29.711,0,0,0,3.417.7,32.059,32.059,0,0,0,4.258.293,30.779,30.779,0,0,0,4.258-.335,29.211,29.211,0,0,0,3.417-.729C262.545,25.106,263.684,24.611,263.711,24.675Z" transform="translate(-129.25 -9.903)" fill="#263238"/>
        <path id="Path_43212" data-name="Path 43212" d="M255.341,43.963c-.1,0-.181-3.321-.181-7.414s.08-7.419.181-7.419.181,3.321.181,7.419S255.442,43.963,255.341,43.963Z" transform="translate(-135.385 -11.989)" fill="#263238"/>
        <path id="Path_43213" data-name="Path 43213" d="M262.911,44.032c-.1,0-.181-3.332-.181-7.451s.08-7.451.181-7.451.181,3.332.181,7.451S263.012,44.032,262.911,44.032Z" transform="translate(-138.846 -11.989)" fill="#263238"/>
        <path id="Path_43214" data-name="Path 43214" d="M270.481,43.9c-.1,0-.181-3.337-.181-7.451s.08-7.451.181-7.451.181,3.332.181,7.451S270.582,43.9,270.481,43.9Z" transform="translate(-142.306 -11.928)" fill="#263238"/>
        <path id="Path_43215" data-name="Path 43215" d="M276.781,42.849c-.1,0-.181-3.6-.181-8.052s.08-8.047.181-8.047.181,3.6.181,8.047S276.882,42.849,276.781,42.849Z" transform="translate(-145.186 -10.876)" fill="#263238"/>
        <path id="Path_43216" data-name="Path 43216" d="M248.181,42.664c-.1,0-.181-3.608-.181-8.052s.08-8.052.181-8.052.181,3.608.181,8.052S248.282,42.664,248.181,42.664Z" transform="translate(-132.112 -10.787)" fill="#263238"/>
        <rect id="Rectangle_151362" data-name="Rectangle 151362" width="7.435" height="11.602" transform="matrix(0.691, 0.723, -0.723, 0.691, 183.303, 48.223)" fill="#263238"/>
        <path id="Path_43217" data-name="Path 43217" d="M372.935,89.488,362.36,78.408l9.047-8.638a29.127,29.127,0,0,1,10.58,11.07Z" transform="translate(-184.083 -30.673)" fill="#ff4a4a"/>
        <path id="Path_43218" data-name="Path 43218" d="M365.679,81.537c-.059-.064,1.99-2.129,4.577-4.641s4.737-4.476,4.79-4.417-1.99,2.129-4.577,4.641S365.737,81.6,365.679,81.537Z" transform="translate(-185.768 -31.943)" fill="#263238"/>
        <path id="Path_43219" data-name="Path 43219" d="M369.47,85.522a12.307,12.307,0,0,1,1.378-1.394c.873-.83,2.1-1.964,3.454-3.193l3.5-3.161,1.064-.953c.256-.224.383-.341.394-.341a40.672,40.672,0,0,1-4.747,4.683c-1.357,1.245-2.6,2.352-3.518,3.14A12.163,12.163,0,0,1,369.47,85.522Z" transform="translate(-187.493 -33.797)" fill="#263238"/>
        <path id="Path_43220" data-name="Path 43220" d="M374.51,90.745a13.043,13.043,0,0,1,1.4-1.4c.883-.836,2.129-1.974,3.507-3.225l3.555-3.193,1.064-.947a4.394,4.394,0,0,1,.41-.33,8.155,8.155,0,0,1-1.352,1.442c-.878.846-2.129,1.99-3.5,3.241s-2.661,2.358-3.571,3.156a12.012,12.012,0,0,1-1.517,1.256Z" transform="translate(-189.793 -36.193)" fill="#263238"/>
        <path id="Path_43221" data-name="Path 43221" d="M379.229,95.643c-.059-.064,2.017-2.129,4.641-4.609s4.79-4.449,4.848-4.385-2.017,2.129-4.641,4.609S379.288,95.7,379.229,95.643Z" transform="translate(-191.955 -38.509)" fill="#263238"/>
        <rect id="Rectangle_151363" data-name="Rectangle 151363" width="7.435" height="11.602" transform="translate(50.752 57.771) rotate(-41.43)" fill="#263238"/>
        <path id="Path_43222" data-name="Path 43222" d="M130.945,87.136l-11.48,10.112-8.276-9.356A28.971,28.971,0,0,1,122.675,77.78Z" transform="translate(-69.498 -34.383)" fill="#ff4a4a"/>
        <path id="Path_43223" data-name="Path 43223" d="M122.724,102.667c-.064.059-2.054-2.07-4.455-4.758s-4.258-4.907-4.22-4.96,2.054,2.07,4.455,4.758S122.788,102.614,122.724,102.667Z" transform="translate(-70.848 -41.428)" fill="#263238"/>
        <path id="Path_43224" data-name="Path 43224" d="M126.849,98.665a12.975,12.975,0,0,1-1.309-1.426c-.793-.91-1.879-2.177-3.065-3.582l-3.023-3.619-.937-1.1c-.213-.266-.325-.394-.325-.41a41.741,41.741,0,0,1,4.5,4.928c1.187,1.41,2.241,2.7,3,3.64A11.991,11.991,0,0,1,126.849,98.665Z" transform="translate(-72.739 -39.376)" fill="#263238"/>
        <path id="Path_43225" data-name="Path 43225" d="M132.315,93.684a12.8,12.8,0,0,1-1.346-1.448c-.8-.921-1.889-2.2-3.081-3.635l-3.028-3.678-.9-1.128a2.837,2.837,0,0,1-.314-.426,8.558,8.558,0,0,1,1.384,1.41c.814.915,1.911,2.193,3.1,3.624s2.257,2.736,3.012,3.693A12.655,12.655,0,0,1,132.315,93.684Z" transform="translate(-75.228 -36.988)" fill="#263238"/>
        <path id="Path_43226" data-name="Path 43226" d="M137.359,89.608c-.064.053-2.049-2.129-4.423-4.79a58.018,58.018,0,0,1-4.188-5.019c.069-.053,2.044,2.1,4.417,4.79S137.423,89.549,137.359,89.608Z" transform="translate(-77.561 -35.334)" fill="#263238"/>
        <path id="Path_43360" data-name="Path 43360" d="M85.414,0a87.173,87.173,0,0,1,86.438,86.438,84.7,84.7,0,0,1-85.413,85.413A87.173,87.173,0,0,1,0,85.414,84.7,84.7,0,0,1,85.414,0Z" transform="translate(0 121.52) rotate(-45)" fill="#ff4a4a"/>
        <path id="Path_43361" data-name="Path 43361" d="M78.528,0a80.287,80.287,0,0,1,79.551,79.551,77.813,77.813,0,0,1-78.526,78.526A80.287,80.287,0,0,1,0,78.528,77.813,77.813,0,0,1,78.528,0Z" transform="translate(9.739 121.52) rotate(-45)" fill="#fff"/>
        <path id="Path_43227" data-name="Path 43227" d="M192.109,234.82c-44.4,0-80.519-35.471-80.519-79.07s36.121-79.07,80.519-79.07,80.519,35.471,80.519,79.07S236.508,234.82,192.109,234.82Zm0-157.6c-44.1,0-79.971,35.228-79.971,78.531s35.88,78.531,79.971,78.531,79.971-35.228,79.971-78.531-35.874-78.531-79.971-78.531Z" transform="translate(-70.59 -34.233)" fill="#263238"/>
        <path id="Path_43228" data-name="Path 43228" d="M166.58,138.591c3.241-10.069,9.888-16.882,18.7-22.741s20.814-8.063,31.357-7.169v62.747Z" transform="translate(-94.52 -48.484)" fill="#ff4a4a"/>
        <g id="Group_171078" data-name="Group 171078" transform="translate(72.366 59.661)" opacity="0.8">
          <path id="Path_43229" data-name="Path 43229" d="M166.58,138.591c3.241-10.069,9.888-16.882,18.7-22.741s20.814-8.063,31.357-7.169v62.747Z" transform="translate(-166.58 -108.489)" fill="#fff"/>
        </g>
        <path id="Path_43230" data-name="Path 43230" d="M217.184,202.2,182.16,174.99,223.177,193.9l1.2,7.185Z" transform="translate(-101.678 -79.383)" fill="#ff4a4a"/>
        <g id="Group_171079" data-name="Group 171079" transform="translate(80.47 95.585)" opacity="0.4">
          <path id="Path_43231" data-name="Path 43231" d="M182.16,174.99l36.573,21.5,4.444-2.592Z" transform="translate(-182.16 -174.99)"/>
        </g>
        <circle id="Ellipse_430" data-name="Ellipse 430" cx="7.286" cy="7.286" r="7.286" transform="translate(113.723 117.969) rotate(-22.3)" fill="#fafafa"/>
        <path id="Path_43232" data-name="Path 43232" d="M254.978,210.532a16.263,16.263,0,0,0-1.762.3,7.166,7.166,0,0,0-4.928,9.4,6.577,6.577,0,0,0,.974,1.8,6.653,6.653,0,0,0,1.511,1.506,7.094,7.094,0,0,0,8.4,0,6.572,6.572,0,0,0,1.517-1.506,6.723,6.723,0,0,0,.974-1.8,7.169,7.169,0,0,0,.319-3.725,7.073,7.073,0,0,0-1.32-3.018,7.243,7.243,0,0,0-3.928-2.661,16.493,16.493,0,0,0-1.762-.3,5.646,5.646,0,0,1,1.794.16,7.355,7.355,0,0,1,5.508,5.758,7.434,7.434,0,0,1-11.714,7.382,7.068,7.068,0,0,1-1.6-1.6,6.966,6.966,0,0,1-1.006-1.889,7.451,7.451,0,0,1-.309-3.912,7.355,7.355,0,0,1,5.508-5.758A5.679,5.679,0,0,1,254.978,210.532Z" transform="translate(-131.747 -95.887)" fill="#263238"/>
        <path id="Path_43233" data-name="Path 43233" d="M256.763,214.05a5.428,5.428,0,1,1-5.423,5.428A5.428,5.428,0,0,1,256.763,214.05Z" transform="translate(-133.532 -97.543)" fill="#263238"/>
        <path id="Path_43234" data-name="Path 43234" d="M260.412,170.283s-1.49-46.924.681-56.823C261.093,113.46,264.749,141.906,260.412,170.283Z" transform="translate(-137.535 -50.803)" fill="#263238"/>
        <path id="Path_43235" data-name="Path 43235" d="M193.788,234.066h-.09l.208-5.854h.165ZM223,229.318l-2.182-5.428.16-.064,2.1,5.466ZM165.06,226.53l-.09-.048,2.608-5.242.144.075Zm82.758-13.465-4.172-4.1.112-.112,4.135,4.141Zm-105.908-5.093-.09-.112,4.54-3.725.075.1Zm122.018-19.857-5.487-2.038.058-.154,5.466,2.1ZM128.279,181.6l-.043-.149,5.657-1.511v.1Zm134.339-22.5V159l5.854-.351v.165Zm0-.1v-.133l5.854-.351v.138Zm-130.273-6.158-5.785-.878v-.133l5.79.883Zm123.1-20.149-.053-.106,5.2-2.693.064.122Zm-113.476-5.322-4.923-3.193.064-.1,4.934,3.151ZM238.2,111.6l-.1-.08,3.656-4.572.1.08Zm-77.074-3.646-3.193-4.9.09-.053,3.246,4.87Zm52.731-8.643-.112-.027,1.469-5.668.144.037ZM186.518,98.04l-.953-5.78h.128l.947,5.78Z" transform="translate(-75.157 -40.553)" fill="#263238"/>
      </g>
      <g id="freepik--Lines--inject-5" transform="translate(6.583 163.58)">
        <path id="Path_43236" data-name="Path 43236" d="M408.466,353.578c0,.074-7.217.138-16.115.138s-16.12-.064-16.12-.138,7.217-.138,16.12-.138S408.466,353.5,408.466,353.578Z" transform="translate(-189.832 -325.925)" fill="#263238"/>
        <path id="Path_43237" data-name="Path 43237" d="M427.526,346.788c0,.08-7.217.138-16.115.138s-16.12-.059-16.12-.138,7.211-.138,16.12-.138S427.526,346.714,427.526,346.788Z" transform="translate(-198.748 -322.749)" fill="#263238"/>
        <path id="Path_43238" data-name="Path 43238" d="M64.889,308.7c0,.08-6.7.138-14.95.138S35,308.794,35,308.7s6.7-.138,14.955-.138S64.889,308.624,64.889,308.7Z" transform="translate(-35 -304.93)" fill="#263238"/>
        <path id="Path_43239" data-name="Path 43239" d="M82.555,301.878c0,.075-6.7.138-14.95.138s-14.955-.064-14.955-.138,6.7-.138,14.955-.138S82.555,301.825,82.555,301.878Z" transform="translate(-43.257 -301.74)" fill="#263238"/>
      </g>
      <g id="freepik--Character--inject-5" transform="translate(51.548 95.254)">
        <path id="Path_43240" data-name="Path 43240" d="M323.163,173.352a2.438,2.438,0,0,1,2.81-.224,3.321,3.321,0,0,1,3.784,1.57,2.964,2.964,0,0,1,3.273,3.89,2.475,2.475,0,0,1,.484,4.667,2.379,2.379,0,0,1-2.624,3.938l-8.329-11.1A2.432,2.432,0,0,1,323.163,173.352Z" transform="translate(-209.602 -172.549)" fill="#263238"/>
        <path id="Path_43241" data-name="Path 43241" d="M317.517,189.29a10.112,10.112,0,0,0-5.961-12.315l-.49-.192c-5.365-1.756-9.851,1.82-11.453,7.233l-6.11,17.754-.144,2.48,5.444,8.207,4.635-2.129,2.661-4.971s5.322,1.2,7.392-3.816C314.457,199.126,316.1,193.974,317.517,189.29Z" transform="translate(-196.031 -174.209)" fill="#ffbf9d"/>
        <path id="Path_43242" data-name="Path 43242" d="M312.223,226.919a13.167,13.167,0,0,1-5.854-4.529s-.213,4.5,5,6.025Z" transform="translate(-202.116 -195.754)" fill="#ff9a6c"/>
        <path id="Path_43243" data-name="Path 43243" d="M331.24,207.5a.766.766,0,0,1-.979.452.734.734,0,0,1-.484-.937.772.772,0,0,1,.979-.458.74.74,0,0,1,.484.942Z" transform="translate(-213.048 -188.329)" fill="#263238"/>
        <path id="Path_43244" data-name="Path 43244" d="M332.32,203.716c-.122.059-.532-.532-1.288-.862s-1.5-.138-1.538-.266.133-.192.447-.277a2.129,2.129,0,0,1,2.262.9C332.368,203.508,332.384,203.716,332.32,203.716Z" transform="translate(-212.931 -186.335)" fill="#263238"/>
        <path id="Path_43245" data-name="Path 43245" d="M318.527,203.225a.766.766,0,0,1-.979.452.74.74,0,0,1-.49-.937.777.777,0,0,1,.979-.458.745.745,0,0,1,.49.942Z" transform="translate(-207.1 -186.328)" fill="#263238"/>
        <path id="Path_43246" data-name="Path 43246" d="M318.51,198.079c-.122.059-.532-.559-1.288-.862s-1.5-.138-1.538-.266.128-.192.447-.271a2.129,2.129,0,0,1,1.283.1,2.044,2.044,0,0,1,.979.8C318.542,197.851,318.558,198.053,318.51,198.079Z" transform="translate(-206.471 -183.7)" fill="#263238"/>
        <path id="Path_43247" data-name="Path 43247" d="M321.52,206.2a5.279,5.279,0,0,1,1.352.266c.2.059.4.09.495-.027a1.107,1.107,0,0,0,.1-.639v-1.74a27.424,27.424,0,0,1,.24-4.455,27.57,27.57,0,0,1,.122,4.465c0,.607-.027,1.182-.037,1.735a1.218,1.218,0,0,1-.2.82.532.532,0,0,1-.436.16,1.463,1.463,0,0,1-.357-.085,5.743,5.743,0,0,1-1.272-.5Z" transform="translate(-209.204 -185.097)" fill="#263238"/>
        <path id="Path_43248" data-name="Path 43248" d="M319.268,193.874c-.149.186-.793-.181-1.639-.388s-1.6-.213-1.629-.442c0-.112.181-.261.532-.362a2.554,2.554,0,0,1,1.336,0,2.48,2.48,0,0,1,1.155.639C319.252,193.587,319.337,193.81,319.268,193.874Z" transform="translate(-206.622 -181.815)" fill="#263238"/>
        <path id="Path_43249" data-name="Path 43249" d="M331.411,197.905c.2-.133.681.234,1.331.458s1.251.277,1.315.532c.027.112-.122.261-.42.351a2.044,2.044,0,0,1-2.129-.777C331.331,198.182,331.32,197.969,331.411,197.905Z" transform="translate(-213.804 -184.287)" fill="#263238"/>
        <path id="Path_43250" data-name="Path 43250" d="M321.594,186.089s-.085-3.678-1.32-5.013c-1.49-1.6-3.081.1-4.641-1.064s-2.986-2.73-5.322-2.076c-2.544.713-2.038,2.129-3.039,4.306-4.066,8.84-6.727,10.766-5.5,6.3.133-.49-1.022-1.373-.436-3.422.761-2.661,1.884-5.812,3.193-7.408a7.629,7.629,0,0,1,4.4-2.608c3.193-.873,6.615.426,8.829,1.565S323.361,182.209,321.594,186.089Z" transform="translate(-199.683 -173.497)" fill="#263238"/>
        <path id="Path_43251" data-name="Path 43251" d="M299.358,198.813a1.469,1.469,0,0,0-.958-1.9c-.974-.277-2.23-.154-2.932,1.81-1.245,3.491,2.517,4.018,2.555,3.922S298.853,200.277,299.358,198.813Z" transform="translate(-196.899 -183.784)" fill="#ffbf9d"/>
        <path id="Path_43252" data-name="Path 43252" d="M298.926,202.147a.866.866,0,0,0-.2.032.649.649,0,0,1-.458-.154,1.6,1.6,0,0,1-.213-1.6,2.129,2.129,0,0,1,.479-.809.745.745,0,0,1,.623-.3.335.335,0,0,1,.3.3c0,.112-.037.176,0,.186s.1-.032.117-.186a.4.4,0,0,0-.059-.266.474.474,0,0,0-.3-.208.883.883,0,0,0-.825.314,2.129,2.129,0,0,0-.559.894,1.682,1.682,0,0,0,.346,1.825.713.713,0,0,0,.591.106A.28.28,0,0,0,298.926,202.147Z" transform="translate(-198.062 -184.872)" fill="#ff9a6c"/>
        <path id="Path_43253" data-name="Path 43253" d="M305.947,180.723a3.533,3.533,0,0,0,1.2,1.245,1.2,1.2,0,0,0,1.554-.3c.138-.224.186-.532.415-.649s.6.059.873.2a2.363,2.363,0,0,0,2.906-.681.99.99,0,0,0,1.192.607,5.35,5.35,0,0,0,1.331-.633,1.517,1.517,0,0,1,1.416-.128c.24.133.42.378.687.458.468.138.894-.3,1.139-.729s.506-.921.985-1.017a1.937,1.937,0,0,1,1.245.452c.394.224.969.335,1.235,0a.878.878,0,0,0,.09-.687,2.4,2.4,0,0,0-2.3-1.916,3.252,3.252,0,0,0-5.322-2.773,3.3,3.3,0,0,0-5.349-.809,2.39,2.39,0,0,0-3.779,2.246,2.273,2.273,0,0,0-1.825,1.229,1.3,1.3,0,0,0,.883,1.772,1.325,1.325,0,0,0,1.65,2.065" transform="translate(-200.794 -172.341)" fill="#263238"/>
        <path id="Path_43254" data-name="Path 43254" d="M304.813,184a.862.862,0,0,0-.048.745,1.182,1.182,0,0,0,.532.687,1.314,1.314,0,0,0,1.1.1l-.138-.08a3.671,3.671,0,0,0,.351,1.128,2.169,2.169,0,0,0,.474.639,1.479,1.479,0,0,0,.671.335,1.453,1.453,0,0,0,1.213-.181,2.1,2.1,0,0,0,.564-.607.751.751,0,0,0,.133-.266,2.88,2.88,0,0,0-.2.218,2.485,2.485,0,0,1-.575.532,1.511,1.511,0,0,1-2.086-.766,3.693,3.693,0,0,1-.341-1.064v-.128l-.117.048a1.118,1.118,0,0,1-.937-.064,1.091,1.091,0,0,1-.495-.569A1.794,1.794,0,0,1,304.813,184Z" transform="translate(-201.337 -177.795)" fill="#455a64"/>
        <path id="Path_43255" data-name="Path 43255" d="M323,173.992s.08.064.208.186a1.24,1.24,0,0,1,.357.665v.085l.075-.048a4.593,4.593,0,0,1,2.2-.692,3.512,3.512,0,0,1,1.469.234,3,3,0,0,1,1.3.99,3.1,3.1,0,0,1,.532,1.166,2.545,2.545,0,0,1,0,1.187l-.032.117h.112a2.038,2.038,0,0,1,1.82,1.884,2.863,2.863,0,0,1-.186,1.107,1.027,1.027,0,0,0,.149-.266,2,2,0,0,0,.154-.846,2.129,2.129,0,0,0-.442-1.245,2.262,2.262,0,0,0-1.474-.83l.085.128a2.687,2.687,0,0,0,.043-1.288,3.193,3.193,0,0,0-1.969-2.3,3.662,3.662,0,0,0-1.554-.229,4.519,4.519,0,0,0-2.251.782l.09.037a1.24,1.24,0,0,0-.431-.687A.628.628,0,0,0,323,173.992Z" transform="translate(-209.896 -173.109)" fill="#455a64"/>
        <path id="Path_43256" data-name="Path 43256" d="M319.237,215.8a13.269,13.269,0,0,0-1.033-1.16c-.644-.559-1.336-.75-1.314-.836a2.7,2.7,0,0,1,2.347,2Z" transform="translate(-207.037 -191.736)" fill="#263238"/>
        <path id="Path_43257" data-name="Path 43257" d="M386.988,266.553a57.8,57.8,0,0,1,6.355.777,1,1,0,0,1-1.107,1.219c-1.331-.043-5.7-.389-5.7-.389l-2.81,1.235-.926-.4Z" transform="translate(-237.87 -216.404)" fill="#ff9a6c"/>
        <path id="Path_43258" data-name="Path 43258" d="M368.46,268.389l8.185.777,1.277.154s3.018-1.1,3.571-1.192,5.631,2.661,5.631,2.661.192,1.176-1.224.873a15.9,15.9,0,0,1-3.135-1.171s-4.593,2.129-5.508,2.56-6.386.383-6.386.383l-1.937,1.267Z" transform="translate(-231.162 -217.149)" fill="#ffbf9d"/>
        <path id="Path_43259" data-name="Path 43259" d="M374.51,285.581l3.337-2.129,11.48-4.087s1.006-.921.49-1.288-12.741,1.464-12.741,1.464l-2.565,1.448Z" transform="translate(-233.992 -221.781)" fill="#ffbf9d"/>
        <path id="Path_43260" data-name="Path 43260" d="M290.034,271.165c0,.639-9.979,17.1-12.821,21.214-4.2,6.1-8.419,6.86-8.419,6.86l-5.593-4.673,23.034-24.95,6.839-4.987Z" transform="translate(-181.922 -215.514)" fill="#455a64"/>
        <path id="Path_43261" data-name="Path 43261" d="M303.92,285.153s8.962,4.045,12.32,4.625c3.949.676,25.615-.852,25.615-.852l-.41-8.622-31.661-.724-3.784-1Z" transform="translate(-200.971 -222.039)" fill="#455a64"/>
        <g id="Group_171080" data-name="Group 171080" transform="translate(81.725 56.181)" opacity="0.3">
          <path id="Path_43262" data-name="Path 43262" d="M288.223,278.024c-.655.3-1.027,2.028-1.522,2.544-5.248,5.508-9.09,11.708-14.508,16.711-2.336,2.129-4.981,3.981-8.153,3.827l3.236,2.746c2.7-.053,4.481-1.32,6.514-3.092s2.9-4.316,4.465-6.509c3.576-4.992,7.073-10.58,10.644-15.578C288.724,277.982,288.878,277.731,288.223,278.024Z" transform="translate(-264.04 -277.904)"/>
        </g>
        <path id="Path_43263" data-name="Path 43263" d="M247.307,272.36s4.678.357,6.445-.734c2.129-1.309,20.8-25.823,20.8-25.823l.165-19.159L264.173,216.58l-1.091,1.655-22.432,25.6L226.28,257.5l17.254,9.271Z" transform="translate(-164.651 -193.036)" fill="#e0e0e0"/>
        <path id="Path_43264" data-name="Path 43264" d="M261.067,245.9c-.559.671.335,10.325-12.241,11.671-10.612,1.134-32.736-.048-39.383-.442a3.1,3.1,0,0,1-2.964-3.193,2.661,2.661,0,0,1,1.064-1.948c2.352-1.921,4.822-1.325,6.285-5.274s.793-5.407,3.364-6.972c3.635-2.209,12.539,1.841,12.539,1.841,2.235-3.385,3.411-6.386,6.557-10.41,2.539-3.262,5.982-7.733,8.776-9.314a35.774,35.774,0,0,1,5.146-2.033l1.724-.3L253.057,218c1.692,1.724,8.02,7.557,9.138,9.58l1.283,7.451Z" transform="translate(-155.387 -193.7)" fill="#455a64"/>
        <g id="Group_171081" data-name="Group 171081" transform="translate(107.314 56.45)" opacity="0.3">
          <path id="Path_43265" data-name="Path 43265" d="M340.034,281.726a189.335,189.335,0,0,1-27.281-3.316l-.633,1.384c5.934,3.725,10.043,3.837,14.54,4.162s8.68-.367,13.028-.367A2.74,2.74,0,0,0,340.034,281.726Z" transform="translate(-312.12 -278.41)"/>
        </g>
        <g id="Group_171082" data-name="Group 171082" transform="translate(85.839 40.266)" opacity="0.3">
          <path id="Path_43266" data-name="Path 43266" d="M275.149,248l-3.379.213c1.405,4.582,3.672,6.131,7.531,8.973s4.481,3.672,8.851,5.631c.42.186,3.725,2.251,3.827,1.81C284.474,260.017,280.147,255.243,275.149,248Z" transform="translate(-271.77 -248)"/>
        </g>
        <path id="Path_43267" data-name="Path 43267" d="M271.576,237.117c-1.224,3.411,1,4.981,1,4.981s18.095,16.434,25.4,17.265,26.461-.186,26.461-.186v-8.92L301.1,247.75s-9.388-11.065-14.582-16.61" transform="translate(-185.668 -199.847)" fill="#455a64"/>
        <path id="Path_43268" data-name="Path 43268" d="M286.517,231.14s.1.09.282.277l.793.841c.692.74,1.708,1.841,2.986,3.268,2.565,2.853,6.206,7.009,10.607,12.156l-.074-.037,23.337,2.48h.122V259.3h-.128l-4.188.192c-5.923.234-11.645.388-17.031.282l-2.006-.064c-.665-.043-1.32-.069-1.974-.117a17.112,17.112,0,0,1-1.943-.234c-.314-.075-.628-.16-.931-.25a9.077,9.077,0,0,1-.9-.325,37.818,37.818,0,0,1-6.349-3.5,123.28,123.28,0,0,1-9.872-7.387c-2.757-2.267-5.013-4.258-6.706-5.774h0a3.688,3.688,0,0,1-1.235-1.974,4.326,4.326,0,0,1-.08-1.7,5.1,5.1,0,0,1,.234-1.017c.075-.224.117-.33.117-.33a1.083,1.083,0,0,1-.085.341,5.105,5.105,0,0,0-.208,1.011,4.326,4.326,0,0,0,.106,1.671,3.608,3.608,0,0,0,1.219,1.911h0c1.7,1.517,3.97,3.47,6.743,5.716s6.046,4.79,9.883,7.339a37.6,37.6,0,0,0,6.328,3.475c.287.117.591.208.883.314a7.65,7.65,0,0,0,.91.245,16.894,16.894,0,0,0,1.911.224c.649.053,1.3.075,1.964.117l2,.059c5.386.1,11.107-.059,17.031-.293l4.183-.192-.133.138v-8.92l.122.133L301.1,247.857h-.043v-.032c-4.38-5.157-7.983-9.335-10.532-12.241l-2.943-3.305-.772-.862A1.491,1.491,0,0,1,286.517,231.14Z" transform="translate(-185.653 -199.847)" fill="#263238"/>
        <path id="Path_43269" data-name="Path 43269" d="M300.934,280.73a6.528,6.528,0,0,1-.5.8l-1.4,2.129c-1.176,1.82-2.767,4.364-4.513,7.179s-3.332,5.359-4.508,7.185c-.591.915-1.064,1.65-1.416,2.129a6.389,6.389,0,0,1-.532.766,6.093,6.093,0,0,1,.463-.825l1.336-2.193,4.444-7.233c1.746-2.815,3.364-5.322,4.582-7.142.612-.9,1.118-1.6,1.479-2.1a6.08,6.08,0,0,1,.569-.692Z" transform="translate(-193.551 -223.045)" fill="#263238"/>
        <path id="Path_43270" data-name="Path 43270" d="M394.05,275.079l-21.858,3.369a.756.756,0,0,1-.873-.639l-.037-.223a.772.772,0,0,1,.644-.878l23.2-3.438-.287,1.118a.942.942,0,0,1-.793.692Z" transform="translate(-232.478 -219.555)" fill="#e0e0e0"/>
        <path id="Path_43271" data-name="Path 43271" d="M393.928,275.023a1.006,1.006,0,0,0,.772-.894c.064-.277.138-.6.224-.947l.064.069c-3.864.623-12.587,1.948-22.72,3.449a4.988,4.988,0,0,0-.612.106.644.644,0,0,0-.357.373.719.719,0,0,0-.032.261,1.911,1.911,0,0,0,.043.3.65.65,0,0,0,.293.42.708.708,0,0,0,.532.064l.617-.1,1.229-.186,4.689-.708,7.935-1.187,5.359-.772,1.458-.2.378-.048h.133l-.128.032-.378.074-1.448.25-5.322.862-7.93,1.24-4.683.724-1.229.192-.623.1a.974.974,0,0,1-.7-.1.9.9,0,0,1-.42-.6,2.581,2.581,0,0,0-.053-.335.878.878,0,0,1,.048-.373.915.915,0,0,1,.532-.532,4.4,4.4,0,0,1,.671-.122c10.112-1.506,18.867-2.767,22.746-3.289h.085v.085l-.255.942a1.154,1.154,0,0,1-.325.639.851.851,0,0,1-.383.213A1.026,1.026,0,0,1,393.928,275.023Z" transform="translate(-232.357 -219.499)" fill="#263238"/>
        <path id="Path_43272" data-name="Path 43272" d="M412.88,253.742l6.557-22.06a.777.777,0,0,1,.974-.532l.192.059a.782.782,0,0,1,.532.974L414.216,254.8Z" transform="translate(-251.942 -199.836)" fill="#e0e0e0"/>
        <path id="Path_43273" data-name="Path 43273" d="M412.866,253.6l.1.064.261.2,1.011.766h-.08c.985-3.417,3.725-12.374,6.849-22.762a.665.665,0,0,0-.17-.5.979.979,0,0,0-.532-.245.66.66,0,0,0-.8.532c-.245.82-.484,1.629-.724,2.422l-1.368,4.572c-.878,2.911-1.671,5.54-2.342,7.749s-1.219,3.981-1.6,5.242c-.192.6-.341,1.064-.447,1.426-.053.154-.09.277-.128.378a.485.485,0,0,1-.048.128v-.122a1.966,1.966,0,0,1,.1-.367l.394-1.416c.367-1.261.878-3.05,1.511-5.242s1.426-4.87,2.283-7.8c.431-1.469.889-3.007,1.357-4.609.239-.8.479-1.6.724-2.432a.979.979,0,0,1,.4-.607.9.9,0,0,1,.729-.128c.128.037.2.053.335.1a.994.994,0,0,1,.314.224.937.937,0,0,1,.245.708,4.3,4.3,0,0,1-.138.532l-.149.484c-.1.325-.2.649-.3.969-.192.639-.388,1.272-.58,1.895L419,239.43c-.724,2.352-1.405,4.55-2.012,6.53-1.229,3.917-2.187,6.972-2.736,8.728v.069l-.059-.048-.99-.82A2.378,2.378,0,0,1,412.866,253.6Z" transform="translate(-251.928 -199.696)" fill="#263238"/>
        <path id="Path_43274" data-name="Path 43274" d="M300.933,230.234c-.037,0-.447-.58-1.16-1.522a42.576,42.576,0,0,0-2.975-3.5c-1.235-1.309-2.427-2.422-3.289-3.225a14.3,14.3,0,0,1-1.378-1.325,2.239,2.239,0,0,1,.426.293c.261.2.633.506,1.064.889a42.264,42.264,0,0,1,3.353,3.193,30.153,30.153,0,0,1,2.938,3.576c.341.484.6.889.761,1.176A1.872,1.872,0,0,1,300.933,230.234Z" transform="translate(-195.455 -194.945)" fill="#263238"/>
        <g id="Group_171083" data-name="Group 171083" transform="translate(51.04 49.045)" opacity="0.3">
          <path id="Path_43275" data-name="Path 43275" d="M252.976,278.436c-1.549.41-13.795-.42-19.936-2.384a41.249,41.249,0,0,1-11.618-5.45,23.337,23.337,0,0,1-5.758-6.056c-.708-.4-1.171,1.724-1.453,2.6s-.867,3.193-2.491,4.258c-1.99,1.293-5.045,1.719-5.322,4.364a3.021,3.021,0,0,0,3,3.108c5.242.255,19.692.953,23.566.947C237.7,279.8,247.84,280.07,252.976,278.436Z" transform="translate(-206.384 -264.495)"/>
        </g>
        <path id="Path_43276" data-name="Path 43276" d="M262.866,277.146a3.305,3.305,0,0,1-.341.293,4.576,4.576,0,0,1-1.187.532,16.025,16.025,0,0,1-4.731.3c-2.006-.1-4.375-.394-6.993-.766a71.055,71.055,0,0,1-8.451-1.645,38.316,38.316,0,0,1-8.042-3.087,27.094,27.094,0,0,1-5.753-4.05,21.291,21.291,0,0,1-3.119-3.576c-.314-.463-.532-.83-.687-1.091a3.017,3.017,0,0,1-.213-.394,2.228,2.228,0,0,1,.261.367c.154.25.4.607.729,1.064a22.823,22.823,0,0,0,3.161,3.491,27.83,27.83,0,0,0,5.737,3.97,38.853,38.853,0,0,0,8.02,3,73.631,73.631,0,0,0,8.419,1.655c2.618.388,4.976.708,6.967.83a16.876,16.876,0,0,0,4.694-.213,4.877,4.877,0,0,0,1.182-.463A3.686,3.686,0,0,1,262.866,277.146Z" transform="translate(-163.28 -215.06)" fill="#263238"/>
        <path id="Path_43277" data-name="Path 43277" d="M301.009,281.954c-.053.053-.42-.25-.814-.676s-.671-.814-.612-.862.42.25.814.676S301.068,281.906,301.009,281.954Z" transform="translate(-198.938 -222.896)" fill="#263238"/>
        <path id="Path_43278" data-name="Path 43278" d="M284.871,229.289a20.218,20.218,0,0,0-2.022-.5,9.681,9.681,0,0,0-8.989,3.268c-.836.979-1.181,1.714-1.229,1.687a1.958,1.958,0,0,1,.224-.532,8.151,8.151,0,0,1,.857-1.288,9.351,9.351,0,0,1,9.17-3.337,8.516,8.516,0,0,1,1.485.436A1.672,1.672,0,0,1,284.871,229.289Z" transform="translate(-186.333 -198.565)" fill="#263238"/>
        <path id="Path_43279" data-name="Path 43279" d="M269.324,269.881a.722.722,0,0,1-.2.085,5,5,0,0,1-.6.192,8.415,8.415,0,0,1-2.294.25,12.168,12.168,0,0,1-3.374-.6,19.274,19.274,0,0,1-3.805-1.751c-1.277-.761-2.437-1.57-3.491-2.3s-2-1.378-2.826-1.884-1.511-.883-1.99-1.128a5.41,5.41,0,0,1-.745-.394.918.918,0,0,1,.208.064c.133.053.335.122.58.234a19.462,19.462,0,0,1,2.049,1.064c1.7.953,3.837,2.587,6.355,4.109a20.222,20.222,0,0,0,3.725,1.746,12.283,12.283,0,0,0,3.3.649A11.552,11.552,0,0,0,269.324,269.881Z" transform="translate(-175.747 -214.447)" fill="#263238"/>
        <path id="Path_43280" data-name="Path 43280" d="M263.441,277.01a3.326,3.326,0,0,1-.4,0l-1.16-.064c-.5-.027-1.118-.069-1.831-.144s-1.527-.133-2.422-.261-1.879-.234-2.922-.42-2.161-.388-3.332-.628a65.692,65.692,0,0,1-7.483-2.07,57.719,57.719,0,0,1-7.137-3.071c-1.064-.575-2.054-1.1-2.948-1.676-.447-.287-.894-.532-1.3-.82l-1.166-.809c-.756-.495-1.378-1.027-1.948-1.458-.282-.224-.532-.426-.782-.623l-.633-.532-.867-.777a2.256,2.256,0,0,1-.287-.287,2.965,2.965,0,0,1,.325.245l.9.734.644.532c.239.192.532.383.793.6.58.42,1.208.937,1.969,1.421l1.171.788c.4.277.852.532,1.3.8.894.564,1.9,1.064,2.943,1.65a60.234,60.234,0,0,0,7.11,3.034,69.768,69.768,0,0,0,7.451,2.086c1.166.245,2.272.479,3.316.644s2.017.33,2.911.458,1.7.208,2.411.3,1.325.144,1.825.192l1.155.112a1.868,1.868,0,0,1,.394.043Z" transform="translate(-164.903 -214.924)" fill="#263238"/>
        <path id="Path_43281" data-name="Path 43281" d="M282.737,447.33l-.868,14.417,21.82.165c-.112-2.086-11.379-6.386-11.379-6.386l.335-7.818Z" transform="translate(-190.656 -300.98)" fill="#ff4a4a"/>
        <path id="Path_43282" data-name="Path 43282" d="M288.29,460.908a.889.889,0,0,0-.623,1.011.852.852,0,0,0,1,.628.947.947,0,0,0,.66-1.064.889.889,0,0,0-1.112-.532" transform="translate(-193.361 -307.33)" fill="#e0e0e0"/>
        <path id="Path_43283" data-name="Path 43283" d="M281.87,472.82V471l21,.958s.969.436.846,1.123Z" transform="translate(-190.656 -312.053)" fill="#263238"/>
        <path id="Path_43284" data-name="Path 43284" d="M300.437,462.484c0,.106-.532.149-1.064.49s-.809.782-.9.74.064-.655.708-1.064S300.463,462.383,300.437,462.484Z" transform="translate(-198.408 -308.018)" fill="#e0e0e0"/>
        <path id="Path_43285" data-name="Path 43285" d="M305.2,464.352c0,.1-.436.282-.8.729s-.474.926-.58.921-.17-.612.3-1.16S305.2,464.251,305.2,464.352Z" transform="translate(-200.885 -308.922)" fill="#e0e0e0"/>
        <path id="Path_43286" data-name="Path 43286" d="M308.781,467.949c-.1,0-.239-.532.037-1.1s.777-.809.825-.718-.266.4-.49.878S308.888,467.938,308.781,467.949Z" transform="translate(-203.187 -309.768)" fill="#e0e0e0"/>
        <path id="Path_43287" data-name="Path 43287" d="M299.872,457.415c-.048.1-.532-.053-1.139,0s-1.064.224-1.128.133.4-.468,1.112-.5S299.941,457.33,299.872,457.415Z" transform="translate(-198.014 -305.525)" fill="#e0e0e0"/>
        <path id="Path_43288" data-name="Path 43288" d="M298.018,451.307a2.1,2.1,0,0,1-1.1,0,5.056,5.056,0,0,1-1.139-.362,5.2,5.2,0,0,1-.628-.341,1.318,1.318,0,0,1-.33-.255.468.468,0,0,1-.043-.569.57.57,0,0,1,.468-.239,1.338,1.338,0,0,1,.41.058,3.827,3.827,0,0,1,1.682.91c.506.468.676.873.639.889s-.293-.3-.809-.692a4.425,4.425,0,0,0-.969-.532,4.342,4.342,0,0,0-.628-.2c-.229-.059-.426-.064-.484.037s-.027.059,0,.122a1.065,1.065,0,0,0,.239.192,5.92,5.92,0,0,0,.575.335,6.376,6.376,0,0,0,1.064.415A7.215,7.215,0,0,1,298.018,451.307Z" transform="translate(-196.66 -302.014)" fill="#e0e0e0"/>
        <path id="Path_43289" data-name="Path 43289" d="M300.413,450.114a1.746,1.746,0,0,1-.277-1.064,3.422,3.422,0,0,1,.442-1.857.889.889,0,0,1,.7-.532.532.532,0,0,1,.452.309,1.625,1.625,0,0,1,.112.4,2.663,2.663,0,0,1,0,.74,2.506,2.506,0,0,1-.479,1.123c-.431.564-.878.687-.883.655a4.431,4.431,0,0,0,.665-.8,2.576,2.576,0,0,0,.357-1.027,2.312,2.312,0,0,0,0-.633c-.032-.234-.117-.42-.208-.4a.786.786,0,0,0-.383.357,4.215,4.215,0,0,0-.277.591,3.918,3.918,0,0,0-.218,1.091C300.36,449.694,300.472,450.1,300.413,450.114Z" transform="translate(-199.199 -300.667)" fill="#e0e0e0"/>
        <path id="Path_43290" data-name="Path 43290" d="M128.343,379.793,114.255,376.6l-3.725,21.522c2.076.229,8.121-10.2,8.121-10.2l7.658,1.6Z" transform="translate(-110.503 -267.893)" fill="#ff4a4a"/>
        <path id="Path_43291" data-name="Path 43291" d="M128.3,384.992a.894.894,0,0,0-.894-.782.857.857,0,0,0-.782.883.942.942,0,0,0,.953.825.889.889,0,0,0,.713-1.011" transform="translate(-118.03 -271.453)" fill="#e0e0e0"/>
        <path id="Path_43292" data-name="Path 43292" d="M114.253,376.6l1.82.293-4.353,20.564s-.585.878-1.24.649Z" transform="translate(-110.48 -267.893)" fill="#263238"/>
        <path id="Path_43293" data-name="Path 43293" d="M125.209,396.67c-.1,0-.059-.532-.309-1.128s-.644-.926-.585-1.017.639.17.926.873S125.283,396.712,125.209,396.67Z" transform="translate(-116.949 -276.27)" fill="#e0e0e0"/>
        <path id="Path_43294" data-name="Path 43294" d="M122.244,401.032c-.106,0-.208-.479-.591-.91s-.836-.617-.814-.724.628-.069,1.1.479S122.346,401.048,122.244,401.032Z" transform="translate(-115.326 -278.536)" fill="#e0e0e0"/>
        <path id="Path_43295" data-name="Path 43295" d="M118,403.984c0-.1.532-.154,1.064.213s.676.9.58.931-.351-.33-.788-.628S118,404.091,118,403.984Z" transform="translate(-113.998 -280.668)" fill="#e0e0e0"/>
        <path id="Path_43296" data-name="Path 43296" d="M130.772,397.015c-.09-.064.138-.532.2-1.118s-.048-1.1.053-1.139.4.474.314,1.176S130.846,397.1,130.772,397.015Z" transform="translate(-119.963 -276.386)" fill="#e0e0e0"/>
        <path id="Path_43297" data-name="Path 43297" d="M135.679,396.22a2.128,2.128,0,0,1,.192-1.064,5.065,5.065,0,0,1,.532-1.064,5.189,5.189,0,0,1,.436-.564,1.483,1.483,0,0,1,.309-.282.463.463,0,0,1,.564.048.591.591,0,0,1,.165.506,1.427,1.427,0,0,1-.128.394,3.537,3.537,0,0,1-.346.628,3.8,3.8,0,0,1-.82.883,1.858,1.858,0,0,1-.985.484c-.027-.053.341-.239.809-.687a4.188,4.188,0,0,0,.708-.867,3.548,3.548,0,0,0,.3-.585c.1-.218.133-.41.043-.484s-.048-.037-.122,0a1.116,1.116,0,0,0-.229.208,5.253,5.253,0,0,0-.42.532,5.978,5.978,0,0,0-.58.974A6.841,6.841,0,0,1,135.679,396.22Z" transform="translate(-122.23 -275.645)" fill="#e0e0e0"/>
        <path id="Path_43298" data-name="Path 43298" d="M135.52,398.466a1.757,1.757,0,0,1,1.064-.1,3.514,3.514,0,0,1,1.155.346,3.805,3.805,0,0,1,.612.388.926.926,0,0,1,.426.782.532.532,0,0,1-.378.4,1.483,1.483,0,0,1-.415.043,2.66,2.66,0,0,1-.729-.122,2.56,2.56,0,0,1-1.032-.655c-.484-.532-.532-.979-.5-.979a4.411,4.411,0,0,0,.681.788,2.46,2.46,0,0,0,.953.532,2.216,2.216,0,0,0,.628.09c.234,0,.431-.053.426-.138a.815.815,0,0,0-.287-.442,3.477,3.477,0,0,0-.532-.367,3.832,3.832,0,0,0-1.064-.394C135.935,398.482,135.525,398.53,135.52,398.466Z" transform="translate(-122.194 -278.055)" fill="#e0e0e0"/>
        <path id="Path_43299" data-name="Path 43299" d="M179.679,296.86c-.782,1.245-8.861,5.5-8.67,18.164l-5.29,27.68-31.528-2.954-2.922,12.656,40.016,6.6s5.647,1.362,8.957-5.258,12.166-30.74,12.358-31.325,5.647-14.8,5.647-14.8Z" transform="translate(-120.205 -230.591)" fill="#263238"/>
        <path id="Path_43300" data-name="Path 43300" d="M211,306.29c-.069.373-2.161,8.393,6.1,14.37s32.422,21.363,32.422,21.363l.639,2.544-2.166,37.52,13.694.266s4-36.9,4.109-40.714-.3-9.048-5.178-13.252l-25.588-22.1s-17.222-9.532-17.03-9.431S212.015,300.7,211,306.29Z" transform="translate(-157.369 -230.59)" fill="#263238"/>
        <path id="Path_43301" data-name="Path 43301" d="M222.23,294.7l1.831-2.453a76.7,76.7,0,0,1,13.188,7.014c3.305,2.39,8.132,5.593,7.7,8.989Z" transform="translate(-162.756 -228.434)" fill="#263238"/>
        <path id="Path_43302" data-name="Path 43302" d="M249.429,346.017a.7.7,0,0,1-.138-.075l-.394-.24-1.511-.942-5.508-3.507c-4.641-2.98-11.054-7.089-18.058-11.756-1.756-1.166-3.406-2.39-5.051-3.507a35.163,35.163,0,0,1-4.492-3.56,11.233,11.233,0,0,1-3.757-8.717,13.9,13.9,0,0,1,1.506-6.328,10.051,10.051,0,0,1,.953-1.5l.3-.357a1,1,0,0,1,.106-.117s-.027.048-.085.133l-.271.373a11.7,11.7,0,0,0-.9,1.517,14.039,14.039,0,0,0-1.405,6.28,12.1,12.1,0,0,0,.8,4.375,11.947,11.947,0,0,0,2.938,4.146,35.482,35.482,0,0,0,4.476,3.529c1.639,1.112,3.294,2.336,5.045,3.5,7.025,4.673,13.411,8.808,18.01,11.831l5.46,3.582,1.479.985.383.266C249.391,345.98,249.434,346.012,249.429,346.017Z" transform="translate(-157.278 -234.59)" fill="#455a64"/>
        <path id="Path_43303" data-name="Path 43303" d="M266.4,324.768a1.353,1.353,0,0,1-.24-.17l-.644-.532-2.31-1.937-7.632-6.525a60.98,60.98,0,0,0-7.983-6.062c-1.064-.708-1.948-1.261-2.555-1.645l-.7-.447c-.16-.1-.24-.16-.234-.17a1.529,1.529,0,0,1,.261.122c.17.09.415.224.724.4.628.357,1.522.889,2.608,1.6a55.451,55.451,0,0,1,8.058,6l7.573,6.583L265.605,324l.612.559A1.716,1.716,0,0,1,266.4,324.768Z" transform="translate(-172.991 -235.465)" fill="#455a64"/>
        <path id="Path_43304" data-name="Path 43304" d="M200.752,391.087a36.68,36.68,0,0,1-2.57-3.784,38.4,38.4,0,0,1-2.342-3.933,37.931,37.931,0,0,1,2.576,3.784A39.575,39.575,0,0,1,200.752,391.087Z" transform="translate(-150.411 -271.06)" fill="#455a64"/>
        <path id="Path_43305" data-name="Path 43305" d="M203.763,388.742a29.789,29.789,0,0,1-3.246-2.475,29.265,29.265,0,0,1-3.076-2.688,30.133,30.133,0,0,1,3.252,2.475A29.515,29.515,0,0,1,203.763,388.742Z" transform="translate(-151.16 -271.158)" fill="#455a64"/>
        <path id="Path_43306" data-name="Path 43306" d="M289.978,377.13c0,.08-1.6.532-3.529,1.15s-3.518,1.176-3.55,1.1a4.32,4.32,0,0,1,.985-.474c.628-.255,1.5-.58,2.48-.894s1.879-.532,2.533-.7A4.152,4.152,0,0,1,289.978,377.13Z" transform="translate(-191.137 -268.141)" fill="#455a64"/>
        <path id="Path_43307" data-name="Path 43307" d="M291.9,385.468a213.112,213.112,0,0,1-6.732.426,15.153,15.153,0,0,1,3.353-.463A14.9,14.9,0,0,1,291.9,385.468Z" transform="translate(-192.199 -271.987)" fill="#455a64"/>
      </g>
      <g id="freepik--Documents--inject-5" transform="translate(23.199 170.113)">
        <path id="Path_43308" data-name="Path 43308" d="M115.808,435.861a29.625,29.625,0,0,1,19.644-9.505c-1.868-2.911-5.189-8.584-7.057-11.5-9.947.048-17.674,5.657-22.885,14.018C109.172,431.523,112.157,433.216,115.808,435.861Z" transform="translate(-84.6 -360.65)" fill="#e0e0e0"/>
        <path id="Path_43309" data-name="Path 43309" d="M115.677,435.739l-.181-.112-.532-.367-2.06-1.378c-1.794-1.2-4.46-2.81-7.595-5.045l-.08-.053.053-.08a40.478,40.478,0,0,1,3.193-4.428,30.825,30.825,0,0,1,4.471-4.306,25.637,25.637,0,0,1,5.854-3.465,24.316,24.316,0,0,1,7.062-1.772,11.232,11.232,0,0,1,1.192-.09l1.176-.043h.08l.037.069c2.576,4.066,4.843,8.026,7.052,11.506l.112.17H135.3a30.983,30.983,0,0,0-8.765,2,28.739,28.739,0,0,0-6.158,3.364,37.512,37.512,0,0,0-3.539,2.9l-.889.846-.224.208q-.08.075-.08.064l.075-.085.218-.229c.192-.2.463-.495.841-.862a34.536,34.536,0,0,1,3.507-2.959,27.951,27.951,0,0,1,6.168-3.433,30.783,30.783,0,0,1,8.824-2.06l-.1.192c-2.225-3.475-4.5-7.451-7.068-11.49l.117.064-1.171.043a8.805,8.805,0,0,0-1.176.085,24.153,24.153,0,0,0-6.945,1.767,25.354,25.354,0,0,0-5.817,3.417,31.27,31.27,0,0,0-4.455,4.258,42.46,42.46,0,0,0-3.193,4.38v-.138c3.113,2.246,5.769,3.89,7.536,5.114.894.607,1.6,1.1,2.033,1.426l.532.383Z" transform="translate(-84.469 -360.528)" fill="#263238"/>
        <path id="Path_43310" data-name="Path 43310" d="M114.06,437.14a35.52,35.52,0,0,1,3.587,2.555,36.145,36.145,0,0,1,3.422,2.778,33.571,33.571,0,0,1-3.587-2.555A36.147,36.147,0,0,1,114.06,437.14Z" transform="translate(-88.599 -371.072)" fill="#263238"/>
        <path id="Path_43311" data-name="Path 43311" d="M117.89,432.29a34.524,34.524,0,0,1,3.348,2.863,35.467,35.467,0,0,1,3.156,3.071,70.465,70.465,0,0,1-6.5-5.934Z" transform="translate(-90.391 -368.803)" fill="#263238"/>
        <path id="Path_43312" data-name="Path 43312" d="M123.6,427.75a6.44,6.44,0,0,1,.9.91c.532.58,1.277,1.373,2.129,2.246s1.57,1.676,2.07,2.289a4.9,4.9,0,0,1,.756,1.032,6.55,6.55,0,0,1-.9-.9l-2.129-2.225c-.83-.873-1.559-1.692-2.054-2.31a5.348,5.348,0,0,1-.772-1.038Z" transform="translate(-93.062 -366.68)" fill="#263238"/>
        <path id="Path_43313" data-name="Path 43313" d="M135.082,431.892a5.371,5.371,0,0,1-.873-.931c-.5-.607-1.16-1.474-1.825-2.475s-1.224-1.927-1.623-2.608a5.853,5.853,0,0,1-.591-1.128,40.936,40.936,0,0,1,2.443,3.582c.665,1,1.293,1.879,1.751,2.512A6.248,6.248,0,0,1,135.082,431.892Z" transform="translate(-96.136 -365.276)" fill="#263238"/>
        <path id="Path_43314" data-name="Path 43314" d="M140.48,430.19a5.067,5.067,0,0,1-.718-.921c-.415-.6-.953-1.437-1.49-2.4s-.974-1.857-1.267-2.517a4.789,4.789,0,0,1-.4-1.1c.075-.032.841,1.6,1.916,3.486S140.538,430.142,140.48,430.19Z" transform="translate(-99.144 -364.574)" fill="#263238"/>
        <path id="Path_43315" data-name="Path 43315" d="M146.186,428.263a5.157,5.157,0,0,1-.74-.937c-.42-.6-.985-1.453-1.57-2.411s-1.064-1.847-1.421-2.5a4.789,4.789,0,0,1-.495-1.064,5.459,5.459,0,0,1,.665.99l1.49,2.453c.532.9,1.064,1.724,1.5,2.448a4.788,4.788,0,0,1,.575,1.022Z" transform="translate(-101.651 -363.686)" fill="#263238"/>
        <path id="Path_43316" data-name="Path 43316" d="M184.256,321.1c-8.67.186-15.87-2.129-22.544-7.674-.777,3.694-2.549,10.644-3.332,14.343,7.781,7.579,18.058,9.149,28.537,6.663C186.081,329.561,185.075,325.974,184.256,321.1Z" transform="translate(-109.332 -313.201)" fill="#fafafa"/>
        <path id="Path_43317" data-name="Path 43317" d="M184.129,320.9a.8.8,0,0,0,.053.229c.053.154.08.4.138.7.122.623.3,1.511.532,2.661.468,2.3,1.3,5.6,2.028,9.739v.1h-.1a44.707,44.707,0,0,1-5.849.985,34.1,34.1,0,0,1-6.775-.08,28.126,28.126,0,0,1-7.211-1.815,26.45,26.45,0,0,1-6.839-4.034,10.776,10.776,0,0,1-.99-.846l-.953-.867-.059-.048v-.08c1.123-5.13,2.395-9.942,3.348-14.338l.048-.2.16.133a33.7,33.7,0,0,0,8.345,5.162,31.066,31.066,0,0,0,7.36,2.129,41.312,41.312,0,0,0,4.971.463h1.32c-.3,0-.74.027-1.315,0a37.031,37.031,0,0,1-4.992-.394,30.6,30.6,0,0,1-7.419-2.065,33.779,33.779,0,0,1-8.43-5.162l.208-.069c-.942,4.407-2.209,9.223-3.326,14.343l-.037-.128.942.862c.314.287.633.575.979.836a26.412,26.412,0,0,0,6.77,4,27.77,27.77,0,0,0,7.142,1.8,33.631,33.631,0,0,0,6.722.106,46.507,46.507,0,0,0,5.854-.937l-.075.112c-.7-4.13-1.5-7.451-1.937-9.745-.229-1.155-.383-2.054-.484-2.661-.048-.293-.08-.532-.106-.692a1.543,1.543,0,0,1-.027-.192Z" transform="translate(-109.206 -313)" fill="#263238"/>
        <path id="Path_43318" data-name="Path 43318" d="M201.016,341.1a41.615,41.615,0,0,1-.814-4.737,42.052,42.052,0,0,1-.532-4.79,41.607,41.607,0,0,1,.814,4.737,42.044,42.044,0,0,1,.532,4.79Z" transform="translate(-128.647 -321.687)" fill="#263238"/>
        <path id="Path_43319" data-name="Path 43319" d="M195.048,341.89a42.609,42.609,0,0,1-.389-4.79,40.723,40.723,0,0,1-.112-4.79,83.3,83.3,0,0,1,.5,9.58Z" transform="translate(-126.239 -322.033)" fill="#263238"/>
        <path id="Path_43320" data-name="Path 43320" d="M187.569,341.105a7.05,7.05,0,0,1,0-1.4c.032-.857.064-2.044.085-3.358s.064-2.5.138-3.363a6.386,6.386,0,0,1,.2-1.384,8.038,8.038,0,0,1,0,1.394c0,.958-.037,2.1-.059,3.358s-.085,2.507-.17,3.369A6.749,6.749,0,0,1,187.569,341.105Z" transform="translate(-122.971 -321.701)" fill="#263238"/>
        <path id="Path_43321" data-name="Path 43321" d="M181.855,329.25a5.934,5.934,0,0,1-.043,1.389,33.323,33.323,0,0,1-.484,3.321c-.245,1.288-.532,2.437-.734,3.273a7.383,7.383,0,0,1-.394,1.33,6.486,6.486,0,0,1,.2-1.378c.186-.931.41-2.044.655-3.278s.436-2.443.559-3.289a8.048,8.048,0,0,1,.24-1.368Z" transform="translate(-119.539 -320.602)" fill="#263238"/>
        <path id="Path_43322" data-name="Path 43322" d="M176.345,327.27a5.293,5.293,0,0,1-.154,1.267c-.138.777-.367,1.841-.687,3s-.665,2.193-.942,2.927a5.178,5.178,0,0,1-.532,1.165,6.881,6.881,0,0,1,.335-1.229c.229-.75.532-1.783.862-2.938s.575-2.2.761-2.97A6.1,6.1,0,0,1,176.345,327.27Z" transform="translate(-116.653 -319.675)" fill="#263238"/>
        <path id="Path_43323" data-name="Path 43323" d="M170.433,324.17a5.855,5.855,0,0,1-.154,1.293c-.133.793-.351,1.884-.628,3.076s-.575,2.262-.809,3.028a5.678,5.678,0,0,1-.442,1.229,6.212,6.212,0,0,1,.25-1.277c.213-.878.458-1.911.729-3.044s.506-2.171.708-3.05A6.342,6.342,0,0,1,170.433,324.17Z" transform="translate(-114.019 -318.225)" fill="#263238"/>
        <path id="Path_43324" data-name="Path 43324" d="M216.526,412.81a30.043,30.043,0,0,1-18.276,12.438c2.3,2.661,6.472,7.839,8.776,10.479,9.963-1.527,16.871-8.3,20.873-17.446C223.822,416.168,220.6,414.918,216.526,412.81Z" transform="translate(-127.983 -359.691)" fill="#ebebeb"/>
        <path id="Path_43325" data-name="Path 43325" d="M216.315,412.8a1.275,1.275,0,0,1,.2.085l.6.287,2.267,1.064c1.969.937,4.88,2.161,8.356,3.933l.09.043-.043.085a41.683,41.683,0,0,1-2.56,4.912,31.4,31.4,0,0,1-3.842,4.981A25.912,25.912,0,0,1,216,432.545a24.731,24.731,0,0,1-6.812,2.826,11.128,11.128,0,0,1-1.181.261l-1.176.224h-.074l-.048-.059c-3.193-3.725-6.046-7.328-8.771-10.484l-.138-.16.2-.048a31.208,31.208,0,0,0,8.489-3.31,28.638,28.638,0,0,0,5.673-4.284,36.969,36.969,0,0,0,3.119-3.427l.761-.974.2-.245c.043-.053.064-.08.069-.074l-.064.1-.186.261c-.165.229-.388.564-.718.99a34.328,34.328,0,0,1-3.071,3.486,28.792,28.792,0,0,1-5.673,4.359,31.274,31.274,0,0,1-8.515,3.369l.069-.2c2.741,3.156,5.609,6.78,8.787,10.468l-.128-.048,1.165-.218a10.851,10.851,0,0,0,1.166-.261,24.444,24.444,0,0,0,6.743-2.789,25.673,25.673,0,0,0,5.322-4.29,31.36,31.36,0,0,0,3.832-4.923,43.1,43.1,0,0,0,2.571-4.87l.048.133c-3.454-1.788-6.355-3.044-8.313-4.008-.985-.479-1.74-.862-2.246-1.128l-.564-.314Z" transform="translate(-127.773 -359.681)" fill="#263238"/>
        <path id="Path_43326" data-name="Path 43326" d="M239.137,424.641a37.863,37.863,0,0,1-3.97-2.033,35.86,35.86,0,0,1-3.837-2.278,37.255,37.255,0,0,1,3.97,2.033A35.852,35.852,0,0,1,239.137,424.641Z" transform="translate(-143.458 -363.209)" fill="#263238"/>
        <path id="Path_43327" data-name="Path 43327" d="M236.338,429.471a70.221,70.221,0,0,1-7.4-4.981,36.013,36.013,0,0,1,3.757,2.4A35.934,35.934,0,0,1,236.338,429.471Z" transform="translate(-142.34 -365.155)" fill="#263238"/>
        <path id="Path_43328" data-name="Path 43328" d="M231.807,434.305a6.171,6.171,0,0,1-1.032-.782c-.623-.5-1.485-1.187-2.443-1.932s-1.825-1.448-2.422-1.985a5.164,5.164,0,0,1-.91-.926,6.871,6.871,0,0,1,1.038.772l2.464,1.921c.963.75,1.809,1.464,2.4,2A5.324,5.324,0,0,1,231.807,434.305Z" transform="translate(-140.497 -367.115)" fill="#263238"/>
        <path id="Path_43329" data-name="Path 43329" d="M220.41,431.15a5.492,5.492,0,0,1,1.011.8,30.716,30.716,0,0,1,2.2,2.209c.82.9,1.517,1.756,2.012,2.374a5.917,5.917,0,0,1,.761,1.064c-.064.059-1.362-1.426-2.98-3.23-.809-.894-1.6-1.687-2.129-2.251A6.53,6.53,0,0,1,220.41,431.15Z" transform="translate(-138.35 -368.27)" fill="#263238"/>
        <path id="Path_43330" data-name="Path 43330" d="M216.188,433.71a4.676,4.676,0,0,1,.857.814c.5.532,1.166,1.3,1.847,2.182s1.256,1.719,1.645,2.336a4.613,4.613,0,0,1,.569,1.064c-.069.043-1.064-1.453-2.432-3.193S216.124,433.763,216.188,433.71Z" transform="translate(-136.373 -369.468)" fill="#263238"/>
        <path id="Path_43331" data-name="Path 43331" d="M210.45,436.55a5,5,0,0,1,.878.83c.532.532,1.2,1.309,1.932,2.182s1.357,1.692,1.8,2.294a4.692,4.692,0,0,1,.655,1.017,5.6,5.6,0,0,1-.809-.894l-1.857-2.241c-.692-.825-1.315-1.6-1.863-2.225a5.923,5.923,0,0,1-.734-.963Z" transform="translate(-133.69 -370.796)" fill="#263238"/>
        <path id="Path_43332" data-name="Path 43332" d="M329.53,396.684a29.985,29.985,0,0,1,21.32-5.732c-1.3-3.247-3.534-9.516-4.838-12.773-9.894-1.831-18.627,2.283-25.413,9.58C323.756,391.117,326.38,393.357,329.53,396.684Z" transform="translate(-185.218 -343.288)" fill="#fafafa"/>
        <path id="Path_43333" data-name="Path 43333" d="M329.409,396.583a1.2,1.2,0,0,1-.154-.144l-.474-.468L327,394.209c-1.554-1.527-3.9-3.635-6.594-6.45l-.064-.069.064-.069a41.184,41.184,0,0,1,4.029-3.789,31.591,31.591,0,0,1,5.258-3.438,25.925,25.925,0,0,1,6.488-2.331,24.483,24.483,0,0,1,7.36-.426,11.458,11.458,0,0,1,1.2.138l1.181.176h.075v.075c1.788,4.534,3.294,8.9,4.827,12.773l.08.192h-.208a31.267,31.267,0,0,0-9.09.335,28.836,28.836,0,0,0-6.759,2.177,36.715,36.715,0,0,0-4.066,2.209l-1.064.671-.261.165c-.059.037-.09.053-.09.048l.09-.069.261-.186c.229-.16.532-.4,1-.7a34.341,34.341,0,0,1,4.045-2.278,28.3,28.3,0,0,1,6.828-2.278,31.275,31.275,0,0,1,9.159-.378l-.133.17c-1.549-3.874-3.065-8.238-4.848-12.773l.1.08-1.171-.17a9.659,9.659,0,0,0-1.181-.138,24.48,24.48,0,0,0-7.275.415,25.929,25.929,0,0,0-6.429,2.294,31.843,31.843,0,0,0-5.232,3.39,43.535,43.535,0,0,0-4.023,3.725v-.138c2.661,2.821,5,4.955,6.525,6.509.772.772,1.357,1.384,1.746,1.8l.436.474a1.673,1.673,0,0,1,.149.234Z" transform="translate(-185.096 -343.187)" fill="#263238"/>
        <path id="Path_43334" data-name="Path 43334" d="M329.9,394.21a36.791,36.791,0,0,1,3.081,3.22,35.03,35.03,0,0,1,2.874,3.411,36.453,36.453,0,0,1-3.081-3.225,35.386,35.386,0,0,1-2.874-3.406Z" transform="translate(-189.569 -350.99)" fill="#263238"/>
        <path id="Path_43335" data-name="Path 43335" d="M334.62,390.12A34.718,34.718,0,0,1,337.4,393.6a36.186,36.186,0,0,1,2.56,3.646,36.6,36.6,0,0,1-2.783-3.481A37.244,37.244,0,0,1,334.62,390.12Z" transform="translate(-191.777 -349.077)" fill="#263238"/>
        <path id="Path_43336" data-name="Path 43336" d="M341.16,386.68a6.831,6.831,0,0,1,.719,1.064c.42.681,1.006,1.6,1.666,2.629s1.245,1.964,1.629,2.661a5.131,5.131,0,0,1,.559,1.176,7.27,7.27,0,0,1-.724-1.064l-1.7-2.613c-.66-1.027-1.224-1.98-1.6-2.661A5.6,5.6,0,0,1,341.16,386.68Z" transform="translate(-194.836 -347.467)" fill="#263238"/>
        <path id="Path_43337" data-name="Path 43337" d="M351.784,392.969a5.444,5.444,0,0,1-.692-1.064c-.383-.7-.873-1.687-1.346-2.8s-.852-2.129-1.118-2.9a5.974,5.974,0,0,1-.378-1.229A40.666,40.666,0,0,1,350,388.993c.474,1.112.926,2.129,1.267,2.821A6.533,6.533,0,0,1,351.784,392.969Z" transform="translate(-198.153 -346.667)" fill="#263238"/>
        <path id="Path_43338" data-name="Path 43338" d="M357.483,392.287a5.1,5.1,0,0,1-.532-1.064c-.3-.665-.671-1.6-1.022-2.661s-.617-2.033-.782-2.741a4.5,4.5,0,0,1-.2-1.171c.074,0,.532,1.724,1.24,3.827S357.558,392.287,357.483,392.287Z" transform="translate(-201.287 -346.518)" fill="#263238"/>
        <path id="Path_43339" data-name="Path 43339" d="M363.533,391.46A5.256,5.256,0,0,1,363,390.4c-.309-.676-.708-1.623-1.107-2.688s-.724-2.044-.937-2.757a4.748,4.748,0,0,1-.287-1.171,5.6,5.6,0,0,1,.468,1.112l1.016,2.714c.383,1.006.724,1.921,1.027,2.714A5.246,5.246,0,0,1,363.533,391.46Z" transform="translate(-203.963 -346.111)" fill="#263238"/>
        <path id="Path_43340" data-name="Path 43340" d="M227.913,376.194c2.794,2.076,6.69,2.129,9.989,1.022s6.152-3.193,8.973-5.258,5.742-4.082,9.1-5.008l-7.834-15.689s-7.5,2.948-12.517,8.632c-4.055,4.6-13.305,2.507-13.305,2.507Z" transform="translate(-139.243 -330.898)" fill="#fafafa"/>
        <path id="Path_43341" data-name="Path 43341" d="M227.787,376.016s-.043-.075-.112-.234-.17-.4-.3-.7l-1.134-2.73c-.979-2.39-2.384-5.854-4.125-10.112l-.069-.176.186.037a23.574,23.574,0,0,0,6.174.4,15.617,15.617,0,0,0,3.348-.628,8.516,8.516,0,0,0,3.1-1.74c.442-.41.873-.868,1.309-1.341s.91-.9,1.389-1.346a34.377,34.377,0,0,1,3.119-2.469,39.683,39.683,0,0,1,7.3-4.045l.112-.053.059.117c.325.644.671,1.341,1.017,2.038,2.4,4.79,4.7,9.425,6.812,13.656l.069.138-.154.043a22.1,22.1,0,0,0-5.9,2.794c-1.767,1.134-3.364,2.347-4.918,3.438a38.076,38.076,0,0,1-4.534,2.837,16.835,16.835,0,0,1-4.3,1.6,12.694,12.694,0,0,1-3.725.24,10,10,0,0,1-2.7-.623,8.4,8.4,0,0,1-1.543-.782l-.362-.261c-.08-.059-.122-.091-.117-.1a9.8,9.8,0,0,0,2.054,1.064,10.219,10.219,0,0,0,2.661.575,12.686,12.686,0,0,0,3.672-.271,16.871,16.871,0,0,0,4.258-1.6,37.316,37.316,0,0,0,4.492-2.842c1.543-1.1,3.14-2.315,4.918-3.465a22.031,22.031,0,0,1,5.961-2.837l-.08.186-6.8-13.651c-.351-.7-.7-1.389-1.016-2.038l.176.069a39.916,39.916,0,0,0-7.243,3.992,34.052,34.052,0,0,0-3.1,2.448c-.474.436-.942.873-1.378,1.33s-.857.921-1.325,1.352a8.807,8.807,0,0,1-3.193,1.783,15.932,15.932,0,0,1-3.406.628,23.787,23.787,0,0,1-6.237-.442l.117-.133c1.7,4.258,3.076,7.706,4.034,10.112.468,1.187.83,2.129,1.064,2.751.117.309.208.532.277.724A2.242,2.242,0,0,0,227.787,376.016Z" transform="translate(-139.117 -330.72)" fill="#263238"/>
        <path id="Path_43342" data-name="Path 43342" d="M237.834,387.3c-.069.027-1.112-2.225-2.326-5.029s-2.129-5.114-2.07-5.141a54.987,54.987,0,0,1,2.326,5.029C236.977,384.969,237.9,387.268,237.834,387.3Z" transform="translate(-144.443 -343)" fill="#263238"/>
        <path id="Path_43343" data-name="Path 43343" d="M243.661,387.041a52.288,52.288,0,0,1-2.629-4.79c-1.384-2.661-2.448-4.859-2.384-4.891a52.6,52.6,0,0,1,2.629,4.79A53.61,53.61,0,0,1,243.661,387.041Z" transform="translate(-146.88 -343.107)" fill="#263238"/>
        <path id="Path_43344" data-name="Path 43344" d="M248.375,385.385a9.738,9.738,0,0,1-.74-1.384c-.431-.862-1.038-2.049-1.73-3.348s-1.352-2.459-1.831-3.3a10.364,10.364,0,0,1-.734-1.384,8.29,8.29,0,0,1,.9,1.283c.532.814,1.208,1.964,1.905,3.268s1.272,2.512,1.66,3.4A7.6,7.6,0,0,1,248.375,385.385Z" transform="translate(-149.076 -342.457)" fill="#263238"/>
        <path id="Path_43345" data-name="Path 43345" d="M252.856,381.9a8.454,8.454,0,0,1-.836-1.24l-1.932-3.034-1.985-3a8.472,8.472,0,0,1-.793-1.267,7.574,7.574,0,0,1,.953,1.155c.532.74,1.288,1.778,2.06,2.964s1.416,2.278,1.868,3.081A7.672,7.672,0,0,1,252.856,381.9Z" transform="translate(-150.933 -341.236)" fill="#263238"/>
        <path id="Path_43346" data-name="Path 43346" d="M257.377,378.377a8.2,8.2,0,0,1-.974-1.16c-.575-.74-1.341-1.783-2.129-2.964s-1.5-2.272-1.985-3.076a8.3,8.3,0,0,1-.729-1.336,9.075,9.075,0,0,1,.894,1.229c.575.851,1.272,1.884,2.049,3.023l2.07,3.007a8.7,8.7,0,0,1,.8,1.277Z" transform="translate(-152.921 -339.59)" fill="#263238"/>
        <path id="Path_43347" data-name="Path 43347" d="M261.327,374.757a7.607,7.607,0,0,1-.979-1.16c-.575-.74-1.341-1.788-2.129-2.964s-1.5-2.272-1.985-3.076a7.485,7.485,0,0,1-.724-1.336,8.514,8.514,0,0,1,.889,1.229l2.049,3.023c.782,1.139,1.49,2.166,2.076,3.007A8.942,8.942,0,0,1,261.327,374.757Z" transform="translate(-154.769 -337.896)" fill="#263238"/>
        <path id="Path_43348" data-name="Path 43348" d="M265.545,371.889a95.257,95.257,0,0,1-5.945-8.419,47.425,47.425,0,0,1,3.087,4.13A48.513,48.513,0,0,1,265.545,371.889Z" transform="translate(-156.683 -336.61)" fill="#263238"/>
        <path id="Path_43349" data-name="Path 43349" d="M269.893,369.253a8.73,8.73,0,0,1-.782-1.416c-.484-.979-1.064-2.182-1.751-3.518s-1.336-2.592-1.847-3.454a14.064,14.064,0,0,1-.825-1.405,6.559,6.559,0,0,1,.99,1.3,36.145,36.145,0,0,1,1.932,3.438c.687,1.373,1.267,2.661,1.682,3.555a11.529,11.529,0,0,1,.6,1.5Z" transform="translate(-159.061 -334.734)" fill="#263238"/>
        <path id="Path_43350" data-name="Path 43350" d="M72.1,346.209c2.794,2.076,6.69,2.129,9.989,1.016s6.158-3.193,8.973-5.258,5.742-4.082,9.1-5.008L92.321,321.27a37.393,37.393,0,0,0-12.5,8.632c-4.055,4.6-13.305,2.507-13.305,2.507Z" transform="translate(-66.36 -316.869)" fill="#fafafa"/>
        <path id="Path_43351" data-name="Path 43351" d="M71.957,346.041l-.106-.234-.3-.708c-.261-.633-.644-1.549-1.128-2.725l-4.13-10.112-.069-.176.186.037a24.058,24.058,0,0,0,6.174.4,15.969,15.969,0,0,0,3.348-.628,8.7,8.7,0,0,0,3.1-1.74c.447-.41.873-.873,1.309-1.341s.91-.9,1.389-1.346A35.381,35.381,0,0,1,84.842,325a40.18,40.18,0,0,1,7.339-4.039l.117-.048.059.117,1.017,2.033c2.395,4.79,4.7,9.431,6.807,13.656l.069.144-.154.043a21.9,21.9,0,0,0-5.9,2.789c-1.767,1.134-3.369,2.347-4.923,3.443a37.719,37.719,0,0,1-4.545,2.837,17.028,17.028,0,0,1-4.306,1.6,12.859,12.859,0,0,1-3.725.234,10.111,10.111,0,0,1-2.7-.617,7.723,7.723,0,0,1-1.543-.788l-.367-.261-.117-.09a10.113,10.113,0,0,0,2.054,1.064,10.238,10.238,0,0,0,2.661.569,12.666,12.666,0,0,0,3.672-.266,16.79,16.79,0,0,0,4.258-1.6,37.977,37.977,0,0,0,4.492-2.842c1.543-1.1,3.145-2.32,4.918-3.465a22.2,22.2,0,0,1,5.961-2.842l-.08.186L93.086,323.2l-1.017-2.033.176.064A40.127,40.127,0,0,0,85,325.247a35.611,35.611,0,0,0-3.1,2.448c-.474.436-.942.873-1.378,1.325s-.857.921-1.325,1.352a8.855,8.855,0,0,1-3.193,1.788,16.2,16.2,0,0,1-3.406.623,23.751,23.751,0,0,1-6.232-.436l.117-.138,4.029,10.112c.468,1.187.836,2.129,1.064,2.757l.277.718A2.179,2.179,0,0,1,71.957,346.041Z" transform="translate(-66.22 -316.7)" fill="#263238"/>
        <path id="Path_43352" data-name="Path 43352" d="M82.046,357.31a53.338,53.338,0,0,1-2.326-5.029,54.1,54.1,0,0,1-2.07-5.141c.069-.027,1.107,2.225,2.326,5.029S82.094,357.284,82.046,357.31Z" transform="translate(-71.567 -328.97)" fill="#263238"/>
        <path id="Path_43353" data-name="Path 43353" d="M87.868,357.07a53.419,53.419,0,0,1-2.624-4.763,51.986,51.986,0,0,1-2.384-4.9,53.186,53.186,0,0,1,2.629,4.79A52.992,52.992,0,0,1,87.868,357.07Z" transform="translate(-74.004 -329.097)" fill="#263238"/>
        <path id="Path_43354" data-name="Path 43354" d="M92.57,355.4a9.723,9.723,0,0,1-.745-1.378c-.431-.862-1.032-2.054-1.73-3.353s-1.346-2.459-1.825-3.294a10.111,10.111,0,0,1-.74-1.384,7.648,7.648,0,0,1,.9,1.283c.532.814,1.208,1.964,1.905,3.268s1.277,2.512,1.666,3.4a8.255,8.255,0,0,1,.564,1.464Z" transform="translate(-76.189 -328.433)" fill="#263238"/>
        <path id="Path_43355" data-name="Path 43355" d="M97.061,351.917a8.953,8.953,0,0,1-.841-1.24l-1.932-3.039-1.985-3a8.563,8.563,0,0,1-.793-1.272,7.537,7.537,0,0,1,.953,1.155c.532.74,1.293,1.783,2.06,2.964s1.421,2.278,1.868,3.087A7.319,7.319,0,0,1,97.061,351.917Z" transform="translate(-78.051 -327.207)" fill="#263238"/>
        <path id="Path_43356" data-name="Path 43356" d="M101.587,348.4a7.6,7.6,0,0,1-.979-1.16c-.575-.745-1.336-1.788-2.129-2.97s-1.5-2.273-1.985-3.071a7.486,7.486,0,0,1-.724-1.336,8.513,8.513,0,0,1,.889,1.229c.575.846,1.277,1.879,2.049,3.023l2.076,3.007A8.944,8.944,0,0,1,101.587,348.4Z" transform="translate(-80.043 -325.565)" fill="#263238"/>
        <path id="Path_43357" data-name="Path 43357" d="M105.527,344.771a7.29,7.29,0,0,1-.979-1.16c-.569-.74-1.336-1.783-2.129-2.964s-1.5-2.273-1.985-3.076a8.312,8.312,0,0,1-.724-1.331,8.636,8.636,0,0,1,.889,1.224l2.049,3.028,2.076,3.007A8.515,8.515,0,0,1,105.527,344.771Z" transform="translate(-81.887 -323.872)" fill="#263238"/>
        <path id="Path_43358" data-name="Path 43358" d="M109.775,341.9a48.072,48.072,0,0,1-3.081-4.13,49.385,49.385,0,0,1-2.863-4.289,47.138,47.138,0,0,1,3.087,4.13,47.123,47.123,0,0,1,2.858,4.29Z" transform="translate(-83.814 -322.581)" fill="#263238"/>
        <path id="Path_43359" data-name="Path 43359" d="M114.07,339.273a8.751,8.751,0,0,1-.8-1.421l-1.756-3.513c-.687-1.373-1.336-2.6-1.847-3.459a16.007,16.007,0,0,1-.825-1.4,6.435,6.435,0,0,1,1,1.3,36.587,36.587,0,0,1,1.927,3.433c.687,1.378,1.267,2.661,1.682,3.555A9.576,9.576,0,0,1,114.07,339.273Z" transform="translate(-86.156 -320.709)" fill="#263238"/>
      </g>
    </g>
  </g>
</svg>
