<svg xmlns="http://www.w3.org/2000/svg" xmlns:xlink="http://www.w3.org/1999/xlink" width="189.464" height="55.081" viewBox="0 0 189.464 55.081">
  <defs>
    <clipPath id="clip-path">
      <rect id="Rectangle_151385" data-name="Rectangle 151385" width="189.464" height="55.081" transform="translate(0 0)" fill="none"/>
    </clipPath>
  </defs>
  <g id="Group_171161" data-name="Group 171161" transform="translate(-20 0)">
    <g id="Group_171160" data-name="Group 171160" transform="translate(20)" clip-path="url(#clip-path)">
      <path id="Path_43404" data-name="Path 43404" d="M55.037,30.39c0-.4,0-.767-.01-1.1a5.366,5.366,0,0,0-.052-.725c-.208,0-.463.007-.767.021s-.628.034-.973.062l-1.056.083c-.36.028-.691.062-1,.1.028-.152.052-.3.073-.456a3.37,3.37,0,0,0,0-.912c-.021-.152-.045-.3-.073-.455q.705.021,1.274.041t1.16.031l1.284.021c.463.007,1.018.01,1.668.01q.951,0,1.657-.01l1.284-.021q.579-.01,1.118-.031t1.2-.041c-.028.152-.052.3-.073.455a3.37,3.37,0,0,0,0,.912c.021.152.045.3.073.456-.276-.042-.587-.076-.932-.1l-1.026-.083c-.338-.028-.659-.048-.963-.062s-.559-.021-.766-.021a4.444,4.444,0,0,0-.042.725v6.276q0,.87.011,1.616t.031,1.439q.021.694.052,1.347t.072,1.336q-.353-.042-.766-.073c-.277-.021-.587-.031-.932-.031s-.657.01-.932.031-.532.045-.767.073q.042-.684.073-1.336c.02-.435.038-.884.051-1.347s.024-.942.032-1.439.01-1.036.01-1.616Z" fill="#202022"/>
      <path id="Path_43405" data-name="Path 43405" d="M61.955,34.16a7.3,7.3,0,0,1,.57-2.879,7.183,7.183,0,0,1,1.6-2.362,7.424,7.424,0,0,1,2.506-1.6,8.866,8.866,0,0,1,3.273-.579,10.162,10.162,0,0,1,3.076.455,7.015,7.015,0,0,1,2.5,1.367,6.365,6.365,0,0,1,1.667,2.31,8.093,8.093,0,0,1,.611,3.262,7.168,7.168,0,0,1-.59,2.889A7.352,7.352,0,0,1,75.532,39.4a7.559,7.559,0,0,1-2.5,1.595,8.52,8.52,0,0,1-3.189.58,10.583,10.583,0,0,1-3.076-.435A6.936,6.936,0,0,1,64.265,39.8a6.31,6.31,0,0,1-1.689-2.3,8.2,8.2,0,0,1-.621-3.345M74.362,33.7a8.124,8.124,0,0,0-.331-2.413,5.522,5.522,0,0,0-.922-1.812,4.023,4.023,0,0,0-1.429-1.15,4.175,4.175,0,0,0-1.833-.4,3.586,3.586,0,0,0-1.9.508,4.481,4.481,0,0,0-1.418,1.377,6.572,6.572,0,0,0-.88,2.04,9.984,9.984,0,0,0-.3,2.5,9.564,9.564,0,0,0,.352,2.8,5.027,5.027,0,0,0,.953,1.833,3.539,3.539,0,0,0,1.388,1.005,4.476,4.476,0,0,0,1.657.311,4.178,4.178,0,0,0,1.781-.394,4.019,4.019,0,0,0,1.481-1.2,6.341,6.341,0,0,0,1.015-2.051,10.046,10.046,0,0,0,.383-2.941" fill="#202022"/>
      <path id="Path_43406" data-name="Path 43406" d="M86.231,41.574a9.777,9.777,0,0,1-2.475-.3,5.438,5.438,0,0,1-2-.963,4.621,4.621,0,0,1-1.336-1.689,5.792,5.792,0,0,1-.486-2.5q0-.828.01-1.48t.01-1.212c0-.373,0-.732.01-1.077s.011-.7.011-1.077q0-1.658-.021-2.7t-.062-1.564q.414.042.849.072t.849.031q.415,0,.85-.031t.849-.072q-.1,1.014-.155,1.936t-.083,1.8q-.032.882-.042,1.751T83,34.262a13.943,13.943,0,0,0,.269,3.056,4.266,4.266,0,0,0,.8,1.781,2.508,2.508,0,0,0,1.294.839,6.87,6.87,0,0,0,1.782.207,2.836,2.836,0,0,0,1.946-.622,3.838,3.838,0,0,0,1.067-1.657,8.84,8.84,0,0,0,.446-2.371q.083-1.336.083-2.786,0-1.429-.042-2.848t-.124-2.848a6.04,6.04,0,0,0,1.056.1,4.132,4.132,0,0,0,.518-.031c.166-.02.338-.044.518-.072q-.042.456-.093,1.222t-.094,1.771q-.041,1.005-.062,2.216t-.021,2.558q0,3.6-1.553,5.2a6.079,6.079,0,0,1-4.557,1.6" fill="#202022"/>
      <path id="Path_43407" data-name="Path 43407" d="M98.866,34.718H98.68v.849c0,.58,0,1.119.01,1.616s.017.977.031,1.439.031.912.051,1.347.045.88.073,1.336c-.235-.028-.49-.052-.767-.073s-.586-.031-.932-.031-.655.01-.931.031-.532.045-.767.073c.027-.456.052-.9.072-1.336s.038-.884.053-1.347.024-.942.03-1.439.011-1.036.011-1.616V32.75q0-.87-.011-1.615c-.006-.5-.017-.977-.03-1.44s-.032-.911-.053-1.346-.045-.88-.072-1.336c.235.028.49.052.767.072s.586.031.931.031q.559,0,1.274-.051t1.771-.052q.788,0,1.346.041a8.022,8.022,0,0,1,.964.124,3.422,3.422,0,0,1,.7.218,3.625,3.625,0,0,1,.57.321,3.207,3.207,0,0,1,1.346,2.734,3.618,3.618,0,0,1-.829,2.465,4.521,4.521,0,0,1-2.382,1.346q.994,1.761,2.134,3.521t2.279,3.522q-.477-.042-.933-.073c-.3-.021-.614-.031-.932-.031s-.631.01-.942.031-.625.045-.943.073Zm3.086-3.811a4.538,4.538,0,0,0-.187-1.45,1.633,1.633,0,0,0-.569-.818,2.158,2.158,0,0,0-.994-.363,11.112,11.112,0,0,0-1.46-.083q-.063,2.838-.062,5.634c.082.014.162.025.237.031s.149.011.218.011a2.786,2.786,0,0,0,2.092-.746,3.061,3.061,0,0,0,.725-2.216" fill="#202022"/>
      <path id="Path_43408" data-name="Path 43408" d="M108.041,31.135q0-1.409-.042-2.392t-.062-1.73a4.233,4.233,0,0,0,1.865,0q2.257,2.485,4.474,4.93t4.515,4.929V33.061q0-1.014-.01-2t-.032-1.812q-.02-.828-.041-1.419a6.645,6.645,0,0,0-.062-.818,4.228,4.228,0,0,0,1.864,0q-.083,1.512-.135,2.776t-.093,2.392q-.042,1.129-.062,2.175t-.031,2.133q-.011,1.088-.01,2.268v2.548c-.152-.028-.294-.052-.425-.073a2.816,2.816,0,0,0-.424-.031,3.324,3.324,0,0,0-.808.1q-2.133-2.528-4.391-5.033t-4.661-5.033q-.042,1.181-.041,2.423v2.4q0,1.242.01,2.112t.031,1.471c.014.4.028.728.042.984s.027.48.041.673c-.166-.028-.331-.052-.5-.073a4,4,0,0,0-.476-.031,4.892,4.892,0,0,0-.953.1c.014-.1.034-.317.062-.663s.059-.777.093-1.294.066-1.1.093-1.761.055-1.346.083-2.071.048-1.461.062-2.206.021-1.471.021-2.175" fill="#202022"/>
      <path id="Path_43409" data-name="Path 43409" d="M129.106,26.91q.663,1.781,1.419,3.77t1.523,3.935q.767,1.947,1.491,3.687t1.326,3c-.331-.028-.646-.051-.943-.072s-.59-.031-.88-.031-.583.01-.88.031-.591.044-.88.072q-.331-1.056-.684-2.123t-.745-2.123q-.664-.021-1.326-.031c-.443-.007-.884-.01-1.326-.01q-.538,0-1.077.01t-1.077.031q-.414,1.058-.766,2.113t-.642,2.133c-.166-.028-.328-.051-.487-.072a3.713,3.713,0,0,0-.487-.031,3.959,3.959,0,0,0-.5.031c-.166.021-.345.044-.539.072l.663-1.543q.414-.963.922-2.164t1.077-2.579q.568-1.377,1.139-2.786t1.108-2.775q.539-1.368.995-2.548c.137.028.269.052.393.072a2.435,2.435,0,0,0,.787,0q.186-.03.393-.072m.27,8.927q-.456-1.263-.9-2.485t-.942-2.444q-.54,1.221-1.015,2.444t-.933,2.485Z" fill="#202022"/>
      <path id="Path_43410" data-name="Path 43410" d="M138.241,31.9q-.331,2.361-.5,4.7t-.332,4.7c-.165-.028-.331-.052-.5-.073a3.773,3.773,0,0,0-.476-.031,3.712,3.712,0,0,0-.487.031c-.159.021-.321.045-.486.073q.661-3.6,1.18-7.146t.953-7.146c.152.028.293.052.425.072a2.682,2.682,0,0,0,.424.031,3.77,3.77,0,0,0,.829-.1q.56,1.242,1.17,2.527t1.222,2.558q.61,1.274,1.222,2.5t1.17,2.319q1.243-2.319,2.475-4.867t2.351-5.033a4.213,4.213,0,0,0,.891.1,4.13,4.13,0,0,0,.87-.1q.207,1.782.435,3.832t.466,4.008q.238,1.956.466,3.655t.414,2.8c-.276-.028-.556-.052-.838-.073s-.563-.031-.839-.031-.56.01-.85.031-.579.045-.869.073q-.105-2.175-.342-4.682t-.487-4.929h-.042q-1.181,2.423-2.319,4.805t-2.258,4.806a1.989,1.989,0,0,0-.2-.031,1.538,1.538,0,0,0-.2-.011,1.559,1.559,0,0,0-.2.011,1.927,1.927,0,0,0-.2.031l-2.227-4.7q-1.108-2.34-2.288-4.7Z" fill="#202022"/>
      <path id="Path_43411" data-name="Path 43411" d="M154.376,32.751q0-.87-.009-1.615c-.006-.5-.015-.977-.027-1.44s-.027-.912-.046-1.346-.039-.881-.063-1.336q.933.021,1.844.062t1.843.041q.767,0,1.46-.01l1.264-.021c.38-.007.707-.017.984-.031s.483-.027.621-.041a3.154,3.154,0,0,0-.062.383,4.7,4.7,0,0,0-.021.487,4.887,4.887,0,0,0,.021.517c.013.125.034.263.062.415q-.6-.042-1.315-.083t-1.388-.083q-.674-.042-1.212-.062t-.766-.021q-.082,1.14-.093,2.258t-.011,2.258q1.347-.021,2.434-.063t2.268-.1q-.062.353-.083.538a3.546,3.546,0,0,0-.02.394,1.942,1.942,0,0,0,.031.342q.03.175.072.507-2.361-.186-4.7-.186,0,.663-.01,1.325t-.011,1.326q0,1.347.063,2.589,1.181,0,2.361-.062t2.382-.207c-.028.152-.049.29-.062.414a6.4,6.4,0,0,0,0,1.036,3.207,3.207,0,0,0,.062.372q-.56-.02-1.377-.062t-2.248-.041q-1.263,0-2.04.01t-1.243.031l-.7.031c-.159.007-.294.018-.4.031q.036-.683.063-1.335c.019-.436.034-.884.046-1.347s.021-.942.027-1.439.009-1.036.009-1.616Z" fill="#202022"/>
      <path id="Path_43412" data-name="Path 43412" d="M164.712,31.135q0-1.409-.043-2.392c-.026-.656-.048-1.233-.062-1.73a4.233,4.233,0,0,0,1.865,0q2.258,2.485,4.474,4.93t4.516,4.929V33.061q0-1.014-.011-2c-.008-.655-.017-1.26-.032-1.812s-.026-1.025-.041-1.419a6.445,6.445,0,0,0-.062-.818,4.228,4.228,0,0,0,1.864,0q-.082,1.512-.134,2.776t-.094,2.392q-.042,1.129-.062,2.175t-.031,2.133q-.01,1.088-.01,2.268v2.548c-.152-.028-.294-.052-.425-.073A2.816,2.816,0,0,0,176,41.2a3.324,3.324,0,0,0-.808.1q-2.133-2.528-4.391-5.033t-4.661-5.033q-.042,1.181-.041,2.423v2.4q0,1.242.01,2.112t.031,1.471c.014.4.028.728.042.984s.027.48.041.673c-.166-.028-.33-.052-.5-.073a4.013,4.013,0,0,0-.477-.031,4.882,4.882,0,0,0-.952.1c.013-.1.033-.317.061-.663s.059-.777.093-1.294.066-1.1.094-1.761.054-1.346.082-2.071.048-1.461.062-2.206.022-1.471.022-2.175" fill="#202022"/>
      <path id="Path_43413" data-name="Path 43413" d="M182.67,30.39c0-.4,0-.767-.01-1.1a5.37,5.37,0,0,0-.052-.725c-.208,0-.463.007-.767.021s-.628.034-.973.062l-1.056.083c-.36.028-.691.062-.995.1.028-.152.052-.3.073-.456a3.369,3.369,0,0,0,0-.912c-.021-.152-.045-.3-.073-.455q.705.021,1.274.041t1.16.031l1.284.021c.463.007,1.018.01,1.668.01q.951,0,1.657-.01l1.284-.021q.579-.01,1.118-.031t1.2-.041c-.028.152-.052.3-.073.455a3.369,3.369,0,0,0,0,.912c.021.152.045.3.073.456-.276-.042-.587-.076-.932-.1l-1.026-.083c-.338-.028-.659-.048-.963-.062s-.559-.021-.766-.021a4.444,4.444,0,0,0-.042.725v6.276q0,.87.011,1.616t.031,1.439q.021.694.052,1.347t.072,1.336q-.353-.042-.766-.073c-.277-.021-.587-.031-.932-.031s-.657.01-.932.031-.532.045-.767.073q.042-.684.073-1.336c.02-.435.038-.884.051-1.347s.024-.942.032-1.439.01-1.036.01-1.616Z" fill="#202022"/>
      <path id="Path_43414" data-name="Path 43414" d="M54.153,44.14a.924.924,0,0,0-.934-.664.819.819,0,0,0-.58.208.675.675,0,0,0-.049.954,1.8,1.8,0,0,0,.436.328q.261.147.564.282a2.975,2.975,0,0,1,.563.332,1.738,1.738,0,0,1,.437.479,1.366,1.366,0,0,1,.173.722,1.679,1.679,0,0,1-.147.707,1.583,1.583,0,0,1-.417.552,1.942,1.942,0,0,1-.645.359,2.583,2.583,0,0,1-.838.127,2.549,2.549,0,0,1-.745-.1,1.588,1.588,0,0,1-.5-.232q.078-.27.132-.494c.036-.149.067-.311.092-.487h.147a1.056,1.056,0,0,0,.112.321.93.93,0,0,0,.216.266.987.987,0,0,0,.321.182,1.237,1.237,0,0,0,.417.065.909.909,0,0,0,.68-.231.777.777,0,0,0,.223-.556.678.678,0,0,0-.17-.479,1.706,1.706,0,0,0-.424-.328c-.17-.095-.356-.188-.556-.278a2.874,2.874,0,0,1-.556-.328,1.67,1.67,0,0,1-.425-.475,1.385,1.385,0,0,1-.17-.722,1.681,1.681,0,0,1,.143-.711,1.525,1.525,0,0,1,.382-.517,1.647,1.647,0,0,1,.553-.317A2,2,0,0,1,53.25,43a2.382,2.382,0,0,1,.729.1,1.662,1.662,0,0,1,.537.277c-.046.119-.086.234-.12.344s-.076.251-.127.421Z" fill="#202022"/>
      <path id="Path_43415" data-name="Path 43415" d="M59.227,45.847c-.2-.005-.391-.011-.587-.019s-.391-.012-.587-.012-.391,0-.587.008-.391.013-.587.023v.44c0,.216,0,.417,0,.6s.007.364.012.536.012.34.019.5.017.328.027.5q-.132-.015-.285-.027c-.1-.007-.22-.011-.348-.011s-.245,0-.348.011-.2.017-.285.027q.015-.255.027-.5c.007-.162.014-.329.019-.5s.009-.351.012-.536,0-.387,0-.6v-1.05c0-.216,0-.417,0-.6s-.007-.364-.012-.537-.012-.34-.019-.5-.017-.328-.027-.5q.131.015.285.027t.348.012c.128,0,.245,0,.348-.012s.2-.017.285-.027c-.026.335-.042.665-.05.992s-.012.7-.012,1.132c.134.005.295.009.483.011s.421,0,.7,0,.5,0,.68,0,.337-.006.486-.011q0-.642-.015-1.132c-.011-.327-.026-.657-.047-.992.088.01.183.019.286.027s.219.012.348.012.244,0,.347-.012.2-.017.286-.027c-.011.17-.019.336-.027.5s-.014.33-.019.5-.01.351-.012.537,0,.386,0,.6v1.05q0,.324,0,.6c0,.185.006.364.012.536s.011.34.019.5.016.328.027.5c-.088-.01-.183-.019-.286-.027s-.219-.011-.347-.011-.245,0-.348.011-.2.017-.286.027q.016-.255.027-.5c.008-.162.014-.329.02-.5s.009-.351.011-.536,0-.387,0-.6Z" fill="#202022"/>
      <path id="Path_43416" data-name="Path 43416" d="M63.953,43.058q.246.665.529,1.406t.568,1.467q.285.726.555,1.375t.495,1.12c-.124-.011-.241-.02-.352-.028s-.22-.011-.328-.011-.218,0-.328.011-.22.017-.329.028q-.123-.395-.254-.792t-.278-.791c-.165-.006-.33-.009-.494-.012s-.33,0-.495,0c-.133,0-.268,0-.4,0s-.268.006-.4.012c-.1.262-.2.525-.285.787s-.168.528-.24.8c-.062-.011-.122-.02-.181-.028a1.547,1.547,0,0,0-.182-.011,1.654,1.654,0,0,0-.185.011l-.2.028.247-.576q.155-.358.344-.807t.4-.961q.213-.513.425-1.039t.413-1.035q.2-.51.371-.95c.051.011.1.02.146.027a.875.875,0,0,0,.147.012.858.858,0,0,0,.147-.012q.069-.01.147-.027m.1,3.329q-.17-.471-.336-.927t-.351-.911q-.2.456-.378.911t-.348.927Z" fill="#202022"/>
      <path id="Path_43417" data-name="Path 43417" d="M66.826,45.236q0-.324,0-.6c0-.185-.007-.364-.011-.537s-.012-.34-.02-.5-.017-.328-.027-.5c.088.011.183.02.286.027s.219.012.348.012c.18,0,.366-.006.559-.019s.382-.02.568-.02a3.544,3.544,0,0,1,.857.081,1.2,1.2,0,0,1,.487.236,1.283,1.283,0,0,1,.362.448,1.38,1.38,0,0,1,.116.594,1.8,1.8,0,0,1-.146.757,1.325,1.325,0,0,1-.413.514,1.788,1.788,0,0,1-.63.289,3.2,3.2,0,0,1-.795.093h-.394q0,.579.012,1.158t.049,1.159q-.13-.016-.285-.027c-.1-.008-.219-.012-.347-.012s-.245,0-.348.012-.2.016-.286.027q.015-.255.027-.5c.008-.162.014-.33.02-.5s.008-.352.011-.537,0-.386,0-.6Zm2.3-.656a1.629,1.629,0,0,0-.065-.494.849.849,0,0,0-.178-.321.67.67,0,0,0-.263-.174.938.938,0,0,0-.312-.053h-.178a1.248,1.248,0,0,0-.147.007q-.008.549-.011,1.089t0,1.081a2.118,2.118,0,0,0,.4-.039.937.937,0,0,0,.375-.158.872.872,0,0,0,.278-.344,1.377,1.377,0,0,0,.108-.594" fill="#202022"/>
      <path id="Path_43418" data-name="Path 43418" d="M71.22,45.237q0-.324,0-.6c0-.186-.006-.364-.012-.537s-.011-.34-.019-.5-.017-.328-.027-.5c.087.01.183.019.286.027s.219.012.347.012.245,0,.348-.012.2-.017.286-.027c-.011.17-.019.336-.027.5s-.014.33-.02.5-.009.351-.012.537,0,.386,0,.6v1.05c0,.217,0,.417,0,.6s.007.364.012.536.012.34.02.5.016.329.027.5c-.088-.01-.183-.019-.286-.027s-.219-.011-.348-.011-.244,0-.347.011-.2.017-.286.027c.01-.169.02-.335.027-.5s.014-.329.019-.5.01-.351.012-.536,0-.386,0-.6Z" fill="#202022"/>
      <path id="Path_43419" data-name="Path 43419" d="M73.83,44.634q0-.525-.016-.892t-.023-.645a1.568,1.568,0,0,0,.695,0l1.668,1.838q.827.912,1.684,1.838V45.352q0-.378,0-.745c0-.244-.006-.47-.011-.676s-.011-.382-.016-.529a2.546,2.546,0,0,0-.023-.305,1.568,1.568,0,0,0,.695,0q-.031.564-.05,1.035c-.013.314-.025.612-.035.892s-.018.551-.023.811-.009.525-.012.8,0,.553,0,.846v.95c-.056-.011-.109-.02-.158-.027a.988.988,0,0,0-.159-.012,1.218,1.218,0,0,0-.3.039q-.8-.942-1.637-1.877t-1.738-1.876c-.011.293-.015.594-.015.9v.9c0,.309,0,.571,0,.788s.007.4.012.548.01.272.015.367.011.179.015.251c-.061-.011-.123-.02-.185-.027a1.385,1.385,0,0,0-.177-.012,1.8,1.8,0,0,0-.355.039c0-.036.012-.119.023-.247s.022-.29.034-.483.025-.412.035-.656.02-.5.031-.773.018-.544.023-.822.008-.548.008-.811" fill="#202022"/>
      <path id="Path_43420" data-name="Path 43420" d="M84.178,44.248a1.927,1.927,0,0,0-.618-.56,1.8,1.8,0,0,0-.9-.212,1.772,1.772,0,0,0-.71.15,1.829,1.829,0,0,0-.623.452,2.326,2.326,0,0,0-.443.753,3,3,0,0,0-.17,1.062,2.765,2.765,0,0,0,.127.857,2.052,2.052,0,0,0,.367.684,1.674,1.674,0,0,0,.587.451,1.863,1.863,0,0,0,.795.162c.067,0,.142,0,.224-.011s.165-.017.247-.027a1.717,1.717,0,0,0,.224-.043.511.511,0,0,0,.147-.058,1.841,1.841,0,0,0,.02-.231q0-.139,0-.309c0-.417-.007-.725-.023-.923s-.026-.333-.031-.4c.051.01.12.019.2.027s.207.011.367.011c.185,0,.323,0,.413-.011s.161-.017.212-.027a1.489,1.489,0,0,0-.027.2c-.008.093-.014.2-.019.321s-.009.25-.012.386,0,.266,0,.39v.255c0,.087,0,.17,0,.247s0,.147.008.208.007.108.011.139q-.508.147-1.03.244a5.7,5.7,0,0,1-1.032.1,3.946,3.946,0,0,1-1.223-.181,2.841,2.841,0,0,1-.966-.522,2.416,2.416,0,0,1-.633-.814,2.442,2.442,0,0,1-.228-1.07,3.152,3.152,0,0,1,.244-1.286,2.543,2.543,0,0,1,.671-.919,2.892,2.892,0,0,1,1.016-.552A4.2,4.2,0,0,1,82.641,43a3.8,3.8,0,0,1,1.016.12,4.127,4.127,0,0,1,.846.343c-.042.134-.082.266-.12.394a3.972,3.972,0,0,0-.1.394Z" fill="#202022"/>
      <path id="Path_43421" data-name="Path 43421" d="M88.48,44.356c0-.149,0-.286,0-.409a2.039,2.039,0,0,0-.019-.271c-.078,0-.173,0-.286.008s-.234.013-.363.023l-.394.031c-.134.011-.257.023-.371.039.011-.057.02-.113.027-.17a1.21,1.21,0,0,0,0-.34c-.007-.057-.016-.113-.027-.17.175.005.334.01.476.016s.285.009.432.011l.479.008q.258,0,.621,0t.618,0l.479-.008c.144,0,.283-.006.417-.011s.283-.011.448-.016c-.011.057-.019.113-.027.17a1.21,1.21,0,0,0,0,.34c.008.057.016.113.027.17-.1-.016-.219-.028-.347-.039l-.383-.031c-.126-.01-.246-.018-.359-.023s-.209-.008-.286-.008a1.736,1.736,0,0,0-.015.271v2.339c0,.217,0,.417,0,.6s.007.364.012.537.012.339.02.5.016.328.027.5c-.088-.011-.183-.02-.286-.028s-.219-.011-.348-.011-.244,0-.347.011-.2.017-.286.028c.01-.17.02-.336.027-.5s.014-.33.019-.5.009-.352.012-.537,0-.386,0-.6Z" fill="#202022"/>
      <path id="Path_43422" data-name="Path 43422" d="M95.353,45.847c-.2-.005-.391-.011-.587-.019s-.391-.012-.587-.012-.391,0-.587.008-.391.013-.587.023v.44c0,.216,0,.417,0,.6s.007.364.012.536.012.34.019.5.017.328.027.5q-.132-.015-.285-.027c-.1-.007-.22-.011-.348-.011s-.245,0-.348.011-.2.017-.285.027q.015-.255.027-.5c.007-.162.014-.329.019-.5s.009-.351.012-.536,0-.387,0-.6v-1.05c0-.216,0-.417,0-.6s-.007-.364-.012-.537-.012-.34-.019-.5-.017-.328-.027-.5q.13.015.285.027t.348.012c.128,0,.245,0,.348-.012s.2-.017.285-.027c-.026.335-.042.665-.05.992s-.012.7-.012,1.132c.134.005.3.009.483.011s.421,0,.7,0,.5,0,.68,0,.337-.006.486-.011q0-.642-.015-1.132c-.011-.327-.026-.657-.047-.992.088.01.183.019.286.027s.219.012.348.012.244,0,.347-.012.2-.017.286-.027c-.011.17-.019.336-.027.5s-.014.33-.019.5-.01.351-.012.537,0,.386,0,.6v1.05q0,.324,0,.6c0,.185.006.364.012.536s.011.34.019.5.016.328.027.5c-.088-.01-.183-.019-.286-.027s-.219-.011-.347-.011-.245,0-.348.011-.2.017-.286.027q.017-.255.027-.5c.008-.162.014-.329.02-.5s.009-.351.011-.536,0-.387,0-.6Z" fill="#202022"/>
      <path id="Path_43423" data-name="Path 43423" d="M97.793,45.237q0-.324,0-.6c0-.186-.006-.364-.01-.537s-.01-.34-.017-.5-.015-.328-.024-.5q.348.008.687.023t.688.016c.19,0,.372,0,.544,0l.471-.008c.142,0,.264-.006.367-.012s.18-.01.232-.015a1.094,1.094,0,0,0-.023.143,1.547,1.547,0,0,0-.008.181,1.619,1.619,0,0,0,.008.193c0,.047.012.1.023.155-.15-.01-.313-.021-.491-.031l-.517-.031c-.167-.01-.318-.018-.452-.023s-.229-.008-.286-.008c-.02.283-.032.564-.034.842s0,.559,0,.842c.334-.005.637-.013.907-.023s.552-.024.846-.039c-.016.087-.026.154-.031.2a1.354,1.354,0,0,0-.008.146.71.71,0,0,0,.012.128q.012.066.027.189-.88-.069-1.753-.07c0,.165,0,.33,0,.495s0,.329,0,.494q0,.5.024.965c.293,0,.586-.007.88-.023s.589-.041.888-.077c-.011.057-.018.108-.023.154a2.343,2.343,0,0,0,0,.387,1.1,1.1,0,0,0,.023.138c-.139,0-.31-.012-.514-.023s-.483-.015-.838-.015q-.471,0-.76,0c-.194,0-.348.006-.464.011l-.262.012c-.059,0-.11.006-.151.011q.014-.253.024-.5c.007-.162.012-.329.017-.5s.008-.351.01-.536,0-.386,0-.6Z" fill="#202022"/>
      <path id="Path_43424" data-name="Path 43424" d="M108.056,47.53c-.042.108-.077.218-.108.328a1.854,1.854,0,0,0-.062.328,2.852,2.852,0,0,1-.7.251,3.916,3.916,0,0,1-.872.089,3.43,3.43,0,0,1-1.2-.2,2.588,2.588,0,0,1-.9-.544,2.35,2.35,0,0,1-.56-.819,2.656,2.656,0,0,1-.193-1.019,3.334,3.334,0,0,1,.251-1.359,2.472,2.472,0,0,1,.672-.915,2.653,2.653,0,0,1,.977-.514A4.142,4.142,0,0,1,106.527,43a3.58,3.58,0,0,1,.425.027,3.3,3.3,0,0,1,.432.081c.139.036.272.077.4.123a2.114,2.114,0,0,1,.32.147,2.459,2.459,0,0,0-.119.39,2.806,2.806,0,0,0-.058.4h-.108a1.989,1.989,0,0,0-.6-.525,1.543,1.543,0,0,0-.726-.162,1.51,1.51,0,0,0-.621.139,1.652,1.652,0,0,0-.568.425,2.183,2.183,0,0,0-.413.733,3.167,3.167,0,0,0-.159,1.058,2.856,2.856,0,0,0,.162,1.016,2.037,2.037,0,0,0,.421.687,1.611,1.611,0,0,0,.587.39,1.871,1.871,0,0,0,.661.123,1.779,1.779,0,0,0,.378-.042,2.435,2.435,0,0,0,.379-.116,1.947,1.947,0,0,0,.351-.182,1.527,1.527,0,0,0,.289-.239Z" fill="#202022"/>
      <path id="Path_43425" data-name="Path 43425" d="M108.613,45.762a2.74,2.74,0,0,1,.211-1.074,2.7,2.7,0,0,1,.6-.88,2.778,2.778,0,0,1,.935-.595,3.3,3.3,0,0,1,1.22-.216,3.782,3.782,0,0,1,1.146.17,2.606,2.606,0,0,1,.931.51,2.359,2.359,0,0,1,.622.861,3.029,3.029,0,0,1,.228,1.216,2.665,2.665,0,0,1-.221,1.077,2.75,2.75,0,0,1-.609.885,2.844,2.844,0,0,1-.931.594,3.178,3.178,0,0,1-1.19.216,3.943,3.943,0,0,1-1.146-.162,2.587,2.587,0,0,1-.935-.5,2.351,2.351,0,0,1-.629-.857,3.064,3.064,0,0,1-.231-1.247m4.625-.17a3.008,3.008,0,0,0-.124-.9,2.043,2.043,0,0,0-.343-.675,1.5,1.5,0,0,0-.533-.429,1.562,1.562,0,0,0-.684-.151,1.337,1.337,0,0,0-.706.189,1.682,1.682,0,0,0-.529.514,2.45,2.45,0,0,0-.328.761,3.715,3.715,0,0,0-.112.93,3.591,3.591,0,0,0,.131,1.043,1.871,1.871,0,0,0,.355.683,1.323,1.323,0,0,0,.518.375,1.668,1.668,0,0,0,.618.116,1.564,1.564,0,0,0,.664-.147,1.5,1.5,0,0,0,.552-.448,2.357,2.357,0,0,0,.378-.765,3.741,3.741,0,0,0,.143-1.1" fill="#202022"/>
      <path id="Path_43426" data-name="Path 43426" d="M116.08,44.92q-.125.881-.186,1.753t-.123,1.753l-.185-.027a1.388,1.388,0,0,0-.178-.012,1.368,1.368,0,0,0-.182.012l-.181.027q.248-1.344.44-2.664t.356-2.665c.056.011.109.02.158.027a.984.984,0,0,0,.158.012,1.388,1.388,0,0,0,.309-.039q.208.463.436.943t.456.953q.228.476.455.931t.437.865q.463-.865.923-1.815t.876-1.877a1.549,1.549,0,0,0,.332.039,1.516,1.516,0,0,0,.324-.039q.078.665.163,1.429t.173,1.494q.09.73.174,1.363t.155,1.043c-.1-.01-.207-.019-.313-.027s-.21-.012-.313-.012-.208,0-.316.012-.217.017-.325.027q-.037-.812-.127-1.745t-.182-1.838h-.015q-.439.9-.865,1.791t-.842,1.792L118,48.414c-.023,0-.048,0-.073,0s-.051,0-.074,0l-.073.012q-.417-.88-.83-1.753T116.1,44.92Z" fill="#202022"/>
      <path id="Path_43427" data-name="Path 43427" d="M122.258,45.236q0-.324,0-.6c0-.185-.007-.364-.011-.537s-.012-.34-.02-.5-.017-.328-.027-.5c.088.011.183.02.286.027s.219.012.348.012c.18,0,.366-.006.559-.019s.382-.02.568-.02a3.544,3.544,0,0,1,.857.081,1.2,1.2,0,0,1,.487.236,1.283,1.283,0,0,1,.362.448,1.38,1.38,0,0,1,.116.594,1.8,1.8,0,0,1-.146.757,1.325,1.325,0,0,1-.413.514,1.788,1.788,0,0,1-.63.289,3.2,3.2,0,0,1-.795.093H123.4q0,.579.012,1.158t.049,1.159q-.13-.016-.285-.027c-.1-.008-.219-.012-.347-.012s-.245,0-.348.012-.2.016-.286.027q.015-.255.027-.5c.008-.162.014-.33.02-.5s.008-.352.011-.537,0-.386,0-.6Zm2.3-.656a1.63,1.63,0,0,0-.065-.494.849.849,0,0,0-.178-.321.67.67,0,0,0-.263-.174.938.938,0,0,0-.312-.053h-.178a1.248,1.248,0,0,0-.147.007q-.007.549-.011,1.089t0,1.081a2.118,2.118,0,0,0,.4-.039.937.937,0,0,0,.375-.158.871.871,0,0,0,.278-.344,1.377,1.377,0,0,0,.108-.594" fill="#202022"/>
      <path id="Path_43428" data-name="Path 43428" d="M126.544,45.237q0-.324,0-.6c0-.186-.006-.364-.01-.537s-.01-.34-.017-.5-.015-.328-.024-.5q.348.008.687.023t.688.016c.19,0,.372,0,.544,0l.471-.008c.142,0,.264-.006.367-.012s.18-.01.232-.015a.949.949,0,0,0-.023.143,1.549,1.549,0,0,0-.008.181,1.621,1.621,0,0,0,.008.193,1.5,1.5,0,0,0,.023.155c-.15-.01-.313-.021-.491-.031l-.517-.031c-.167-.01-.318-.018-.452-.023s-.229-.008-.286-.008c-.02.283-.032.564-.034.842s0,.559,0,.842c.334-.005.637-.013.907-.023s.552-.024.846-.039c-.016.087-.026.154-.031.2a1.352,1.352,0,0,0-.008.146.709.709,0,0,0,.012.128q.012.066.027.189-.881-.069-1.753-.07c0,.165,0,.33,0,.495s0,.329,0,.494q0,.5.024.965c.293,0,.586-.007.88-.023s.589-.041.888-.077a1.525,1.525,0,0,0-.023.154,2.345,2.345,0,0,0,0,.387.948.948,0,0,0,.023.138c-.139,0-.311-.012-.514-.023s-.483-.015-.838-.015q-.471,0-.76,0c-.194,0-.348.006-.464.011l-.262.012c-.059,0-.11.006-.151.011q.014-.253.024-.5c.007-.162.012-.329.017-.5s.008-.351.01-.536,0-.386,0-.6Z" fill="#202022"/>
      <path id="Path_43429" data-name="Path 43429" d="M131.394,44.356c0-.149,0-.286,0-.409a2.042,2.042,0,0,0-.019-.271c-.078,0-.173,0-.286.008s-.234.013-.363.023l-.394.031c-.134.011-.257.023-.371.039.011-.057.02-.113.027-.17a1.209,1.209,0,0,0,0-.34c-.007-.057-.016-.113-.027-.17.175.005.334.01.476.016s.285.009.432.011l.479.008q.258,0,.621,0t.618,0l.479-.008c.144,0,.283-.006.417-.011s.283-.011.448-.016c-.011.057-.019.113-.027.17a1.211,1.211,0,0,0,0,.34c.008.057.016.113.027.17-.1-.016-.219-.028-.347-.039l-.383-.031c-.126-.01-.246-.018-.359-.023s-.209-.008-.286-.008a1.737,1.737,0,0,0-.015.271v2.339c0,.217,0,.417,0,.6s.007.364.012.537.012.339.02.5.016.328.027.5c-.088-.011-.183-.02-.286-.028s-.219-.011-.348-.011-.244,0-.347.011-.2.017-.286.028c.01-.17.02-.336.027-.5s.014-.33.019-.5.009-.352.012-.537,0-.386,0-.6Z" fill="#202022"/>
      <path id="Path_43430" data-name="Path 43430" d="M134.807,45.237q0-.324,0-.6c0-.186-.006-.364-.012-.537s-.011-.34-.019-.5-.017-.328-.027-.5c.087.01.183.019.286.027s.219.012.347.012.245,0,.348-.012.2-.017.286-.027c-.011.17-.019.336-.027.5s-.014.33-.02.5-.009.351-.012.537,0,.386,0,.6v1.05c0,.217,0,.417,0,.6s.007.364.012.536.012.34.02.5.016.329.027.5c-.088-.01-.183-.019-.286-.027s-.219-.011-.348-.011-.244,0-.347.011-.2.017-.286.027c.01-.169.02-.335.027-.5s.014-.329.019-.5.01-.351.012-.536,0-.386,0-.6Z" fill="#202022"/>
      <path id="Path_43431" data-name="Path 43431" d="M138.259,44.356c0-.149,0-.286,0-.409a2.039,2.039,0,0,0-.019-.271c-.078,0-.173,0-.286.008s-.234.013-.363.023l-.394.031c-.134.011-.257.023-.371.039.011-.057.02-.113.027-.17a1.211,1.211,0,0,0,0-.34c-.007-.057-.016-.113-.027-.17.175.005.334.01.476.016s.285.009.432.011l.479.008q.258,0,.621,0t.618,0l.479-.008c.144,0,.283-.006.417-.011s.283-.011.448-.016c-.011.057-.019.113-.027.17a1.211,1.211,0,0,0,0,.34c.008.057.016.113.027.17-.1-.016-.219-.028-.347-.039l-.383-.031c-.126-.01-.246-.018-.359-.023s-.209-.008-.286-.008a1.735,1.735,0,0,0-.015.271v2.339c0,.217,0,.417,0,.6s.007.364.012.537.012.339.02.5.016.328.027.5c-.088-.011-.183-.02-.286-.028s-.219-.011-.348-.011-.244,0-.347.011-.2.017-.286.028c.01-.17.02-.336.027-.5s.014-.33.019-.5.009-.352.012-.537,0-.386,0-.6Z" fill="#202022"/>
      <path id="Path_43432" data-name="Path 43432" d="M141.672,45.237c0-.216,0-.417,0-.6s-.006-.364-.012-.537-.011-.34-.019-.5-.017-.328-.027-.5c.087.01.183.019.286.027s.219.012.347.012.245,0,.348-.012.2-.017.286-.027c-.011.17-.019.336-.027.5s-.014.33-.02.5-.009.351-.012.537,0,.386,0,.6v1.05c0,.217,0,.417,0,.6s.007.364.012.536.012.34.02.5.016.329.027.5c-.088-.01-.183-.019-.286-.027s-.219-.011-.348-.011-.244,0-.347.011-.2.017-.286.027c.01-.169.02-.335.027-.5s.014-.329.019-.5.01-.351.012-.536,0-.386,0-.6Z" fill="#202022"/>
      <path id="Path_43433" data-name="Path 43433" d="M143.8,45.762a2.74,2.74,0,0,1,.211-1.074,2.7,2.7,0,0,1,.6-.88,2.778,2.778,0,0,1,.935-.595,3.3,3.3,0,0,1,1.22-.216,3.782,3.782,0,0,1,1.146.17,2.606,2.606,0,0,1,.931.51,2.359,2.359,0,0,1,.622.861,3.029,3.029,0,0,1,.228,1.216,2.665,2.665,0,0,1-.221,1.077,2.749,2.749,0,0,1-.609.885,2.844,2.844,0,0,1-.931.594,3.178,3.178,0,0,1-1.19.216,3.943,3.943,0,0,1-1.146-.162,2.587,2.587,0,0,1-.935-.5,2.351,2.351,0,0,1-.629-.857,3.064,3.064,0,0,1-.231-1.247m4.625-.17a3.008,3.008,0,0,0-.124-.9,2.043,2.043,0,0,0-.343-.675,1.5,1.5,0,0,0-.533-.429,1.562,1.562,0,0,0-.684-.151,1.337,1.337,0,0,0-.706.189,1.682,1.682,0,0,0-.529.514,2.45,2.45,0,0,0-.328.761,3.715,3.715,0,0,0-.112.93,3.592,3.592,0,0,0,.131,1.043,1.871,1.871,0,0,0,.355.683,1.323,1.323,0,0,0,.518.375,1.668,1.668,0,0,0,.618.116,1.564,1.564,0,0,0,.664-.147,1.5,1.5,0,0,0,.552-.448,2.357,2.357,0,0,0,.378-.765,3.741,3.741,0,0,0,.143-1.1" fill="#202022"/>
      <path id="Path_43434" data-name="Path 43434" d="M150.715,44.634q0-.525-.016-.892t-.023-.645a1.568,1.568,0,0,0,.7,0l1.668,1.838q.826.912,1.684,1.838V45.352q0-.378,0-.745c0-.244-.006-.47-.011-.676s-.011-.382-.016-.529a2.55,2.55,0,0,0-.023-.305,1.568,1.568,0,0,0,.695,0q-.031.564-.05,1.035c-.013.314-.025.612-.035.892s-.018.551-.023.811-.009.525-.012.8,0,.553,0,.846v.95c-.056-.011-.109-.02-.158-.027a.988.988,0,0,0-.159-.012,1.218,1.218,0,0,0-.3.039q-.8-.942-1.637-1.877t-1.738-1.876c-.011.293-.015.594-.015.9v.9c0,.309,0,.571,0,.788s.007.4.012.548.01.272.015.367.011.179.015.251c-.061-.011-.123-.02-.185-.027a1.385,1.385,0,0,0-.177-.012,1.8,1.8,0,0,0-.355.039c0-.036.012-.119.023-.247s.022-.29.034-.483.025-.412.035-.656.02-.5.031-.773.018-.544.023-.822.008-.548.008-.811" fill="#202022"/>
      <path id="Path_43435" data-name="Path 43435" d="M158.723,45.237q0-.324,0-.6c0-.186-.006-.364-.01-.537s-.01-.34-.017-.5-.015-.328-.024-.5q.348.008.687.023t.688.016c.19,0,.372,0,.544,0l.471-.008c.142,0,.264-.006.367-.012s.18-.01.232-.015a1.094,1.094,0,0,0-.023.143,1.549,1.549,0,0,0-.008.181,1.621,1.621,0,0,0,.008.193c.005.047.012.1.023.155-.15-.01-.313-.021-.491-.031l-.517-.031c-.167-.01-.318-.018-.452-.023s-.229-.008-.286-.008c-.02.283-.032.564-.034.842s0,.559,0,.842c.334-.005.637-.013.907-.023s.552-.024.846-.039c-.016.087-.026.154-.031.2a1.356,1.356,0,0,0-.008.146.709.709,0,0,0,.012.128q.012.066.027.189-.881-.069-1.753-.07c0,.165,0,.33,0,.495s0,.329,0,.494q0,.5.024.965c.293,0,.586-.007.88-.023s.589-.041.888-.077c-.011.057-.018.108-.023.154a2.345,2.345,0,0,0,0,.387,1.1,1.1,0,0,0,.023.138c-.139,0-.31-.012-.514-.023s-.483-.015-.838-.015q-.471,0-.76,0c-.194,0-.348.006-.464.011l-.262.012c-.059,0-.11.006-.151.011q.013-.253.024-.5c.007-.162.012-.329.017-.5s.008-.351.01-.536,0-.386,0-.6Z" fill="#202022"/>
      <path id="Path_43436" data-name="Path 43436" d="M164.94,44.14a.924.924,0,0,0-.934-.664.819.819,0,0,0-.58.208.675.675,0,0,0-.049.954,1.8,1.8,0,0,0,.436.328q.261.147.564.282a2.975,2.975,0,0,1,.563.332,1.738,1.738,0,0,1,.437.479,1.366,1.366,0,0,1,.173.722,1.679,1.679,0,0,1-.147.707,1.583,1.583,0,0,1-.417.552,1.942,1.942,0,0,1-.645.359,2.583,2.583,0,0,1-.838.127,2.549,2.549,0,0,1-.745-.1,1.588,1.588,0,0,1-.5-.232q.078-.27.132-.494c.036-.149.067-.311.092-.487h.147a1.056,1.056,0,0,0,.112.321.93.93,0,0,0,.216.266.987.987,0,0,0,.321.182,1.237,1.237,0,0,0,.417.065.908.908,0,0,0,.68-.231.777.777,0,0,0,.223-.556.678.678,0,0,0-.17-.479,1.706,1.706,0,0,0-.424-.328c-.17-.095-.356-.188-.556-.278a2.874,2.874,0,0,1-.556-.328,1.67,1.67,0,0,1-.425-.475,1.385,1.385,0,0,1-.17-.722,1.681,1.681,0,0,1,.143-.711,1.525,1.525,0,0,1,.382-.517,1.647,1.647,0,0,1,.553-.317,2,2,0,0,1,.66-.108,2.382,2.382,0,0,1,.729.1,1.662,1.662,0,0,1,.537.277c-.046.119-.086.234-.12.344s-.076.251-.127.421Z" fill="#202022"/>
      <path id="Path_43437" data-name="Path 43437" d="M168.8,44.14a.924.924,0,0,0-.934-.664.819.819,0,0,0-.58.208.675.675,0,0,0-.049.954,1.8,1.8,0,0,0,.436.328q.261.147.564.282a2.974,2.974,0,0,1,.563.332,1.739,1.739,0,0,1,.437.479,1.366,1.366,0,0,1,.173.722,1.679,1.679,0,0,1-.147.707,1.583,1.583,0,0,1-.417.552,1.942,1.942,0,0,1-.645.359,2.583,2.583,0,0,1-.838.127,2.549,2.549,0,0,1-.745-.1,1.588,1.588,0,0,1-.5-.232q.078-.27.132-.494c.036-.149.067-.311.092-.487h.147a1.056,1.056,0,0,0,.112.321.93.93,0,0,0,.216.266.987.987,0,0,0,.321.182,1.237,1.237,0,0,0,.417.065.909.909,0,0,0,.68-.231.777.777,0,0,0,.223-.556.678.678,0,0,0-.17-.479,1.707,1.707,0,0,0-.424-.328c-.17-.095-.356-.188-.556-.278a2.874,2.874,0,0,1-.556-.328,1.67,1.67,0,0,1-.425-.475,1.385,1.385,0,0,1-.17-.722,1.681,1.681,0,0,1,.143-.711,1.526,1.526,0,0,1,.382-.517,1.647,1.647,0,0,1,.553-.317A2,2,0,0,1,167.9,43a2.382,2.382,0,0,1,.729.1,1.663,1.663,0,0,1,.537.277c-.046.119-.086.234-.12.344s-.076.251-.127.421Z" fill="#202022"/>
      <path id="Path_43438" data-name="Path 43438" d="M170.307,45.237q0-.324,0-.6c0-.186-.006-.364-.01-.537s-.01-.34-.017-.5-.015-.328-.024-.5q.348.008.687.023t.688.016c.19,0,.372,0,.544,0l.471-.008c.142,0,.264-.006.367-.012s.18-.01.232-.015a1.094,1.094,0,0,0-.023.143,1.549,1.549,0,0,0-.008.181,1.621,1.621,0,0,0,.008.193c.005.047.012.1.023.155-.15-.01-.313-.021-.491-.031l-.517-.031c-.167-.01-.318-.018-.452-.023s-.229-.008-.286-.008c-.02.283-.032.564-.034.842s0,.559,0,.842c.334-.005.637-.013.907-.023s.552-.024.846-.039c-.016.087-.026.154-.031.2a1.356,1.356,0,0,0-.008.146.709.709,0,0,0,.012.128q.012.066.027.189-.881-.069-1.753-.07c0,.165,0,.33,0,.495s0,.329,0,.494q0,.5.024.965c.293,0,.586-.007.88-.023s.589-.041.888-.077c-.011.057-.018.108-.023.154a2.345,2.345,0,0,0,0,.387,1.1,1.1,0,0,0,.023.138c-.139,0-.31-.012-.514-.023s-.483-.015-.838-.015q-.471,0-.76,0c-.194,0-.348.006-.464.011l-.262.012c-.059,0-.11.006-.151.011q.013-.253.024-.5c.007-.162.012-.329.017-.5s.008-.351.01-.536,0-.386,0-.6Z" fill="#202022"/>
      <path id="Path_43439" data-name="Path 43439" d="M174.315,44.634q0-.525-.016-.892t-.023-.645a1.568,1.568,0,0,0,.695,0l1.668,1.838q.826.912,1.684,1.838V45.352q0-.378,0-.745c0-.244-.006-.47-.011-.676s-.011-.382-.016-.529a2.546,2.546,0,0,0-.023-.305,1.568,1.568,0,0,0,.7,0q-.032.564-.05,1.035c-.013.314-.025.612-.035.892s-.018.551-.023.811-.009.525-.012.8,0,.553,0,.846v.95c-.056-.011-.109-.02-.158-.027a.989.989,0,0,0-.159-.012,1.218,1.218,0,0,0-.3.039q-.8-.942-1.637-1.877t-1.738-1.876c-.011.293-.015.594-.015.9v.9c0,.309,0,.571,0,.788s.007.4.012.548.01.272.015.367.011.179.015.251c-.061-.011-.123-.02-.185-.027a1.385,1.385,0,0,0-.177-.012,1.8,1.8,0,0,0-.355.039c.005-.036.012-.119.023-.247s.022-.29.034-.483.025-.412.035-.656.02-.5.031-.773.018-.544.023-.822.008-.548.008-.811" fill="#202022"/>
      <path id="Path_43440" data-name="Path 43440" d="M184.431,47.53c-.042.108-.077.218-.108.328a1.854,1.854,0,0,0-.062.328,2.852,2.852,0,0,1-.7.251,3.916,3.916,0,0,1-.872.089,3.43,3.43,0,0,1-1.2-.2,2.587,2.587,0,0,1-.9-.544,2.35,2.35,0,0,1-.56-.819,2.656,2.656,0,0,1-.193-1.019,3.334,3.334,0,0,1,.251-1.359,2.472,2.472,0,0,1,.672-.915,2.653,2.653,0,0,1,.977-.514A4.142,4.142,0,0,1,182.9,43a3.58,3.58,0,0,1,.425.027,3.3,3.3,0,0,1,.432.081c.139.036.272.077.4.123a2.113,2.113,0,0,1,.32.147,2.457,2.457,0,0,0-.119.39,2.805,2.805,0,0,0-.058.4h-.108a1.989,1.989,0,0,0-.6-.525,1.543,1.543,0,0,0-.726-.162,1.51,1.51,0,0,0-.621.139,1.652,1.652,0,0,0-.568.425,2.183,2.183,0,0,0-.413.733,3.167,3.167,0,0,0-.159,1.058,2.856,2.856,0,0,0,.162,1.016,2.037,2.037,0,0,0,.421.687,1.611,1.611,0,0,0,.587.39,1.871,1.871,0,0,0,.661.123,1.779,1.779,0,0,0,.378-.042,2.435,2.435,0,0,0,.379-.116,1.948,1.948,0,0,0,.351-.182,1.527,1.527,0,0,0,.289-.239Z" fill="#202022"/>
      <path id="Path_43441" data-name="Path 43441" d="M185.327,45.237q0-.324,0-.6c0-.186-.006-.364-.01-.537s-.01-.34-.017-.5-.015-.328-.024-.5q.348.008.687.023t.688.016c.19,0,.372,0,.544,0l.471-.008c.142,0,.264-.006.367-.012s.18-.01.232-.015a1.1,1.1,0,0,0-.023.143,1.549,1.549,0,0,0-.008.181,1.621,1.621,0,0,0,.008.193c.005.047.012.1.023.155-.15-.01-.313-.021-.491-.031l-.517-.031c-.167-.01-.318-.018-.452-.023s-.229-.008-.286-.008c-.02.283-.032.564-.034.842s0,.559,0,.842c.334-.005.637-.013.907-.023s.552-.024.846-.039c-.016.087-.026.154-.031.2a1.356,1.356,0,0,0-.008.146.71.71,0,0,0,.012.128q.012.066.027.189-.881-.069-1.753-.07c0,.165,0,.33,0,.495s0,.329,0,.494q0,.5.024.965c.293,0,.586-.007.88-.023s.589-.041.888-.077c-.011.057-.018.108-.023.154a2.345,2.345,0,0,0,0,.387,1.107,1.107,0,0,0,.023.138c-.139,0-.31-.012-.514-.023s-.483-.015-.838-.015q-.471,0-.76,0c-.194,0-.348.006-.464.011l-.262.012c-.059,0-.11.006-.151.011q.014-.253.024-.5c.007-.162.012-.329.017-.5s.008-.351.01-.536,0-.386,0-.6Z" fill="#202022"/>
      <path id="Path_43442" data-name="Path 43442" d="M53.278,17.919c0-.215,0-.411-.007-.588a2.591,2.591,0,0,0-.028-.389c-.111,0-.248,0-.41.011s-.337.019-.522.033l-.566.045c-.193.015-.37.033-.533.055.015-.081.027-.162.039-.244a1.869,1.869,0,0,0,0-.488c-.012-.082-.024-.163-.039-.245l.684.022c.2.008.41.014.62.017l.689.011q.372.006.893.006t.888-.006c.252,0,.481-.007.689-.011s.407-.009.6-.017l.644-.022c-.016.082-.028.163-.039.245a1.759,1.759,0,0,0,0,.488c.011.082.023.163.039.244-.148-.022-.315-.04-.5-.055l-.55-.045q-.271-.021-.516-.033c-.163-.007-.3-.011-.411-.011a2.393,2.393,0,0,0-.022.389v3.364q0,.465.005.866t.017.771c.007.248.017.489.028.722s.024.472.039.716q-.189-.023-.411-.039c-.148-.011-.315-.017-.5-.017s-.351.006-.5.017-.285.024-.411.039q.022-.366.039-.716t.028-.722c.007-.248.013-.505.016-.771s.007-.556.007-.866Z" fill="#202022"/>
      <path id="Path_43443" data-name="Path 43443" d="M63.158,20.062c-.281-.007-.562-.017-.844-.028s-.562-.016-.843-.016-.563,0-.844.011-.563.018-.844.033v.633c0,.311,0,.6,0,.866s.01.523.017.771.017.489.028.722.024.472.039.716q-.189-.023-.411-.039c-.148-.011-.315-.016-.5-.016s-.351,0-.5.016-.285.024-.411.039q.023-.366.039-.716t.027-.722c.008-.248.013-.505.017-.771s.006-.555.006-.866v-1.51q0-.466-.006-.866c0-.267-.009-.524-.017-.772s-.016-.488-.027-.721-.024-.472-.039-.717q.189.023.411.039c.148.011.314.017.5.017s.352-.006.5-.017.285-.024.411-.039q-.056.723-.072,1.427t-.017,1.627c.192.007.423.013.694.016s.6.006,1,.006.725,0,.977-.006.484-.009.7-.016q0-.922-.022-1.627t-.067-1.427q.189.023.411.039c.148.011.315.017.5.017s.351-.006.5-.017.285-.024.411-.039q-.022.368-.039.717t-.027.721q-.012.372-.017.772t-.006.866v1.51c0,.311,0,.6.006.866s.009.523.017.771.016.489.027.722.024.472.039.716q-.189-.023-.411-.039c-.148-.011-.315-.016-.5-.016s-.352,0-.5.016-.285.024-.411.039q.022-.366.039-.716t.028-.722q.01-.372.017-.771c0-.267.005-.555.005-.866Z" fill="#202022"/>
      <path id="Path_43444" data-name="Path 43444" d="M66.667,19.184c0-.311,0-.6,0-.866s-.008-.523-.015-.771-.014-.489-.023-.722-.022-.472-.035-.716q.5.01.989.033t.987.022c.274,0,.535,0,.783,0l.677-.011c.2,0,.38-.01.528-.017s.259-.015.333-.022a1.686,1.686,0,0,0-.033.2,2.394,2.394,0,0,0-.011.261,2.489,2.489,0,0,0,.011.277c.007.067.018.141.033.223-.215-.015-.449-.03-.705-.045s-.5-.029-.744-.044-.457-.026-.649-.033-.33-.012-.411-.012q-.045.612-.05,1.211t-.006,1.21q.722-.012,1.305-.034t1.216-.055c-.023.126-.037.222-.045.288a2.039,2.039,0,0,0-.011.211,1.068,1.068,0,0,0,.017.184c.011.063.024.153.039.272q-1.266-.1-2.521-.1c0,.237,0,.473,0,.71s-.006.474-.006.711q0,.722.034,1.388.633,0,1.265-.034t1.277-.111q-.022.123-.033.222a2.533,2.533,0,0,0-.011.278,2.5,2.5,0,0,0,.011.277,1.7,1.7,0,0,0,.033.2q-.3-.01-.738-.033t-1.205-.022c-.451,0-.816,0-1.093,0s-.5.009-.666.017l-.378.017c-.085,0-.158.009-.217.016q.02-.366.035-.716c.009-.233.017-.473.023-.722s.012-.5.015-.771,0-.555,0-.866Z" fill="#202022"/>
      <path id="Path_43445" data-name="Path 43445" d="M34.245,33.02c-1.413.1-2.866.144-4.3.128v-.687h2.81a12.4,12.4,0,0,1,1.493.559" fill="#01abc1"/>
      <path id="Path_43446" data-name="Path 43446" d="M38.724,32.461c-.878.168-1.8.3-2.763.407q.8-.18,1.557-.407Z" fill="#01abc1"/>
      <path id="Path_43447" data-name="Path 43447" d="M29.942,32.461v.687a43.9,43.9,0,0,1-7.6-.687Z" fill="#01abc1"/>
      <path id="Path_43448" data-name="Path 43448" d="M22.341,32.461H19.147c-.287-.295-.5-.535-.886-.99l-.67-.854c.718.774,2.459,1.4,4.75,1.844" fill="#fff"/>
      <path id="Path_43449" data-name="Path 43449" d="M35.962,32.868c-.463.112-.934.208-1.413.3-.1-.048-.2-.1-.3-.151.582-.032,1.157-.088,1.716-.152" fill="#fff"/>
      <path id="Path_43450" data-name="Path 43450" d="M44.063,13.275a.124.124,0,0,0,.018.053c-6.347-4.311-25.094-4.771-27.812-1.593.239-.363.584-.823.841-1.178a16.952,16.952,0,0,1,1.744-1.9C21.332,6.6,35.689,6.176,42.461,10.186c-.009-.018-.018-.027-.027-.044a5.059,5.059,0,0,1,1.328,1.2c.3.443.664,1.063.939,1.523.327.672.734,1.584,1.017,2.275a4.273,4.273,0,0,0-1.655-1.868" fill="#4b7e31"/>
      <path id="Path_43451" data-name="Path 43451" d="M46.692,20.781a16.1,16.1,0,0,1-.266,2.965l-.008.027c.2-1.4-.771-2.2-1.549-2.859-7.029-5.232-30.14-5.4-31.22-1.5.035-.443.124-1.027.186-1.469a14.7,14.7,0,0,1,.655-2.576c1.124-2.974,21.73-4.081,30.423,1.62,0-.018-.009-.045-.009-.062,1.478,1.106,1.611,1.787,1.735,2.443.035.425.044.991.053,1.416" fill="#4b7e31"/>
      <path id="Path_43452" data-name="Path 43452" d="M37.123,33.836A18.192,18.192,0,0,0,40.005,31.3c-5.828-4.682-23.083-3.418-23.183-.95a.645.645,0,0,0,.161.443l.671.822a16.568,16.568,0,0,0,1.97,1.916l.187.152c-1.381-1.317,2.269-2.207,6.443-2.277,4.09-.068,9.137.746,10.869,2.433" fill="#0c7c8a"/>
      <path id="Path_43453" data-name="Path 43453" d="M45.2,27.641c-.168.372-.425.841-.611,1.2a15.657,15.657,0,0,1-1.514,2.239l-.15.186c1.071-1.434.31-2.337-.558-3.142a12.041,12.041,0,0,0-1.026-.761c-7.338-4.232-27.148-3.16-26.3.15l-.213-.487A15.853,15.853,0,0,1,14,24.437l-.168-.824c-.248-3.434,21.784-4.682,30.086,1.213.036-.088.071-.168.1-.257,1.62,1.31,1.469,2.24,1.177,3.072" fill="#0c7c8a"/>
      <path id="Path_43454" data-name="Path 43454" d="M44.7,12.867c.332.67.742,1.581,1.021,2.274,1.749,7.031-24.766,8.84-31.045,5.458-.991-.534-1.014-.962-1.026-1.192.053-.441.112-1.031.185-1.47a15.384,15.384,0,0,1,.659-2.57c-.526,3.467,21.731,4.309,28.311-.725,2.016-1.542,1.248-2.816.958-3.3.289.451.686,1.046.937,1.52" fill="#b2afb1"/>
      <path id="Path_43455" data-name="Path 43455" d="M46.7,20.783a16.312,16.312,0,0,1-.27,2.96l0,.029c-1.993,6.767-28.682,8.087-31.386,3.749l-.211-.491a15.8,15.8,0,0,1-.821-2.6l-.164-.82c1.475,3.964,28.965,3.794,32.52-2.988a2.481,2.481,0,0,0,.28-1.26c.018.425.066.991.057,1.416" fill="#01abc1"/>
      <path id="Path_43456" data-name="Path 43456" d="M45.2,27.641c-.186.363-.407.85-.611,1.2a15.873,15.873,0,0,1-1.514,2.239l-.15.186c-3.213,3.408-14.162,4.408-20.013,3.417a31.871,31.871,0,0,0,7.037.832,34.858,34.858,0,0,0,9.674-1.036c-2.239,2-4.735,2.8-7.09,4.9-3.027,2.691-.779,5.09-.779,5.09h.16c-.647.194-1.3.371-1.965.54-.5.132-1.992.363-3.293.557a8.815,8.815,0,0,0,.053-1.1h1.434s2.248-2.4-.779-5.09a10.827,10.827,0,0,0-1.133-.912c1.7.221,2.956.319,3.718.345.54.036.823.036.823.036-.275-.053-.558-.115-.823-.168A55.1,55.1,0,0,1,24,37.032a16.194,16.194,0,0,1-5.47-4.487c-.283-.275-.5-.5-.885-.93l-.664-.823c3.1,3.178,25.068,2.585,28.21-3.151" fill="#01abc1"/>
      <path id="Path_43457" data-name="Path 43457" d="M40.617,2.385,36.79,3.06,35.748,5.7,32.923,3.425l-4.506.085,3.146-1.673L30.892.419l3.136.4L36.624,0l.33,1.39Z" fill="#65a743"/>
      <path id="Path_43458" data-name="Path 43458" d="M38.243,3.617a15,15,0,0,1,2.547,1.35c3.632,2.756-4.246,6.743-13.715,8.466-6.825,1.242-12.21.764-11.3-1,.256-.393.586-.922.857-1.306a22.6,22.6,0,0,1,2.226-2.468c-1.358,1.732,3.375,2.45,9.63,1.122C35.856,8.213,40.3,5.361,38,3.675a3.833,3.833,0,0,0-.811-.42,10.562,10.562,0,0,1,1.05.362" fill="#65a743"/>
      <path id="Path_43459" data-name="Path 43459" d="M36.329,2.865s2.694,1.17,2.222,2.169,1.6.574,1.6.574l.461-.751-4.384-2.2Z" fill="#65a743"/>
      <path id="Path_43460" data-name="Path 43460" d="M29.945,51.6c-2.647-.3-7.6-.566-8.825-.779a6.618,6.618,0,0,0,1.717-1.859c1.744-.062,5.966-.274,7.108-.389,1.08-.115,2.7-.345,3.921-.531A7.076,7.076,0,0,0,39,52.054v.061a73.845,73.845,0,0,1-9.055-.513" fill="#202022"/>
      <path id="Path_43461" data-name="Path 43461" d="M29.945,48.1c-1.31-.071-2.6-.168-3.815-.31a8.285,8.285,0,0,0,.5-2.053c1.124-.1,2.47-.222,3.311-.3.876-.08,1.965-.2,3.257-.407a8.555,8.555,0,0,0,.6,2.867c-1.434.1-3.213.231-3.859.2" fill="#202022"/>
      <path id="Path_43462" data-name="Path 43462" d="M57.943,53.532v1.549H0v-1.2c1.743.159,7.1.266,12.313.319l.274-1.868c3.452.319,14.791.584,17.359.558A54.837,54.837,0,0,0,39,52.16v1.159l-16.854.948c.708,0,1.249,0,1.559-.009,19.066-.044,31.068-.567,34.238-.726" fill="#202022"/>
    </g>
  </g>
</svg>
