<svg id="Group_171471" data-name="Group 171471" xmlns="http://www.w3.org/2000/svg" xmlns:xlink="http://www.w3.org/1999/xlink" width="560" height="296" viewBox="0 0 560 296">
  <defs>
    <linearGradient id="linear-gradient" x1="-0.485" y1="1.476" x2="0.461" y2="0.461" gradientUnits="objectBoundingBox">
      <stop offset="0" stop-color="#65a743"/>
      <stop offset="1" stop-color="#01abc1"/>
    </linearGradient>
    <linearGradient id="linear-gradient-2" x1="0.5" x2="0.5" y2="1" gradientUnits="objectBoundingBox">
      <stop offset="0" stop-color="#fff" stop-opacity="0.102"/>
      <stop offset="1" stop-color="#fff" stop-opacity="0.051"/>
    </linearGradient>
  </defs>
  <rect id="Rectangle_151353" data-name="Rectangle 151353" width="560" height="296" rx="24" fill="url(#linear-gradient)"/>
  <path id="Intersection_1" data-name="Intersection 1" d="M12454.973-4627q1.879-3.21,3.635-6.5c-.8.36-1.62.721-2.437,1.076-.932,1.787-1.913,3.588-2.959,5.426h-4.185c-.684-.566-1.389-1.15-2.1-1.725q-2.36.879-4.8,1.725h-254.1a20.093,20.093,0,0,1-2.994-3.676l-2.1-4.885c-5.765-15.793-5.989-16.407-8.169-25.833l-1.636-8.162c1.249,3.366,4.385,6.429,9.093,9.181-.092-.357-.187-.721-.282-1.095l-1.562-8.163-.007-.032c-.531-7.574,9.365-14.085,25.943-18.985-9.919-2.348-18.274-5.217-24.586-8.618-9.858-5.309-10.089-9.57-10.212-11.858.534-4.395,1.119-10.27,1.848-14.635,3.645-17.088,3.645-17.088,6.562-25.585-.716,4.7,2.777,8.912,9.5,12.56.75-2.911,1.813-6.767,3.483-12.835,1.456-4.233,6.521-8.083,14.37-11.412-11.953-2.743-17.524-7.568-14.085-14.234,1.48-2.281,3.224-5.021,4.951-7.669-.234.247-.459.494-.674.744,1.174-1.775,2.61-3.8,4.071-5.806.063-.092.127-.18.188-.269.05-.066.1-.13.148-.2,1.389-1.9,2.777-3.784,3.964-5.423,5.806-7.327,6.461-7.982,17.4-18.951,17.452-14.519,94.436-20.875,161.751-9.105,16.153-7.264,27.483-15,32.545-22.282-.907-1.009-1.091-2.5-.066-4.67,3.366-7.134-9.491-15.148-17.021-19.1l-10.159,25.712-28.122-22.627-44.853.848,31.32-16.651-6.682-14.114,31.217,3.939,25.839-8.112,3.283,13.835,36.463,9.906-36.8,6.486,12.148,6.1a39.831,39.831,0,0,0-7.726-3.933,106.813,106.813,0,0,1,10.456,3.606c11.469,5.147,14.193,6.372,25.349,13.434,15.739,11.946,9.76,26.215-9.789,39.933a156.47,156.47,0,0,1,25.8,12.026q1.176,1.7,2.3,3.448a47.8,47.8,0,0,1,7.521,7.821c2.158,3.218,4.664,7.327,6.919,11.092.905-6.5-2.106-11.5-3.686-14.117,2.87,4.5,6.827,10.421,9.32,15.132,3.3,6.672,7.381,15.736,10.169,22.64,2.024,8.14.237,15.582-4.594,22.317,8.121,7.7,9.181,13.145,10.209,18.441.275,3.4.37,7.729.481,11.494a25.236,25.236,0,0,0,1.142-2.5v30.666c-.15.89-.314,1.847-.5,2.894l-.057.294c-2.205,7.489-7.447,14.3-15.065,20.451,3.04,6.479,1.79,11.927.006,17.034-.35.758-.737,1.562-1.148,2.392A23.987,23.987,0,0,1,12474-4627Zm-240.5-22.88c44.153,8.649,115.506,8.9,175.9-1.146-27.707-6.07-59.5-8.819-89.414-8.82C12266.68-4659.846,12234.87-4656.237,12214.476-4649.88Zm174.354-39.035c23.539,5.059,45.419,12.288,63.206,22.02,14.728-5.7,26.937-12.5,35.428-20.444a80.264,80.264,0,0,0-8.745-8.093,175.187,175.187,0,0,0,1.367-21.463q0-2.8-.079-5.562a68.507,68.507,0,0,1-8.919,6.761,180.635,180.635,0,0,1-1.253,21.286,104.473,104.473,0,0,0-17.909-11.475C12434.553-4698.672,12412.673-4693.012,12388.83-4688.915Zm-174.089-39.458c40.6,8.849,109.409,10.08,166.73.354a509.2,509.2,0,0,0-91.251-8.233C12260.809-4736.252,12233.975-4733.579,12214.741-4728.373Zm124.3-44.078c38.086,3.1,76.937,10.991,107.47,25.225a94.588,94.588,0,0,0,15.225-9.33,41.85,41.85,0,0,0,9.864-10.133c-.19-.146-.383-.288-.573-.434q-.327-.877-.657-1.746c-17.1-10.406-41.645-18.391-69.147-23.984C12383.55-4785.22,12362.239-4778.212,12339.039-4772.451Zm-104.8-25.1c16.73,4.4,48.44,3.755,85.511-4.119.857-.18,1.711-.367,2.56-.55-7.938-.35-15.794-.524-23.471-.524C12274.591-4802.742,12252.1-4801,12234.236-4797.549ZM12485-4631.423c-.366.725-.751,1.5-1.146,2.312-.113.051-.227.1-.341.151Q12484.316-4630.175,12485-4631.423Z" transform="translate(-11938 4923)" fill="url(#linear-gradient-2)"/>
</svg>
