<svg xmlns="http://www.w3.org/2000/svg" width="200" height="200" viewBox="0 0 200 200">
  <g id="Group_170407" data-name="Group 170407" transform="translate(-199.61 -20)">
    <circle id="Ellipse_416" data-name="Ellipse 416" cx="100" cy="100" r="100" transform="translate(199.61 20)" fill="rgba(1,171,193,0.05)"/>
    <g id="Shrug-amico" transform="translate(181.164 1.39)">
      <g id="freepik--Floor--inject-9" transform="translate(29.047 114.932)">
        <path id="freepik--floor--inject-9-2" data-name="freepik--floor--inject-9" d="M55.62,260.209c-34.22,18.534-34.217,48.588,0,67.13s89.707,18.534,123.927,0,34.216-48.588,0-67.13S89.845,241.671,55.62,260.209Z" transform="translate(-29.956 -246.304)" fill="#fafafa" opacity="0.13"/>
      </g>
      <g id="freepik--Symbols--inject-9" transform="translate(28.448 27.61)">
        <g id="freepik--question-marks--inject-9">
          <path id="freepik--question-mark--inject-9" d="M456.878,224.632a1.8,1.8,0,0,0-1.251-.588,1.724,1.724,0,0,0-.659.1,1.759,1.759,0,0,0-.568.346,1.851,1.851,0,0,0-.584,1.239,1.643,1.643,0,0,0,.1.655,1.616,1.616,0,0,0,.345.564,1.875,1.875,0,0,0,1.251.592,1.708,1.708,0,0,0,1.231-.429,1.661,1.661,0,0,0,.417-.564,1.736,1.736,0,0,0,.064-1.339A1.84,1.84,0,0,0,456.878,224.632Zm7.627-8.985a4.119,4.119,0,0,0-.945-1.319,5.7,5.7,0,0,0-1.537-1.037,6.606,6.606,0,0,0-1.3-.465,6.143,6.143,0,0,0-1.219-.175,6.079,6.079,0,0,0-1.148.06,8.345,8.345,0,0,0-1.061.226l.171,1.4a.632.632,0,0,0,.4.572.767.767,0,0,0,.417.036c.175-.024.4-.044.628-.064a4.19,4.19,0,0,1,.838.04,3.786,3.786,0,0,1,1.073.346,2.693,2.693,0,0,1,.7.473,1.987,1.987,0,0,1,.445.616,1.671,1.671,0,0,1,.151.7,1.74,1.74,0,0,1-.179.743,2.189,2.189,0,0,1-.723.894,3.685,3.685,0,0,1-.969.457,7.508,7.508,0,0,1-1.08.258,7.644,7.644,0,0,0-1.037.238,2.832,2.832,0,0,0-.866.421,1.513,1.513,0,0,0-.548.794l-.628,1.791,1.776.866.961-1.414a1.167,1.167,0,0,1,.6-.449,6.191,6.191,0,0,1,.89-.246l1.057-.222a4.765,4.765,0,0,0,1.108-.4,4.165,4.165,0,0,0,1.053-.739,4.084,4.084,0,0,0,.878-1.263,3.973,3.973,0,0,0,.4-1.613A3.575,3.575,0,0,0,464.5,215.647Z" transform="translate(-284.402 -139.146)" fill="#f5f5f5"/>
          <path id="freepik--question-mark--inject-9-2" data-name="freepik--question-mark--inject-9" d="M282.439,185.966a1.732,1.732,0,0,0,.528-.473,1.688,1.688,0,0,0,.326-1.263,1.875,1.875,0,0,0-.23-.655,1.752,1.752,0,0,0-.465-.524,1.675,1.675,0,0,0-.592-.29,1.613,1.613,0,0,0-.663-.032,1.827,1.827,0,0,0-1.192.7,1.734,1.734,0,0,0,.354,2.439,1.728,1.728,0,0,0,.6.29,1.872,1.872,0,0,0,.667.036A1.713,1.713,0,0,0,282.439,185.966Zm7.515,6.51a.632.632,0,0,0-.7,0,.727.727,0,0,0-.262.326c-.079.155-.179.342-.3.552a4.163,4.163,0,0,1-.5.671,3.681,3.681,0,0,1-.89.691,2.737,2.737,0,0,1-.794.314,2.05,2.05,0,0,1-.759.024,1.744,1.744,0,0,1-.659-.27,1.679,1.679,0,0,1-.512-.564,2.169,2.169,0,0,1-.33-1.1,3.5,3.5,0,0,1,.155-1.069,7.88,7.88,0,0,1,.4-1.041,7.414,7.414,0,0,0,.4-.993,2.862,2.862,0,0,0,.139-.953,1.514,1.514,0,0,0-.35-.9l-1.136-1.521-1.684.993.628,1.589a1.192,1.192,0,0,1,.032.751,7.369,7.369,0,0,1-.3.874l-.4,1a4.769,4.769,0,0,0-.306,1.132,4.229,4.229,0,0,0,0,1.283,4.111,4.111,0,0,0,.552,1.442,4.008,4.008,0,0,0,1.1,1.243,3.575,3.575,0,0,0,1.418.608,4.142,4.142,0,0,0,1.621-.036,5.77,5.77,0,0,0,1.724-.687,6.892,6.892,0,0,0,1.12-.814,6.517,6.517,0,0,0,.83-.91,6.161,6.161,0,0,0,.6-.981,7.53,7.53,0,0,0,.4-1Z" transform="translate(-179.69 -121.1)" fill="#f5f5f5"/>
          <path id="freepik--question-mark--inject-9-3" data-name="freepik--question-mark--inject-9" d="M420.623,34.236a1.41,1.41,0,0,1-.671.572,7.942,7.942,0,0,1-1.029.35L417.7,35.5a5.681,5.681,0,0,0-1.275.532,5.119,5.119,0,0,0-1.192.941,4.858,4.858,0,0,0-.937,1.549,4.662,4.662,0,0,0-.358,1.923,4.156,4.156,0,0,0,.457,1.752,4.854,4.854,0,0,0,1.192,1.482,6.618,6.618,0,0,0,1.879,1.1,8.248,8.248,0,0,0,1.585.465,7.648,7.648,0,0,0,1.446.115,7.389,7.389,0,0,0,1.342-.155,9.223,9.223,0,0,0,1.227-.346l-.3-1.629a.747.747,0,0,0-.5-.64.874.874,0,0,0-.493,0q-.3.06-.727.119a4.725,4.725,0,0,1-.989,0,4.437,4.437,0,0,1-1.283-.326,3.256,3.256,0,0,1-.858-.5,2.352,2.352,0,0,1-.568-.687,1.937,1.937,0,0,1-.226-.794,1.985,1.985,0,0,1,.155-.886,2.578,2.578,0,0,1,.794-1.1,4.321,4.321,0,0,1,1.1-.628,9.024,9.024,0,0,1,1.247-.4,9.749,9.749,0,0,0,1.192-.357,3.5,3.5,0,0,0,.985-.556,1.815,1.815,0,0,0,.584-.977l.608-2.141-2.137-.85Zm5.43-5.4a1.987,1.987,0,0,0-.449-.64,2.124,2.124,0,0,0-.7-.433,2.1,2.1,0,0,0-.794-.155A2.025,2.025,0,0,0,422.1,29.7a1.984,1.984,0,0,0,.171.767,2.143,2.143,0,0,0,.429.636,2.038,2.038,0,0,0,2.916,0,2.121,2.121,0,0,0,.441-.687,2.1,2.1,0,0,0,.155-.794,2.012,2.012,0,0,0-.159-.783Z" transform="translate(-260.365 -27.61)" fill="#f5f5f5"/>
          <path id="freepik--question-mark--inject-9-4" data-name="freepik--question-mark--inject-9" d="M458.024,160.04a1.938,1.938,0,0,0-.25-.794,2.03,2.03,0,0,0-1.235-.977,2.122,2.122,0,0,0-.794-.064,1.9,1.9,0,0,0-.794.25,2.089,2.089,0,0,0-.636.536,1.986,1.986,0,0,0-.357.7,1.954,1.954,0,0,0-.06.794,2.091,2.091,0,0,0,.254.794,2.056,2.056,0,0,0,.528.632,1.942,1.942,0,0,0,1.466.4,2.161,2.161,0,0,0,.794-.262,2.058,2.058,0,0,0,.993-1.22A1.985,1.985,0,0,0,458.024,160.04Zm-3.38-5.414a1.4,1.4,0,0,1-.02-.886,7.74,7.74,0,0,1,.377-1.017c.159-.365.33-.755.512-1.164a5.957,5.957,0,0,0,.4-1.323,5.165,5.165,0,0,0,0-1.509,4.905,4.905,0,0,0-.608-1.708,4.681,4.681,0,0,0-1.263-1.49,4.127,4.127,0,0,0-1.648-.755,4.806,4.806,0,0,0-1.907,0,6.752,6.752,0,0,0-2.046.763,7.968,7.968,0,0,0-1.335.922,7.3,7.3,0,0,0-1,1.049,7.16,7.16,0,0,0-.731,1.136,10.528,10.528,0,0,0-.508,1.168l1.454.794a.731.731,0,0,0,.814,0,.878.878,0,0,0,.322-.373c.1-.183.219-.4.369-.64a4.468,4.468,0,0,1,.612-.775,4.327,4.327,0,0,1,1.065-.794,3.114,3.114,0,0,1,.933-.35,2.312,2.312,0,0,1,.89,0,1.986,1.986,0,0,1,.771.334,2.05,2.05,0,0,1,.584.679,2.549,2.549,0,0,1,.358,1.3,4.4,4.4,0,0,1-.211,1.255,9.3,9.3,0,0,1-.5,1.192,9.34,9.34,0,0,0-.485,1.156,3.375,3.375,0,0,0-.171,1.148,1.788,1.788,0,0,0,.4,1.069l1.279,1.823,2.01-1.116Z" transform="translate(-279.005 -98.177)" fill="#f5f5f5"/>
          <path id="freepik--question-mark--inject-9-5" data-name="freepik--question-mark--inject-9" d="M435.715,206.125a.5.5,0,0,0-.282.036l-.4.131a2.926,2.926,0,0,1-.56.1,2.55,2.55,0,0,1-.759-.075,1.82,1.82,0,0,1-.532-.211,1.279,1.279,0,0,1-.4-.342,1.193,1.193,0,0,1-.2-.441,1.268,1.268,0,0,1,0-.516,1.482,1.482,0,0,1,.35-.691,2.382,2.382,0,0,1,.576-.453,4.6,4.6,0,0,1,.675-.326,5.274,5.274,0,0,0,.655-.306,1.905,1.905,0,0,0,.508-.4,1,1,0,0,0,.274-.6l.159-1.271-1.291-.3-.429,1.073a.794.794,0,0,1-.334.4,4.511,4.511,0,0,1-.556.29l-.667.3a3.427,3.427,0,0,0-.675.4,2.961,2.961,0,0,0-.592.64,2.778,2.778,0,0,0-.4.961,2.706,2.706,0,0,0-.036,1.124,2.384,2.384,0,0,0,.4.957,2.8,2.8,0,0,0,.794.739,3.878,3.878,0,0,0,1.164.465,4.674,4.674,0,0,0,.929.123,4.318,4.318,0,0,0,.83-.064,3.864,3.864,0,0,0,.751-.2,5.135,5.135,0,0,0,.667-.3l-.314-.9A.421.421,0,0,0,435.715,206.125Zm1.12-7.726a1.242,1.242,0,0,0-.155-.421,1.192,1.192,0,0,0-.31-.322,1.248,1.248,0,0,0-.914-.211,1.159,1.159,0,0,0-.751.457,1.168,1.168,0,0,0-.2.433,1.192,1.192,0,0,0,.151.894,1.356,1.356,0,0,0,.31.33,1.159,1.159,0,0,0,.433.195,1.141,1.141,0,0,0,.477,0,1.164,1.164,0,0,0,.425-.159,1.19,1.19,0,0,0,.322-.31,1.31,1.31,0,0,0,.195-.429A1.272,1.272,0,0,0,436.835,198.4Z" transform="translate(-270.508 -129.974)" fill="#f5f5f5"/>
          <path id="freepik--question-mark--inject-9-6" data-name="freepik--question-mark--inject-9" d="M255.611,148.693a1.513,1.513,0,0,0-.338-.358,1.279,1.279,0,0,0-.473-.211,1.259,1.259,0,0,0-.516,0,1.37,1.37,0,0,0-.461.175,1.284,1.284,0,0,0-.35.338,1.342,1.342,0,0,0-.207.469,1.279,1.279,0,0,0,.155.965,1.192,1.192,0,0,0,.342.35,1.307,1.307,0,0,0,.473.211,1.339,1.339,0,0,0,.516,0,1.41,1.41,0,0,0,.457-.171,1.349,1.349,0,0,0,.358-.334,1.259,1.259,0,0,0,.211-.469,1.311,1.311,0,0,0,0-.512A1.279,1.279,0,0,0,255.611,148.693Zm4.147-6.967a2.577,2.577,0,0,0-.453-1.041,3.022,3.022,0,0,0-.886-.794,4.118,4.118,0,0,0-1.267-.5,4.866,4.866,0,0,0-1-.127,4.4,4.4,0,0,0-.9.068,4.468,4.468,0,0,0-.814.226,5.768,5.768,0,0,0-.723.334l.346.973a.453.453,0,0,0,.373.346.552.552,0,0,0,.306-.04c.119-.044.266-.1.437-.143a2.989,2.989,0,0,1,.608-.107,2.733,2.733,0,0,1,.822.075,2.205,2.205,0,0,1,.58.226,1.454,1.454,0,0,1,.417.369,1.236,1.236,0,0,1,.214.477,1.216,1.216,0,0,1,0,.56,1.589,1.589,0,0,1-.373.755,2.688,2.688,0,0,1-.624.493,5.407,5.407,0,0,1-.731.357,5.562,5.562,0,0,0-.707.338,1.959,1.959,0,0,0-.552.441,1.088,1.088,0,0,0-.266.655l-.167,1.382,1.4.318.465-1.168a.85.85,0,0,1,.362-.4,4.581,4.581,0,0,1,.6-.318l.723-.33a3.537,3.537,0,0,0,.735-.449,3.1,3.1,0,0,0,.636-.7,3.029,3.029,0,0,0,.429-1.045A2.891,2.891,0,0,0,259.758,141.726Z" transform="translate(-163.713 -94.914)" fill="#f5f5f5"/>
          <path id="freepik--question-mark--inject-9-7" data-name="freepik--question-mark--inject-9" d="M225.019,199.815a.588.588,0,0,0-.306.04c-.123.048-.266.1-.437.147a3.011,3.011,0,0,1-.608.1,2.713,2.713,0,0,1-.822-.076,1.919,1.919,0,0,1-.58-.226,1.455,1.455,0,0,1-.417-.369,1.242,1.242,0,0,1-.218-.477,1.275,1.275,0,0,1,0-.56,1.617,1.617,0,0,1,.377-.755,2.586,2.586,0,0,1,.62-.493,5.981,5.981,0,0,1,.735-.357,6.888,6.888,0,0,0,.707-.334,2.178,2.178,0,0,0,.552-.441,1.164,1.164,0,0,0,.266-.659l.163-1.382-1.4-.314-.465,1.164a.862.862,0,0,1-.358.4,4.912,4.912,0,0,1-.6.318l-.723.33a3.5,3.5,0,0,0-.735.453,3.178,3.178,0,0,0-.636.7,3.031,3.031,0,0,0-.429,1.045,2.955,2.955,0,0,0-.032,1.219,2.578,2.578,0,0,0,.453,1.041,2.963,2.963,0,0,0,.886.794,4.159,4.159,0,0,0,1.267.5,4.9,4.9,0,0,0,1.009.127,4.459,4.459,0,0,0,1.716-.294,6.347,6.347,0,0,0,.723-.33l-.346-.977A.473.473,0,0,0,225.019,199.815Zm1.192-8.393a1.193,1.193,0,0,0-.171-.453,1.228,1.228,0,0,0-.338-.35,1.291,1.291,0,0,0-.477-.207,1.243,1.243,0,0,0-.512-.02,1.374,1.374,0,0,0-.457.171,1.3,1.3,0,0,0-.358.334,1.192,1.192,0,0,0-.211.469,1.275,1.275,0,0,0,.167.969,1.31,1.31,0,0,0,.338.357,1.259,1.259,0,0,0,.469.211,1.279,1.279,0,0,0,.52,0,1.244,1.244,0,0,0,.457-.175,1.192,1.192,0,0,0,.35-.338,1.311,1.311,0,0,0,.207-.469,1.243,1.243,0,0,0,0-.5Z" transform="translate(-143.491 -125.722)" fill="#f5f5f5"/>
          <path id="freepik--question-mark--inject-9-8" data-name="freepik--question-mark--inject-9" d="M456.213,69.982a1.345,1.345,0,0,0-.334-.354,1.232,1.232,0,0,0-.469-.214,1.283,1.283,0,0,0-.52,0,1.363,1.363,0,0,0-.461.171,1.283,1.283,0,0,0-.35.338,1.3,1.3,0,0,0-.211.465,1.261,1.261,0,0,0,0,.516,1.241,1.241,0,0,0,.167.453,1.3,1.3,0,0,0,.338.354,1.378,1.378,0,0,0,.473.211,1.338,1.338,0,0,0,.516,0,1.287,1.287,0,0,0,.457-.167,1.271,1.271,0,0,0,.572-.794,1.384,1.384,0,0,0-.179-.977Zm4.187-6.943A2.63,2.63,0,0,0,459.951,62a3.075,3.075,0,0,0-.882-.794,4.286,4.286,0,0,0-1.263-.5,4.938,4.938,0,0,0-1.009-.135,4.7,4.7,0,0,0-.9.064,4.81,4.81,0,0,0-.814.222,6.1,6.1,0,0,0-.727.33l.342.977a.465.465,0,0,0,.373.346.516.516,0,0,0,.306-.04c.119-.044.266-.091.437-.139a2.733,2.733,0,0,1,1.43-.024,2.01,2.01,0,0,1,.576.23,1.452,1.452,0,0,1,.4.369,1.227,1.227,0,0,1,.2,1.037,1.632,1.632,0,0,1-.4.755,2.781,2.781,0,0,1-.624.493,5.934,5.934,0,0,1-.735.35,5.906,5.906,0,0,0-.711.334,2.082,2.082,0,0,0-.552.437,1.116,1.116,0,0,0-.27.655l-.171,1.382,1.394.322.512-1.176a.85.85,0,0,1,.361-.4,4.424,4.424,0,0,1,.6-.314l.723-.326a3.676,3.676,0,0,0,.739-.449,3.261,3.261,0,0,0,.64-.691,3.111,3.111,0,0,0,.433-1.045,2.963,2.963,0,0,0,.04-1.231Z" transform="translate(-284.42 -47.475)" fill="#f5f5f5"/>
          <path id="freepik--question-mark--inject-9-9" data-name="freepik--question-mark--inject-9" d="M69.5,229.636a4.529,4.529,0,0,0-1.037-1.442,6.356,6.356,0,0,0-1.688-1.14,7.547,7.547,0,0,0-1.434-.512A6.791,6.791,0,0,0,64,226.351a6.935,6.935,0,0,0-1.259.064,10.091,10.091,0,0,0-1.168.25l.191,1.537a.691.691,0,0,0,.433.628.794.794,0,0,0,.461.04c.191-.024.417-.048.683-.068a4.486,4.486,0,0,1,.926.044,4,4,0,0,1,1.192.377,3.008,3.008,0,0,1,.794.52,2.233,2.233,0,0,1,.489.675,1.839,1.839,0,0,1-.032,1.589,2.411,2.411,0,0,1-.794.981,3.921,3.921,0,0,1-1.069.52,8.624,8.624,0,0,1-1.192.286,8.339,8.339,0,0,0-1.144.258,3.306,3.306,0,0,0-.949.465,1.692,1.692,0,0,0-.6.878l-.723,1.934,1.942.918,1.057-1.553a1.319,1.319,0,0,1,.663-.493,7.3,7.3,0,0,1,.977-.27l1.164-.246a5.356,5.356,0,0,0,1.219-.421,4.7,4.7,0,0,0,1.156-.794,4.5,4.5,0,0,0,.957-1.4,4.4,4.4,0,0,0,.445-1.772A3.9,3.9,0,0,0,69.5,229.636Zm-8.381,9.875a1.86,1.86,0,0,0-.62-.461,1.887,1.887,0,0,0-.755-.187,1.831,1.831,0,0,0-1.347.489,1.891,1.891,0,0,0-.453.616,1.938,1.938,0,0,0-.191.743,1.879,1.879,0,0,0,.1.719,1.8,1.8,0,0,0,.4.624,2.03,2.03,0,0,0,.612.441,1.958,1.958,0,0,0,.747.191,1.986,1.986,0,0,0,.723-.1,1.911,1.911,0,0,0,.632-.373,1.844,1.844,0,0,0,.457-.6,1.907,1.907,0,0,0,.068-1.474A1.987,1.987,0,0,0,61.121,239.511Z" transform="translate(-46.113 -147.404)" fill="#f5f5f5"/>
          <path id="freepik--question-mark--inject-9-10" data-name="freepik--question-mark--inject-9" d="M85.615,49.149a4.949,4.949,0,0,0-1.192-1.482,6.812,6.812,0,0,0-1.879-1.1,7.944,7.944,0,0,0-1.561-.453,7.218,7.218,0,0,0-2.781.04,9.4,9.4,0,0,0-1.227.342l.3,1.629a.739.739,0,0,0,.489.655.858.858,0,0,0,.489,0c.2-.044.445-.083.731-.119a4.68,4.68,0,0,1,.985,0,4.314,4.314,0,0,1,1.283.326,3.1,3.1,0,0,1,.858.5,2.2,2.2,0,0,1,.568.687,1.919,1.919,0,0,1,.226.794,2.01,2.01,0,0,1-.151.882,2.586,2.586,0,0,1-.794,1.1,4.231,4.231,0,0,1-1.108.628,8.738,8.738,0,0,1-1.247.4,9.113,9.113,0,0,0-1.192.354,3.416,3.416,0,0,0-.985.56,1.819,1.819,0,0,0-.584.973l-.6,2.145,2.133.85,1.025-1.74a1.378,1.378,0,0,1,.675-.572A7.665,7.665,0,0,1,81.1,56.2l1.223-.338a5.68,5.68,0,0,0,1.275-.532,5.12,5.12,0,0,0,1.192-.941,4.858,4.858,0,0,0,.937-1.549,4.687,4.687,0,0,0,.357-1.923A4.131,4.131,0,0,0,85.615,49.149Zm-8.29,11.1a2.1,2.1,0,0,0-1.509-.6,2.137,2.137,0,0,0-.771.163,1.986,1.986,0,0,0-.636.449,2.05,2.05,0,0,0-.445.687,2.1,2.1,0,0,0-.155.794,2.065,2.065,0,0,0,.159.755,1.95,1.95,0,0,0,.449.64,2.133,2.133,0,0,0,.7.465,2.1,2.1,0,0,0,.794.155,1.986,1.986,0,0,0,.767-.159,2.038,2.038,0,0,0,.663-.433,1.986,1.986,0,0,0,.449-.691,1.962,1.962,0,0,0,.147-.794,2.058,2.058,0,0,0-.167-.771A2.149,2.149,0,0,0,77.325,60.247Z" transform="translate(-55.791 -38.694)" fill="#f5f5f5"/>
          <path id="freepik--question-mark--inject-9-11" data-name="freepik--question-mark--inject-9" d="M37.452,155.492a1.721,1.721,0,0,0-.489-.485,1.934,1.934,0,0,0-.632-.262,1.811,1.811,0,0,0-1.394.278,1.831,1.831,0,0,0-.489.485,1.748,1.748,0,0,0-.254.632,1.808,1.808,0,0,0,0,.715,1.831,1.831,0,0,0,.27.667,1.771,1.771,0,0,0,.477.481,1.7,1.7,0,0,0,.632.254,1.868,1.868,0,0,0,.727,0,1.776,1.776,0,0,0,.667-.27,1.875,1.875,0,0,0,.489-.481,1.811,1.811,0,0,0,.27-.628,1.772,1.772,0,0,0,0-.723,1.732,1.732,0,0,0-.274-.663Zm1.509-10.185a4.08,4.08,0,0,0-.655-1.589,3.575,3.575,0,0,0-1.168-1.073,4.33,4.33,0,0,0-1.589-.516,5.887,5.887,0,0,0-1.9.087,7.307,7.307,0,0,0-1.362.4,6.617,6.617,0,0,0-1.116.632,6.777,6.777,0,0,0-.91.751,8.394,8.394,0,0,0-.739.838l.985,1.045a.647.647,0,0,0,.675.23.759.759,0,0,0,.369-.222c.127-.127.286-.274.477-.437a4.37,4.37,0,0,1,.715-.481,3.846,3.846,0,0,1,1.1-.369,2.848,2.848,0,0,1,.874-.04,2.118,2.118,0,0,1,.743.234,1.735,1.735,0,0,1,.548.485,1.756,1.756,0,0,1,.31.723,2.292,2.292,0,0,1-.052,1.192,3.817,3.817,0,0,1-.512.985,7.681,7.681,0,0,1-.739.874,8.337,8.337,0,0,0-.711.83,3.014,3.014,0,0,0-.457.882,1.589,1.589,0,0,0,.032.993l.6,1.847,1.986-.4-.068-1.756a1.216,1.216,0,0,1,.222-.743,7.184,7.184,0,0,1,.584-.747l.739-.83a4.794,4.794,0,0,0,.679-1,4.42,4.42,0,0,0,.421-1.251A4.326,4.326,0,0,0,38.962,145.307Z" transform="translate(-29.094 -96.616)" fill="#f5f5f5"/>
          <path id="freepik--question-mark--inject-9-12" data-name="freepik--question-mark--inject-9" d="M34.347,222.579a.616.616,0,0,0-.334.044c-.135.048-.294.1-.481.155a3.306,3.306,0,0,1-.671.115,2.924,2.924,0,0,1-.9-.091,2.145,2.145,0,0,1-.636-.25,1.628,1.628,0,0,1-.457-.4,1.323,1.323,0,0,1-.222-1.136,1.716,1.716,0,0,1,.405-.842,2.927,2.927,0,0,1,.683-.54,6.317,6.317,0,0,1,.794-.4,7.078,7.078,0,0,0,.794-.365,2.383,2.383,0,0,0,.608-.481,1.271,1.271,0,0,0,.3-.707l.187-1.517-1.537-.357-.512,1.279a.973.973,0,0,1-.4.461,5.318,5.318,0,0,1-.659.346l-.794.354a3.911,3.911,0,0,0-.794.493,3.63,3.63,0,0,0-.7.763,3.345,3.345,0,0,0-.477,1.148A3.213,3.213,0,0,0,28.5,222a2.813,2.813,0,0,0,.489,1.14,3.357,3.357,0,0,0,.969.882,4.648,4.648,0,0,0,1.39.552,5.386,5.386,0,0,0,1.108.147,5.021,5.021,0,0,0,.993-.072,5.109,5.109,0,0,0,.894-.242,6.364,6.364,0,0,0,.794-.361l-.373-1.073A.5.5,0,0,0,34.347,222.579Zm1.339-9.216a1.364,1.364,0,0,0-1.061-1.116,1.45,1.45,0,0,0-.568-.024,1.4,1.4,0,0,0-.953,2.129,1.589,1.589,0,0,0,.369.4,1.363,1.363,0,0,0,.516.234,1.394,1.394,0,0,0,.572.02,1.457,1.457,0,0,0,.5-.191,1.379,1.379,0,0,0,.4-.369,1.414,1.414,0,0,0,.226-.512A1.362,1.362,0,0,0,35.686,213.363Z" transform="translate(-28.448 -138.881)" fill="#f5f5f5"/>
          <path id="freepik--question-mark--inject-9-13" data-name="freepik--question-mark--inject-9" d="M44.362,41.8a.544.544,0,0,0-.306.036c-.119.044-.266.091-.437.143a3.011,3.011,0,0,1-.608.1A2.729,2.729,0,0,1,42.189,42a1.986,1.986,0,0,1-.576-.23A1.462,1.462,0,0,1,41.2,41.4a1.192,1.192,0,0,1-.214-.477,1.219,1.219,0,0,1,0-.56,1.589,1.589,0,0,1,.4-.751A2.689,2.689,0,0,1,42,39.118a5.958,5.958,0,0,1,.735-.354,5.835,5.835,0,0,0,.707-.33A2.117,2.117,0,0,0,44,38a1.128,1.128,0,0,0,.27-.659l.171-1.378-1.4-.326L42.567,36.8a.85.85,0,0,1-.361.417,4.926,4.926,0,0,1-.6.314l-.723.326a3.4,3.4,0,0,0-.739.449A3.178,3.178,0,0,0,39.5,39a3.11,3.11,0,0,0-.433,1.045,2.963,2.963,0,0,0-.04,1.219A2.574,2.574,0,0,0,39.48,42.3a3.079,3.079,0,0,0,.882.794,4.242,4.242,0,0,0,1.263.5,4.937,4.937,0,0,0,1.009.135,4.694,4.694,0,0,0,.9-.068,4.46,4.46,0,0,0,.814-.218,6.1,6.1,0,0,0,.727-.33l-.342-.973A.461.461,0,0,0,44.362,41.8Zm1.215-8.4a1.239,1.239,0,0,0-.167-.453,1.3,1.3,0,0,0-.794-.564,1.339,1.339,0,0,0-.516-.02,1.375,1.375,0,0,0-.457.171,1.3,1.3,0,0,0-.361.33,1.259,1.259,0,0,0-.211.469,1.311,1.311,0,0,0,0,.512,1.279,1.279,0,0,0,.179.457,1.3,1.3,0,0,0,.794.572,1.355,1.355,0,0,0,.52,0,1.243,1.243,0,0,0,.457-.175,1.192,1.192,0,0,0,.354-.334,1.35,1.35,0,0,0,.211-.469,1.315,1.315,0,0,0-.008-.5Z" transform="translate(-34.8 -30.467)" fill="#f5f5f5"/>
        </g>
      </g>
      <g id="freepik--Plants--inject-9" transform="translate(39.102 141.602)">
        <g id="freepik--plants--inject-9-2" data-name="freepik--plants--inject-9" transform="translate(142.912 0.56)">
          <path id="Path_41684" data-name="Path 41684" d="M420.478,367.623h-.072l-2.03-.759a.171.171,0,0,1-.111-.127c0-.056-1.255-5.68,3.392-12.632,3.317-4.965,8-7.921,10.657-6.733a3.078,3.078,0,0,1,1.919,2.411,3.575,3.575,0,0,1-1.474,3.2c-.238.187-.6.441-1.068.759-2.876,1.962-9.609,6.562-11.043,13.748a.183.183,0,0,1-.091.123A.143.143,0,0,1,420.478,367.623ZM418.6,366.55l1.736.647c1.553-7.214,8.266-11.8,11.15-13.772.461-.314.822-.56,1.053-.739a3.217,3.217,0,0,0,1.335-2.872,2.693,2.693,0,0,0-1.7-2.125c-2.5-1.116-6.987,1.784-10.209,6.6C417.729,360.62,418.464,365.8,418.6,366.55Z" transform="translate(-416.447 -334.403)" fill="#01abc1"/>
          <path id="Path_41685" data-name="Path 41685" d="M420.88,371.1h-.024a.183.183,0,0,1-.167-.195c.743-8.493,7.476-16.04,11.6-17.307a.183.183,0,0,1,.107.35c-4.079,1.247-10.641,8.934-11.349,16.989A.183.183,0,0,1,420.88,371.1Z" transform="translate(-418.001 -338.309)" fill="#01abc1"/>
          <path id="Path_41686" data-name="Path 41686" d="M415.939,347.581a.194.194,0,0,1-.08,0l-1.366-.58a.179.179,0,0,1-.107-.131,45.19,45.19,0,0,1,1.339-19.162c1.521-5.458,5.339-10.538,9.069-12.076a5.458,5.458,0,0,1,4.989.183,2.725,2.725,0,0,1,1.494,1.891c.365,2.129-2.1,4.973-4.715,7.988a32.746,32.746,0,0,0-4.691,6.288.183.183,0,0,1-.326-.159,32.854,32.854,0,0,1,4.743-6.355c2.554-2.947,4.969-5.732,4.632-7.686a2.356,2.356,0,0,0-1.315-1.641,5.145,5.145,0,0,0-4.675-.163c-3.635,1.5-7.36,6.479-8.858,11.837a45.64,45.64,0,0,0-1.347,18.9l1.279.54a.179.179,0,0,1-.064.346Z" transform="translate(-413.922 -315.12)" fill="#01abc1"/>
          <path id="Path_41687" data-name="Path 41687" d="M419.184,346.214h0a.175.175,0,0,1-.175-.183c.322-13.231,8.739-22.955,11.1-24.528a.18.18,0,0,1,.2.3c-2.32,1.553-10.626,11.154-10.943,24.23a.183.183,0,0,1-.187.183Z" transform="translate(-416.989 -318.949)" fill="#01abc1"/>
        </g>
        <g id="freepik--plants--inject-9-3" data-name="freepik--plants--inject-9">
          <path id="Path_41688" data-name="Path 41688" d="M68.958,366.169a.183.183,0,0,1-.091-.123C67.432,358.86,60.7,354.26,57.823,352.3c-.465-.318-.83-.568-1.069-.759a3.575,3.575,0,0,1-1.474-3.2,3.086,3.086,0,0,1,1.919-2.411c2.657-1.192,7.341,1.772,10.657,6.733,4.647,6.951,3.408,12.576,3.392,12.632a.187.187,0,0,1-.111.131l-2.03.755h-.071A.143.143,0,0,1,68.958,366.169Zm-1.4-13.307c-3.221-4.818-7.706-7.718-10.209-6.6a2.693,2.693,0,0,0-1.7,2.125,3.213,3.213,0,0,0,1.335,2.872c.23.179.592.425,1.053.739,2.884,1.986,9.6,6.558,11.15,13.772l1.736-.647C71.051,364.37,71.786,359.19,67.555,352.862Z" transform="translate(-55.269 -332.973)" fill="#01abc1"/>
          <path id="Path_41689" data-name="Path 41689" d="M75.155,369.684h.024a.187.187,0,0,0,.167-.2c-.743-8.493-7.476-16.04-11.6-17.307a.183.183,0,0,0-.226.123.179.179,0,0,0,.119.226c4.079,1.247,10.642,8.934,11.349,16.989A.183.183,0,0,0,75.155,369.684Z" transform="translate(-60.235 -336.894)" fill="#01abc1"/>
          <path id="Path_41690" data-name="Path 41690" d="M71.672,346.171a.143.143,0,0,0,.079,0l1.366-.58a.175.175,0,0,0,.107-.127A45.6,45.6,0,0,0,71.886,326.3c-1.521-5.458-5.335-10.538-9.069-12.076a5.458,5.458,0,0,0-4.989.183,2.725,2.725,0,0,0-1.494,1.891c-.365,2.129,2.1,4.973,4.715,7.988a32.866,32.866,0,0,1,4.691,6.288.179.179,0,0,0,.242.083.183.183,0,0,0,.083-.242,32.533,32.533,0,0,0-4.743-6.355c-2.554-2.947-4.969-5.728-4.632-7.686a2.356,2.356,0,0,1,1.315-1.641,5.145,5.145,0,0,1,4.675-.163c3.635,1.5,7.36,6.479,8.858,11.841a45.621,45.621,0,0,1,1.347,18.9l-1.279.54a.183.183,0,0,0-.1.238A.179.179,0,0,0,71.672,346.171Z" transform="translate(-55.89 -313.71)" fill="#01abc1"/>
          <path id="Path_41691" data-name="Path 41691" d="M77.539,344.8h0a.175.175,0,0,0,.175-.183c-.322-13.227-8.739-22.955-11.1-24.528a.179.179,0,0,0-.25.048.183.183,0,0,0,.048.254c2.32,1.549,10.626,11.15,10.943,24.23A.183.183,0,0,0,77.539,344.8Z" transform="translate(-61.936 -317.538)" fill="#01abc1"/>
        </g>
      </g>
      <g id="freepik--Shadows--inject-9" transform="translate(46.324 167.268)">
        <ellipse id="freepik--Shadow--inject-9" cx="29.239" cy="16.882" rx="29.239" ry="16.882" fill="#e0e0e0"/>
        <ellipse id="freepik--shadow--inject-9-2" data-name="freepik--shadow--inject-9" cx="29.239" cy="16.882" rx="29.239" ry="16.882" transform="translate(88.102 0.56)" fill="#e0e0e0"/>
      </g>
      <g id="freepik--speech-bubble-2--inject-9" transform="translate(129.346 34.049)">
        <g id="freepik--speech-bubble--inject-9">
          <g id="freepik--speech-bubble--inject-9-2" data-name="freepik--speech-bubble--inject-9">
            <path id="Path_41692" data-name="Path 41692" d="M284.23,47.507a10.443,10.443,0,0,0,14.657,14.773l3.059,1.069a.608.608,0,0,0,.735-.862l-1.541-2.852a10.439,10.439,0,0,0-16.91-12.127Zm15.261,13.025a9.625,9.625,0,1,1-1.057-13.565,9.625,9.625,0,0,1,1.057,13.565Z" transform="translate(-281.745 -43.821)" fill="#455a64"/>
            <circle id="Ellipse_414" data-name="Ellipse 414" cx="9.625" cy="9.625" r="9.625" transform="matrix(0.997, -0.077, 0.077, 0.997, 0.098, 1.597)" fill="#fff"/>
          </g>
          <path id="Path_41693" data-name="Path 41693" d="M298.25,54.061a7,7,0,0,1,.747-.576,5.5,5.5,0,0,1,.882-.473,5.662,5.662,0,0,1,1.029-.318,5.959,5.959,0,0,1,1.192-.115,4.954,4.954,0,0,1,1.589.242,3.515,3.515,0,0,1,1.231.691,3.131,3.131,0,0,1,.794,1.08,3.5,3.5,0,0,1,.278,1.422,3.606,3.606,0,0,1-.218,1.323,3.728,3.728,0,0,1-.556.973,4.28,4.28,0,0,1-.731.715l-.747.568a5.7,5.7,0,0,0-.612.524,1.025,1.025,0,0,0-.306.58l-.23,1.47h-1.7l-.171-1.644a1.338,1.338,0,0,1,.135-.83,2.458,2.458,0,0,1,.524-.651,6.5,6.5,0,0,1,.747-.576,6.531,6.531,0,0,0,.755-.6,3.151,3.151,0,0,0,.592-.747,1.9,1.9,0,0,0,.238-.973,1.473,1.473,0,0,0-.135-.647,1.5,1.5,0,0,0-.377-.5,1.815,1.815,0,0,0-.58-.318,2.407,2.407,0,0,0-.731-.107,3.3,3.3,0,0,0-.973.123,3.641,3.641,0,0,0-.675.282c-.183.1-.338.2-.469.282a.639.639,0,0,1-.342.127.548.548,0,0,1-.524-.3Zm1.887,10.761a1.588,1.588,0,0,1,.115-.592,1.41,1.41,0,0,1,.318-.485,1.565,1.565,0,0,1,1.088-.445,1.446,1.446,0,0,1,.6.123,1.523,1.523,0,0,1,.81,2,1.525,1.525,0,0,1-.794.794,1.509,1.509,0,0,1-.6.115,1.529,1.529,0,0,1-.6-.115,1.41,1.41,0,0,1-.485-.318,1.374,1.374,0,0,1-.318-.477A1.565,1.565,0,0,1,300.137,64.822Z" transform="translate(-291.694 -49.1)" fill="#01abc1"/>
        </g>
      </g>
      <g id="freepik--speech-bubble-1--inject-9" transform="translate(91.698 34.074)">
        <g id="freepik--speech-bubble--inject-9-3" data-name="freepik--speech-bubble--inject-9" transform="translate(0)">
          <g id="freepik--speech-bubble--inject-9-4" data-name="freepik--speech-bubble--inject-9">
            <path id="Path_41694" data-name="Path 41694" d="M191.042,46.372a10.451,10.451,0,0,0-2.189,13.3l-1.541,2.852a.608.608,0,0,0,.735.87l3.059-1.069a10.443,10.443,0,1,0-.064-15.944Zm.516.632A9.621,9.621,0,1,1,190.5,60.569,9.621,9.621,0,0,1,191.558,47Z" transform="translate(-187.234 -43.882)" fill="#455a64"/>
            <circle id="Ellipse_415" data-name="Ellipse 415" cx="9.625" cy="9.625" r="9.625" transform="matrix(0.077, -0.997, 0.997, 0.077, 0.242, 19.282)" fill="#fff"/>
          </g>
          <path id="Path_41695" data-name="Path 41695" d="M204.09,54.061a7.477,7.477,0,0,1,.759-.576,5.5,5.5,0,0,1,.882-.473,5.661,5.661,0,0,1,1.029-.318,5.959,5.959,0,0,1,1.192-.115,4.953,4.953,0,0,1,1.589.242,3.516,3.516,0,0,1,1.231.691,3.071,3.071,0,0,1,.794,1.08,3.432,3.432,0,0,1,.282,1.422,3.606,3.606,0,0,1-.218,1.323,3.845,3.845,0,0,1-.556.973,4.283,4.283,0,0,1-.731.715l-.727.568a6.041,6.041,0,0,0-.608.524,1.025,1.025,0,0,0-.306.58l-.234,1.47h-1.7l-.171-1.644a1.339,1.339,0,0,1,.135-.83,2.458,2.458,0,0,1,.5-.651,6.5,6.5,0,0,1,.731-.576,6.528,6.528,0,0,0,.755-.6,3.253,3.253,0,0,0,.6-.747,1.9,1.9,0,0,0,.238-.973,1.478,1.478,0,0,0-.139-.647,1.4,1.4,0,0,0-.4-.5,1.755,1.755,0,0,0-.576-.318,2.407,2.407,0,0,0-.731-.107,3.3,3.3,0,0,0-.973.123,3.639,3.639,0,0,0-.675.282c-.183.1-.342.2-.469.282a.64.64,0,0,1-.342.127.548.548,0,0,1-.524-.3ZM206,64.822a1.5,1.5,0,0,1,.115-.592,1.411,1.411,0,0,1,.318-.485,1.545,1.545,0,0,1,1.088-.445,1.418,1.418,0,0,1,.6.123,1.507,1.507,0,0,1,0,2.792,1.478,1.478,0,0,1-.6.115,1.561,1.561,0,0,1-.608-.115,1.43,1.43,0,0,1-.481-.318,1.375,1.375,0,0,1-.318-.477A1.494,1.494,0,0,1,206,64.822Z" transform="translate(-197.394 -49.125)" fill="#01abc1"/>
        </g>
      </g>
      <g id="freepik--character-2--inject-9" transform="translate(129.163 41.33)">
        <g id="freepik--Character--inject-9" transform="translate(0 0)">
          <g id="freepik--Bottom--inject-9" transform="translate(10.953 52.516)">
            <path id="Path_41696" data-name="Path 41696" d="M325.646,330.1c.548,8.806,1.343,19.555,1.37,20,.159,2.383-.052,3.341-.989,4.346a56.733,56.733,0,0,1-7.277,5.958c.358.941,3.742,1.354,5.208.639a37.612,37.612,0,0,0,5.462-3.484c2.026-1.5,4.608-2.7,4.643-4.977a2.331,2.331,0,0,1,.068-.4c.04-1.331,3.138-16.258,3.4-20.814.024-.4.04-.818.048-1.255Z" transform="translate(-314.656 -275.728)" fill="#c8856a"/>
            <path id="Path_41697" data-name="Path 41697" d="M393.687,338.557c-.048-2.415-.135-5-.3-7.3-.028-.4-.06-.794-.091-1.192H381.5c1.037,4.06,2.149,8.274,2.912,11.166,1.021,3.873,3.078,9.422,3.428,13.287.107.926,1.152,9.986,1.589,12.06s4.953,2.129,5.243-1.438c.195-2.383-.635-10.046-.719-11.182C393.508,347.911,394.187,347.99,393.687,338.557Z" transform="translate(-352.481 -275.704)" fill="#c8856a"/>
            <path id="Path_41698" data-name="Path 41698" d="M309.072,406.083a1.974,1.974,0,0,0,.346,1.986,8.366,8.366,0,0,0,6.117,1.462,10.658,10.658,0,0,0,5.934-2.292c1.227-1.005,2.955-2.427,4.334-2.717a8.241,8.241,0,0,0,3.09-1.223c.413-.393.377-2.149.377-2.149Z" transform="translate(-308.744 -318.556)" fill="#263238"/>
            <path id="Path_41699" data-name="Path 41699" d="M328.206,384s.23,0,.3.4c.091.485.175,1.895.369,2.693a14.344,14.344,0,0,1,.254,4.274c-.175.9-2.272,1.5-3.607,1.986a16.888,16.888,0,0,0-4.35,2.677,12.556,12.556,0,0,1-6.447,2.324c-3.031,0-4.985-.83-5.561-1.926-.735-1.355-.56-2.578,2.936-4.151.663-.3,2.991-1.644,3.785-2.133a18.048,18.048,0,0,0,2.383-1.736,14.016,14.016,0,0,0,1.076-1.041,4.883,4.883,0,0,0,.894-1.116c.04-.091.068-.2.1-.294a4.891,4.891,0,0,0,.238-.814c.056-.29.1-.711.373-.882a2.327,2.327,0,0,1,1.247-.131,14.609,14.609,0,0,1,1.879.4,1.744,1.744,0,0,1,1.283.918,2.531,2.531,0,0,1,.274,1.267v.612c0,.083-.04.242.083.207s.25-.338.294-.441c.1-.226.163-.469.27-.691a3.578,3.578,0,0,1,.441-.731,3.51,3.51,0,0,1,.556-.556,5.551,5.551,0,0,0,.6-.4,1.415,1.415,0,0,0,.318-.711Z" transform="translate(-308.669 -308.218)" fill="#37474f"/>
            <path id="Path_41700" data-name="Path 41700" d="M311.3,405.6c4.369.35,6.157,3.519,6.324,5.2a10.328,10.328,0,0,1-3.118.62c-3.031,0-5.108-.83-5.7-1.927C308.109,408.218,308.177,406.748,311.3,405.6Z" transform="translate(-308.445 -321.238)" fill="#fafafa"/>
            <path id="Path_41701" data-name="Path 41701" d="M326.541,403.336a.218.218,0,0,0,.171-.35c-.6-.751-2.78-2.209-4.369-2.054a.215.215,0,1,0,.04.425c1.49-.139,3.515,1.3,4,1.9a.21.21,0,0,0,.163.079Z" transform="translate(-316.692 -318.418)" fill="#f0f0f0"/>
            <path id="Path_41702" data-name="Path 41702" d="M331.332,400.635a.215.215,0,0,0,.167-.35c-.6-.755-2.781-2.213-4.369-2.054a.215.215,0,0,0-.191.234.211.211,0,0,0,.234.191c1.49-.143,3.515,1.3,3.992,1.9A.219.219,0,0,0,331.332,400.635Z" transform="translate(-319.592 -316.79)" fill="#f0f0f0"/>
            <path id="Path_41703" data-name="Path 41703" d="M335.8,397.516a.191.191,0,0,0,.135-.044.215.215,0,0,0,.032-.3c-.6-.755-2.781-2.213-4.369-2.058a.216.216,0,1,0,.044.429c1.486-.143,3.515,1.3,3.992,1.895A.218.218,0,0,0,335.8,397.516Z" transform="translate(-322.283 -314.91)" fill="#f0f0f0"/>
            <path id="Path_41704" data-name="Path 41704" d="M339.6,394.365a.214.214,0,0,0,.131-.048.21.21,0,0,0,.04-.3,6.481,6.481,0,0,0-4.735-2.081.215.215,0,0,0-.195.234.218.218,0,0,0,.234.191,6.2,6.2,0,0,1,4.369,1.919A.226.226,0,0,0,339.6,394.365Z" transform="translate(-324.354 -312.994)" fill="#f0f0f0"/>
            <path id="Path_41705" data-name="Path 41705" d="M397.87,422.871a9.444,9.444,0,0,0,1.192,4.655,3.064,3.064,0,0,0,3.523,1.239c1.4-.35,3.2-1.307,3.6-3.09a11.317,11.317,0,0,0,.318-4.926Z" transform="translate(-362.348 -330.37)" fill="#263238"/>
            <path id="Path_41706" data-name="Path 41706" d="M403.02,388.39c.58.044.751,2.82,1.084,5.6.354,2.983,1.243,4.215,1.565,6.657a7.65,7.65,0,0,1-1.076,5.728c-.977,1.688-4.441,3.345-6.149.926-1.39-1.986-1.45-4.155-1.323-6.943a61.753,61.753,0,0,0-.187-7.067c-.111-2.089-.572-4.2-.071-4.429.04.306.075.7.115,1a5.085,5.085,0,0,0,.187,1.116c.06.155.191.318.242.064a1.754,1.754,0,0,0,0-.52c-.087-.771.3-.83.512-.89a24.587,24.587,0,0,1,2.681-.4c.441-.032,1.962-.1,2.161.155a1.7,1.7,0,0,1,.195.794c.048.421.147.731.159.6.028-.3-.032-1.08-.04-1.271s-.036-.429-.04-.608S403.032,388.565,403.02,388.39Z" transform="translate(-361.604 -310.864)" fill="#37474f"/>
            <path id="Path_41707" data-name="Path 41707" d="M406.579,422.051a6.963,6.963,0,0,1-1.081,4.238c-.977,1.688-4.719,3.349-6.427.929a7.873,7.873,0,0,1-1.192-4.076C398.9,421.284,404.966,420.462,406.579,422.051Z" transform="translate(-362.354 -330.646)" fill="#fafafa"/>
            <path id="Path_41708" data-name="Path 41708" d="M400.692,416.71a.244.244,0,0,0,.072-.02,9.966,9.966,0,0,1,5.3-.516.211.211,0,0,0,.254-.159.215.215,0,0,0-.159-.258,10.085,10.085,0,0,0-5.581.544.215.215,0,0,0-.1.286A.218.218,0,0,0,400.692,416.71Z" transform="translate(-363.907 -327.244)" fill="#f0f0f0"/>
            <path id="Path_41709" data-name="Path 41709" d="M405.7,410.776a.21.21,0,0,0,.183-.143.214.214,0,0,0-.135-.27,8.322,8.322,0,0,0-5.561.5.214.214,0,0,0-.091.286.219.219,0,0,0,.29.091c.024,0,2.828-1.287,5.235-.469a.246.246,0,0,0,.079.008Z" transform="translate(-363.676 -323.928)" fill="#f0f0f0"/>
            <path id="Path_41710" data-name="Path 41710" d="M405.281,405.739a.222.222,0,0,0,.183-.139.214.214,0,0,0-.131-.274,7.587,7.587,0,0,0-5.68.481.214.214,0,1,0,.222.365,7.4,7.4,0,0,1,5.315-.445A.179.179,0,0,0,405.281,405.739Z" transform="translate(-363.352 -320.853)" fill="#f0f0f0"/>
            <path id="Path_41711" data-name="Path 41711" d="M404.876,400.907a.223.223,0,0,0,.179-.139.215.215,0,0,0-.127-.274c-2.669-1-5.6.477-5.716.54a.214.214,0,1,0,.214.369c.024,0,2.872-1.438,5.351-.508A.215.215,0,0,0,404.876,400.907Z" transform="translate(-363.082 -317.951)" fill="#ebebeb"/>
            <path id="Path_41712" data-name="Path 41712" d="M357.789,193.3c2.6,4.739,4,8.612,4.258,22.7s-.195,18.1-.139,19.8,1.589,5.454,1.78,13.867c.151,7.122.175,12.528.175,12.528s-.794,1.7-4,1.986a6.644,6.644,0,0,1-4.413-.846s-3.575-11.75-4.624-16.806c-1.219-5.843-4.636-19.73-4.636-19.73l-1,11.48a45.681,45.681,0,0,1,.187,10.824,83.323,83.323,0,0,1-2.018,11.539,16.616,16.616,0,0,1-4.866.739,10.082,10.082,0,0,1-4.425-1.132s-2.058-17.045-2.058-25.362-2.189-28.052,1.935-41.656Z" transform="translate(-322.299 -193.22)" fill="#37474f"/>
            <path id="Path_41713" data-name="Path 41713" d="M337.533,207.538c1.251,3.436,5.815,5.839,7.821,6.32L348.1,228.69l.4,13.37,1-11.48-3.3-19.4S340.624,210.771,337.533,207.538Zm19.4.02c.33,1.351.628,2.709.945,4.068s.624,2.717.957,4.083a27.06,27.06,0,0,0-.278-4.207,42.015,42.015,0,0,0-.759-4.147,37.235,37.235,0,0,0-1.192-4.048,20.089,20.089,0,0,0-1.807-3.817c.421,1.347.794,2.681,1.148,4.024S356.628,206.207,356.938,207.558Zm2.383-2.6c.453.814.882,1.637,1.315,2.463l1.279,2.518a11.232,11.232,0,0,0-.644-2.781,17.942,17.942,0,0,0-1.192-2.614,20.555,20.555,0,0,0-1.545-2.383,15.15,15.15,0,0,0-1.9-2.137c.417.866.87,1.688,1.323,2.51s.91,1.6,1.351,2.423ZM357.275,240.5c-.743-3.9-1.275-7.833-1.772-11.805s-.993-7.909-1.545-11.861c.242,3.972.528,7.944.922,11.917s.87,7.944,1.589,11.881,1.537,7.829,2.359,11.734,1.668,7.8,2.582,11.682q-.906-5.911-1.966-11.805c-.7-3.909-1.438-7.841-2.185-11.742Zm-19.015-13.7.719-11.472c-.592,3.789-1.053,7.6-1.406,11.416s-.671,7.635-.683,11.519c.127,3.857.421,7.666.735,11.492s.7,7.635,1.148,11.444q-.159-5.752-.457-11.488l-.29-5.74c-.1-1.907-.211-3.829-.25-5.72s.079-3.805.167-5.712.183-3.841.3-5.74Z" transform="translate(-325.591 -196.999)" fill="#263238"/>
          </g>
          <g id="freepik--Top--inject-9">
            <path id="freepik--Hair--inject-9" d="M369.1,84.41V106.3H352.67V85.872Z" transform="translate(-324.15 -75.568)" fill="#263238"/>
            <g id="freepik--Arn--inject-9" transform="translate(0 14.404)">
              <path id="Path_41714" data-name="Path 41714" d="M328.941,120.7a26.826,26.826,0,0,0-2.725-1.533,4.512,4.512,0,0,0-3.15.123c-1.466.564-3,2.522-4.671,4.767s-7.944,10.705-7.944,10.705.747,8.2,3.3,7.67c2.121-.433,11.122-10.677,11.122-10.677C328.357,127.549,329.3,123.171,328.941,120.7Z" transform="translate(-298.701 -110.786)" fill="#c8856a"/>
              <path id="Path_41715" data-name="Path 41715" d="M319.743,154.74a9.652,9.652,0,0,0,1.311-6.209,22.886,22.886,0,0,0-1.954-5.561l-2.05,2.781Z" transform="translate(-302.679 -125.27)" fill="#af6152"/>
              <path id="Path_41716" data-name="Path 41716" d="M295.5,109.988s.06-.23-.242-.576-.564-.528-.906-.91-.834-1.1-.592-1.513,1.192.127,1.867.687a3.908,3.908,0,0,0,2.169,1.108,3.427,3.427,0,0,1,2.816,1.851Z" transform="translate(-288.602 -103.494)" fill="#af6152"/>
              <path id="Path_41717" data-name="Path 41717" d="M284.418,106.113a15.519,15.519,0,0,0-1.736-1.95,7.512,7.512,0,0,1-1.057-1.7c-.318-.651-.838-1.394-.743-1.633s.564-.365.953,0c0,0-.083-.5-.211-.969s-.4-.945-.2-1.287.759-.079.981.3.338.616.338.616.4-.163.723.584a3.876,3.876,0,0,1,.29.953,3.669,3.669,0,0,1,.719,1.219,7.016,7.016,0,0,1,.763,1.347,4.144,4.144,0,0,1,1.47.707c.516.465.564.655,1.716.612a15.184,15.184,0,0,1,2.781-.151,2.124,2.124,0,0,1,2.062,1.589c.31,1.164.512,2.014.89,3.178.282.874.763,1.919,2.292,5.863,1.192,3.067,1.442,3.531,1.986,5.088a8.878,8.878,0,0,1,.143,5.708c-.83,2.665-1.764,3.952-3.007,3.917-2.634-.075-4.5-4.087-4.767-5.883s-.564-8.322-.719-10.59-.687-4.131-1.112-4.508a13.112,13.112,0,0,0-2.705-1.557C285.236,107.07,285.153,107.221,284.418,106.113Z" transform="translate(-280.871 -98.411)" fill="#c8856a"/>
              <path id="Path_41718" data-name="Path 41718" d="M311.11,116.39a4.924,4.924,0,0,1,.516,1.486c.147.512.294,1.021.453,1.525s.318,1.013.489,1.513.485,1.164.671,1.66c-.139-.512-.425-1.192-.576-1.688s-.306-1.017-.457-1.525l-.465-1.517-.23-.763A1.916,1.916,0,0,0,311.11,116.39Z" transform="translate(-299.098 -109.248)" fill="#af6152"/>
              <path id="Path_41719" data-name="Path 41719" d="M283.3,104.5a3.892,3.892,0,0,1,.4.608c.111.211.214.429.306.644v.032l.04.028a3.039,3.039,0,0,1,.3.23,3.5,3.5,0,0,1,.266.278,2.431,2.431,0,0,1,.4.659l.024.06h.052a2.214,2.214,0,0,1,.278.107,2.426,2.426,0,0,1,.266.139,2.906,2.906,0,0,1,.258.171c.083.064.159.135.238.207a1.8,1.8,0,0,0-.4-.5,1.824,1.824,0,0,0-.266-.195,1.757,1.757,0,0,0-.3-.155l.075.075a2.134,2.134,0,0,0-.4-.759,2.751,2.751,0,0,0-.3-.306,1.989,1.989,0,0,0-.361-.246l.056.06a3.826,3.826,0,0,0-.4-.632A2.311,2.311,0,0,0,283.3,104.5Z" transform="translate(-282.335 -102.081)" fill="#af6152"/>
              <path id="Path_41720" data-name="Path 41720" d="M285.59,101.13a2.052,2.052,0,0,1,.068.4,2.7,2.7,0,0,1,0,.4v.024l.024.036a3.2,3.2,0,0,1,.369.771,2.267,2.267,0,0,1,.119.826v.087l.075.04a2.647,2.647,0,0,1,.4.274,3.551,3.551,0,0,1,.35.342,4.851,4.851,0,0,1,.31.4c.1.135.187.282.278.425a2.725,2.725,0,0,0-.175-.485,2.527,2.527,0,0,0-.258-.449,2.694,2.694,0,0,0-.338-.4,2.011,2.011,0,0,0-.429-.33l.075.131a2.121,2.121,0,0,0,0-.477,2.577,2.577,0,0,0-.123-.457,3.139,3.139,0,0,0-.207-.4,2.494,2.494,0,0,0-.278-.4l.02.06a1.7,1.7,0,0,0-.068-.425A1.538,1.538,0,0,0,285.59,101.13Z" transform="translate(-283.715 -100.05)" fill="#af6152"/>
              <path id="Path_41721" data-name="Path 41721" d="M293.28,113.4a1.986,1.986,0,0,0,.818.4,2.781,2.781,0,0,0,.918.083c-.147-.044-.3-.075-.445-.107s-.294-.068-.437-.107a7.7,7.7,0,0,1-.854-.266Z" transform="translate(-288.351 -107.446)" fill="#af6152"/>
              <path id="Path_41722" data-name="Path 41722" d="M304.24,114.26a3.846,3.846,0,0,1,1.343.933,3.07,3.07,0,0,1,.449.667,7.305,7.305,0,0,1,.306.794,2.242,2.242,0,0,0-2.1-2.4Z" transform="translate(-294.957 -107.965)" fill="#af6152"/>
            </g>
            <g id="freepik--Chest--inject-9" transform="translate(20.421 23.921)">
              <path id="Path_41723" data-name="Path 41723" d="M360.637,155.351c-1.553-4.79-2.987-7.944-2.725-10.189.4-3.436,2.121-6.959,2.447-9.315.687-4.949.552-9.212-2.125-12.838-1.676.258-3.217,1.045-5.752-.032l-7.678-.044a6.3,6.3,0,0,1-3.392-.564,56.739,56.739,0,0,0-6.9,7.845c-2.495,3.662-3.523,7.9.29,11.067a48.752,48.752,0,0,1,.4,4.89c-.155,2.137-1.517,5.521-2.169,9.319C338.886,160.908,354.051,160.976,360.637,155.351Z" transform="translate(-332.28 -122.37)" fill="#01abc1"/>
              <path id="Path_41724" data-name="Path 41724" d="M360.637,155.351c-1.553-4.79-2.987-7.944-2.725-10.189.4-3.436,2.121-6.959,2.447-9.315.687-4.949.552-9.212-2.125-12.838-1.676.258-3.217,1.045-5.752-.032l-7.678-.044a6.3,6.3,0,0,1-3.392-.564,56.739,56.739,0,0,0-6.9,7.845c-2.495,3.662-3.523,7.9.29,11.067a48.752,48.752,0,0,1,.4,4.89c-.155,2.137-1.517,5.521-2.169,9.319C338.886,160.908,354.051,160.976,360.637,155.351Z" transform="translate(-332.28 -122.37)" fill="#fff" opacity="0.5"/>
            </g>
            <g id="freepik--Head--inject-9" transform="translate(25.306)">
              <path id="Path_41725" data-name="Path 41725" d="M360.21,81.641c0-1.482,2.066-4.016,3.21-6.622s1.295-6.725-1.092-8.226c-.286-4.075-8.489-6.244-13.74-3.245s-4.882,8.87-1.545,10.459S360.21,81.641,360.21,81.641Z" transform="translate(-344.579 -62.149)" fill="#263238"/>
              <g id="freepik--head--inject-9-2" data-name="freepik--head--inject-9" transform="translate(1.814 5.02)">
                <g id="freepik--head--inject-9-3" data-name="freepik--head--inject-9">
                  <path id="Path_41726" data-name="Path 41726" d="M364.007,87.217a2.685,2.685,0,0,0,2.487-.941,3.184,3.184,0,0,0,.6-3.972,2.08,2.08,0,0,0-2.661-.826c-.961.584-1,1.073-1.362,1.74s-1.283.131-.941-2.57c-1.835-.894-.818-3.424-1.8-4.7-1.251-1.625-3.634-.846-4.93-.254a1.053,1.053,0,0,1-1.144-.171,2.753,2.753,0,0,0-3.106-.445c-1.132.588-1.68,1.418-1.513,4.163a7.384,7.384,0,0,1-.123,1.871,19.326,19.326,0,0,0-.338,1.986c-.163,2.586.6,5.637,1.938,6.932A5.358,5.358,0,0,0,355,91.392l-.028,2.872s-4.369,3.7.58,3.7c5.664,0,7.1-3.658,7.1-3.658l.314-7.861S363.062,87.026,364.007,87.217Z" transform="translate(-349.145 -74.786)" fill="#c8856a"/>
                  <path id="Path_41727" data-name="Path 41727" d="M363.832,110.3c2.983-.068,6.2-1.66,7.09-4.123a5.4,5.4,0,0,1-3.809,4.58,10.026,10.026,0,0,1-3.313.556Z" transform="translate(-357.979 -93.71)" fill="#af6152"/>
                </g>
                <path id="Path_41728" data-name="Path 41728" d="M359.376,87.76l-.64,5.148-2.717-1.267Z" transform="translate(-353.289 -82.607)" fill="#af6152"/>
                <path id="Path_41729" data-name="Path 41729" d="M367.82,89.564a.767.767,0,1,0,.794-.794.794.794,0,0,0-.794.794Z" transform="translate(-360.402 -83.215)" fill="#263238"/>
                <path id="Path_41730" data-name="Path 41730" d="M353.646,88.936a.763.763,0,1,0,.715-.838.775.775,0,0,0-.715.838Z" transform="translate(-351.856 -82.81)" fill="#263238"/>
                <path id="Path_41731" data-name="Path 41731" d="M370.919,83.089l-1.374-1.259a.977.977,0,0,0,.064,1.351.91.91,0,0,0,1.311-.091Z" transform="translate(-361.297 -79.032)" fill="#263238"/>
                <path id="Path_41732" data-name="Path 41732" d="M355.486,81.81l-1.7.794a.9.9,0,0,0,1.223.473.985.985,0,0,0,.473-1.267Z" transform="translate(-351.945 -79.02)" fill="#263238"/>
                <path id="Path_41733" data-name="Path 41733" d="M365.089,103.918a.687.687,0,0,1-.981.091.854.854,0,0,1-.143-1.029.794.794,0,0,1,.238-.262.715.715,0,0,0-.373-.2,1.267,1.267,0,0,1,.91.072.894.894,0,0,1,.4.4A1.017,1.017,0,0,1,365.089,103.918Z" transform="translate(-357.997 -91.472)" fill="#af6152"/>
                <path id="Path_41734" data-name="Path 41734" d="M364.19,105.192a.737.737,0,0,0,.123.147.683.683,0,0,0,.981-.087,1,1,0,0,0,.119-.592A1.752,1.752,0,0,0,364.19,105.192Z" transform="translate(-358.214 -92.794)" fill="#ffa8a7"/>
              </g>
            </g>
            <g id="freepik--arn--inject-9-2" data-name="freepik--arn--inject-9" transform="translate(43.649 20.525)">
              <path id="Path_41735" data-name="Path 41735" d="M391.775,123.966a7.488,7.488,0,0,1,2.737-.576,3.536,3.536,0,0,1,2.55,1.029c1.124,1.053,1.867,2.9,2.6,5.275.814,2.622,4.179,13.136,4.179,13.136s-3.706,7.15-5.831,5.74c-1.76-1.192-6.137-13.788-6.137-13.788C390.27,129.67,390.536,126.071,391.775,123.966Z" transform="translate(-390.758 -119.589)" fill="#c8856a"/>
              <path id="Path_41736" data-name="Path 41736" d="M404.5,156.214a9.338,9.338,0,0,1,1.247-6.3c1.764-3.46,2.761-5.458,2.761-5.458l2.062,6.447Z" transform="translate(-398.958 -132.29)" fill="#af6152"/>
              <path id="Path_41737" data-name="Path 41737" d="M429.479,123.69s-.036-.226.29-.536.608-.453.977-.794.93-.989.735-1.414-1.192,0-1.887.477a3.833,3.833,0,0,1-2.232.85,3.38,3.38,0,0,0-2.931,1.513Z" transform="translate(-411.055 -118.01)" fill="#af6152"/>
              <path id="Path_41738" data-name="Path 41738" d="M420.639,121.043a15.109,15.109,0,0,1,1.891-1.72,7.147,7.147,0,0,0,1.192-1.549c.4-.6.957-1.275.894-1.513s-.516-.4-.93-.1c0,0,.131-.477.306-.922s.473-.882.326-1.235-.731-.155-.989.195-.4.564-.4.564-.346-.2-.763.493a3.9,3.9,0,0,0-.4.9,3.53,3.53,0,0,0-.826,1.112,6.954,6.954,0,0,0-.882,1.231,4.115,4.115,0,0,0-1.505.536c-.548.4-.616.58-1.732.421a14.693,14.693,0,0,0-2.689-.433,2.09,2.09,0,0,0-2.173,1.319c-.425,1.092-.707,1.907-1.192,3-.365.822-.941,1.791-2.836,5.474-1.478,2.864-1.772,3.289-2.451,4.767a8.715,8.715,0,0,0-.731,5.561c.532,2.685,1.311,4.036,2.522,4.127,2.578.2,4.81-3.515,5.243-5.239s1.414-8.044,1.8-10.24,1.1-3.948,1.549-4.274a12.62,12.62,0,0,1,2.781-1.235C419.757,121.873,419.845,122.032,420.639,121.043Z" transform="translate(-399.093 -113.822)" fill="#c8856a"/>
              <path id="Path_41739" data-name="Path 41739" d="M420.313,128.38a5,5,0,0,0-.659,1.394c-.195.481-.4.965-.6,1.442s-.4.953-.636,1.422-.588,1.08-.822,1.545c.187-.485.536-1.1.735-1.589s.4-.957.6-1.434l.612-1.434.306-.715A1.8,1.8,0,0,1,420.313,128.38Z" transform="translate(-406.938 -122.597)" fill="#af6152"/>
              <path id="Path_41740" data-name="Path 41740" d="M448.072,119.68a4.11,4.11,0,0,0-.437.552c-.131.195-.254.4-.361.6l-.02.028-.04.024a2.444,2.444,0,0,0-.318.195,2.853,2.853,0,0,0-.29.242,2.309,2.309,0,0,0-.457.6l-.028.056h-.052a2.136,2.136,0,0,0-.282.075,2.3,2.3,0,0,0-.274.107c-.091.044-.183.087-.27.139s-.167.115-.254.175a1.824,1.824,0,0,1,.449-.441,2.124,2.124,0,0,1,.278-.163,2.313,2.313,0,0,1,.306-.115l-.079.064a2.105,2.105,0,0,1,.477-.7,2.324,2.324,0,0,1,.326-.266,2.1,2.1,0,0,1,.373-.207l-.056.052a3.938,3.938,0,0,1,.445-.572,2.382,2.382,0,0,1,.564-.445Z" transform="translate(-423.448 -117.353)" fill="#af6152"/>
              <path id="Path_41741" data-name="Path 41741" d="M447.3,116.16a2.382,2.382,0,0,0-.107.4,2.682,2.682,0,0,0-.036.4v.028l-.024.028a3.021,3.021,0,0,0-.441.715,2.133,2.133,0,0,0-.2.794v.083l-.079.036a2.386,2.386,0,0,0-.4.226,3.86,3.86,0,0,0-.4.294,4.668,4.668,0,0,0-.342.346,3.658,3.658,0,0,0-.318.4,2.783,2.783,0,0,1,.223-.449,2.714,2.714,0,0,1,.3-.4,2.424,2.424,0,0,1,.373-.354,1.946,1.946,0,0,1,.449-.278l-.083.119a1.819,1.819,0,0,1,.068-.465,2.34,2.34,0,0,1,.167-.429,2.744,2.744,0,0,1,.242-.4,2.268,2.268,0,0,1,.31-.338l-.024.056a1.558,1.558,0,0,1,.111-.4A1.522,1.522,0,0,1,447.3,116.16Z" transform="translate(-423.43 -115.231)" fill="#af6152"/>
              <path id="Path_41742" data-name="Path 41742" d="M439.458,127.31a1.954,1.954,0,0,1-.842.326,2.884,2.884,0,0,1-.906,0c.151-.028.3-.04.445-.06l.441-.06A6.1,6.1,0,0,0,439.458,127.31Z" transform="translate(-419.059 -121.952)" fill="#af6152"/>
              <path id="Path_41743" data-name="Path 41743" d="M427.844,126.995a3.738,3.738,0,0,0-1.4.771,2.951,2.951,0,0,0-.5.6,6,6,0,0,0-.4.727,2.148,2.148,0,0,1,.195-.826,2.115,2.115,0,0,1,.508-.7A2.181,2.181,0,0,1,427.844,126.995Z" transform="translate(-411.724 -121.76)" fill="#af6152"/>
            </g>
          </g>
        </g>
      </g>
      <g id="freepik--character-1--inject-9" transform="translate(34.862 39.613)">
        <g id="freepik--character--inject-9-2" data-name="freepik--character--inject-9" transform="translate(0)">
          <g id="freepik--bottom--inject-9-2" data-name="freepik--bottom--inject-9" transform="translate(19.826 56.096)">
            <path id="Path_41744" data-name="Path 41744" d="M165.617,365c-.314,3.94-.469,7.261-.4,7.944a7.837,7.837,0,0,0,2.467,4.973,36.718,36.718,0,0,0,6.081,4.767c-.342.973-5.609,1.072-7.122.373a55.648,55.648,0,0,1-6.379-3.547c-2.105-1.482-2.61-2.383-2.7-4.735,0-.29-.226-2.189-.211-2.32-.028-.544-.357-3.5-.794-7.15Z" transform="translate(-131.912 -298.628)" fill="#ffa8a7"/>
            <path id="Path_41745" data-name="Path 41745" d="M99.123,371.744l.242-9.394,9.255.461-1.716,9.331s-1.192,12.516-1.676,14.558c-1.589,6.586-6.931,3.929-7.547.437C97.249,384.829,99.123,371.744,99.123,371.744Z" transform="translate(-96.382 -297.031)" fill="#ffa8a7"/>
            <path id="Path_41746" data-name="Path 41746" d="M176.539,407.749a2.148,2.148,0,0,1-.54,2.121,9.081,9.081,0,0,1-6.753,1.088,11.687,11.687,0,0,1-6.264-3c-1.251-1.2-3.011-2.9-4.489-3.325a14.186,14.186,0,0,1-4-1.8c-.425-.461-.23-2.383-.23-2.383Z" transform="translate(-130.5 -320.003)" fill="#263238"/>
            <path id="Path_41747" data-name="Path 41747" d="M155.961,383.72a1.029,1.029,0,0,0-.572.62c-.139.524-.187,1.192-.461,2.054a15.291,15.291,0,0,0-.632,4.647c.115,1,3.086,2.03,4.5,2.681a18.759,18.759,0,0,1,4.5,3.285,13.862,13.862,0,0,0,6.82,3.071c3.293.266,5.486-.493,6.22-1.637.914-1.418.608-2.971-3.067-4.981-.7-.4-3.118-2.046-3.94-2.641a19.564,19.564,0,0,1-2.451-2.1,15.054,15.054,0,0,1-1.08-1.223,5.315,5.315,0,0,1-.882-1.291c-.036-.107-.056-.226-.087-.33a5.533,5.533,0,0,1-.191-.91c-.04-.318-.048-.794-.334-.993s-5.053.4-5.418.918a2.78,2.78,0,0,0-.4,1.358c-.024.222-.036.445-.052.667,0,.1.024.266-.107.218s-.242-.4-.282-.5c-.091-.258-.139-.528-.238-.794a2.284,2.284,0,0,0-.421-.838c-.592-.572-1.212-.509-1.378-.7C156.012,384.316,155.968,383.911,155.961,383.72Z" transform="translate(-130.534 -309.912)" fill="#37474f"/>
            <path id="Path_41748" data-name="Path 41748" d="M192.457,408.52a6.568,6.568,0,0,0-6.7,5.561,11.177,11.177,0,0,0,3.341.933c3.293.266,5.621-.481,6.356-1.629C196.318,412.059,195.754,410.029,192.457,408.52Z" transform="translate(-149.513 -324.861)" fill="#fafafa"/>
            <path id="Path_41749" data-name="Path 41749" d="M184.564,405.853a.243.243,0,0,1-.147-.064.234.234,0,0,1,0-.33c.715-.775,2.979-2.383,4.7-2.085a.234.234,0,1,1-.079.461c-1.589-.278-3.71,1.331-4.282,1.942A.218.218,0,0,1,184.564,405.853Z" transform="translate(-148.662 -321.738)" fill="#f5f5f5"/>
            <path id="Path_41750" data-name="Path 41750" d="M179.59,402.483a.242.242,0,0,1-.143-.06.238.238,0,0,1,0-.334c.719-.775,2.983-2.383,4.7-2.085a.242.242,0,0,1,.191.274.234.234,0,0,1-.27.191c-1.589-.282-3.714,1.327-4.282,1.942A.243.243,0,0,1,179.59,402.483Z" transform="translate(-145.666 -319.707)" fill="#f5f5f5"/>
            <path id="Path_41751" data-name="Path 41751" d="M175.02,398.713a.227.227,0,0,1-.143-.064.234.234,0,0,1,0-.33c.719-.794,2.987-2.383,4.7-2.085a.242.242,0,0,1,.191.274.234.234,0,0,1-.27.191c-1.589-.282-3.714,1.327-4.282,1.942a.238.238,0,0,1-.2.072Z" transform="translate(-142.912 -317.434)" fill="#f5f5f5"/>
            <path id="Path_41752" data-name="Path 41752" d="M170.55,394.947a.229.229,0,0,1-.143-.393c.989-1.1,3.384-2.383,5.1-2.081a.234.234,0,0,1-.083.461c-1.545-.27-3.8.961-4.675,1.934A.23.23,0,0,1,170.55,394.947Z" transform="translate(-140.217 -315.161)" fill="#f5f5f5"/>
            <path id="Path_41753" data-name="Path 41753" d="M104.451,424.646a10.994,10.994,0,0,1-1.39,5.287,3.447,3.447,0,0,1-4.008,1.366c-1.585-.421-3.611-1.529-4.048-3.575a12.654,12.654,0,0,1-.3-5.6Z" transform="translate(-94.508 -333.059)" fill="#263238"/>
            <path id="Path_41754" data-name="Path 41754" d="M97.438,386c-.771-.075-.711,3.015-1.12,6.177-.441,3.388-.945,4.731-1.335,7.511a8.731,8.731,0,0,0,1.152,6.538c1.088,1.938,5,3.865,6.963,1.132,1.589-2.228,1.692-4.715,1.589-7.893a46.719,46.719,0,0,1,.52-7.964c.3-2.562.6-4.8.032-5.073l-.342,2.467c-.068.179-.326.616-.421-.048-.028-.2.04-.651.024-.846a.838.838,0,0,0-.588-.771,6.305,6.305,0,0,0-2.781-.648,7.5,7.5,0,0,0-3.106.286c-.429.215-.425.624-.473,1.025-.064.481-.075.775-.191.679C97.12,388.381,97.438,386,97.438,386Z" transform="translate(-94.697 -311.285)" fill="#37474f"/>
            <path id="Path_41755" data-name="Path 41755" d="M94.684,423.654a7.968,7.968,0,0,0,1.192,4.846c1.088,1.934,5.315,3.877,7.277,1.144a9.027,9.027,0,0,0,1.406-4.628C103.4,422.879,96.535,421.866,94.684,423.654Z" transform="translate(-94.599 -333.429)" fill="#fafafa"/>
            <path id="Path_41756" data-name="Path 41756" d="M106.317,417.682a.143.143,0,0,1-.079-.024,11.281,11.281,0,0,0-6.006-.651.244.244,0,1,1-.1-.477,11.411,11.411,0,0,1,6.324.691.242.242,0,0,1-.135.461Z" transform="translate(-97.78 -329.571)" fill="#f5f5f5"/>
            <path id="Path_41757" data-name="Path 41757" d="M100.817,410.865a.246.246,0,0,1-.048-.477c2.947-.965,6.193.572,6.316.636a.243.243,0,1,1-.23.429c-.028,0-3.178-1.5-5.934-.6A.227.227,0,0,1,100.817,410.865Z" transform="translate(-98.182 -325.796)" fill="#f5f5f5"/>
            <path id="Path_41758" data-name="Path 41758" d="M101.124,405.135a.242.242,0,0,1-.052-.473,8.569,8.569,0,0,1,6.435.62.246.246,0,0,1,.079.338.238.238,0,0,1-.334.076,8.363,8.363,0,0,0-6.022-.572.249.249,0,0,1-.107.012Z" transform="translate(-98.362 -322.302)" fill="#f5f5f5"/>
            <path id="Path_41759" data-name="Path 41759" d="M101.6,399.632a.244.244,0,0,1-.056-.473c3.039-1.1,6.356.612,6.475.687a.242.242,0,0,1,.087.334.238.238,0,0,1-.334.087c-.028,0-3.241-1.676-6.066-.648A.249.249,0,0,1,101.6,399.632Z" transform="translate(-98.652 -318.996)" fill="#ebebeb"/>
            <path id="Path_41760" data-name="Path 41760" d="M104.627,197.91c-.624,6.165-.834,7.686-1.267,21.386-.4,13.287-.421,15.233-.5,16.834-.171,3.674-2.268,5.144-2.435,13.8-.155,7.944.123,17.656.123,17.656a7.412,7.412,0,0,0,4.461,1.5,9.51,9.51,0,0,0,4.751-.941s4.036-17.788,5.3-23.253c1.494-6.435,3.913-17.641,3.913-17.641s1.215,9.994,1.672,13.216c.437,3.071-.616,4.27.044,11.15.524,5.486,2.089,14.653,2.089,14.653a9.533,9.533,0,0,0,4.5,1.08c3.448-.159,4.536-1.339,4.536-1.339s1.93-20.512,1.95-28.358c.02-8.306.195-27.555-.691-39.746Z" transform="translate(-98.048 -197.91)" fill="#455a64"/>
            <path id="Path_41761" data-name="Path 41761" d="M147.17,243.974l1.768-13.815a18.027,18.027,0,0,0,7.277-4.508c-.135,2.28-4.056,5.335-5.923,5.855l-2.085,12.246.636,13.422Z" transform="translate(-126.251 -214.631)" fill="#37474f"/>
            <path id="Path_41762" data-name="Path 41762" d="M126.509,202.54a18.86,18.86,0,0,0-1.565,3.662,34.076,34.076,0,0,0-1,3.853c-.254,1.3-.453,2.618-.576,3.936a25.556,25.556,0,0,0-.123,3.972c.27-1.3.516-2.59.767-3.885s.485-2.578.751-3.861.52-2.57.794-3.849S126.159,203.823,126.509,202.54Z" transform="translate(-111.815 -200.701)" fill="#37474f"/>
            <path id="Path_41763" data-name="Path 41763" d="M120.2,203.9a14.54,14.54,0,0,0-1.716,2.077,19.924,19.924,0,0,0-1.37,2.316,17.294,17.294,0,0,0-1.017,2.5,10.63,10.63,0,0,0-.512,2.657l1.116-2.419c.4-.794.759-1.589,1.156-2.383s.794-1.565,1.192-2.356S119.834,204.734,120.2,203.9Z" transform="translate(-107.21 -201.521)" fill="#37474f"/>
            <path id="Path_41764" data-name="Path 41764" d="M123.513,242.29c-.425,4.131-.794,8.266-1.164,12.4s-1.212,8.7-1.819,12.794-3.539,20.171-4.02,24.294c.794-4.075,4.191-20.06,4.842-24.175s1.39-8.719,1.641-12.862S123.406,246.441,123.513,242.29Z" transform="translate(-107.77 -224.661)" fill="#37474f"/>
            <path id="Path_41765" data-name="Path 41765" d="M173,241.84l.429,10.836c.056,1.807.131,3.611.175,5.414s.1,3.611.036,5.39-.58,19.067-.421,22.685c.516-4.016,1.049-19.015,1.251-22.642.071-3.654-.155-7.257-.4-10.872S173.489,245.427,173,241.84Z" transform="translate(-141.821 -224.39)" fill="#37474f"/>
            <path id="Path_41766" data-name="Path 41766" d="M155.73,364.153l.512,3.8a10.7,10.7,0,0,0,5.049.731c3.162-.2,3.889-1.283,3.889-1.283l.31-3.6a7.543,7.543,0,0,1-4.079,1.057A13.665,13.665,0,0,1,155.73,364.153Z" transform="translate(-131.411 -297.905)" fill="#37474f"/>
            <path id="Path_41767" data-name="Path 41767" d="M100.38,366.61l.119,3.789a9.144,9.144,0,0,0,4.644,1.521c3.15.306,4.544-.822,4.544-.822l.651-3.349a9.978,9.978,0,0,1-4.465.4A17.4,17.4,0,0,1,100.38,366.61Z" transform="translate(-98.047 -299.599)" fill="#37474f"/>
          </g>
          <g id="freepik--top--inject-9-2" data-name="freepik--top--inject-9">
            <path id="Path_41768" data-name="Path 41768" d="M161.6,117.992a4.548,4.548,0,0,1,2.455-.894c1.533-.127,3.106-.369,4.238.167,1.545.739,2.832,2.705,4.457,5.295s7.682,12.314,7.682,12.314-1.525,8.83-4.254,8.04c-2.26-.659-11.122-12.556-11.122-12.556C161.637,125.471,160.994,120.637,161.6,117.992Z" transform="translate(-115.002 -93.454)" fill="#ffa8a7"/>
            <path id="Path_41769" data-name="Path 41769" d="M191.937,156.585a10.51,10.51,0,0,1-.886-6.852,25.054,25.054,0,0,1,2.606-5.883l1.986,3.178Z" transform="translate(-132.742 -109.68)" fill="#f28f8f"/>
            <path id="Path_41770" data-name="Path 41770" d="M166.71,116.433a6.74,6.74,0,0,1,4.226.044c1.279.437,2.665,2.046,4.441,4.818s5.184,8.274,5.184,8.274a8.759,8.759,0,0,1-2.781,4.369,19.666,19.666,0,0,1-4.369,3.15l-7.3-8.874Z" transform="translate(-117.842 -92.956)" fill="#37474f"/>
            <path id="Path_41771" data-name="Path 41771" d="M217.909,110.378s-.048-.25.31-.6.659-.52,1.061-.906,1-1.124.775-1.589-1.315.028-2.081.58a4.258,4.258,0,0,1-2.455,1.013c-1.231.135-2.645.532-3.217,1.764Z" transform="translate(-145.684 -87.524)" fill="#f28f8f"/>
            <path id="Path_41772" data-name="Path 41772" d="M209.019,107.049a17.2,17.2,0,0,1,2.054-1.986,8.1,8.1,0,0,0,1.295-1.756c.4-.679,1.029-1.442.949-1.708s-.584-.445-1.037-.079c0,0,.135-.532.314-1.033s.5-.989.33-1.378-.818-.151-1.1.242a7.477,7.477,0,0,0-.4.64s-.4-.211-.838.568a4.281,4.281,0,0,0-.4,1.013,3.992,3.992,0,0,0-.89,1.259,7.686,7.686,0,0,0-.941,1.394,4.493,4.493,0,0,0-1.66.64c-.6.461-.667.659-1.911.516a15.561,15.561,0,0,0-3-.4,2.336,2.336,0,0,0-2.383,1.529c-.449,1.223-.731,2.141-1.239,3.364-.4.926-1,2.018-3,6.165-1.557,3.225-1.875,3.706-2.586,5.351a9.692,9.692,0,0,0-.651,6.181c.667,2.967,1.589,4.445,2.924,4.512,2.864.147,5.243-4.044,5.676-5.958s1.335-8.977,1.7-11.428,1.1-4.425,1.589-4.794a14.045,14.045,0,0,1,3.074-1.454C208.046,108.015,208.126,108.185,209.019,107.049Z" transform="translate(-133.264 -82.591)" fill="#ffa8a7"/>
            <path id="Path_41773" data-name="Path 41773" d="M207.984,116a5.5,5.5,0,0,0-.687,1.569c-.215.536-.4,1.084-.624,1.617s-.433,1.073-.663,1.589-.628,1.219-.87,1.74c.191-.544.564-1.239.771-1.78s.421-1.076.628-1.613l.636-1.609.318-.794a2.149,2.149,0,0,1,.493-.719Z" transform="translate(-141.368 -92.892)" fill="#f28f8f"/>
            <path id="Path_41774" data-name="Path 41774" d="M238.433,105.53a4.769,4.769,0,0,0-.469.628c-.139.218-.27.445-.4.671l-.02.032-.044.028a2.614,2.614,0,0,0-.35.226,2.965,2.965,0,0,0-.314.278,2.662,2.662,0,0,0-.489.679l-.032.06h-.056a2.071,2.071,0,0,0-.31.091c-.1.04-.207.079-.306.127a2.583,2.583,0,0,0-.29.163c-.091.06-.187.131-.278.2a2.014,2.014,0,0,1,.485-.5,2.121,2.121,0,0,1,.3-.187,2.314,2.314,0,0,1,.338-.139l-.087.071a2.459,2.459,0,0,1,.866-1.088,2.082,2.082,0,0,1,.4-.238l-.064.06a4.369,4.369,0,0,1,.481-.651A2.55,2.55,0,0,1,238.433,105.53Z" transform="translate(-159.415 -86.581)" fill="#f28f8f"/>
            <path id="Path_41775" data-name="Path 41775" d="M237.581,101.68a2.106,2.106,0,0,0-.111.433,2.756,2.756,0,0,0-.028.437v.028l-.028.036a3.6,3.6,0,0,0-.469.794,2.383,2.383,0,0,0-.2.886v.091l-.087.04a2.891,2.891,0,0,0-.441.266,4.106,4.106,0,0,0-.4.338,5.026,5.026,0,0,0-.369.4c-.115.143-.226.286-.342.433a3.664,3.664,0,0,1,.234-.508,3.009,3.009,0,0,1,.318-.465,3.253,3.253,0,0,1,.4-.4,2.2,2.2,0,0,1,.493-.322l-.091.135a2.062,2.062,0,0,1,.064-.516,2.464,2.464,0,0,1,.171-.481,2.826,2.826,0,0,1,.262-.437,2.728,2.728,0,0,1,.33-.4l-.024.064a1.987,1.987,0,0,1,.111-.457A1.589,1.589,0,0,1,237.581,101.68Z" transform="translate(-159.434 -84.261)" fill="#f28f8f"/>
            <path id="Path_41776" data-name="Path 41776" d="M228.99,114.32a2.244,2.244,0,0,1-.926.4,3.177,3.177,0,0,1-1,0c.163-.036.33-.056.493-.079l.485-.075A7.607,7.607,0,0,0,228.99,114.32Z" transform="translate(-154.581 -91.88)" fill="#f28f8f"/>
            <path id="Path_41777" data-name="Path 41777" d="M216.239,114.3a4.2,4.2,0,0,0-1.537.9,3.177,3.177,0,0,0-.544.687,6.256,6.256,0,0,0-.4.818,2.427,2.427,0,0,1,.191-.926,2.383,2.383,0,0,1,.548-.794A2.423,2.423,0,0,1,216.239,114.3Z" transform="translate(-146.564 -91.867)" fill="#f28f8f"/>
            <g id="freepik--chest--inject-9-2" data-name="freepik--chest--inject-9" transform="translate(24.42 23.429)">
              <path id="Path_41778" data-name="Path 41778" d="M108.368,118.972s-2.959,5.907-2.157,11.082c.608,3.913,2.407,8.564,2.038,13.688-.318,4.4-.937,10.618-.937,10.618,4.6,3.746,25.12,4.929,29.625-.934,0,0-.2-7.15-.357-14.606a130.21,130.21,0,0,0-.715-13.172c-.969-6.578-4.258-8.274-5.343-8.719-2.248.516-3.535,1.108-5.1,1.053a37.5,37.5,0,0,0-6,.346,19.454,19.454,0,0,1-7.059-.151S109.3,118.725,108.368,118.972Z" transform="translate(-106.073 -116.882)" fill="#f5f5f5"/>
              <path id="Path_41779" data-name="Path 41779" d="M130.491,117.283c1.549.679,4.139,2.653,4.981,8.342a125.93,125.93,0,0,1,.711,13.108c.139,6.8.322,13.4.354,14.463C134.578,155.579,129.319,157,122.4,157c-6.268,0-12.358-1.219-14.665-2.916.115-1.152.636-6.526.918-10.407a32.924,32.924,0,0,0-1.243-9.986c-.314-1.339-.612-2.606-.794-3.8-.7-4.508,1.589-9.692,2.042-10.673.973-.234,3.281-.651,3.714-.731a18,18,0,0,0,3.456.373c.894,0,1.986-.068,3.639-.23l1.025-.107a32.638,32.638,0,0,1,3.861-.254h1.275a11.191,11.191,0,0,0,3.094-.576c.52-.143,1.108-.31,1.772-.465m.036-.421c-2.153.493-3.424,1.057-4.9,1.057h-1.275a43.745,43.745,0,0,0-4.926.365c-1.621.159-2.713.23-3.6.23a17.9,17.9,0,0,1-3.46-.4s-3.055.548-3.992.794c0,0-2.959,5.907-2.157,11.082.608,3.913,2.407,8.564,2.038,13.688-.318,4.4-.937,10.618-.937,10.618,2.328,1.9,8.739,3.138,15.094,3.138,6.189,0,12.314-1.192,14.538-4.072,0,0-.2-7.15-.357-14.606a130.215,130.215,0,0,0-.715-13.172c-.969-6.578-4.258-8.274-5.343-8.719Z" transform="translate(-106.079 -116.81)" fill="#e0e0e0"/>
            </g>
            <g id="freepik--head--inject-9-4" data-name="freepik--head--inject-9" transform="translate(29.913)">
              <path id="Path_41780" data-name="Path 41780" d="M125.06,69.56a3.2,3.2,0,0,0-2.383,1.919c-.481.914-.834,2.59.4,7.4a19.463,19.463,0,0,0,2.244,5.315,2.347,2.347,0,0,0,1.347,1.112l-.06-3.69-.1-2.57s2.062-1.863,2.252-3.706a5.931,5.931,0,0,0-.655-3.73Z" transform="translate(-121.307 -64.899)" fill="#37474f"/>
              <path id="Path_41781" data-name="Path 41781" d="M128.1,62.607c.373-2.073,2.991-4.52,8-4.767a9.509,9.509,0,0,1,8.647,4.6,3.846,3.846,0,0,1-.632,4.493l-12.56-.771Z" transform="translate(-124.843 -57.827)" fill="#37474f"/>
              <path id="Path_41782" data-name="Path 41782" d="M121.859,82.842a1.969,1.969,0,0,0,2.753-.556l-.056,8.171c3.575,4.941,13.648,3.277,9.72-.437V87.708a11.146,11.146,0,0,0,1.517-.155,4.429,4.429,0,0,0,3.694-3.178A12.233,12.233,0,0,0,140,81.292a26.755,26.755,0,0,0-.4-5.466c-.246-1.43-.214-2.173-.457-3.341a3.17,3.17,0,0,0-1.362-2.28c-1.986-1.021-3.861.4-6.665,1.486a9.609,9.609,0,0,1-4.7.262c.965,1.1.926,4.54-.52,5.927a3.285,3.285,0,0,1-.727.941c-.616.532-1.1-.862-1.613-1.41a2.093,2.093,0,0,0-3.281.731,3.492,3.492,0,0,0,1.589,4.7Z" transform="translate(-119.901 -65.077)" fill="#ffa8a7"/>
              <path id="Path_41783" data-name="Path 41783" d="M150.275,100.649c0-.036.028-.083.068-.079a.568.568,0,0,1,.314.151,2.214,2.214,0,0,0,.254.175,2.014,2.014,0,0,0,.584.23,2.1,2.1,0,0,0,.687.028,2,2,0,0,0,.4-.06,1.371,1.371,0,0,1,.334-.06c.083,0,.048.151,0,.187a1.072,1.072,0,0,1-.373.191,1.9,1.9,0,0,1-.421.1,2.78,2.78,0,0,1-.83-.048,1.945,1.945,0,0,1-.632-.274,1.346,1.346,0,0,1-.274-.222A.369.369,0,0,1,150.275,100.649Z" transform="translate(-138.208 -83.591)" fill="#b16668"/>
              <path id="Path_41784" data-name="Path 41784" d="M143.468,107.211a15.692,15.692,0,0,1-5.537-.894,5.951,5.951,0,0,1-2.781-4.107c0,1.414.58,3.929,2.53,4.985a13.044,13.044,0,0,0,5.78,1.132Z" transform="translate(-129.093 -84.58)" fill="#f28f8f"/>
              <path id="Path_41785" data-name="Path 41785" d="M144.31,80.737l1.72-1.057a1.076,1.076,0,0,1-.354,1.434.973.973,0,0,1-1.366-.377Z" transform="translate(-134.614 -71)" fill="#37474f"/>
              <path id="Path_41786" data-name="Path 41786" d="M159.462,78.22l1.895.707a.969.969,0,0,1-1.271.624A1.08,1.08,0,0,1,159.462,78.22Z" transform="translate(-143.716 -70.119)" fill="#37474f"/>
              <path id="Path_41787" data-name="Path 41787" d="M146.569,86.3a.862.862,0,1,0,.231-.62.858.858,0,0,0-.231.62Z" transform="translate(-135.976 -74.453)" fill="#263238"/>
              <path id="Path_41788" data-name="Path 41788" d="M161.4,85.183a.858.858,0,1,0,.23-.621A.858.858,0,0,0,161.4,85.183Z" transform="translate(-144.915 -73.778)" fill="#263238"/>
              <path id="Path_41789" data-name="Path 41789" d="M155,84.91l.628,5.287,2.781-1A12.357,12.357,0,0,0,155,84.91Z" transform="translate(-141.058 -74.152)" fill="#f28f8f"/>
            </g>
            <g id="freepik--Arm--inject-9" transform="translate(0 19.469)">
              <path id="Path_41790" data-name="Path 41790" d="M96.687,120.293a13.946,13.946,0,0,0-4.016-.743,4.651,4.651,0,0,0-3.4,1.589,28.691,28.691,0,0,0-3.039,5.752l-5.382,12.7s2.987,9.168,5.446,7.793c3.4-1.9,6.093-9,7.5-11.992C94.959,132.92,98.046,122.617,96.687,120.293Z" transform="translate(-66.449 -114.502)" fill="#ffa8a7"/>
              <path id="Path_41791" data-name="Path 41791" d="M91.312,156.187a9.569,9.569,0,0,0-1.088-7.428c-1.891-3.674-2.582-4.969-2.582-4.969l-2.872,6.753Z" transform="translate(-68.812 -129.113)" fill="#f28f8f"/>
              <path id="Path_41792" data-name="Path 41792" d="M102.325,119.072c-2.626-.576-4.465-.993-5.958-.31-1.8.794-2.781,2.3-4.226,5.331s-2.781,6.475-2.781,6.475A10.863,10.863,0,0,0,92.3,137.11c2.638,2.53,5,1.859,5,1.859l2.9-6.062C102.031,128.721,103.37,122.616,102.325,119.072Z" transform="translate(-71.578 -113.814)" fill="#37474f"/>
              <path id="Path_41793" data-name="Path 41793" d="M61.714,118.327s.044-.262-.334-.62-.7-.524-1.124-.914-1.065-1.14-.838-1.629,1.362,0,2.173.552a4.405,4.405,0,0,0,2.566.993c1.283.111,2.757.489,3.376,1.756Z" transform="translate(-53.502 -111.738)" fill="#f28f8f"/>
              <path id="Path_41794" data-name="Path 41794" d="M49.181,115.174a15.506,15.506,0,0,0-2.173-1.986,8.277,8.277,0,0,1-1.386-1.791c-.433-.7-1.1-1.47-1.021-1.748s.6-.477,1.073-.107c0,0-.151-.548-.35-1.061s-.54-1.017-.373-1.426.846-.175,1.14.226.453.655.453.655.4-.23.878.568a4.287,4.287,0,0,1,.433,1.041,4.139,4.139,0,0,1,.949,1.287,8.063,8.063,0,0,1,1.013,1.426,4.581,4.581,0,0,1,1.732.624c.632.465.707.671,1.986.489a17.138,17.138,0,0,1,3.1-.489,2.4,2.4,0,0,1,2.5,1.533c.485,1.263.794,2.2,1.362,3.46.421.949.6,1.16,2.781,5.418,1.688,3.3,2.026,3.8,2.8,5.486a9.95,9.95,0,0,1,.818,6.4c-.624,3-1.589,4.318-2.928,4.767-2.836.9-5.529-4.072-6.022-6.062s-1.41-8.342-1.843-10.884-.822-4.342-1.343-4.715a16.964,16.964,0,0,0-3.36-1.676C50.214,116.156,50.134,116.334,49.181,115.174Z" transform="translate(-44.595 -106.841)" fill="#ffa8a7"/>
              <path id="Path_41795" data-name="Path 41795" d="M79.92,123.78a5.821,5.821,0,0,1,.755,1.613c.238.552.445,1.112.683,1.66s.473,1.1.723,1.645.679,1.247.941,1.784c-.211-.56-.612-1.275-.838-1.827s-.461-1.1-.687-1.66l-.7-1.652-.35-.83A2.145,2.145,0,0,0,79.92,123.78Z" transform="translate(-65.888 -117.052)" fill="#f28f8f"/>
              <path id="Path_41796" data-name="Path 41796" d="M47.31,113.63a4.789,4.789,0,0,1,.5.64,5.779,5.779,0,0,1,.4.687l.02.036.048.024a3.652,3.652,0,0,1,.365.226,3.8,3.8,0,0,1,.334.282,2.7,2.7,0,0,1,.52.7l.036.064h.06a2.168,2.168,0,0,1,.322.087,2.412,2.412,0,0,1,.318.127,2.575,2.575,0,0,1,.31.163c.1.06.191.131.29.2a2.042,2.042,0,0,0-.516-.512,1.957,1.957,0,0,0-.318-.187,1.871,1.871,0,0,0-.354-.139l.1.075a2.423,2.423,0,0,0-.548-.794,2.568,2.568,0,0,0-.4-.31,2.345,2.345,0,0,0-.429-.238l.068.06a4.915,4.915,0,0,0-.473-.644,2.736,2.736,0,0,0-.647-.544Z" transform="translate(-46.232 -110.933)" fill="#f28f8f"/>
              <path id="Path_41797" data-name="Path 41797" d="M49.5,109.59a2.555,2.555,0,0,1,.123.445,2.516,2.516,0,0,1,.036.453v.028l.04.032a3.575,3.575,0,0,1,.5.822,2.582,2.582,0,0,1,.23.914v.1l.091.04a2.75,2.75,0,0,1,.465.262,4.37,4.37,0,0,1,.429.342c.139.127.27.258.4.4s.238.294.357.445a3.332,3.332,0,0,0-.25-.524,3.039,3.039,0,0,0-.342-.473,2.78,2.78,0,0,0-.429-.4,2.328,2.328,0,0,0-.516-.326l.1.139a2.181,2.181,0,0,0-.079-.548,2.856,2.856,0,0,0-.191-.5,3.4,3.4,0,0,0-.278-.449,2.752,2.752,0,0,0-.357-.4l.032.064a2.041,2.041,0,0,0-.127-.469,1.7,1.7,0,0,0-.23-.4Z" transform="translate(-47.552 -108.498)" fill="#f28f8f"/>
              <path id="Path_41798" data-name="Path 41798" d="M59.54,122.48a2.384,2.384,0,0,0,.973.4,3.39,3.39,0,0,0,1.041,0c-.175-.036-.346-.052-.512-.075s-.338-.04-.5-.068A7.489,7.489,0,0,1,59.54,122.48Z" transform="translate(-53.604 -116.268)" fill="#f28f8f"/>
              <path id="Path_41799" data-name="Path 41799" d="M72,122.178a4.318,4.318,0,0,1,1.589.894,3.412,3.412,0,0,1,.584.7,7.279,7.279,0,0,1,.433.842,2.5,2.5,0,0,0-.222-.953,2.458,2.458,0,0,0-.584-.794A2.514,2.514,0,0,0,72,122.178Z" transform="translate(-61.114 -116.086)" fill="#f28f8f"/>
            </g>
          </g>
        </g>
      </g>
    </g>
  </g>
</svg>
