<svg id="cup" xmlns="http://www.w3.org/2000/svg" width="17.997" height="17.997" viewBox="0 0 17.997 17.997">
  <path id="Vector" d="M0,0V1.575" transform="translate(9.111 12.373)" fill="none" stroke="#fff" stroke-linecap="round" stroke-linejoin="round" stroke-width="1.5"/>
  <path id="Vector-2" data-name="Vector" d="M0,2.25H7.5V1.5A1.5,1.5,0,0,0,6,0H1.5A1.5,1.5,0,0,0,0,1.5v.75Z" transform="translate(5.361 14.247)" fill="none" stroke="#fff" stroke-width="1.5"/>
  <path id="Vector-3" data-name="Vector" d="M0,0H9" transform="translate(4.612 16.497)" fill="none" stroke="#fff" stroke-linecap="round" stroke-linejoin="round" stroke-width="1.5"/>
  <path id="Vector-4" data-name="Vector" d="M5.249,10.5A5.245,5.245,0,0,1,0,5.249V3A3,3,0,0,1,3,0H7.5a3,3,0,0,1,3,3v2.25A5.245,5.245,0,0,1,5.249,10.5Z" transform="translate(3.749 1.5)" fill="none" stroke="#fff" stroke-linecap="round" stroke-linejoin="round" stroke-width="1.5"/>
  <path id="Vector-5" data-name="Vector" d="M2.572,5.474a3.643,3.643,0,0,1-1.447-.9A4,4,0,0,1,0,1.875,1.856,1.856,0,0,1,1.875,0h.487a2.816,2.816,0,0,0-.225,1.125v2.25A5.284,5.284,0,0,0,2.572,5.474Z" transform="translate(1.53 3.262)" fill="none" stroke="#fff" stroke-linecap="round" stroke-linejoin="round" stroke-width="1.5"/>
  <path id="Vector-6" data-name="Vector" d="M0,5.474a3.643,3.643,0,0,0,1.447-.9,4,4,0,0,0,1.125-2.7A1.856,1.856,0,0,0,.7,0H.21A2.816,2.816,0,0,1,.435,1.125v2.25A5.284,5.284,0,0,1,0,5.474Z" transform="translate(13.895 3.262)" fill="none" stroke="#fff" stroke-linecap="round" stroke-linejoin="round" stroke-width="1.5"/>
  <path id="Vector-7" data-name="Vector" d="M0,0H18V18H0Z" fill="none" opacity="0"/>
</svg>
