<svg id="cup" xmlns="http://www.w3.org/2000/svg" width="20.008" height="20.008" viewBox="0 0 20.008 20.008">
  <path id="Vector" d="M0,0V1.751" transform="translate(10.129 13.756)" fill="none" stroke="gray" stroke-linecap="round" stroke-linejoin="round" stroke-width="1.5"/>
  <path id="Vector-2" data-name="Vector" d="M0,2.5H8.337V1.667A1.672,1.672,0,0,0,6.669,0h-5A1.672,1.672,0,0,0,0,1.667V2.5Z" transform="translate(5.961 15.84)" fill="none" stroke="gray" stroke-width="1.5"/>
  <path id="Vector-3" data-name="Vector" d="M0,0H10" transform="translate(5.127 18.341)" fill="none" stroke="gray" stroke-linecap="round" stroke-linejoin="round" stroke-width="1.5"/>
  <path id="Vector-4" data-name="Vector" d="M5.836,11.672A5.831,5.831,0,0,1,0,5.836v-2.5A3.334,3.334,0,0,1,3.335,0h5a3.334,3.334,0,0,1,3.335,3.335v2.5A5.831,5.831,0,0,1,5.836,11.672Z" transform="translate(4.168 1.667)" fill="none" stroke="gray" stroke-linecap="round" stroke-linejoin="round" stroke-width="1.5"/>
  <path id="Vector-5" data-name="Vector" d="M2.86,6.086a4.051,4.051,0,0,1-1.609-1A4.447,4.447,0,0,1,0,2.084,2.064,2.064,0,0,1,2.084,0h.542a3.131,3.131,0,0,0-.25,1.251v2.5A5.875,5.875,0,0,0,2.86,6.086Z" transform="translate(1.701 3.627)" fill="none" stroke="gray" stroke-linecap="round" stroke-linejoin="round" stroke-width="1.5"/>
  <path id="Vector-6" data-name="Vector" d="M0,6.086a4.051,4.051,0,0,0,1.609-1,4.447,4.447,0,0,0,1.251-3A2.064,2.064,0,0,0,.775,0H.233a3.131,3.131,0,0,1,.25,1.251v2.5A5.875,5.875,0,0,1,0,6.086Z" transform="translate(15.448 3.627)" fill="none" stroke="gray" stroke-linecap="round" stroke-linejoin="round" stroke-width="1.5"/>
  <path id="Vector-7" data-name="Vector" d="M0,0H20.008V20.008H0Z" fill="none" opacity="0"/>
</svg>
