<svg id="gallery-edit" xmlns="http://www.w3.org/2000/svg" width="20.048" height="20.048" viewBox="0 0 20.048 20.048">
  <path id="Vector" d="M3.341,1.671A1.671,1.671,0,1,1,1.671,0,1.671,1.671,0,0,1,3.341,1.671Z" transform="translate(5.847 5.012)" fill="none" stroke="#404040" stroke-linecap="round" stroke-linejoin="round" stroke-width="1.5"/>
  <path id="Vector-2" data-name="Vector" d="M9.189,0H5.847C1.671,0,0,1.671,0,5.847v5.012c0,4.177,1.671,5.847,5.847,5.847h5.012c4.177,0,5.847-1.671,5.847-5.847V6.683" transform="translate(1.671 1.671)" fill="none" stroke="#404040" stroke-linecap="round" stroke-linejoin="round" stroke-width="1.5"/>
  <path id="Vector-3" data-name="Vector" d="M3.457.492.425,3.524a.98.98,0,0,0-.251.51L.007,5.195a.547.547,0,0,0,.652.652L1.82,5.679a1.084,1.084,0,0,0,.51-.251L5.362,2.4a1.163,1.163,0,0,0,0-1.9A1.163,1.163,0,0,0,3.457.492Z" transform="translate(12.531 1.672)" fill="none" stroke="#404040" stroke-linecap="round" stroke-linejoin="round" stroke-width="1.5"/>
  <path id="Vector-4" data-name="Vector" d="M0,0A2.743,2.743,0,0,0,1.9,1.9" transform="translate(15.554 2.598)" fill="none" stroke="#404040" stroke-linecap="round" stroke-linejoin="round" stroke-width="1.5"/>
  <path id="Vector-5" data-name="Vector" d="M0,5.808,4.118,3.043a1.882,1.882,0,0,1,2.205.117L6.6,3.4a1.862,1.862,0,0,0,2.356,0L12.43.42a1.862,1.862,0,0,1,2.356,0l1.362,1.169" transform="translate(2.23 10.022)" fill="none" stroke="#404040" stroke-linecap="round" stroke-linejoin="round" stroke-width="1.5"/>
  <path id="Vector-6" data-name="Vector" d="M0,0H20.048V20.048H0Z" fill="none" opacity="0"/>
</svg>
