<svg id="Group_170107" data-name="Group 170107" xmlns="http://www.w3.org/2000/svg" width="80" height="80" viewBox="0 0 80 80">
  <rect id="Rectangle_150969" data-name="Rectangle 150969" width="80" height="80" rx="12" fill="rgba(118,200,206,0.1)"/>
  <path id="Path_41968" data-name="Path 41968" d="M27.639,4.191,25.795.457a.889.889,0,0,0-1.594,0L22.358,4.191l-4.086.586a.91.91,0,0,0-.5,1.547l2.969,2.89-.7,4.07a.912.912,0,0,0,1.312.953L25.014,12.3l3.64,1.906a.911.911,0,0,0,1.312-.953l-.7-4.07,2.969-2.859a.913.913,0,0,0-.5-1.547l-4.086-.586ZM20,19.963a2.5,2.5,0,0,0-2.5,2.5v15a2.5,2.5,0,0,0,2.5,2.5H30a2.5,2.5,0,0,0,2.5-2.5v-15a2.5,2.5,0,0,0-2.5-2.5Zm-17.5,5a2.5,2.5,0,0,0-2.5,2.5v10a2.5,2.5,0,0,0,2.5,2.5h10a2.5,2.5,0,0,0,2.5-2.5v-10a2.5,2.5,0,0,0-2.5-2.5Zm32.5,7.5v5a2.5,2.5,0,0,0,2.5,2.5h10a2.5,2.5,0,0,0,2.5-2.5v-5a2.5,2.5,0,0,0-2.5-2.5h-10A2.5,2.5,0,0,0,35,32.463Z" transform="translate(15.002 20.038)" fill="#76c8ce"/>
</svg>
