<svg id="Group_170107" data-name="Group 170107" xmlns="http://www.w3.org/2000/svg" width="80" height="80" viewBox="0 0 80 80">
  <rect id="Rectangle_150969" data-name="Rectangle 150969" width="80" height="80" rx="12" fill="rgba(13,75,76,0.1)"/>
  <path id="Path_38746" data-name="Path 38746" d="M12.445.4a1.582,1.582,0,0,1,2.164.008,63.033,63.033,0,0,1,6.07,6.562,28.487,28.487,0,0,1,2.89-3.351,1.588,1.588,0,0,1,2.187.008,33.944,33.944,0,0,1,6.6,9.218C33.944,16.031,35,19.288,35,21.585c0,9.968-7.8,18.39-17.5,18.39-9.812,0-17.5-8.429-17.5-18.4,0-3,1.391-6.664,3.547-10.289A49.971,49.971,0,0,1,12.445.4Zm5.187,32.077a9.433,9.433,0,0,0,5.375-1.641,8.088,8.088,0,0,0,2.2-10.5,8.158,8.158,0,0,0-.766-1.312l-3.953,4.594s-6.359-8.093-6.8-8.64C10.4,19.023,8.75,21.319,8.75,23.944,8.75,29.3,12.7,32.475,17.632,32.475Z" transform="translate(22.5 20.025)" fill="#0d4b4c"/>
</svg>
