<svg id="Group_170107" data-name="Group 170107" xmlns="http://www.w3.org/2000/svg" width="80" height="80" viewBox="0 0 80 80">
  <rect id="Rectangle_150969" data-name="Rectangle 150969" width="80" height="80" rx="12" fill="rgba(1,171,193,0.1)"/>
  <path id="Path_38745" data-name="Path 38745" d="M12,64a12,12,0,0,0,0,24H28a12,12,0,0,0,0-24ZM31,75.5A2.5,2.5,0,1,1,33.5,73,2.5,2.5,0,0,1,31,75.5ZM29.5,79A2.5,2.5,0,1,1,27,76.5,2.5,2.5,0,0,1,29.5,79Zm-19-6.5a1.5,1.5,0,0,1,3,0v2h2a1.5,1.5,0,1,1,0,3h-2v2a1.5,1.5,0,1,1-3,0v-2h-2a1.5,1.5,0,1,1,0-3h2Z" transform="translate(20 -36)" fill="#01abc1"/>
</svg>
