<svg xmlns="http://www.w3.org/2000/svg" width="365.227" height="434.479" viewBox="0 0 365.227 434.479">
  <g id="Group_171483" data-name="Group 171483" transform="translate(-157.718 -95.001)">
    <g id="Group_162443" data-name="Group 162443" transform="translate(157.718 95.001)">
      <g id="BACKGROUND" transform="translate(0 0)">
        <g id="Group_164869" data-name="Group 164869" transform="translate(0 0)">
          <path id="Path_253" data-name="Path 253" d="M1178.878,359.271c-9.107.669-18.473.926-27.734.824v-4.426h18.112a80.148,80.148,0,0,1,9.621,3.6" transform="translate(-962.625 -151.673)" fill="#01abc1"/>
          <path id="Path_254" data-name="Path 254" d="M1215.805,355.669c-5.66,1.081-11.628,1.956-17.8,2.624q5.172-1.157,10.032-2.624Z" transform="translate(-971.48 -151.651)" fill="#01abc1"/>
          <path id="Path_255" data-name="Path 255" d="M1163.853,435.812c-4.167,1.235-8.387,2.418-12.709,3.5V399.383c3.5.205,5.3.205,5.3.205-1.749-.36-3.551-.72-5.3-1.081V378.081c21.612.412,44.609-1.594,62.362-6.689-14.407,12.915-30.512,18.06-45.691,31.593-19.5,17.34-4.991,32.827-4.991,32.827Z" transform="translate(-963.151 -155.63)" fill="#01abc1"/>
          <path id="Path_256" data-name="Path 256" d="M1151.144,473.244V456.111c5.66-.514,12.709-1.338,20.993-2.624a55.492,55.492,0,0,0,3.91,18.472c-9.262.617-20.736,1.493-24.9,1.286" transform="translate(-962.585 -170.776)" fill="#202022"/>
          <path id="Path_257" data-name="Path 257" d="M1140.965,355.669v4.425a282.739,282.739,0,0,1-48.984-4.425Z" transform="translate(-951.475 -151.672)" fill="#01abc1"/>
          <path id="Path_258" data-name="Path 258" d="M1135.779,375.376V395.8a367.762,367.762,0,0,1-38.23-10.651c-12.555-7.461-24.9-14.407-35.709-29.483h4.375c1.594,1.647,3.549,3.5,6.946,6.689l1.235,1.029c9.622,7.1,34.422,11.474,61.383,11.989" transform="translate(-945.895 -152.131)" fill="#01abc1"/>
          <path id="Path_259" data-name="Path 259" d="M1146.172,404.729v39.928c-3.241.823-12.811,2.316-21.2,3.6a62.823,62.823,0,0,0,.361-7.1h9.21s14.51-15.488-4.99-32.827a83.022,83.022,0,0,0-7.308-5.865c10.959,1.44,19.038,2.058,23.926,2.264" transform="translate(-957.018 -161.325)" fill="#01abc1"/>
          <path id="Path_260" data-name="Path 260" d="M1124.742,458.56c7.256-.618,15.9-1.389,21.3-1.9V473.79c-8.439-.411-16.723-1.08-24.544-1.956a55.737,55.737,0,0,0,3.241-13.274" transform="translate(-956.883 -171.342)" fill="#202022"/>
          <path id="Path_261" data-name="Path 261" d="M1085.619,353.2h-20.58c-1.854-1.9-3.241-3.448-5.712-6.38L1055,341.313c4.632,4.991,15.848,9.056,30.615,11.886" transform="translate(-944.153 -148.991)" fill="#fff"/>
          <path id="Path_262" data-name="Path 262" d="M1195.7,358.838c-2.984.72-6.019,1.338-9.106,1.955-.618-.309-1.286-.617-1.956-.978,3.756-.206,7.46-.566,11.062-.978" transform="translate(-968.819 -152.254)" fill="#fff"/>
          <path id="Path_263" data-name="Path 263" d="M1223.947,198.435a89.109,89.109,0,0,0-10.415-20.242c-43.579-25.864-136.19-23.12-152.127-9.862-7.084,7.1-7.507,7.526-11.266,12.271-1.639,2.261-3.881,5.24-5.421,7.571,17.54-20.488,138.357-17.507,179.229,10.261" transform="translate(-944.16 -112.544)" fill="#4b7e31"/>
          <path id="Path_264" data-name="Path 264" d="M1208.589,255.079a117.188,117.188,0,0,0,.811-13.9q.01-5.845-.53-11.444c-51.28-36.722-172.973-29.622-179.571-10.408-2.918,10.586-2.973,10.788-3.891,16.565-.34,2.841-.872,6.62-1.094,9.475,6.377-25.11,142.823-23.978,184.274,9.709" transform="translate(-931.695 -122.615)" fill="#4b7e31"/>
          <path id="Path_265" data-name="Path 265" d="M1258.869,202.151c4.825,3.631,8.312,6.253,10.687,12.014-1.812-4.467-4.438-10.34-6.583-14.656-1.764-2.968-4.114-6.931-6.036-9.8a31.683,31.683,0,0,0-8.555-7.746,88.939,88.939,0,0,1,10.487,20.187" transform="translate(-981.205 -116.766)" fill="#4b7e31"/>
          <path id="Path_266" data-name="Path 266" d="M1201.574,312.037a108.893,108.893,0,0,0,9.621-21.285c-51.2-38.019-186.948-29.964-185.4-7.836l0,.021,1.012,5.284c2.769,10.757,2.822,10.963,5.056,16.726l1.3,3.161c-5.227-21.355,116.873-28.236,162.092-.968a77.117,77.117,0,0,1,6.313,4.9" transform="translate(-936.311 -134.429)" fill="#0c7c8a"/>
          <path id="Path_267" data-name="Path 267" d="M1268.189,246.55a113.211,113.211,0,0,1-.885,13.9c5.034,4.2,11.3,9.432,10.026,18.421l.035-.19c1.536-10.858,1.66-11.745,1.739-19.075-.1-2.738-.146-6.4-.367-9.126-.823-4.24-1.675-8.624-11.165-15.74a108.144,108.144,0,0,1,.617,11.812" transform="translate(-984.658 -128.646)" fill="#4b7e31"/>
          <path id="Path_268" data-name="Path 268" d="M1179.85,358.746a117.322,117.322,0,0,0,18.574-16.366c-37.56-30.171-148.758-22.023-149.4-6.121a4.141,4.141,0,0,0,1.037,2.858l4.323,5.3c6.848,7.307,7.407,7.9,12.693,12.348l1.207.98c-8.9-8.49,14.625-14.226,41.52-14.673,26.36-.437,58.886,4.808,70.049,15.678" transform="translate(-944.425 -145.549)" fill="#0c7c8a"/>
          <path id="Path_269" data-name="Path 269" d="M1247.83,317.188c5.615,5.185,10.518,11.02,3.6,20.248l.99-1.219c6.179-8.343,6.549-8.843,9.74-14.442,1.185-2.313,2.843-5.36,3.93-7.72,1.882-5.385,2.844-11.353-7.6-19.844a122.773,122.773,0,0,1-10.654,22.976" transform="translate(-981.067 -140.213)" fill="#0c7c8a"/>
          <path id="Path_270" data-name="Path 270" d="M1224.421,201.118c2.136,4.32,4.78,10.187,6.583,14.657,11.265,45.312-159.611,56.971-200.077,35.172-6.384-3.439-6.532-6.2-6.612-7.678.345-2.845.723-6.649,1.195-9.475,2.361-11.064,2.361-11.064,4.249-16.566-3.394,22.347,140.045,27.77,182.452-4.668,12.992-9.938,8.04-18.149,6.176-21.24,1.858,2.91,4.42,6.747,6.035,9.8" transform="translate(-940.561 -120.333)" fill="#b2afb1"/>
          <path id="Path_271" data-name="Path 271" d="M1237.554,262.874c-.477,11.285-.5,11.961-1.739,19.075l-.036.19c-12.838,43.6-184.843,52.117-202.27,24.157l-1.358-3.161c-3.732-10.226-3.877-10.625-5.288-16.726l-1.059-5.284c9.5,25.546,186.668,24.449,209.581-19.257a16.028,16.028,0,0,0,1.8-8.12c.117,2.738.427,6.387.369,9.126" transform="translate(-941.007 -132.569)" fill="#01abc1"/>
          <path id="Path_272" data-name="Path 272" d="M1228.168,325.9c-5.546,9.054-5.763,9.407-9.74,14.442l-.99,1.219c-25.564,27.094-126.927,30.544-148.939,15.517l-1.209-.98c-7.311-6.478-8.075-7.155-12.694-12.348l-4.322-5.3c20,20.468,161.563,16.643,181.823-20.274-1.173,2.318-2.617,5.477-3.93,7.719" transform="translate(-945.382 -144.933)" fill="#01abc1"/>
          <path id="Path_273" data-name="Path 273" d="M1217.9,118.371l-24.661,4.347-6.719,17.005-18.208-14.651-29.039.549,20.278-10.781-4.326-9.138,20.212,2.55L1192.164,103l2.126,8.958Z" transform="translate(-961.117 -103.001)" fill="#65a743"/>
          <path id="Path_274" data-name="Path 274" d="M1185.539,130.669a96.843,96.843,0,0,1,16.412,8.7c23.406,17.764-27.36,43.457-88.386,54.562-43.985,8-78.7,4.926-72.827-6.457,1.645-2.533,3.783-5.942,5.527-8.418,6.751-8.873,9.874-11.1,14.341-15.907-8.756,11.163,21.757,15.792,62.062,7.23,47.487-10.088,76.147-28.468,61.33-39.334a24.775,24.775,0,0,0-5.23-2.709,69.349,69.349,0,0,1,6.77,2.334" transform="translate(-942.949 -107.359)" fill="#65a743"/>
          <path id="Path_275" data-name="Path 275" d="M1200.733,125.022s17.359,7.539,14.321,13.976,10.34,3.7,10.34,3.7l2.971-4.842-28.25-14.193Z" transform="translate(-972.054 -106.556)" fill="#65a743"/>
          <path id="Path_276" data-name="Path 276" d="M1209.544,502.807v.411a481.052,481.052,0,0,1-58.4-3.344v-19.5c7-.721,17.442-2.213,25.315-3.4,9.878,22.588,33.083,25.829,33.083,25.829" transform="translate(-963.086 -175.442)" fill="#202022"/>
          <path id="Path_277" data-name="Path 277" d="M1139.327,481.079v19.5c-17.031-1.9-48.994-3.637-56.866-4.975a42.461,42.461,0,0,0,11.063-11.988c11.268-.412,38.445-1.766,45.8-2.539" transform="translate(-949.719 -176.106)" fill="#202022"/>
          <path id="Path_278" data-name="Path 278" d="M1139.635,513.665c32.518-.309,53-3.653,58.4-4.682v7.486l-113.783,6.38Z" transform="translate(-950.876 -181.388)" fill="#202022"/>
          <path id="Path_279" data-name="Path 279" d="M1015.643,510.319c22.279,2.058,95.35,3.782,111.867,3.576l-55.384,9.184h-58.347Z" transform="translate(-936.844 -181.624)" fill="#202022"/>
          <path id="Path_280" data-name="Path 280" d="M1102.616,524.385c122.854-.308,200.221-3.653,220.635-4.682v9.981H1102.616Z" transform="translate(-958.024 -183.38)" fill="#202022"/>
          <path id="Path_281" data-name="Path 281" d="M918.1,522.375c22.28,2.058,136.255,2.676,152.771,2.469v5.3H918.1Z" transform="translate(-917.783 -183.851)" fill="#202022"/>
          <path id="Path_282" data-name="Path 282" d="M928.126,583.858c0-1.08-.012-2.069-.029-2.965a13.958,13.958,0,0,0-.141-1.958q-.838,0-2.069.056t-2.63.169q-1.4.111-2.852.223c-.971.076-1.866.167-2.687.281.076-.411.14-.82.2-1.231a9.012,9.012,0,0,0,0-2.462c-.056-.411-.121-.819-.2-1.231q1.9.056,3.442.112t3.132.082q1.6.032,3.468.057t4.5.028q2.574,0,4.475-.028c1.266-.019,2.425-.036,3.47-.057s2.05-.045,3.019-.082,2.052-.075,3.246-.112c-.075.412-.139.821-.2,1.231a8.948,8.948,0,0,0,0,2.462c.057.411.12.82.2,1.231-.748-.114-1.585-.2-2.517-.281l-2.769-.223q-1.373-.111-2.6-.169t-2.072-.056a12.165,12.165,0,0,0-.11,1.958v16.953q0,2.349.028,4.363t.083,3.888q.057,1.874.142,3.637t.2,3.609c-.637-.075-1.325-.141-2.072-.2s-1.584-.085-2.517-.085-1.773.028-2.519.085-1.437.121-2.069.2q.109-1.846.2-3.609t.14-3.637q.055-1.873.084-3.888c.016-1.343.029-2.8.029-4.363Z" transform="translate(-917.718 -195.126)" fill="#202022"/>
          <path id="Path_283" data-name="Path 283" d="M952.855,593.89a19.746,19.746,0,0,1,1.539-7.777,19.474,19.474,0,0,1,4.336-6.378,20.067,20.067,0,0,1,6.77-4.307,23.927,23.927,0,0,1,8.84-1.567,27.346,27.346,0,0,1,8.308,1.231,18.94,18.94,0,0,1,6.742,3.692,17.212,17.212,0,0,1,4.5,6.238,21.884,21.884,0,0,1,1.651,8.811,19.355,19.355,0,0,1-1.6,7.8,19.9,19.9,0,0,1-4.419,6.407,20.507,20.507,0,0,1-6.743,4.307,23.036,23.036,0,0,1-8.615,1.566,28.623,28.623,0,0,1-8.31-1.175,18.737,18.737,0,0,1-6.767-3.609,16.985,16.985,0,0,1-4.559-6.211,22.11,22.11,0,0,1-1.68-9.035m33.513-1.231a22.035,22.035,0,0,0-.894-6.517,14.972,14.972,0,0,0-2.491-4.9,10.938,10.938,0,0,0-3.86-3.107,11.272,11.272,0,0,0-4.952-1.09,9.707,9.707,0,0,0-5.12,1.37,12.151,12.151,0,0,0-3.832,3.72,17.845,17.845,0,0,0-2.378,5.511,26.983,26.983,0,0,0-.811,6.741,25.835,25.835,0,0,0,.95,7.554,13.59,13.59,0,0,0,2.575,4.951,9.581,9.581,0,0,0,3.748,2.715,12.087,12.087,0,0,0,4.476.838,11.321,11.321,0,0,0,4.811-1.062,10.854,10.854,0,0,0,4-3.245,17.117,17.117,0,0,0,2.74-5.539,27.046,27.046,0,0,0,1.036-7.945" transform="translate(-923.763 -194.975)" fill="#202022"/>
          <path id="Path_284" data-name="Path 284" d="M1028.493,614.069a26.34,26.34,0,0,1-6.684-.811,14.687,14.687,0,0,1-5.4-2.6,12.455,12.455,0,0,1-3.609-4.56,15.635,15.635,0,0,1-1.314-6.741q0-2.237.026-4t.029-3.272q0-1.512.028-2.909t.028-2.911q0-4.476-.055-7.3t-.168-4.226c.745.075,1.512.142,2.3.2s1.545.085,2.292.085,1.511-.029,2.294-.085,1.548-.121,2.294-.2q-.281,2.743-.419,5.232t-.224,4.867q-.084,2.381-.111,4.729t-.029,4.756a37.567,37.567,0,0,0,.727,8.251,11.539,11.539,0,0,0,2.155,4.813,6.767,6.767,0,0,0,3.5,2.264,18.507,18.507,0,0,0,4.811.559,7.683,7.683,0,0,0,5.26-1.678,10.413,10.413,0,0,0,2.88-4.476,23.817,23.817,0,0,0,1.2-6.4q.223-3.608.223-7.525,0-3.859-.111-7.692t-.337-7.694a16.185,16.185,0,0,0,2.854.281,11.2,11.2,0,0,0,1.4-.085c.448-.054.913-.121,1.4-.2q-.113,1.231-.252,3.3t-.252,4.783q-.113,2.715-.168,5.985T1045,595.72q0,9.734-4.2,14.042t-12.308,4.307" transform="translate(-935.772 -195.126)" fill="#202022"/>
          <path id="Path_285" data-name="Path 285" d="M1071.353,595.55h-.505v2.295q0,2.35.028,4.365t.085,3.887q.055,1.875.14,3.637t.2,3.609q-.952-.113-2.071-.195t-2.518-.085q-1.4,0-2.516.085c-.748.054-1.437.12-2.072.195q.114-1.847.2-3.609c.057-1.174.1-2.387.14-3.637s.065-2.545.084-3.887.027-2.8.027-4.365v-7.61q0-2.349-.027-4.363t-.084-3.888c-.039-1.25-.083-2.462-.14-3.637s-.12-2.377-.2-3.609c.635.075,1.324.142,2.072.2s1.584.085,2.516.085q1.511,0,3.441-.139t4.782-.142q2.126,0,3.638.114a21.157,21.157,0,0,1,2.6.334,9.267,9.267,0,0,1,1.9.588,9.712,9.712,0,0,1,1.539.868,8.669,8.669,0,0,1,3.636,7.383,9.772,9.772,0,0,1-2.239,6.658,12.236,12.236,0,0,1-6.434,3.638q2.685,4.755,5.763,9.51t6.155,9.51q-1.289-.113-2.518-.195t-2.52-.085q-1.286,0-2.545.085t-2.546.195Zm8.336-10.294a12.332,12.332,0,0,0-.5-3.915,4.436,4.436,0,0,0-1.537-2.21,5.856,5.856,0,0,0-2.687-.979,29.934,29.934,0,0,0-3.945-.224q-.168,7.665-.167,15.216c.225.038.439.066.644.086s.4.028.587.028a7.526,7.526,0,0,0,5.65-2.015q1.959-2.013,1.959-5.987" transform="translate(-945.512 -195.126)" fill="#202022"/>
          <path id="Path_286" data-name="Path 286" d="M1102.971,585.872q0-3.8-.11-6.462t-.168-4.671a11.471,11.471,0,0,0,5.035,0q6.1,6.715,12.084,13.315t12.2,13.316V591.076q0-2.742-.029-5.4t-.085-4.895q-.056-2.237-.111-3.833a18.814,18.814,0,0,0-.168-2.209,11.465,11.465,0,0,0,5.034,0q-.223,4.085-.363,7.5t-.25,6.462q-.114,3.049-.169,5.873t-.083,5.763q-.029,2.935-.029,6.126v6.882c-.41-.075-.793-.141-1.147-.2a7.288,7.288,0,0,0-1.148-.085,8.874,8.874,0,0,0-2.18.28q-5.764-6.825-11.863-13.6t-12.587-13.594q-.112,3.188-.114,6.546v6.49q0,3.357.028,5.706t.085,3.973q.053,1.623.109,2.657c.039.692.076,1.3.114,1.819-.447-.075-.9-.141-1.341-.2a10.265,10.265,0,0,0-1.288-.085,13.057,13.057,0,0,0-2.574.28q.054-.391.168-1.79t.252-3.5q.137-2.1.253-4.755t.221-5.6q.113-2.937.169-5.956t.055-5.876" transform="translate(-953.219 -195.126)" fill="#202022"/>
          <path id="Path_287" data-name="Path 287" d="M1167.73,574.4q1.792,4.811,3.833,10.181t4.111,10.631q2.071,5.258,4.029,9.96t3.582,8.111q-1.346-.112-2.547-.2c-.8-.057-1.592-.085-2.376-.085s-1.578.028-2.377.085-1.6.12-2.379.2q-.9-2.854-1.848-5.735t-2.015-5.736q-1.79-.053-3.581-.083t-3.579-.028q-1.456,0-2.909.028t-2.911.083q-1.118,2.854-2.07,5.708t-1.732,5.763q-.673-.112-1.316-.2a10.047,10.047,0,0,0-1.314-.085,10.666,10.666,0,0,0-1.343.085q-.672.082-1.455.2.671-1.567,1.79-4.168t2.488-5.847q1.373-3.246,2.912-6.966t3.075-7.525q1.54-3.8,2.994-7.5t2.686-6.881c.372.075.728.139,1.063.2a6.932,6.932,0,0,0,2.127,0c.335-.057.689-.121,1.062-.2m.727,24.112q-1.231-3.413-2.434-6.715t-2.545-6.6q-1.456,3.3-2.743,6.6t-2.516,6.715Z" transform="translate(-962.04 -195.068)" fill="#202022"/>
          <path id="Path_288" data-name="Path 288" d="M1200.17,587.943q-.9,6.376-1.342,12.7t-.894,12.7c-.448-.076-.9-.143-1.344-.2a10.3,10.3,0,0,0-1.286-.085,10.092,10.092,0,0,0-1.316.085c-.431.054-.867.121-1.314.2q1.789-9.739,3.189-19.3t2.573-19.3c.411.075.793.142,1.148.2a7.267,7.267,0,0,0,1.145.085,10.041,10.041,0,0,0,2.238-.281q1.51,3.359,3.162,6.827t3.3,6.909q1.649,3.44,3.3,6.742t3.161,6.265q3.357-6.263,6.685-13.146t6.35-13.6a11.223,11.223,0,0,0,2.406.281,10.986,10.986,0,0,0,2.349-.281q.561,4.813,1.175,10.351t1.26,10.827q.641,5.287,1.259,9.874t1.118,7.554c-.747-.076-1.5-.143-2.266-.2s-1.521-.085-2.266-.085-1.512.029-2.294.085-1.566.121-2.349.2q-.279-5.878-.922-12.646t-1.314-13.314h-.114q-3.188,6.544-6.264,12.977t-6.1,12.983c-.186-.039-.363-.067-.531-.086a5.095,5.095,0,0,0-1.061,0c-.169.019-.347.047-.533.086q-3.021-6.38-6.013-12.7t-6.183-12.7Z" transform="translate(-970.923 -195.126)" fill="#202022"/>
          <path id="Path_289" data-name="Path 289" d="M1254.285,590.236q0-2.35-.025-4.364t-.073-3.888q-.05-1.875-.122-3.636t-.171-3.609q2.517.056,4.979.169t4.978.111q2.071,0,3.946-.028t3.411-.057c1.027-.016,1.911-.045,2.659-.082s1.3-.075,1.678-.112a9.41,9.41,0,0,0-.168,1.034,12.845,12.845,0,0,0-.054,1.317,13.317,13.317,0,0,0,.054,1.4c.037.337.094.709.168,1.12q-1.621-.113-3.554-.225t-3.748-.223q-1.818-.111-3.272-.169c-.971-.037-1.66-.056-2.071-.056q-.224,3.078-.25,6.1t-.029,6.1q3.635-.056,6.572-.169t6.129-.279q-.17.951-.225,1.456a9.584,9.584,0,0,0-.055,1.061,5.236,5.236,0,0,0,.084.925q.082.474.2,1.37-6.381-.506-12.7-.5,0,1.79-.028,3.581t-.029,3.58q0,3.637.168,6.994,3.19,0,6.378-.168t6.435-.56c-.074.412-.131.782-.168,1.119a18,18,0,0,0,0,2.8,9.728,9.728,0,0,0,.168,1.006q-1.509-.056-3.721-.17t-6.07-.11q-3.413,0-5.51.028t-3.357.082q-1.261.058-1.9.085t-1.09.084q.094-1.846.171-3.609t.122-3.637q.047-1.873.073-3.887t.025-4.364Z" transform="translate(-982.274 -195.126)" fill="#202022"/>
          <path id="Path_290" data-name="Path 290" d="M1287.854,585.872q0-3.8-.111-6.462t-.169-4.671a11.473,11.473,0,0,0,5.035,0q6.1,6.715,12.083,13.315t12.2,13.316V591.076q0-2.742-.028-5.4t-.085-4.895q-.056-2.237-.111-3.833a18.342,18.342,0,0,0-.167-2.209,11.467,11.467,0,0,0,5.034,0q-.223,4.085-.364,7.5t-.251,6.462q-.112,3.049-.168,5.873t-.083,5.763q-.029,2.935-.029,6.126v6.882c-.411-.075-.794-.141-1.147-.2a7.282,7.282,0,0,0-1.147-.085,8.877,8.877,0,0,0-2.181.28q-5.762-6.825-11.863-13.6t-12.586-13.594q-.113,3.188-.114,6.546v6.49q0,3.357.03,5.706t.084,3.973q.055,1.623.11,2.657c.038.692.076,1.3.113,1.819-.447-.075-.9-.141-1.342-.2a10.278,10.278,0,0,0-1.288-.085,13.059,13.059,0,0,0-2.574.28q.056-.391.168-1.79t.252-3.5q.138-2.1.252-4.755t.222-5.6q.113-2.937.17-5.956t.055-5.876" transform="translate(-989.702 -195.126)" fill="#202022"/>
          <path id="Path_291" data-name="Path 291" d="M1344.509,583.858c0-1.08-.011-2.069-.028-2.965a13.63,13.63,0,0,0-.142-1.958q-.838,0-2.068.056t-2.63.169c-.932.074-1.885.148-2.853.223s-1.864.167-2.686.281c.075-.411.139-.82.2-1.231a8.986,8.986,0,0,0,0-2.462c-.057-.411-.121-.819-.2-1.231,1.266.037,2.416.075,3.441.112s2.07.066,3.133.082,2.219.039,3.468.057,2.751.028,4.506.028q2.572,0,4.474-.028t3.471-.057c1.043-.016,2.052-.045,3.019-.082s2.052-.075,3.247-.112c-.075.412-.14.821-.2,1.231a8.81,8.81,0,0,0,0,2.462c.055.411.12.82.2,1.231-.749-.114-1.586-.2-2.518-.281l-2.769-.223q-1.372-.111-2.6-.169t-2.073-.056a12.2,12.2,0,0,0-.11,1.958v16.953q0,2.349.028,4.363t.082,3.888q.059,1.874.142,3.637t.2,3.609c-.636-.075-1.326-.141-2.072-.2s-1.584-.085-2.517-.085-1.773.028-2.518.085-1.437.121-2.071.2q.111-1.846.2-3.609t.142-3.637q.054-1.873.084-3.888t.028-4.363Z" transform="translate(-997.853 -195.126)" fill="#202022"/>
          <path id="Path_292" data-name="Path 292" d="M986.107,630.094a1.825,1.825,0,0,0-1.842-1.311,1.605,1.605,0,0,0-1.142.413,1.328,1.328,0,0,0-.1,1.879,3.575,3.575,0,0,0,.859.647q.519.289,1.112.556a5.69,5.69,0,0,1,1.111.655,3.36,3.36,0,0,1,.86.943,2.688,2.688,0,0,1,.343,1.423,3.3,3.3,0,0,1-.29,1.393,3.134,3.134,0,0,1-.821,1.088,3.815,3.815,0,0,1-1.273.708,5.1,5.1,0,0,1-1.65.253,5.007,5.007,0,0,1-1.468-.2,3.079,3.079,0,0,1-.983-.456c.1-.355.188-.679.259-.975s.133-.614.183-.959h.288a2.134,2.134,0,0,0,.222.631,1.788,1.788,0,0,0,.425.525,1.9,1.9,0,0,0,.633.358,2.421,2.421,0,0,0,.82.13A1.794,1.794,0,0,0,985,637.34a1.527,1.527,0,0,0,.441-1.1,1.34,1.34,0,0,0-.335-.943,3.346,3.346,0,0,0-.837-.647c-.335-.187-.7-.37-1.1-.549a5.625,5.625,0,0,1-1.1-.646,3.272,3.272,0,0,1-.835-.937,2.711,2.711,0,0,1-.335-1.423,3.3,3.3,0,0,1,.28-1.4,3,3,0,0,1,.753-1.018,3.265,3.265,0,0,1,1.09-.625,3.968,3.968,0,0,1,1.3-.213,4.719,4.719,0,0,1,1.438.2,3.3,3.3,0,0,1,1.058.548c-.089.233-.169.458-.235.677l-.253.83Z" transform="translate(-928.575 -204.262)" fill="#202022"/>
          <path id="Path_293" data-name="Path 293" d="M997.83,633.5c-.386-.012-.772-.022-1.158-.04s-.772-.022-1.158-.022-.769.006-1.155.015-.772.027-1.157.047v.868c0,.426,0,.821.007,1.187s.013.719.024,1.058.022.669.038.99.031.647.052.98c-.173-.018-.359-.037-.562-.052s-.432-.023-.686-.023-.481.007-.685.023-.39.033-.563.052c.021-.333.038-.66.053-.98s.028-.65.038-.99.019-.693.025-1.058.007-.761.007-1.187V632.3c0-.427,0-.823-.007-1.189s-.014-.716-.025-1.058-.023-.67-.038-.988-.032-.649-.053-.983c.173.021.36.037.563.053s.431.023.685.023.482-.009.686-.023.389-.032.562-.053c-.051.661-.083,1.312-.1,1.956s-.024,1.388-.024,2.231c.265.009.581.016.952.022s.829.008,1.379.008.994,0,1.337-.008.665-.013.961-.022c0-.844-.012-1.586-.033-2.231s-.05-1.295-.09-1.956c.171.021.36.037.563.053s.432.023.686.023.482-.009.684-.023.391-.032.563-.053c-.021.334-.037.663-.052.983s-.028.649-.04.988-.019.693-.023,1.058-.008.761-.008,1.189v2.071q0,.639.008,1.187c0,.365.013.719.023,1.058s.023.669.04.99.031.647.052.98c-.172-.018-.359-.037-.563-.052s-.431-.023-.684-.023-.483.007-.686.023-.392.033-.563.052c.021-.333.038-.66.053-.98s.029-.65.037-.99.02-.693.026-1.058.007-.761.007-1.187Z" transform="translate(-930.297 -204.304)" fill="#202022"/>
          <path id="Path_294" data-name="Path 294" d="M1009.394,627.99q.49,1.306,1.043,2.769t1.119,2.892q.564,1.43,1.1,2.709t.974,2.206l-.693-.053c-.219-.014-.433-.023-.646-.023s-.429.009-.647.023-.433.034-.648.053c-.162-.515-.329-1.037-.5-1.559s-.354-1.042-.548-1.559c-.324-.012-.65-.019-.974-.023s-.649-.008-.974-.008q-.4,0-.791.008c-.264,0-.527.011-.793.023q-.3.775-.562,1.553c-.174.516-.33,1.039-.471,1.566-.123-.019-.243-.037-.358-.053a3.134,3.134,0,0,0-.357-.023,3.348,3.348,0,0,0-.368.023l-.4.053c.124-.283.285-.661.488-1.133s.429-1,.677-1.591.512-1.219.79-1.9.56-1.358.838-2.046.55-1.37.815-2.04.506-1.294.73-1.871c.1.018.2.037.289.052a1.689,1.689,0,0,0,.289.023,1.711,1.711,0,0,0,.29-.023c.09-.015.186-.034.287-.052m.2,6.56q-.333-.927-.661-1.827t-.693-1.8q-.4.9-.745,1.8t-.685,1.827Z" transform="translate(-934.211 -204.288)" fill="#202022"/>
          <path id="Path_295" data-name="Path 295" d="M1017.351,632.3c0-.427,0-.823-.007-1.188s-.013-.717-.022-1.058-.023-.67-.04-.988-.032-.648-.053-.983c.173.021.361.037.563.052s.431.023.685.023c.356,0,.723-.011,1.1-.038s.755-.037,1.12-.037a6.891,6.891,0,0,1,1.689.16,2.349,2.349,0,0,1,.959.465,2.531,2.531,0,0,1,.716.882,2.735,2.735,0,0,1,.228,1.171,3.522,3.522,0,0,1-.29,1.494,2.585,2.585,0,0,1-.814,1.011,3.56,3.56,0,0,1-1.24.572,6.419,6.419,0,0,1-1.569.182h-.776q0,1.141.023,2.284t.1,2.281c-.17-.018-.359-.037-.561-.052s-.432-.022-.686-.022-.481.007-.685.022-.391.034-.563.052c.021-.333.038-.66.053-.98s.028-.651.04-.99.017-.693.022-1.058.007-.761.007-1.187Zm4.537-1.293a3.143,3.143,0,0,0-.13-.975,1.677,1.677,0,0,0-.35-.632,1.3,1.3,0,0,0-.517-.341,1.785,1.785,0,0,0-.618-.107h-.35a2.6,2.6,0,0,0-.288.015q-.017,1.082-.022,2.146c-.006.712-.008,1.422-.008,2.132a4.183,4.183,0,0,0,.783-.075,1.837,1.837,0,0,0,.737-.312,1.7,1.7,0,0,0,.549-.678,2.7,2.7,0,0,0,.214-1.171" transform="translate(-936.747 -204.304)" fill="#202022"/>
          <path id="Path_296" data-name="Path 296" d="M1027.812,632.3c0-.427,0-.823-.007-1.189s-.014-.716-.022-1.058-.023-.67-.038-.988-.034-.649-.055-.983c.174.021.361.037.563.053s.434.023.686.023.482-.009.685-.023.392-.032.563-.053q-.03.5-.053.983c-.015.318-.027.649-.038.988s-.019.693-.023,1.058-.006.761-.006,1.189v2.071c0,.426,0,.821.006,1.187s.012.719.023,1.058.023.669.038.99.033.647.053.98c-.172-.018-.36-.037-.563-.052s-.43-.023-.685-.023-.482.007-.686.023-.389.033-.563.052c.021-.333.04-.66.055-.98s.026-.65.038-.99.016-.693.022-1.058.007-.761.007-1.187Z" transform="translate(-938.722 -204.304)" fill="#202022"/>
          <path id="Path_297" data-name="Path 297" d="M1033.989,631.11c0-.689-.008-1.277-.03-1.758s-.036-.9-.045-1.272a3.132,3.132,0,0,0,1.369,0l3.288,3.625q1.629,1.8,3.319,3.622v-2.8q0-.745-.007-1.469c-.006-.482-.013-.925-.023-1.333s-.02-.753-.03-1.042a5.081,5.081,0,0,0-.046-.6,3.142,3.142,0,0,0,1.372,0c-.041.742-.076,1.422-.1,2.041s-.049,1.2-.069,1.759-.036,1.085-.046,1.6-.015,1.034-.022,1.566-.008,1.091-.008,1.669v1.871l-.312-.053a2.03,2.03,0,0,0-.313-.022,2.457,2.457,0,0,0-.593.075q-1.568-1.855-3.227-3.7t-3.426-3.7c-.019.578-.03,1.172-.03,1.781v1.766q0,.913.007,1.552c.007.427.014.786.024,1.082s.021.534.031.722.02.353.031.494c-.123-.02-.245-.037-.365-.053a2.9,2.9,0,0,0-.35-.022,3.575,3.575,0,0,0-.7.075c.009-.07.024-.234.044-.486s.044-.572.069-.952.048-.812.069-1.293.039-.99.06-1.523.036-1.073.045-1.621.015-1.081.015-1.6" transform="translate(-939.91 -204.304)" fill="#202022"/>
          <path id="Path_298" data-name="Path 298" d="M1056.752,630.307a3.765,3.765,0,0,0-1.218-1.1,3.616,3.616,0,0,0-4.407.768,4.561,4.561,0,0,0-.876,1.483,5.953,5.953,0,0,0-.335,2.094,5.471,5.471,0,0,0,.252,1.69,4.024,4.024,0,0,0,.724,1.346,3.233,3.233,0,0,0,1.155.892,3.654,3.654,0,0,0,1.568.319c.132,0,.279-.008.443-.022s.323-.032.485-.053a3.282,3.282,0,0,0,.441-.084,1.076,1.076,0,0,0,.289-.112,3.634,3.634,0,0,0,.04-.458c0-.182.007-.385.007-.607q0-1.234-.047-1.821c-.03-.39-.051-.657-.06-.8a3.651,3.651,0,0,0,.4.052c.167.016.409.023.723.023.367,0,.638-.007.815-.023a3.725,3.725,0,0,0,.418-.052,3.137,3.137,0,0,0-.053.4c-.014.183-.029.393-.038.633s-.019.491-.022.76-.007.525-.007.768v.5c0,.173,0,.335.007.488s.008.289.014.41.014.213.023.275c-.669.192-1.348.353-2.03.479a11.122,11.122,0,0,1-2.034.192,7.832,7.832,0,0,1-2.413-.358,5.651,5.651,0,0,1-1.9-1.028,4.775,4.775,0,0,1-1.248-1.605,4.83,4.83,0,0,1-.45-2.109,6.265,6.265,0,0,1,.479-2.536,5.031,5.031,0,0,1,1.324-1.811,5.653,5.653,0,0,1,2-1.088,8.269,8.269,0,0,1,2.5-.365,7.542,7.542,0,0,1,2,.235,8.244,8.244,0,0,1,1.666.677c-.081.263-.158.524-.235.776s-.139.514-.19.778Z" transform="translate(-942.542 -204.262)" fill="#202022"/>
          <path id="Path_299" data-name="Path 299" d="M1067.5,630.561c0-.293-.005-.563-.007-.805a4.328,4.328,0,0,0-.039-.532c-.153,0-.34,0-.565.015s-.461.024-.716.045l-.775.06c-.264.021-.507.045-.73.077.02-.112.037-.225.053-.335a2.538,2.538,0,0,0,0-.67c-.015-.111-.033-.224-.053-.336.344.01.657.021.935.03s.563.019.853.023.6.011.944.015.749.007,1.225.007.873,0,1.218-.007.659-.009.943-.015.559-.012.823-.023.557-.021.883-.03c-.021.111-.038.225-.053.336a2.347,2.347,0,0,0,0,.67c.015.111.032.223.053.335-.2-.032-.431-.056-.685-.077l-.754-.06c-.247-.021-.486-.036-.708-.045s-.41-.015-.562-.015a3.269,3.269,0,0,0-.03.532v4.613c0,.425,0,.82.008,1.186s.011.719.022,1.058.024.671.038.99.032.647.052.981c-.172-.02-.359-.038-.563-.053s-.432-.022-.685-.022-.482.007-.686.022-.389.034-.563.053c.021-.334.038-.661.054-.981s.027-.649.039-.99.016-.693.023-1.058.007-.76.007-1.186Z" transform="translate(-945.825 -204.304)" fill="#202022"/>
          <path id="Path_300" data-name="Path 300" d="M1082.993,633.5c-.387-.012-.772-.022-1.158-.04s-.772-.022-1.158-.022-.769.006-1.156.015-.772.027-1.157.047v.868c0,.426,0,.821.008,1.187s.013.719.024,1.058.022.669.037.99.032.647.053.98c-.173-.018-.359-.037-.562-.052s-.431-.023-.685-.023-.483.007-.686.023-.389.033-.562.052c.02-.333.038-.66.053-.98s.026-.65.037-.99.019-.693.025-1.058.007-.761.007-1.187V632.3q0-.641-.007-1.189c-.005-.365-.014-.716-.025-1.058s-.023-.67-.037-.988-.033-.649-.053-.983c.173.021.359.037.562.053s.431.023.686.023.482-.009.685-.023.389-.032.562-.053c-.05.661-.082,1.312-.1,1.956s-.024,1.388-.024,2.231c.265.009.581.016.953.022s.828.008,1.378.008.995,0,1.338-.008.665-.013.961-.022c0-.844-.012-1.586-.033-2.231s-.05-1.295-.089-1.956c.17.021.359.037.562.053s.433.023.686.023.483-.009.685-.023.39-.032.563-.053q-.03.5-.052.983c-.017.318-.029.649-.04.988s-.018.693-.022,1.058-.008.761-.008,1.189v2.071c0,.426.005.821.008,1.187s.013.719.022,1.058.024.669.04.99.032.647.052.98c-.173-.018-.359-.037-.563-.052s-.43-.023-.685-.023-.481.007-.686.023-.392.033-.562.052c.019-.333.038-.66.053-.98s.029-.65.037-.99.019-.693.025-1.058.008-.761.008-1.187Z" transform="translate(-948.005 -204.304)" fill="#202022"/>
          <path id="Path_301" data-name="Path 301" d="M1090.237,632.3q0-.641-.007-1.189c0-.365-.012-.716-.02-1.058s-.021-.67-.034-.988-.028-.649-.047-.983c.458.009.91.026,1.356.045s.9.031,1.356.031c.374,0,.732,0,1.073-.009s.649-.008.929-.014.519-.011.722-.023.356-.021.457-.03a2.732,2.732,0,0,0-.047.283c-.009.1-.014.214-.014.357,0,.161.006.288.014.38s.027.192.047.3c-.295-.02-.616-.041-.967-.062s-.691-.039-1.021-.06-.627-.036-.89-.046-.452-.015-.563-.015q-.062.835-.067,1.658c-.006.548-.008,1.1-.008,1.659q.988-.013,1.788-.045c.533-.021,1.088-.046,1.667-.075-.031.172-.052.3-.06.395a2.276,2.276,0,0,0-.016.288,1.49,1.49,0,0,0,.024.252c.014.086.031.211.052.373q-1.735-.138-3.455-.137c0,.325,0,.65-.008.975s-.008.649-.008.974q0,.991.045,1.9.866,0,1.736-.044t1.75-.152c-.02.111-.036.212-.047.3s-.014.22-.014.381.006.288.014.381.027.182.047.272c-.273-.009-.612-.024-1.012-.045s-.952-.03-1.653-.03c-.618,0-1.118,0-1.5.007s-.686.013-.913.023-.4.019-.517.022-.218.014-.3.022c.019-.333.034-.66.047-.98s.025-.65.034-.99.016-.693.02-1.058.007-.761.007-1.187Z" transform="translate(-950.678 -204.304)" fill="#202022"/>
          <path id="Path_302" data-name="Path 302" d="M1112.811,636.776c-.081.215-.152.429-.212.648a3.793,3.793,0,0,0-.123.647,5.65,5.65,0,0,1-1.385.5,7.921,7.921,0,0,1-1.719.176,6.742,6.742,0,0,1-2.369-.39,5.107,5.107,0,0,1-1.766-1.073,4.573,4.573,0,0,1-1.1-1.614,5.229,5.229,0,0,1-.381-2.008,6.543,6.543,0,0,1,.5-2.679,4.9,4.9,0,0,1,1.323-1.806,5.29,5.29,0,0,1,1.926-1.01,8.157,8.157,0,0,1,2.3-.32,7.138,7.138,0,0,1,.838.052,6.556,6.556,0,0,1,.854.16c.272.072.534.153.781.245a3.812,3.812,0,0,1,.634.289,4.9,4.9,0,0,0-.237.768,5.706,5.706,0,0,0-.113.785h-.213a3.944,3.944,0,0,0-1.187-1.036,3.053,3.053,0,0,0-1.431-.319,2.993,2.993,0,0,0-1.227.274,3.282,3.282,0,0,0-1.119.837,4.31,4.31,0,0,0-.814,1.447,6.243,6.243,0,0,0-.312,2.086,5.579,5.579,0,0,0,.32,2,3.9,3.9,0,0,0,.831,1.353,3.112,3.112,0,0,0,1.155.77,3.683,3.683,0,0,0,1.3.242,3.5,3.5,0,0,0,.746-.083,4.734,4.734,0,0,0,.744-.229,3.761,3.761,0,0,0,.693-.358,3.061,3.061,0,0,0,.571-.471Z" transform="translate(-953.315 -204.262)" fill="#202022"/>
          <path id="Path_303" data-name="Path 303" d="M1116.02,633.291a5.393,5.393,0,0,1,.417-2.116,5.3,5.3,0,0,1,1.179-1.736,5.486,5.486,0,0,1,1.843-1.173,6.511,6.511,0,0,1,2.405-.425,7.429,7.429,0,0,1,2.262.335,5.125,5.125,0,0,1,1.833,1.005,4.644,4.644,0,0,1,1.225,1.7,5.948,5.948,0,0,1,.45,2.4,5.241,5.241,0,0,1-.434,2.122,5.391,5.391,0,0,1-1.2,1.744,5.581,5.581,0,0,1-1.835,1.171,6.237,6.237,0,0,1-2.343.427,7.811,7.811,0,0,1-2.262-.32,5.063,5.063,0,0,1-1.84-.983,4.6,4.6,0,0,1-1.241-1.689,6,6,0,0,1-.456-2.458m9.119-.336a5.991,5.991,0,0,0-.246-1.773,4.069,4.069,0,0,0-.676-1.333,2.958,2.958,0,0,0-1.051-.844,3.032,3.032,0,0,0-1.346-.3,2.64,2.64,0,0,0-1.392.372,3.322,3.322,0,0,0-1.044,1.013,4.847,4.847,0,0,0-.647,1.5,7.345,7.345,0,0,0-.22,1.836,7.029,7.029,0,0,0,.259,2.053,3.68,3.68,0,0,0,.7,1.349,2.621,2.621,0,0,0,1.02.738,3.281,3.281,0,0,0,1.218.228,3.1,3.1,0,0,0,1.31-.288,2.985,2.985,0,0,0,1.088-.883,4.714,4.714,0,0,0,.746-1.508,7.369,7.369,0,0,0,.282-2.162" transform="translate(-955.688 -204.262)" fill="#202022"/>
          <path id="Path_304" data-name="Path 304" d="M1133.374,631.673q-.246,1.736-.367,3.457t-.243,3.454c-.122-.018-.243-.037-.365-.052a2.667,2.667,0,0,0-.35-.023,2.587,2.587,0,0,0-.357.023c-.116.015-.236.033-.358.052q.485-2.648.867-5.25t.7-5.253c.111.021.215.037.313.053a2.089,2.089,0,0,0,.31.022,2.765,2.765,0,0,0,.61-.075c.273.608.562,1.227.86,1.858s.6,1.256.9,1.879.6,1.236.9,1.836.585,1.167.86,1.7q.913-1.7,1.818-3.576t1.728-3.7a3.078,3.078,0,0,0,.654.075,3,3,0,0,0,.64-.075c.1.874.209,1.811.32,2.816s.226,1.986.343,2.946.229,1.854.343,2.686.212,1.518.3,2.054c-.2-.018-.41-.037-.616-.052s-.415-.023-.616-.023-.412.007-.625.023-.425.033-.641.052q-.075-1.6-.25-3.439t-.358-3.624h-.029q-.87,1.782-1.706,3.532t-1.659,3.531l-.144-.022c-.045,0-.094-.007-.145-.007s-.1,0-.145.007l-.146.022q-.823-1.733-1.636-3.454t-1.682-3.457Z" transform="translate(-958.63 -204.304)" fill="#202022"/>
          <path id="Path_305" data-name="Path 305" d="M1148.484,632.3c0-.427,0-.823-.008-1.188s-.013-.717-.022-1.058-.024-.67-.039-.988-.033-.648-.054-.983c.173.021.361.037.563.052s.432.023.687.023c.355,0,.721-.011,1.1-.038s.754-.037,1.121-.037a6.882,6.882,0,0,1,1.688.16,2.352,2.352,0,0,1,.961.465,2.568,2.568,0,0,1,.716.882,2.759,2.759,0,0,1,.227,1.171,3.512,3.512,0,0,1-.291,1.494,2.565,2.565,0,0,1-.812,1.011,3.564,3.564,0,0,1-1.24.572,6.427,6.427,0,0,1-1.57.182h-.775q0,1.141.021,2.284t.1,2.281c-.171-.018-.36-.037-.562-.052s-.431-.022-.685-.022-.482.007-.687.022-.39.034-.562.052c.021-.333.038-.66.054-.98s.027-.651.039-.99.017-.693.022-1.058.008-.761.008-1.187ZM1153.02,631a3.165,3.165,0,0,0-.129-.975,1.682,1.682,0,0,0-.35-.632,1.3,1.3,0,0,0-.518-.341,1.784,1.784,0,0,0-.618-.107h-.351a2.574,2.574,0,0,0-.287.015q-.018,1.082-.023,2.146c-.006.712-.007,1.422-.007,2.132a4.161,4.161,0,0,0,.782-.075,1.83,1.83,0,0,0,.738-.312,1.7,1.7,0,0,0,.549-.678,2.709,2.709,0,0,0,.213-1.171" transform="translate(-961.824 -204.304)" fill="#202022"/>
          <path id="Path_306" data-name="Path 306" d="M1158.691,632.3c0-.427,0-.823-.007-1.189s-.011-.716-.02-1.058-.02-.67-.033-.988-.027-.649-.047-.983c.458.009.91.026,1.355.045s.9.031,1.356.031c.374,0,.732,0,1.073-.009s.65-.008.928-.014.519-.011.723-.023.355-.021.458-.03a2.6,2.6,0,0,0-.048.283,3.555,3.555,0,0,0-.016.357,3.74,3.74,0,0,0,.016.38c.011.09.028.192.048.3-.3-.02-.618-.041-.969-.062s-.691-.039-1.021-.06-.627-.036-.89-.046-.452-.015-.563-.015c-.042.557-.063,1.11-.068,1.658s-.009,1.1-.009,1.659q.99-.013,1.79-.045c.533-.021,1.087-.046,1.665-.075q-.045.257-.059.395a2.328,2.328,0,0,0-.015.288,1.538,1.538,0,0,0,.023.252c.014.086.031.211.052.373q-1.732-.138-3.455-.137c0,.325,0,.65-.006.975s-.009.649-.009.974q0,.991.046,1.9.866,0,1.737-.044t1.751-.152c-.021.111-.037.212-.048.3a4.577,4.577,0,0,0,0,.762,2.7,2.7,0,0,0,.048.272q-.413-.013-1.014-.045c-.4-.021-.952-.03-1.652-.03-.618,0-1.119,0-1.5.007s-.686.013-.913.023-.4.019-.517.022-.218.014-.3.022c.02-.333.032-.66.047-.98s.025-.65.033-.99.016-.693.02-1.058.007-.761.007-1.187Z" transform="translate(-963.765 -204.304)" fill="#202022"/>
          <path id="Path_307" data-name="Path 307" d="M1169.671,630.561c0-.293,0-.563-.007-.805a4.229,4.229,0,0,0-.037-.532c-.153,0-.342,0-.565.015s-.461.024-.715.045l-.776.06c-.263.021-.509.045-.731.077.021-.112.037-.225.053-.335a2.576,2.576,0,0,0,.023-.334,2.55,2.55,0,0,0-.023-.336c-.016-.111-.033-.224-.053-.336.345.01.657.021.935.03s.563.019.853.023.605.011.943.015.75.007,1.226.007.874,0,1.217-.007.66-.009.944-.015.56-.012.823-.023.557-.021.882-.03c-.02.111-.037.225-.052.336a2.511,2.511,0,0,0,0,.67c.015.111.032.223.052.335-.2-.032-.429-.056-.685-.077l-.753-.06c-.248-.021-.486-.036-.708-.045s-.411-.015-.562-.015a3.121,3.121,0,0,0-.031.532v4.613c0,.425,0,.82.008,1.186s.01.719.023,1.058.023.671.037.99.032.647.052.981c-.17-.02-.358-.038-.56-.053s-.433-.022-.686-.022-.483.007-.686.022-.389.034-.564.053q.033-.5.053-.981c.017-.32.029-.649.041-.99s.016-.693.022-1.058.007-.76.007-1.186Z" transform="translate(-965.369 -204.304)" fill="#202022"/>
          <path id="Path_308" data-name="Path 308" d="M1178.361,632.3c0-.427,0-.823-.007-1.189s-.014-.716-.023-1.058-.023-.67-.038-.988-.034-.649-.055-.983c.173.021.362.037.563.053s.432.023.685.023.482-.009.685-.023.392-.032.562-.053c-.018.334-.036.663-.052.983s-.028.649-.038.988-.019.693-.023,1.058-.008.761-.008,1.189v2.071q0,.639.008,1.187c0,.365.012.719.023,1.058s.023.669.038.99.034.647.052.98c-.17-.018-.358-.037-.562-.052s-.431-.023-.685-.023-.483.007-.685.023-.39.033-.563.052c.021-.333.041-.66.055-.98s.027-.65.038-.99.016-.693.023-1.058.007-.761.007-1.187Z" transform="translate(-967.476 -204.304)" fill="#202022"/>
          <path id="Path_309" data-name="Path 309" d="M1186.017,630.561c0-.293,0-.563-.008-.805a3.989,3.989,0,0,0-.038-.532c-.153,0-.341,0-.565.015s-.462.024-.715.045l-.777.06c-.263.021-.507.045-.73.077.021-.112.038-.225.053-.335a2.566,2.566,0,0,0,0-.67c-.015-.111-.032-.224-.053-.336.344.01.658.021.935.03s.564.019.854.023.6.011.943.015.75.007,1.226.007.874,0,1.217-.007.66-.009.943-.015.561-.012.823-.023.557-.021.883-.03c-.021.111-.037.225-.051.336a2.382,2.382,0,0,0,0,.67c.014.111.03.223.051.335-.2-.032-.43-.056-.686-.077l-.752-.06c-.248-.021-.487-.036-.708-.045s-.411-.015-.563-.015a3.393,3.393,0,0,0-.029.532v4.613c0,.425,0,.82.007,1.186s.011.719.021,1.058.022.671.038.99.032.647.053.981c-.172-.02-.359-.038-.563-.053s-.431-.022-.685-.022-.481.007-.685.022-.39.034-.563.053c.022-.334.038-.661.053-.981s.028-.649.04-.99.017-.693.022-1.058.008-.76.008-1.186Z" transform="translate(-968.495 -204.304)" fill="#202022"/>
          <path id="Path_310" data-name="Path 310" d="M1194.705,632.3q0-.641-.008-1.189c-.006-.365-.013-.716-.022-1.058s-.024-.67-.039-.988-.034-.649-.054-.983c.172.021.36.037.562.053s.433.023.685.023.484-.009.684-.023.393-.032.564-.053c-.019.334-.037.663-.052.983s-.028.649-.038.988-.019.693-.022,1.058-.008.761-.008,1.189v2.071q0,.639.008,1.187c0,.365.011.719.022,1.058s.021.669.038.99.034.647.052.98c-.172-.018-.361-.037-.564-.052s-.43-.023-.684-.023-.481.007-.685.023-.39.033-.562.052c.021-.333.039-.66.054-.98s.027-.65.039-.99.015-.693.022-1.058.008-.761.008-1.187Z" transform="translate(-970.599 -204.304)" fill="#202022"/>
          <path id="Path_311" data-name="Path 311" d="M1199.789,633.291a5.376,5.376,0,0,1,.418-2.116,5.313,5.313,0,0,1,1.181-1.736,5.452,5.452,0,0,1,1.841-1.173,6.51,6.51,0,0,1,2.405-.425,7.424,7.424,0,0,1,2.262.335,5.124,5.124,0,0,1,1.833,1.005,4.641,4.641,0,0,1,1.226,1.7,5.941,5.941,0,0,1,.45,2.4,5.224,5.224,0,0,1-.436,2.122,5.419,5.419,0,0,1-1.2,1.744,5.589,5.589,0,0,1-1.835,1.171,6.241,6.241,0,0,1-2.344.427,7.8,7.8,0,0,1-2.26-.32,5.056,5.056,0,0,1-1.84-.983,4.581,4.581,0,0,1-1.242-1.689,6.018,6.018,0,0,1-.457-2.458m9.12-.336a6,6,0,0,0-.245-1.773,4.038,4.038,0,0,0-.677-1.333,2.957,2.957,0,0,0-1.05-.844,3.039,3.039,0,0,0-1.348-.3,2.636,2.636,0,0,0-1.391.372,3.305,3.305,0,0,0-1.044,1.013,4.82,4.82,0,0,0-.646,1.5,7.3,7.3,0,0,0-.222,1.836,7.024,7.024,0,0,0,.26,2.053,3.663,3.663,0,0,0,.7,1.349,2.6,2.6,0,0,0,1.019.738,3.28,3.28,0,0,0,1.217.228,3.1,3.1,0,0,0,1.31-.288,2.981,2.981,0,0,0,1.09-.883,4.738,4.738,0,0,0,.745-1.508,7.394,7.394,0,0,0,.282-2.162" transform="translate(-971.728 -204.262)" fill="#202022"/>
          <path id="Path_312" data-name="Path 312" d="M1216.2,631.11c0-.689-.009-1.277-.03-1.758s-.036-.9-.045-1.272a3.135,3.135,0,0,0,1.37,0l3.287,3.625q1.629,1.8,3.319,3.622v-2.8q0-.745-.008-1.469c0-.482-.012-.925-.023-1.333s-.02-.753-.03-1.042a4.722,4.722,0,0,0-.047-.6,3.141,3.141,0,0,0,1.371,0q-.06,1.113-.1,2.041t-.069,1.759q-.03.827-.046,1.6t-.023,1.566c-.005.533-.006,1.091-.006,1.669v1.871l-.313-.053a2.033,2.033,0,0,0-.312-.022,2.458,2.458,0,0,0-.594.075q-1.567-1.855-3.226-3.7t-3.427-3.7c-.019.578-.03,1.172-.03,1.781v1.766q0,.913.008,1.552c.006.427.013.786.022,1.082s.021.534.032.722.019.353.03.494c-.122-.02-.245-.037-.366-.053a2.874,2.874,0,0,0-.349-.022,3.578,3.578,0,0,0-.7.075c.009-.07.024-.234.045-.486s.043-.572.069-.952.048-.812.069-1.293.04-.99.061-1.523.036-1.073.046-1.621.015-1.081.015-1.6" transform="translate(-974.777 -204.304)" fill="#202022"/>
          <path id="Path_313" data-name="Path 313" d="M1235.305,632.3c0-.427,0-.823-.008-1.189s-.011-.716-.019-1.058-.02-.67-.034-.988-.028-.649-.046-.983c.457.009.909.026,1.356.045s.9.031,1.355.031c.374,0,.732,0,1.073-.009s.649-.008.928-.014.519-.011.724-.023.356-.021.456-.03a2.7,2.7,0,0,0-.047.283,3.546,3.546,0,0,0-.016.357,3.727,3.727,0,0,0,.016.38c.012.09.026.192.047.3-.3-.02-.616-.041-.967-.062s-.692-.039-1.021-.06-.626-.036-.89-.046-.453-.015-.563-.015q-.062.835-.068,1.658t-.007,1.659q.989-.013,1.787-.045c.534-.021,1.088-.046,1.666-.075-.03.172-.05.3-.059.395a2.4,2.4,0,0,0-.016.288,1.452,1.452,0,0,0,.023.252c.015.086.032.211.052.373q-1.734-.138-3.453-.137c0,.325,0,.65-.008.975s-.007.649-.007.974q0,.991.046,1.9.866,0,1.736-.044t1.75-.152c-.021.111-.035.212-.047.3a4.508,4.508,0,0,0,0,.762c.012.09.026.182.047.272-.274-.009-.612-.024-1.012-.045s-.952-.03-1.652-.03c-.617,0-1.119,0-1.5.007s-.686.013-.913.023-.4.019-.517.022-.218.014-.3.022c.019-.333.033-.66.046-.98s.025-.65.034-.99.015-.693.019-1.058.008-.761.008-1.187Z" transform="translate(-978.411 -204.304)" fill="#202022"/>
          <path id="Path_314" data-name="Path 314" d="M1249.031,630.094a1.824,1.824,0,0,0-1.841-1.311,1.609,1.609,0,0,0-1.144.413,1.331,1.331,0,0,0-.1,1.879,3.605,3.605,0,0,0,.859.647c.347.193.717.379,1.112.556a5.7,5.7,0,0,1,1.11.655,3.335,3.335,0,0,1,.86.943,2.678,2.678,0,0,1,.344,1.423,3.3,3.3,0,0,1-.29,1.393,3.143,3.143,0,0,1-.822,1.088,3.819,3.819,0,0,1-1.272.708,5.111,5.111,0,0,1-1.651.253,5.01,5.01,0,0,1-1.468-.2,3.083,3.083,0,0,1-.983-.456c.1-.355.188-.679.258-.975s.134-.614.184-.959h.287a2.169,2.169,0,0,0,.222.631,1.782,1.782,0,0,0,.427.525,1.9,1.9,0,0,0,.632.358,2.43,2.43,0,0,0,.822.13,1.79,1.79,0,0,0,1.34-.456,1.526,1.526,0,0,0,.441-1.1,1.336,1.336,0,0,0-.336-.943,3.369,3.369,0,0,0-.835-.647c-.336-.187-.7-.37-1.1-.549a5.641,5.641,0,0,1-1.1-.646,3.279,3.279,0,0,1-.835-.937,2.705,2.705,0,0,1-.336-1.423,3.3,3.3,0,0,1,.28-1.4,3,3,0,0,1,.753-1.018,3.267,3.267,0,0,1,1.09-.625,3.971,3.971,0,0,1,1.3-.213,4.716,4.716,0,0,1,1.438.2,3.287,3.287,0,0,1,1.058.548c-.089.233-.169.458-.234.677s-.151.5-.253.83Z" transform="translate(-980.056 -204.262)" fill="#202022"/>
          <path id="Path_315" data-name="Path 315" d="M1258.224,630.094a1.823,1.823,0,0,0-1.841-1.311,1.6,1.6,0,0,0-1.142.413,1.327,1.327,0,0,0-.1,1.879,3.614,3.614,0,0,0,.858.647c.345.193.717.379,1.112.556a5.666,5.666,0,0,1,1.111.655,3.36,3.36,0,0,1,.861.943,2.7,2.7,0,0,1,.342,1.423,3.286,3.286,0,0,1-.29,1.393,3.144,3.144,0,0,1-.822,1.088,3.817,3.817,0,0,1-1.273.708,5.1,5.1,0,0,1-1.65.253,5.02,5.02,0,0,1-1.469-.2,3.1,3.1,0,0,1-.982-.456c.1-.355.188-.679.26-.975s.133-.614.182-.959h.288a2.149,2.149,0,0,0,.223.631,1.77,1.77,0,0,0,.425.525,1.9,1.9,0,0,0,.633.358,2.422,2.422,0,0,0,.821.13,1.789,1.789,0,0,0,1.339-.456,1.525,1.525,0,0,0,.441-1.1,1.339,1.339,0,0,0-.335-.943,3.345,3.345,0,0,0-.836-.647c-.336-.187-.7-.37-1.1-.549a5.6,5.6,0,0,1-1.1-.646,3.261,3.261,0,0,1-.836-.937,2.7,2.7,0,0,1-.336-1.423,3.3,3.3,0,0,1,.281-1.4,3.027,3.027,0,0,1,.753-1.018,3.267,3.267,0,0,1,1.091-.625,3.971,3.971,0,0,1,1.3-.213,4.729,4.729,0,0,1,1.439.2,3.3,3.3,0,0,1,1.057.548c-.09.233-.169.458-.235.677s-.15.5-.252.83Z" transform="translate(-981.814 -204.262)" fill="#202022"/>
          <path id="Path_316" data-name="Path 316" d="M1262.885,632.3c0-.427,0-.823-.008-1.189s-.011-.716-.019-1.058-.02-.67-.034-.988-.029-.649-.047-.983c.458.009.91.026,1.355.045s.9.031,1.357.031c.373,0,.73,0,1.072-.009s.649-.008.928-.014.519-.011.723-.023.356-.021.457-.03a2.667,2.667,0,0,0-.047.283c-.009.1-.015.214-.015.357,0,.161.006.288.015.38s.027.192.047.3q-.443-.03-.966-.062c-.352-.021-.692-.039-1.022-.06s-.627-.036-.891-.046-.452-.015-.562-.015q-.062.835-.068,1.658t-.009,1.659q.991-.013,1.789-.045c.534-.021,1.089-.046,1.667-.075-.03.172-.051.3-.06.395a2.424,2.424,0,0,0-.016.288,1.489,1.489,0,0,0,.023.252c.015.086.031.211.052.373q-1.734-.138-3.455-.137c0,.325,0,.65-.007.975s-.008.649-.008.974q0,.991.045,1.9.867,0,1.736-.044t1.75-.152c-.021.111-.036.212-.047.3s-.015.22-.015.381.006.288.015.381.027.182.047.272c-.273-.009-.612-.024-1.012-.045s-.953-.03-1.654-.03c-.618,0-1.119,0-1.5.007s-.686.013-.913.023-.4.019-.518.022-.217.014-.3.022c.019-.333.035-.66.047-.98s.025-.65.034-.99.014-.693.019-1.058.008-.761.008-1.187Z" transform="translate(-983.684 -204.304)" fill="#202022"/>
          <path id="Path_317" data-name="Path 317" d="M1272.387,631.11c0-.689-.01-1.277-.031-1.758s-.036-.9-.045-1.272a3.135,3.135,0,0,0,1.37,0q1.658,1.829,3.288,3.625t3.318,3.622v-2.8c0-.5,0-.987-.007-1.469s-.014-.925-.023-1.333-.02-.753-.029-1.042a4.939,4.939,0,0,0-.048-.6,3.135,3.135,0,0,0,1.37,0c-.039.742-.073,1.422-.1,2.041s-.05,1.2-.07,1.759-.037,1.085-.047,1.6-.015,1.034-.021,1.566-.008,1.091-.008,1.669v1.871l-.311-.053a2.052,2.052,0,0,0-.313-.022,2.45,2.45,0,0,0-.593.075q-1.568-1.855-3.228-3.7t-3.426-3.7q-.028.867-.029,1.781v1.766c0,.609,0,1.127.007,1.552s.013.786.022,1.082.021.534.031.722.021.353.031.494c-.122-.02-.244-.037-.364-.053a2.924,2.924,0,0,0-.351-.022,3.587,3.587,0,0,0-.7.075c.009-.07.025-.234.046-.486s.043-.572.068-.952.048-.812.068-1.293.041-.99.06-1.523.037-1.073.047-1.621.015-1.081.015-1.6" transform="translate(-985.529 -204.304)" fill="#202022"/>
          <path id="Path_318" data-name="Path 318" d="M1294.651,636.776c-.08.215-.152.429-.212.648a3.839,3.839,0,0,0-.123.647,5.658,5.658,0,0,1-1.386.5,7.9,7.9,0,0,1-1.718.176,6.738,6.738,0,0,1-2.368-.39,5.1,5.1,0,0,1-1.766-1.073,4.584,4.584,0,0,1-1.1-1.614,5.224,5.224,0,0,1-.379-2.008,6.563,6.563,0,0,1,.494-2.679,4.9,4.9,0,0,1,1.323-1.806,5.285,5.285,0,0,1,1.926-1.01,8.158,8.158,0,0,1,2.3-.32,7.114,7.114,0,0,1,.836.052,6.469,6.469,0,0,1,.852.16q.411.108.784.245a3.8,3.8,0,0,1,.633.289,4.872,4.872,0,0,0-.238.768,5.9,5.9,0,0,0-.113.785h-.212a3.949,3.949,0,0,0-1.188-1.036,3.044,3.044,0,0,0-1.432-.319,2.994,2.994,0,0,0-1.225.274,3.283,3.283,0,0,0-1.121.837,4.3,4.3,0,0,0-.812,1.447,6.23,6.23,0,0,0-.312,2.086,5.573,5.573,0,0,0,.32,2,3.885,3.885,0,0,0,.831,1.353,3.116,3.116,0,0,0,1.156.77,3.681,3.681,0,0,0,1.3.242,3.514,3.514,0,0,0,.747-.083,4.809,4.809,0,0,0,.744-.229,3.832,3.832,0,0,0,.693-.358,3.075,3.075,0,0,0,.571-.471Z" transform="translate(-989.506 -204.262)" fill="#202022"/>
          <path id="Path_319" data-name="Path 319" d="M1298.645,632.3c0-.427,0-.823-.008-1.189s-.01-.716-.018-1.058-.021-.67-.034-.988-.029-.649-.048-.983c.458.009.909.026,1.357.045s.9.031,1.354.031c.374,0,.732,0,1.073-.009s.648-.008.927-.014.519-.011.722-.023.357-.021.458-.03a2.73,2.73,0,0,0-.047.283c-.009.1-.014.214-.014.357,0,.161.005.288.014.38s.028.192.047.3c-.3-.02-.616-.041-.968-.062s-.691-.039-1.021-.06-.625-.036-.889-.046-.452-.015-.563-.015q-.062.835-.068,1.658t-.008,1.659q.99-.013,1.789-.045t1.667-.075c-.031.172-.052.3-.06.395a2.11,2.11,0,0,0-.016.288,1.566,1.566,0,0,0,.023.252c.016.086.031.211.053.373q-1.734-.138-3.456-.137c0,.325,0,.65-.008.975s-.007.649-.007.974q0,.991.044,1.9.866,0,1.737-.044t1.75-.152c-.019.111-.037.212-.047.3s-.014.22-.014.381.005.288.014.381.028.182.047.272c-.275-.009-.611-.024-1.012-.045s-.953-.03-1.654-.03c-.617,0-1.118,0-1.5.007s-.686.013-.913.023-.4.019-.518.022-.217.014-.3.022c.019-.333.034-.66.048-.98s.024-.65.034-.99.015-.693.018-1.058.008-.761.008-1.187Z" transform="translate(-991.733 -204.304)" fill="#202022"/>
          <path id="Path_320" data-name="Path 320" d="M1122.67,553.243q0-.658-.013-1.2a5.644,5.644,0,0,0-.055-.792c-.226,0-.507.007-.837.022s-.689.038-1.065.068-.764.061-1.155.09-.756.068-1.087.113c.03-.166.057-.331.079-.5a3.644,3.644,0,0,0,0-1c-.022-.166-.049-.331-.079-.5.513.015.979.03,1.392.046s.838.026,1.269.034l1.4.022q.758.011,1.822.011c.7,0,1.3,0,1.813-.011l1.4-.022c.422-.008.829-.019,1.224-.034s.829-.031,1.314-.046c-.031.166-.059.331-.08.5a3.593,3.593,0,0,0,0,1c.021.166.049.332.08.5-.3-.046-.643-.083-1.021-.113l-1.12-.09c-.372-.03-.722-.053-1.053-.068s-.611-.022-.838-.022a4.8,4.8,0,0,0-.046.792V558.9q0,.953.013,1.766c.006.544.017,1.07.033,1.574s.035,1,.056,1.472.05.962.08,1.461c-.259-.031-.536-.057-.837-.08s-.642-.034-1.021-.034-.717.012-1.02.034-.58.049-.836.08c.03-.5.057-.984.078-1.461s.04-.966.056-1.472.026-1.03.033-1.574.013-1.131.013-1.766Z" transform="translate(-956.156 -190.792)" fill="#202022"/>
          <path id="Path_321" data-name="Path 321" d="M1145.728,557.612q-.862-.022-1.723-.056t-1.721-.033c-.573,0-1.148.007-1.721.022s-1.146.038-1.721.067V558.9q0,.951.011,1.766c.008.544.02,1.069.034,1.574s.034,1,.057,1.472.049.962.08,1.461c-.256-.03-.538-.057-.839-.079s-.641-.033-1.019-.033-.716.01-1.021.033-.578.049-.837.079c.03-.5.057-.984.08-1.461s.041-.966.058-1.472.025-1.03.033-1.574.013-1.132.013-1.766v-3.08q0-.953-.013-1.766c-.009-.544-.02-1.069-.033-1.573s-.034-1-.058-1.472-.05-.964-.08-1.461c.258.031.536.057.837.079s.643.034,1.021.034.718-.012,1.019-.034.582-.049.839-.079q-.114,1.471-.146,2.911t-.035,3.317c.391.015.864.026,1.415.034s1.234.012,2.051.012,1.476,0,1.991-.012.989-.019,1.429-.034q0-1.88-.046-3.317t-.135-2.911c.256.031.533.057.838.079s.642.034,1.019.034.716-.012,1.019-.034.581-.049.838-.079c-.033.5-.057.985-.079,1.461s-.043.966-.058,1.472-.027,1.03-.035,1.573-.011,1.131-.011,1.766v3.08q0,.951.011,1.766t.035,1.574c.015.505.034,1,.058,1.472s.046.962.079,1.461c-.258-.03-.536-.057-.838-.079s-.641-.033-1.019-.033-.718.01-1.019.033-.582.049-.838.079c.029-.5.056-.984.079-1.461s.041-.966.056-1.472.028-1.03.034-1.574.012-1.132.012-1.766Z" transform="translate(-959.407 -190.792)" fill="#202022"/>
          <path id="Path_322" data-name="Path 322" d="M1156.5,555.823q0-.952-.009-1.766c-.006-.544-.017-1.069-.03-1.574s-.03-1-.05-1.472-.042-.963-.069-1.46q1.019.022,2.016.067c.665.03,1.338.045,2.014.045q.839,0,1.6-.011l1.383-.023q.624-.011,1.077-.034c.3-.015.528-.03.68-.045a3.167,3.167,0,0,0-.069.418,4.895,4.895,0,0,0-.023.533,5.1,5.1,0,0,0,.023.566c.014.136.037.286.069.452q-.658-.045-1.438-.09l-1.518-.09c-.491-.031-.934-.053-1.325-.068s-.672-.022-.838-.022q-.09,1.245-.1,2.468t-.011,2.468c.981-.013,1.867-.038,2.66-.068s1.619-.068,2.48-.114c-.046.258-.076.454-.092.59a4.147,4.147,0,0,0-.022.432,2.234,2.234,0,0,0,.034.372c.022.129.049.315.08.556q-2.582-.2-5.14-.206c0,.484,0,.968-.013,1.45s-.01.967-.01,1.45q0,1.473.068,2.831,1.291,0,2.58-.067t2.606-.226c-.031.166-.055.316-.069.451a7,7,0,0,0,0,1.133,3.209,3.209,0,0,0,.069.407q-.613-.023-1.506-.067c-.6-.03-1.415-.045-2.46-.045q-1.381,0-2.23.012c-.565.007-1.019.019-1.357.034l-.771.033c-.175.008-.321.019-.442.034.026-.5.049-.984.069-1.46s.036-.966.05-1.472.025-1.03.03-1.574.009-1.132.009-1.766Z" transform="translate(-963.373 -190.792)" fill="#202022"/>
        </g>
      </g>
    </g>
  </g>
</svg>
