<svg xmlns="http://www.w3.org/2000/svg" width="24" height="24" viewBox="0 0 24 24">
  <defs>
    <style>
      .cls-1, .cls-2 {
        fill: none;
      }

      .cls-1 {
        stroke: #01abc1;
        stroke-linecap: round;
        stroke-linejoin: round;
        stroke-width: 1.5px;
      }

      .cls-2 {
        opacity: 0;
      }
    </style>
  </defs>
  <g id="vuesax_linear_profile" data-name="vuesax/linear/profile" transform="translate(-108 -252)">
    <g id="profile">
      <path id="Vector" class="cls-1" d="M4.6,8.87a1.818,1.818,0,0,0-.33,0,4.445,4.445,0,1,1,.33,0Z" transform="translate(115.56 254)"/>
      <path id="Vector-2" data-name="Vector" class="cls-1" d="M1.815,1.373c-2.42,1.62-2.42,4.26,0,5.87a9.766,9.766,0,0,0,10.01,0c2.42-1.62,2.42-4.26,0-5.87A9.812,9.812,0,0,0,1.815,1.373Z" transform="translate(113.345 265.188)"/>
      <path id="Vector-3" data-name="Vector" class="cls-2" d="M0,0H24V24H0Z" transform="translate(132 276) rotate(180)"/>
    </g>
  </g>
</svg>
