<svg xmlns="http://www.w3.org/2000/svg" width="264.173" height="250.132" viewBox="0 0 264.173 250.132">
  <g id="Shrug-bro" transform="translate(-26.127 -30.197)" opacity="0.2">
    <g id="freepik--background-simple--inject-4" transform="translate(26.127 30.197)">
      <path id="Path_41590" data-name="Path 41590" d="M268.6,77.891q-1.369-2.285-2.856-4.481C252.515,53.976,230.5,40.683,209.1,34.649a121.542,121.542,0,0,0-28.609-4.379C117.472,27.979,94.32,79.938,74.017,93.344s-51.465,36.3-47.555,84.352c2.975,36.547,23.76,71.5,61.735,87.4a107.606,107.606,0,0,0,13.18,4.552,126.153,126.153,0,0,0,27.83,4.278c28.71,1.279,52.024-5.647,74.826-23.07,5.3-4.052,10.574-8.622,17.452-9.122,5-.363,9.741,1.428,4.516,6.266-6.141,5.677.946,16.845,16.536,9.086,26.045-12.96,36.755-40.926,41.8-69.363C290.532,152.811,287.533,109.41,268.6,77.891Z" transform="translate(-26.127 -30.197)" fill="#01abc1"/>
      <path id="Path_41591" data-name="Path 41591" d="M268.6,77.891q-1.369-2.285-2.856-4.481C252.515,53.976,230.5,40.683,209.1,34.649a121.542,121.542,0,0,0-28.609-4.379C117.472,27.979,94.32,79.938,74.017,93.344s-51.465,36.3-47.555,84.352c2.975,36.547,23.76,71.5,61.735,87.4a107.606,107.606,0,0,0,13.18,4.552,126.153,126.153,0,0,0,27.83,4.278c28.71,1.279,52.024-5.647,74.826-23.07,5.3-4.052,10.574-8.622,17.452-9.122,5-.363,9.741,1.428,4.516,6.266-6.141,5.677.946,16.845,16.536,9.086,26.045-12.96,36.755-40.926,41.8-69.363C290.532,152.811,287.533,109.41,268.6,77.891Z" transform="translate(-26.127 -30.197)" fill="#fff" opacity="0.7"/>
    </g>
    <g id="freepik--Plant--inject-4" transform="translate(55.272 225.775)">
      <path id="Path_41592" data-name="Path 41592" d="M146.38,379.934c-1.571.494-5.23,0-5.23,0s1.053-2.315,1.137-2.452c.988-1.595,3.838-4.094,5.879-3.57a2.487,2.487,0,0,1,1.642,3.314A5.2,5.2,0,0,1,146.38,379.934Z" transform="translate(-101.853 -364.94)" fill="#263238"/>
      <path id="Path_41593" data-name="Path 41593" d="M92.383,376.22c-.036,0-.4-2.505-.4-2.672-.054-1.874.946-5.528,2.928-6.23a2.481,2.481,0,0,1,3.2,1.862c.351,1.44-.476,3.064-1.357,4.165C95.7,374.607,92.383,376.22,92.383,376.22Z" transform="translate(-81.939 -362.249)" fill="#263238"/>
      <path id="Path_41594" data-name="Path 41594" d="M86.189,399.861a14.491,14.491,0,0,0,4.332-.738c.113,1.047.244,2.077.428,3.088.083.434.143.887.25,1.3s.2.833.3,1.244c.232.839.44,1.618.678,2.38.113.4.232.762.351,1.143-.292-.6-.768-1.547-.821-1.63-.9-1.38-3.457-3.517-5.236-3.029a2.184,2.184,0,0,0-1.381,2.939,4.65,4.65,0,0,0,3.07,2.315,14.974,14.974,0,0,0,4.522-.089c.3.928.6,1.833.881,2.672.19.553.375,1.071.553,1.577H95.3c-.238-.6-.482-1.255-.738-1.946s-.559-1.553-.845-2.38a15.979,15.979,0,0,0,3.808-2.16,23.2,23.2,0,0,0,2.457,1.327c-.274.94-.524,1.857-.744,2.713s-.422,1.672-.6,2.446h1.19c.149-.7.309-1.41.488-2.184s.393-1.607.6-2.452a15.07,15.07,0,0,0,4.516.274,4.568,4.568,0,0,0,3.154-2.2,2.184,2.184,0,0,0-1.256-2.975c-1.785-.553-4.4,1.476-5.355,2.82-.059.089-.666,1.19-.964,1.749.131-.512.268-1.018.417-1.547.208-.762.452-1.565.69-2.339l.411-1.19c.131-.417.309-.791.464-1.19.238-.6.512-1.19.785-1.785a14.112,14.112,0,0,0,4.207.881,4.634,4.634,0,0,0,3.451-1.69,2.19,2.19,0,0,0-.785-3.16c-1.66-.815-4.57.8-5.718,1.981-.042.036-.256.309-.512.643.286-.6.6-1.143.875-1.708q1.3-2.41,2.737-4.832l.6-1.012a14.624,14.624,0,0,0,4.326.916,4.566,4.566,0,0,0,3.451-1.69,2.184,2.184,0,0,0-.785-3.154c-1.66-.815-4.57.791-5.718,1.976-.042.042-.3.375-.6.744.494-.887.976-1.785,1.428-2.672a38.982,38.982,0,0,0,2.029-4.76,14.984,14.984,0,0,0,4.445.964,4.607,4.607,0,0,0,3.457-1.69,2.184,2.184,0,0,0-.791-3.154c-1.654-.815-4.57.791-5.718,1.975-.083.083-1.006,1.279-1.321,1.72v-.054a27.894,27.894,0,0,0,1.125-4.945,37.878,37.878,0,0,0,.369-4.51c.048-1.4,0-2.684-.042-3.82-.03-.6-.071-1.19-.113-1.7h.03s.774-2.1.8-2.237c.363-1.607.119-4.927-1.47-5.873a2.184,2.184,0,0,0-3.07,1.065,4.552,4.552,0,0,0,.47,3.814,14.964,14.964,0,0,0,3.148,3.136c.036.547.065,1.131.083,1.785,0,1.137.036,2.416-.042,3.814,0,.369-.054.768-.083,1.154-.089-.66-.22-1.571-.244-1.654-.417-1.595-2.166-4.433-4-4.534a2.184,2.184,0,0,0-2.243,2.38,4.566,4.566,0,0,0,2.178,3.172A15.18,15.18,0,0,0,114,374.619c-.077.857-.179,1.738-.333,2.648a27.879,27.879,0,0,1-1.19,4.867h-.1c0-.595-.054-1.922-.065-2.029-.244-1.636-1.666-4.647-3.487-4.951a2.184,2.184,0,0,0-2.481,2.1,4.622,4.622,0,0,0,1.785,3.392,15.924,15.924,0,0,0,4.195,1.827,38.4,38.4,0,0,1-2.065,4.54c-.6,1.089-1.19,2.172-1.845,3.249,0-.434-.054-2.148-.071-2.273-.238-1.63-1.66-4.641-3.481-4.945a2.19,2.19,0,0,0-2.446,2.089,4.564,4.564,0,0,0,1.815,3.386,15.279,15.279,0,0,0,4.165,1.821c-.292.488-.6.982-.881,1.47-.964,1.595-1.94,3.183-2.85,4.79-.315.553-.6,1.113-.9,1.672,0-.655-.048-1.845-.065-1.946-.238-1.63-1.66-4.641-3.481-4.951a2.19,2.19,0,0,0-2.487,2.1,4.642,4.642,0,0,0,1.785,3.392,14.422,14.422,0,0,0,4.017,1.785c-.482.934-.94,1.868-1.345,2.809-.173.411-.369.821-.506,1.226s-.292.8-.44,1.19c-.268.827-.524,1.595-.756,2.38-.119.393-.22.762-.333,1.148.089-.667.214-1.72.214-1.815,0-1.654-.94-4.844-2.7-5.421a2.184,2.184,0,0,0-2.773,1.7,2.666,2.666,0,0,0-.06.482,8.551,8.551,0,0,0-1.375,4.058c0,.1.1,1.357.161,1.993-.173-.5-.339-1-.506-1.523-.25-.75-.482-1.553-.714-2.333l-.321-1.232c-.119-.416-.184-.833-.274-1.25-.125-.595-.226-1.267-.321-1.91a14.012,14.012,0,0,0,4-1.583,4.615,4.615,0,0,0,1.946-3.314,2.184,2.184,0,0,0-2.38-2.2c-1.833.226-3.374,3.177-3.683,4.8,0,.053-.036.4-.065.815-.077-.631-.155-1.261-.214-1.9-.161-1.821-.268-3.677-.381-5.54,0-.387-.054-.779-.077-1.19a14.35,14.35,0,0,0,4.112-1.618,4.567,4.567,0,0,0,1.952-3.314,2.19,2.19,0,0,0-2.38-2.2c-1.833.232-3.374,3.183-3.683,4.8,0,.06-.042.476-.077.946-.077-1.012-.167-2.023-.286-3.017a39.27,39.27,0,0,0-.94-5.076,15.3,15.3,0,0,0,4.237-1.654,4.582,4.582,0,0,0,1.952-3.314,2.19,2.19,0,0,0-2.38-2.2c-1.833.232-3.374,3.183-3.683,4.8,0,.119-.131,1.624-.155,2.166a.216.216,0,0,0,0-.06,28.023,28.023,0,0,0-1.785-4.76,39.368,39.368,0,0,0-2.184-3.969c-.738-1.19-1.482-2.243-2.148-3.166-.363-.5-.7-.946-1.029-1.357h.036s-.518-2.172-.6-2.3c-.6-1.541-2.618-4.165-4.463-4.088a2.19,2.19,0,0,0-1.981,2.582,4.586,4.586,0,0,0,2.5,2.922A14.771,14.771,0,0,0,82,367.05c.333.44.678.91,1.047,1.44.643.934,1.363,1.993,2.071,3.2.184.321.375.678.565,1.018-.44-.506-1.047-1.19-1.119-1.25-1.226-1.1-4.249-2.505-5.837-1.571a2.19,2.19,0,0,0-.6,3.2,4.586,4.586,0,0,0,3.57,1.446,15.318,15.318,0,0,0,4.3-1.238c.411.756.809,1.541,1.19,2.38a28.178,28.178,0,0,1,1.666,4.76l-.1.042c-.351-.512-1.107-1.577-1.19-1.654-1.1-1.232-3.945-2.975-5.635-2.208a2.19,2.19,0,0,0-.91,3.124,4.555,4.555,0,0,0,3.38,1.827,15.437,15.437,0,0,0,4.5-.791,38.331,38.331,0,0,1,.809,4.957c.119,1.232.19,2.475.25,3.731-.232-.369-1.226-1.785-1.309-1.857-1.1-1.232-3.945-2.975-5.635-2.208a2.19,2.19,0,0,0-.91,3.124,4.555,4.555,0,0,0,3.38,1.827,14.993,14.993,0,0,0,4.481-.785c0,.6.06,1.137.077,1.708.077,1.862.143,3.731.262,5.57.042.643.107,1.267.173,1.9-.369-.542-1.059-1.511-1.131-1.589-1.1-1.232-3.945-2.975-5.635-2.2a2.178,2.178,0,0,0-.91,3.118A4.622,4.622,0,0,0,86.189,399.861Z" transform="translate(-75.108 -358.881)" fill="#263238"/>
    </g>
    <g id="freepik--Symbol--inject-4" transform="translate(173.02 31.994)">
      <path id="Path_41595" data-name="Path 41595" d="M289.051,91.5a12.372,12.372,0,0,1-4.451-4.522,14.013,14.013,0,0,1-2.089-7.735q0-4.308,2.3-6.468a15.034,15.034,0,0,1,6.748-3.273L302.4,66.879q6.962-1.785,6.956-6.676a5.674,5.674,0,0,0-2.571-4.594q-2.57-1.952-8.836-1.946a38.22,38.22,0,0,0-10.711,1.458,31.728,31.728,0,0,0-8.069,3.41,17.2,17.2,0,0,1-4.034-4.385,11.145,11.145,0,0,1-1.672-6.194,10.115,10.115,0,0,1,2.1-6.3,15.4,15.4,0,0,1,5.772-4.451,33.226,33.226,0,0,1,8.765-2.576,69.62,69.62,0,0,1,11.2-.833q16.405-.024,24.843,7.265t8.414,19.13q0,22.26-31.442,28.52Zm-4.594,18.226a12.948,12.948,0,0,1,3.57-9.39q3.57-3.689,9.812-3.689t9.806,3.689a14.133,14.133,0,0,1,0,18.779q-3.57,3.677-9.806,3.689-6.266,0-9.812-3.689A13.08,13.08,0,0,1,284.457,109.727Z" transform="translate(-273.182 -33.449)" fill="#263238"/>
      <path id="Path_41596" data-name="Path 41596" d="M297.625,122.873c-4.237,0-7.61-1.273-10.026-3.778a14.5,14.5,0,0,1,0-19.2c2.41-2.505,5.79-3.778,10.026-3.778s7.611,1.273,10.02,3.778a14.5,14.5,0,0,1,0,19.2C305.236,121.594,301.862,122.873,297.625,122.873Zm0-26.181c-4.07,0-7.3,1.19-9.6,3.57a12.751,12.751,0,0,0-3.463,9.181,12.887,12.887,0,0,0,3.463,9.187c2.273,2.392,5.528,3.57,9.6,3.57s7.3-1.19,9.592-3.57a12.756,12.756,0,0,0,3.463-9.187,12.56,12.56,0,0,0-3.463-9.116c-2.3-2.38-5.522-3.612-9.592-3.612Zm-8.765-5.147a.315.315,0,0,1-.143-.036,12.676,12.676,0,0,1-4.564-4.623,14.424,14.424,0,0,1-2.13-7.878c0-2.945.8-5.195,2.38-6.688a15.213,15.213,0,0,1,6.885-3.338l10.865-2.624c4.522-1.19,6.724-3.267,6.724-6.385a5.4,5.4,0,0,0-2.452-4.356c-1.63-1.232-4.57-1.886-8.658-1.886a38.082,38.082,0,0,0-10.627,1.446,31.739,31.739,0,0,0-7.991,3.374.315.315,0,0,1-.345,0,17.68,17.68,0,0,1-4.1-4.457A11.455,11.455,0,0,1,273,47.726a10.431,10.431,0,0,1,2.148-6.51,15.726,15.726,0,0,1,5.867-4.558,33.589,33.589,0,0,1,8.842-2.6,70.262,70.262,0,0,1,11.246-.839c10.966,0,19.386,2.481,25.033,7.378s8.515,11.419,8.515,19.356c0,14.929-10.657,24.623-31.68,28.812l-14.055,2.779Zm8.926-38.433c4.219,0,7.253.672,9.015,2.005a6,6,0,0,1,2.69,4.832c0,3.38-2.41,5.724-7.176,6.962l-10.871,2.672a14.667,14.667,0,0,0-6.617,3.2c-1.482,1.41-2.2,3.475-2.2,6.254a13.8,13.8,0,0,0,2.041,7.563,12.26,12.26,0,0,0,4.248,4.368L302.861,88.2c20.7-4.124,31.2-13.62,31.2-28.228,0-7.735-2.8-14.12-8.331-18.91s-13.823-7.23-24.64-7.23a69.074,69.074,0,0,0-11.151.833,33.073,33.073,0,0,0-8.688,2.547,15.144,15.144,0,0,0-5.659,4.368,9.824,9.824,0,0,0-2,6.147,10.859,10.859,0,0,0,1.624,6.028,16.941,16.941,0,0,0,3.8,4.165,32.675,32.675,0,0,1,7.968-3.332,38.593,38.593,0,0,1,10.776-1.452Z" transform="translate(-272.991 -33.218)" fill="#263238"/>
    </g>
    <g id="freepik--Character--inject-4" transform="translate(36.431 87.166)">
      <path id="Path_41597" data-name="Path 41597" d="M217.09,289.92l1.178,95.289h46.609L261.045,291.1Z" transform="translate(-113.765 -192.345)" fill="#263238"/>
      <path id="Path_41598" data-name="Path 41598" d="M264.667,385.3H218.058a.3.3,0,0,1-.3-.3l-1.19-95.289a.327.327,0,0,1,.089-.214.292.292,0,0,1,.22-.083l43.955,1.19a.3.3,0,0,1,.292.286l3.838,94.075a.274.274,0,0,1-.083.214A.285.285,0,0,1,264.667,385.3Zm-46.317-.6h46.008l-3.808-93.522L217.177,290Z" transform="translate(-113.554 -192.142)" fill="#263238"/>
      <path id="Path_41599" data-name="Path 41599" d="M217.09,232.71,218.268,328h46.609l-3.832-94.111Z" transform="translate(-113.765 -169.177)" fill="#fff"/>
      <path id="Path_41600" data-name="Path 41600" d="M264.667,328.094H218.058a.3.3,0,0,1-.3-.3l-1.19-95.283a.3.3,0,0,1,.089-.214.274.274,0,0,1,.22-.089l43.955,1.19a.292.292,0,0,1,.292.28l3.832,94.111a.285.285,0,0,1-.083.22.3.3,0,0,1-.208.083Zm-46.317-.6h46.008l-3.808-93.522-43.372-1.19Z" transform="translate(-113.554 -168.974)" fill="#263238"/>
      <path id="Path_41601" data-name="Path 41601" d="M241.866,245.392l4.855,8.092-8.491,61.074,12.805,12.811,8.36-16.042-9.574-57.439,4.856-6.6-5.391-8.634Z" transform="translate(-122.326 -171.583)" fill="#263238"/>
      <path id="Path_41602" data-name="Path 41602" d="M250.831,327.467a.279.279,0,0,1-.208-.089l-12.811-12.805a.309.309,0,0,1-.083-.256l8.491-60.973-4.8-8a.292.292,0,0,1,.054-.375l7.414-6.742a.321.321,0,0,1,.244-.071.292.292,0,0,1,.208.137l5.391,8.628a.3.3,0,0,1,0,.333l-4.76,6.5,9.55,57.314a.3.3,0,0,1-.03.19l-8.33,16.066a.3.3,0,0,1-.22.155Zm-12.5-13.21,12.412,12.412,8.128-15.6-9.556-57.338a.309.309,0,0,1,.054-.226l4.76-6.444-5.1-8.152-6.98,6.337,4.76,7.878a.327.327,0,0,1,.042.2Z" transform="translate(-122.121 -171.383)" fill="#263238"/>
      <path id="Path_41603" data-name="Path 41603" d="M250.617,256.525l-.184,1.339,5.415-3.832,2.725-3.707-2.6-4.165-8.122,5.748Z" transform="translate(-126.222 -174.624)" fill="#01abc1"/>
      <path id="Path_41604" data-name="Path 41604" d="M250.227,257.961a.31.31,0,0,1-.3-.339l.173-1.238-2.713-4.522a.292.292,0,0,1,.083-.4l8.122-5.742a.315.315,0,0,1,.232-.053.3.3,0,0,1,.19.137l2.6,4.165a.3.3,0,0,1,0,.333L255.9,254.01a.358.358,0,0,1-.071.065l-5.415,3.832A.316.316,0,0,1,250.227,257.961Zm-2.19-6.147,2.63,4.379a.327.327,0,0,1,.042.2l-.1.655,4.82-3.4,2.577-3.511-2.327-3.719Z" transform="translate(-126.016 -174.423)" fill="#263238"/>
      <path id="Path_41605" data-name="Path 41605" d="M247.78,288.843l8.241-5.831-1.16-6.962-5.885,4.159Z" transform="translate(-126.193 -186.728)" fill="#01abc1"/>
      <path id="Path_41606" data-name="Path 41606" d="M247.576,288.888a.285.285,0,0,1-.155-.042.3.3,0,0,1-.143-.292l1.19-8.634a.3.3,0,0,1,.125-.2l5.879-4.165a.292.292,0,0,1,.286-.03.3.3,0,0,1,.178.226l1.16,6.962a.3.3,0,0,1-.119.292l-8.229,5.885A.309.309,0,0,1,247.576,288.888Zm1.476-8.753-1.089,7.819,7.527-5.355-1.047-6.307Z" transform="translate(-125.99 -186.505)" fill="#263238"/>
      <path id="Path_41607" data-name="Path 41607" d="M256.773,378.593l6.421-12.323-11.383,8.057,4.558,4.558Z" transform="translate(-127.825 -223.264)" fill="#01abc1"/>
      <path id="Path_41608" data-name="Path 41608" d="M256.165,379.007a.3.3,0,0,1-.214-.089l-4.552-4.558a.293.293,0,0,1,.036-.452l11.383-8.051a.3.3,0,0,1,.369,0,.292.292,0,0,1,.065.357l-6.414,12.323a.327.327,0,0,1-.1.107l-.4.286A.275.275,0,0,1,256.165,379.007Zm.4-.6Zm-4.5-4.231,4.13,4.129.143-.1,5.819-11.163Z" transform="translate(-127.622 -223.071)" fill="#263238"/>
      <path id="Path_41609" data-name="Path 41609" d="M255.61,301.63l-11.044,7.813-1.2,8.628,13.4-9.479Z" transform="translate(-124.407 -197.087)" fill="#01abc1"/>
      <path id="Path_41610" data-name="Path 41610" d="M243.165,318.167a.285.285,0,0,1-.155-.042.3.3,0,0,1-.143-.3l1.19-8.628a.31.31,0,0,1,.119-.2l11.044-7.807a.3.3,0,0,1,.47.19l1.154,6.962a.28.28,0,0,1-.119.292l-13.4,9.479a.309.309,0,0,1-.161.054Zm1.476-8.783-1.1,7.849,12.692-8.979-1.053-6.307Z" transform="translate(-124.203 -196.886)" fill="#263238"/>
      <path id="Path_41611" data-name="Path 41611" d="M256.617,332.76,239.3,345.012l-1.065,7.658.512.512,19.035-13.46Z" transform="translate(-122.326 -209.694)" fill="#01abc1"/>
      <path id="Path_41612" data-name="Path 41612" d="M238.537,353.277a.3.3,0,0,1-.214-.083l-.512-.512a.309.309,0,0,1-.083-.256l1.065-7.658a.321.321,0,0,1,.125-.2l17.321-12.252a.3.3,0,0,1,.464.2l1.16,6.962a.316.316,0,0,1-.119.292L238.7,353.223a.308.308,0,0,1-.167.054Zm-.2-.91.226.226,18.678-13.21-1.047-6.307-16.834,11.9Z" transform="translate(-122.121 -209.492)" fill="#263238"/>
      <path id="Path_41613" data-name="Path 41613" d="M245.071,237.384,233.206,250.2l-4.046-16.584,1.267-5.082Z" transform="translate(-118.653 -167.484)" fill="#fff"/>
      <path id="Path_41614" data-name="Path 41614" d="M233.046,250.293h-.077a.3.3,0,0,1-.214-.214l-4.04-16.584a.292.292,0,0,1,0-.143l1.267-5.082a.309.309,0,0,1,.173-.2.3.3,0,0,1,.268,0l14.62,8.872a.3.3,0,0,1,.143.214.3.3,0,0,1-.077.244L233.242,250.21A.31.31,0,0,1,233.046,250.293Zm-3.737-16.881,3.9,15.977,11.24-12.139-13.983-8.455Z" transform="translate(-118.469 -167.285)" fill="#263238"/>
      <path id="Path_41615" data-name="Path 41615" d="M255.9,237.813l9.033,11.865,4.314-16.31-1.482-3.778Z" transform="translate(-129.482 -167.914)" fill="#fff"/>
      <path id="Path_41616" data-name="Path 41616" d="M264.73,249.753a.316.316,0,0,1-.238-.113l-9.033-11.9a.274.274,0,0,1-.054-.226.286.286,0,0,1,.125-.2l11.859-8.223a.315.315,0,0,1,.262-.042.334.334,0,0,1,.19.179L269.324,233a.328.328,0,0,1,0,.184L265.01,249.5a.286.286,0,0,1-.232.214Zm-8.6-12.091L264.6,248.8l4.135-15.614-1.309-3.332Z" transform="translate(-129.279 -167.691)" fill="#263238"/>
      <path id="Path_41617" data-name="Path 41617" d="M89.626,214.656s-4.046-8.235-6.069-10.931S79.5,199.4,77.214,199s-3.915-.268-5.671-.946-5.266-1.618-6.206-2.832-2.7-.4-1.892,1.618,3.648,3.374,3.648,3.374l2.291,1.077s-7.42,1.083-7.962,1.488-7.021.946-7.021.946,2.838,4.992,6.885,7.289,16.738.4,16.738.4L81.8,219.38Z" transform="translate(-47.881 -153.765)" fill="#fff"/>
      <path id="Path_41618" data-name="Path 41618" d="M81.615,219.482h-.089a.3.3,0,0,1-.179-.161l-3.689-7.735c-1.785.25-12.859,1.708-16.7-.47-4.076-2.35-6.879-7.236-6.98-7.444a.3.3,0,0,1,0-.286.291.291,0,0,1,.238-.155,46.047,46.047,0,0,0,6.873-.887c.47-.357,4.76-1.047,7.14-1.4l-1.4-.66c-.119-.054-2.975-1.422-3.79-3.529-.518-1.3-.071-2.118.47-2.428a1.5,1.5,0,0,1,1.928.512c.678.875,2.975,1.666,4.677,2.243.524.179,1.012.345,1.4.494a12,12,0,0,0,3.219.655c.726.071,1.482.149,2.344.3,2.285.4,4.356,1.94,6.545,4.838,2.017,2.69,5.95,10.639,6.1,10.978a.3.3,0,0,1-.113.387l-7.825,4.725A.351.351,0,0,1,81.615,219.482Zm-3.778-8.557a.292.292,0,0,1,.268.167l3.636,7.664,7.343-4.409c-.69-1.386-4.165-8.253-5.95-10.639-2.083-2.773-4.034-4.237-6.159-4.611-.845-.149-1.589-.22-2.3-.292a12.685,12.685,0,0,1-3.439-.666c-.387-.149-.863-.315-1.38-.488-1.857-.637-4.165-1.428-4.957-2.44a.922.922,0,0,0-1.16-.369c-.339.2-.6.75-.214,1.69.756,1.9,3.463,3.207,3.493,3.219l2.291,1.077a.309.309,0,0,1,.173.315.3.3,0,0,1-.256.25,66.859,66.859,0,0,0-7.831,1.428c-.512.387-4.76.8-6.688.964.768,1.19,3.261,4.921,6.545,6.771,3.915,2.219,16.417.387,16.542.369Z" transform="translate(-47.695 -153.569)" fill="#263238"/>
      <path id="Path_41619" data-name="Path 41619" d="M48.8,203.673s-2.083-4.433-1.91-5.391,2-.345,2.606.958,2.7,4.433,2.7,4.433Z" transform="translate(-44.837 -155.046)" fill="#fff"/>
      <path id="Path_41620" data-name="Path 41620" d="M51.994,203.774H48.6a.3.3,0,0,1-.268-.173c-.357-.756-2.118-4.57-1.934-5.57a.827.827,0,0,1,.756-.7,2.707,2.707,0,0,1,2.416,1.589c.6,1.273,2.648,4.368,2.672,4.4a.3.3,0,0,1-.25.464Zm-3.2-.6h2.648a46.156,46.156,0,0,1-2.41-4.01,2.13,2.13,0,0,0-1.785-1.25.228.228,0,0,0-.25.22C46.877,198.746,48.007,201.477,48.793,203.179Z" transform="translate(-44.636 -154.85)" fill="#263238"/>
      <path id="Path_41621" data-name="Path 41621" d="M43.9,203.267s3.237,6.885,5.4,8.771,6.48,2.029,6.48,2.029-5.129-5.4-6.206-7.426S44.555,199.756,43.9,203.267Z" transform="translate(-43.629 -156.752)" fill="#fff"/>
      <path id="Path_41622" data-name="Path 41622" d="M55.592,214.162h0c-.179,0-4.451-.161-6.664-2.1s-5.355-8.586-5.468-8.872a.268.268,0,0,1,0-.179c.167-.887.553-1.38,1.142-1.47,1.678-.256,4.278,3.255,5.082,4.76,1.047,1.964,6.111,7.3,6.159,7.355a.3.3,0,0,1-.214.506ZM44.025,203.029c.387.809,3.326,6.873,5.284,8.586,1.523,1.333,4.231,1.785,5.54,1.892-1.345-1.44-4.838-5.26-5.73-6.926s-3.279-4.635-4.463-4.451C44.37,202.178,44.15,202.475,44.025,203.029Z" transform="translate(-43.444 -156.549)" fill="#263238"/>
      <path id="Path_41623" data-name="Path 41623" d="M48.28,204.288s3.237,6.885,5.4,8.777,6.48,2.023,6.48,2.023-5.129-5.4-6.206-7.426S48.952,200.784,48.28,204.288Z" transform="translate(-45.403 -157.166)" fill="#fff"/>
      <path id="Path_41624" data-name="Path 41624" d="M59.972,215.185h0c-.179,0-4.445-.161-6.664-2.1s-5.355-8.586-5.468-8.866a.286.286,0,0,1,0-.184q.256-1.327,1.142-1.464c1.684-.262,4.278,3.249,5.082,4.76,1.047,1.964,6.111,7.3,6.159,7.361a.292.292,0,0,1,.06.321A.3.3,0,0,1,59.972,215.185ZM48.4,204.052c.387.809,3.326,6.873,5.284,8.586,1.529,1.333,4.231,1.785,5.546,1.892-1.351-1.44-4.844-5.254-5.73-6.926s-3.285-4.623-4.469-4.445C48.738,203.2,48.524,203.5,48.4,204.052Z" transform="translate(-45.218 -156.966)" fill="#263238"/>
      <path id="Path_41625" data-name="Path 41625" d="M79.575,211.175a10.109,10.109,0,0,0-2.975-2.565c-2.3-1.482-14.441,2.291-14.441,2.291s-5.534-6.879-6.343-7.557-2.3-1.077-2.565.274,3.374,7.14,4.32,8.1a42.934,42.934,0,0,0,4.588,3.237,19.893,19.893,0,0,0,6.885,1.077,50.721,50.721,0,0,0,8.5-1.345" transform="translate(-47.41 -157.032)" fill="#fff"/>
      <path id="Path_41626" data-name="Path 41626" d="M68.286,216.157a20.3,20.3,0,0,1-6.414-1.107l-.036-.03a43.678,43.678,0,0,1-4.635-3.279c-.839-.839-4.719-6.8-4.4-8.366a1.291,1.291,0,0,1,.833-1.053,2.517,2.517,0,0,1,2.214.6c.762.637,5.409,6.385,6.26,7.444,1.922-.6,12.246-3.659,14.5-2.2a11.01,11.01,0,0,1,3.058,2.654.292.292,0,0,1-.1.411.286.286,0,0,1-.4-.1h0a10.36,10.36,0,0,0-2.9-2.475c-1.785-1.16-10.853,1.285-14.192,2.327a.3.3,0,0,1-.321-.1c-1.9-2.38-5.677-7-6.3-7.515a1.964,1.964,0,0,0-1.636-.512.726.726,0,0,0-.446.6c-.226,1.119,3.207,6.8,4.237,7.825a42.284,42.284,0,0,0,4.51,3.183,20.076,20.076,0,0,0,6.742,1.047,51.055,51.055,0,0,0,8.455-1.3.306.306,0,1,1,.143.6,51.3,51.3,0,0,1-8.563,1.357C68.673,216.157,68.477,216.157,68.286,216.157Z" transform="translate(-47.225 -156.849)" fill="#263238"/>
      <path id="Path_41627" data-name="Path 41627" d="M110.2,234.288l-4.861-8.6-11.776,7.1,2.987,7.3Z" transform="translate(-63.739 -166.334)" fill="#fff"/>
      <path id="Path_41628" data-name="Path 41628" d="M96.355,240.213a.385.385,0,0,1-.113,0,.3.3,0,0,1-.161-.161l-2.975-7.3a.3.3,0,0,1,.125-.369l11.776-7.1a.292.292,0,0,1,.232,0,.31.31,0,0,1,.184.137l4.867,8.551a.3.3,0,0,1,0,.238.292.292,0,0,1-.167.179l-13.65,5.8A.386.386,0,0,1,96.355,240.213Zm-2.618-7.468,2.779,6.777,13.091-5.552-4.546-8.045Z" transform="translate(-63.547 -166.16)" fill="#263238"/>
      <path id="Path_41629" data-name="Path 41629" d="M174.372,232.782l-4.588,126.742H136.5l6.73-90.314s-18.137,19.821-20.2,20.939-4.671-2.428-4.671-2.428l-24.5-48.061,14.584-8.039L124.52,257.8l2.428-1.684,1.868.934s16.661-29.353,17.952-30.1,7.48-.375,7.48-.375l16.066,1.309,5.445-1.19Z" transform="translate(-63.865 -166.655)" fill="#01abc1"/>
      <path id="Path_41630" data-name="Path 41630" d="M169.581,359.631H136.3a.3.3,0,0,1-.22-.1.315.315,0,0,1-.089-.238l6.664-89.457c-3.166,3.451-17.8,19.339-19.69,20.368-2.255,1.232-4.945-2.38-5.058-2.517L93.4,239.613a.3.3,0,0,1,.125-.4l14.584-8.039a.3.3,0,0,1,.4.1l15.911,25.914,2.178-1.505a.3.3,0,0,1,.3,0l1.618.809c2.255-3.975,16.613-29.222,17.922-29.966s7-.452,7.646-.417l16.066,1.309,5.4-1.19a.292.292,0,0,1,.274.077.3.3,0,0,1,.077.28l-1.4,6.051-4.582,126.7a.3.3,0,0,1-.327.292Zm-32.959-.6h32.691l4.576-126.451a.259.259,0,0,1,0-.06l1.3-5.623-4.98,1.083h-.089l-16.066-1.309c-1.684-.1-6.3-.244-7.307.333-1,.678-11.216,18.309-17.851,30a.3.3,0,0,1-.393.119l-1.714-.857-2.285,1.583a.292.292,0,0,1-.232.048.3.3,0,0,1-.19-.137L108.144,231.83l-14.079,7.765,24.361,47.8h0s2.463,3.291,4.266,2.3c1.595-.869,13.858-14.037,20.118-20.88a.3.3,0,0,1,.339-.071.3.3,0,0,1,.178.3Z" transform="translate(-63.662 -166.47)" fill="#263238"/>
      <path id="Path_41631" data-name="Path 41631" d="M172.037,285.7l1.16-11.544-8.658,22.016,7.313-7.664Z" transform="translate(-92.484 -185.963)" fill="#263238"/>
      <path id="Path_41632" data-name="Path 41632" d="M164.336,296.271a.3.3,0,0,1-.28-.4l8.664-22.016a.3.3,0,0,1,.345-.185.3.3,0,0,1,.226.321l-1.19,11.544-.184,2.8a.3.3,0,0,1-.083.184l-7.283,7.664A.286.286,0,0,1,164.336,296.271Zm8.146-20.231-7.313,18.648,6.188-6.492.179-2.7h0Zm-.833,12.24Z" transform="translate(-92.28 -185.76)" fill="#263238"/>
      <path id="Path_41633" data-name="Path 41633" d="M174.351,266.485a.3.3,0,0,1-.292-.256c-.19-1.3-1.446-18.9-1.5-19.636a.3.3,0,1,1,.6-.042c0,.184,1.309,18.327,1.494,19.636a.3.3,0,0,1-.256.333Z" transform="translate(-95.731 -174.67)" fill="#263238"/>
      <path id="Path_41634" data-name="Path 41634" d="M171.457,282.237a.3.3,0,0,1-.3-.25L169.107,268.9a.291.291,0,0,1,.244-.339.3.3,0,0,1,.345.25l2.053,13.091a.291.291,0,0,1-.244.339Z" transform="translate(-94.332 -183.693)" fill="#263238"/>
      <path id="Path_41635" data-name="Path 41635" d="M136.719,291.81a.262.262,0,0,1-.131,0,.3.3,0,0,1-.137-.393l4.861-10.116a.3.3,0,1,1,.535.256l-4.861,10.116a.285.285,0,0,1-.268.137Z" transform="translate(-81.097 -188.779)" fill="#263238"/>
      <path id="Path_41636" data-name="Path 41636" d="M145.518,288a.322.322,0,0,1-.131-.03.3.3,0,0,1-.137-.4l3.927-7.854a.292.292,0,0,1,.4-.131.3.3,0,0,1,.137.4l-3.927,7.848A.3.3,0,0,1,145.518,288Z" transform="translate(-84.661 -188.147)" fill="#263238"/>
      <path id="Path_41637" data-name="Path 41637" d="M214.423,315.079a.286.286,0,0,1-.28-.2c-2.874-8.039-5.04-20.493-6.355-29.532a.3.3,0,0,1,.25-.333.3.3,0,0,1,.339.25c1.309,9.009,3.469,21.421,6.325,29.419a.291.291,0,0,1-.184.375A.267.267,0,0,1,214.423,315.079Z" transform="translate(-109.997 -190.359)" fill="#263238"/>
      <path id="Path_41638" data-name="Path 41638" d="M205.575,259.567a.3.3,0,0,1-.3-.256c-.357-2.713-.553-4.433-.553-4.445a.3.3,0,0,1,.137-.286l6.831-4.445-8.4-1.369a.292.292,0,0,1-.232-.19.3.3,0,0,1,.054-.3s1.88-2.261,3.719-5.022,7.789-11.9,7.848-11.96a.3.3,0,0,1,.417-.089.3.3,0,0,1,.083.411c-.059.1-6,9.2-7.854,11.972-1.4,2.094-2.809,3.9-3.433,4.671l8.646,1.416a.3.3,0,0,1,.244.232.3.3,0,0,1-.131.309l-7.325,4.76c.06.506.238,2.053.53,4.254a.3.3,0,0,1-.256.333Z" transform="translate(-108.075 -168.55)" fill="#263238"/>
      <path id="Path_41639" data-name="Path 41639" d="M393.73,214.656s4.046-8.235,6.075-10.931,4.046-4.32,6.343-4.725,3.909-.268,5.665-.946,5.266-1.618,6.212-2.832,2.7-.4,1.886,1.618-3.642,3.374-3.642,3.374l-2.3,1.077s7.426,1.083,7.962,1.488,7.021.946,7.021.946-2.838,4.992-6.885,7.289-16.732.4-16.732.4l-3.779,7.962Z" transform="translate(-185.298 -153.765)" fill="#fff"/>
      <path id="Path_41640" data-name="Path 41640" d="M401.353,219.481a.328.328,0,0,1-.149-.042l-7.831-4.725a.3.3,0,0,1-.113-.387c.167-.339,4.088-8.289,6.1-10.978,2.172-2.9,4.249-4.439,6.545-4.838.863-.155,1.618-.232,2.344-.3a11.962,11.962,0,0,0,3.267-.631c.4-.149.881-.315,1.4-.494,1.69-.6,4-1.369,4.677-2.243a1.494,1.494,0,0,1,1.928-.512c.541.309.994,1.131.476,2.428-.845,2.106-3.677,3.475-3.8,3.529l-1.4.66c2.333.351,6.647,1.041,7.14,1.4a45.79,45.79,0,0,0,6.867.887.292.292,0,0,1,.232.44c-.113.208-2.922,5.093-6.992,7.4-3.844,2.178-14.947.72-16.709.47l-3.683,7.735a.31.31,0,0,1-.184.161Zm-7.438-5.135,7.313,4.409,3.636-7.664a.3.3,0,0,1,.315-.167c.125,0,12.633,1.851,16.542-.369,3.267-1.851,5.766-5.552,6.545-6.771-1.91-.167-6.177-.6-6.694-.964a64.814,64.814,0,0,0-7.825-1.428.292.292,0,0,1-.25-.25.3.3,0,0,1,.167-.315l2.291-1.077c.03,0,2.743-1.327,3.5-3.219.375-.94.119-1.494-.214-1.69a.928.928,0,0,0-1.19.369c-.785,1.012-3.1,1.785-4.957,2.44-.512.173-.988.339-1.381.488a12.688,12.688,0,0,1-3.421.666c-.714.071-1.458.143-2.3.292-2.118.375-4.076,1.839-6.153,4.611C398.05,206.093,394.6,212.959,393.915,214.346Z" transform="translate(-185.096 -153.568)" fill="#263238"/>
      <path id="Path_41641" data-name="Path 41641" d="M454.912,203.673s2.083-4.433,1.91-5.391-2-.345-2.606.958-2.7,4.433-2.7,4.433Z" transform="translate(-208.701 -155.046)" fill="#fff"/>
      <path id="Path_41642" data-name="Path 41642" d="M454.7,203.774h-3.392a.309.309,0,0,1-.262-.161.28.28,0,0,1,0-.3s2.077-3.124,2.672-4.4a2.69,2.69,0,0,1,2.38-1.583.827.827,0,0,1,.756.7c.184,1-1.577,4.814-1.934,5.57a.3.3,0,0,1-.22.173Zm-2.838-.6h2.648c.791-1.7,1.916-4.433,1.785-5.04,0-.1-.059-.2-.25-.22a2.136,2.136,0,0,0-1.785,1.25A46.152,46.152,0,0,1,451.865,203.179Z" transform="translate(-208.492 -154.85)" fill="#263238"/>
      <path id="Path_41643" data-name="Path 41643" d="M455.347,203.267s-3.237,6.885-5.4,8.771-6.48,2.029-6.48,2.029,5.129-5.4,6.212-7.426S454.674,199.756,455.347,203.267Z" transform="translate(-205.441 -156.752)" fill="#fff"/>
      <path id="Path_41644" data-name="Path 41644" d="M443.27,214.161a.3.3,0,0,1-.268-.179.3.3,0,0,1,.054-.327c.054-.054,5.117-5.391,6.164-7.355.8-1.505,3.4-5.022,5.082-4.76.6.089.97.6,1.137,1.47a.3.3,0,0,1,0,.179c-.137.286-3.291,6.962-5.474,8.872s-6.486,2.095-6.664,2.1Zm10.836-12.038c-1.19,0-3.517,2.874-4.362,4.457s-4.385,5.486-5.73,6.926c1.309-.131,4.016-.559,5.54-1.892,1.958-1.714,4.9-7.777,5.284-8.586-.119-.553-.333-.851-.625-.9Z" transform="translate(-205.241 -156.549)" fill="#263238"/>
      <path id="Path_41645" data-name="Path 41645" d="M450.967,204.288s-3.237,6.885-5.4,8.777-6.48,2.023-6.48,2.023,5.129-5.4,6.212-7.426S450.294,200.784,450.967,204.288Z" transform="translate(-203.667 -157.166)" fill="#fff"/>
      <path id="Path_41646" data-name="Path 41646" d="M438.888,215.182a.3.3,0,0,1-.268-.178.28.28,0,0,1,.054-.321c.054-.06,5.111-5.4,6.159-7.361.8-1.505,3.392-5.016,5.082-4.76.6.089.976.6,1.143,1.464a.286.286,0,0,1,0,.184c-.131.28-3.291,6.962-5.468,8.866s-6.486,2.095-6.664,2.1Zm10.836-12.038c-1.22,0-3.523,2.874-4.362,4.457-.893,1.672-4.385,5.486-5.73,6.926,1.309-.131,4.017-.559,5.54-1.892,1.958-1.714,4.9-7.777,5.284-8.586-.119-.547-.333-.851-.631-.893Z" transform="translate(-203.465 -156.962)" fill="#263238"/>
      <path id="Path_41647" data-name="Path 41647" d="M409.83,211.175a10.108,10.108,0,0,1,2.975-2.565c2.3-1.482,14.441,2.291,14.441,2.291s5.534-6.879,6.343-7.557,2.3-1.077,2.565.274-3.374,7.14-4.32,8.1a42.931,42.931,0,0,1-4.588,3.237,19.892,19.892,0,0,1-6.884,1.077,50.576,50.576,0,0,1-8.5-1.345" transform="translate(-191.818 -157.032)" fill="#fff"/>
      <path id="Path_41648" data-name="Path 41648" d="M420.734,216.178h-.6a51.168,51.168,0,0,1-8.563-1.357.306.306,0,1,1,.143-.6,50.8,50.8,0,0,0,8.438,1.339,19.88,19.88,0,0,0,6.742-1.047,44.453,44.453,0,0,0,4.51-3.183c1.029-1.029,4.463-6.706,4.237-7.825a.714.714,0,0,0-.446-.6,1.97,1.97,0,0,0-1.636.512c-.6.518-4.391,5.141-6.3,7.515a.3.3,0,0,1-.321.1c-3.338-1.035-12.4-3.481-14.192-2.327a10.131,10.131,0,0,0-2.874,2.469.3.3,0,0,1-.506-.315,9.972,9.972,0,0,1,3.058-2.654c2.321-1.505,12.573,1.607,14.5,2.2.851-1.059,5.492-6.807,6.254-7.444a2.541,2.541,0,0,1,2.214-.6,1.279,1.279,0,0,1,.833,1.053c.315,1.565-3.57,7.527-4.4,8.366a44.247,44.247,0,0,1-4.641,3.279l-.054.03a20.231,20.231,0,0,1-6.4,1.077Z" transform="translate(-191.613 -156.87)" fill="#263238"/>
      <path id="Path_41649" data-name="Path 41649" d="M385.81,234.288l4.861-8.6,11.782,7.1-2.993,7.3Z" transform="translate(-182.091 -166.334)" fill="#fff"/>
      <path id="Path_41650" data-name="Path 41650" d="M399.252,240.193a.421.421,0,0,1-.119,0l-13.65-5.8a.268.268,0,0,1-.161-.178.28.28,0,0,1,0-.238l4.861-8.6a.309.309,0,0,1,.184-.137.291.291,0,0,1,.232,0l11.776,7.111a.3.3,0,0,1,.119.369l-2.975,7.3a.3.3,0,0,1-.161.161A.387.387,0,0,1,399.252,240.193Zm-13.228-6.242,13.091,5.552,2.779-6.777-11.306-6.819Z" transform="translate(-181.882 -166.14)" fill="#263238"/>
      <path id="Path_41651" data-name="Path 41651" d="M276.9,232.782l4.588,126.742h33.286l-6.736-90.32s18.137,19.821,20.2,20.939,4.677-2.428,4.677-2.428L357.4,239.661l-14.554-8.039L326.78,257.8l-2.434-1.684-1.868.934s-16.661-29.353-17.952-30.1-7.48-.375-7.48-.375l-16.066,1.309-5.95-1.19Z" transform="translate(-137.229 -166.655)" fill="#01abc1"/>
      <path id="Path_41652" data-name="Path 41652" d="M314.52,359.616H281.234a.3.3,0,0,1-.3-.292L276.349,232.63l-1.928-6.04a.3.3,0,0,1,.065-.292.3.3,0,0,1,.28-.1l5.95,1.19,16.036-1.309c.649-.036,6.307-.357,7.652.417s15.667,25.991,17.922,29.966l1.619-.809a.31.31,0,0,1,.3,0l2.172,1.505,15.917-25.914a.3.3,0,0,1,.393-.1l14.584,8.039a.3.3,0,0,1,.125.4l-24.5,48.055c-.137.19-2.82,3.79-5.082,2.553-1.886-1.029-16.518-16.917-19.69-20.368l6.647,89.457a.3.3,0,0,1-.083.226.285.285,0,0,1-.214.107Zm-33-.6H314.2l-6.712-89.993a.3.3,0,0,1,.184-.3.286.286,0,0,1,.333.071c6.266,6.843,18.523,20.011,20.118,20.862,1.785.988,4.266-2.309,4.3-2.344l24.337-47.757L342.671,231.8l-15.935,25.938a.286.286,0,0,1-.19.137.291.291,0,0,1-.232-.048l-2.285-1.583-1.714.857a.292.292,0,0,1-.387-.119c-6.629-11.686-16.845-29.317-17.851-30-1.006-.6-5.617-.434-7.313-.333L280.7,227.959h-.083l-5.474-1.083,1.785,5.605a.3.3,0,0,1,0,.077Z" transform="translate(-136.977 -166.455)" fill="#263238"/>
      <path id="Path_41653" data-name="Path 41653" d="M330.346,292.072l-.226-9.122,7.218,16.244Z" transform="translate(-159.538 -189.523)" fill="#263238"/>
      <path id="Path_41654" data-name="Path 41654" d="M337.135,299.3a.279.279,0,0,1-.208-.089l-6.992-7.14a.316.316,0,0,1-.089-.2l-.226-9.08a.3.3,0,0,1,.232-.3.291.291,0,0,1,.339.167l7.218,16.244a.291.291,0,0,1-.107.363A.279.279,0,0,1,337.135,299.3Zm-6.694-7.545,5.754,5.867-5.95-13.376Z" transform="translate(-159.336 -189.334)" fill="#263238"/>
      <path id="Path_41655" data-name="Path 41655" d="M328.841,276.859a.3.3,0,0,1-.3-.274L326.859,251.9a.3.3,0,0,1,.6-.042l1.684,24.682a.3.3,0,0,1-.28.315Z" transform="translate(-158.217 -176.82)" fill="#263238"/>
      <path id="Path_41656" data-name="Path 41656" d="M331.56,271.837h-.042a.3.3,0,0,1-.25-.333c.178-1.285,1.077-11.639,1.083-11.74a.315.315,0,0,1,.327-.274.3.3,0,0,1,.268.321c-.036.428-.9,10.473-1.089,11.776A.3.3,0,0,1,331.56,271.837Z" transform="translate(-160.002 -180.022)" fill="#263238"/>
      <path id="Path_41657" data-name="Path 41657" d="M334.075,282.236h-.048a.292.292,0,0,1-.25-.339l2.059-13.091a.3.3,0,0,1,.6.089l-2.059,13.091A.291.291,0,0,1,334.075,282.236Z" transform="translate(-161.017 -183.691)" fill="#263238"/>
      <path id="Path_41658" data-name="Path 41658" d="M362.985,287.129a.3.3,0,0,1-.292-.25l-.946-5.409a.3.3,0,1,1,.6-.1l.952,5.409a.3.3,0,0,1-.244.345Z" transform="translate(-172.344 -188.781)" fill="#263238"/>
      <path id="Path_41659" data-name="Path 41659" d="M354.712,283.84h0a.309.309,0,0,1-.292-.3l.059-3.7a.327.327,0,0,1,.3-.292.3.3,0,0,1,.292.3l-.06,3.689a.3.3,0,0,1-.3.3Z" transform="translate(-169.379 -188.146)" fill="#263238"/>
      <path id="Path_41660" data-name="Path 41660" d="M288.2,332.238a.19.19,0,0,1-.1,0,.3.3,0,0,1-.185-.375c.452-1.261.9-2.69,1.345-4.249a.308.308,0,1,1,.595.161c-.446,1.571-.9,3.017-1.357,4.284A.3.3,0,0,1,288.2,332.238Z" transform="translate(-142.438 -207.518)" fill="#263238"/>
      <path id="Path_41661" data-name="Path 41661" d="M288.722,286.176h-.077a.3.3,0,0,1-.214-.357c3.166-12.5,5.117-28.9,5.355-30.811l-7.325-4.76a.291.291,0,0,1-.125-.309.286.286,0,0,1,.238-.232l8.658-1.416c-.6-.774-2.035-2.576-3.433-4.671-1.851-2.773-7.795-11.9-7.854-11.972a.3.3,0,0,1,.5-.321c.06.089,6,9.193,7.849,11.96s3.707,5,3.725,5.022a.315.315,0,0,1,.048.3.292.292,0,0,1-.232.19l-8.4,1.369,6.837,4.445a.3.3,0,0,1,.131.286,278.086,278.086,0,0,1-5.355,31.067A.3.3,0,0,1,288.722,286.176Z" transform="translate(-140.822 -168.567)" fill="#263238"/>
      <path id="Path_41662" data-name="Path 41662" d="M231.2,206.427l.054,12.716L245.9,228l11.865-8.223-1.095-14.424s-9.17,5.95-10.383,6.2S231.2,206.427,231.2,206.427Z" transform="translate(-119.479 -158.097)" fill="#fff"/>
      <path id="Path_41663" data-name="Path 41663" d="M245.679,228.113a.286.286,0,0,1-.155-.042l-14.662-8.83a.315.315,0,0,1-.149-.256l-.054-12.716a.3.3,0,0,1,.4-.28c5.355,2.071,14.079,5.284,14.929,5.111s6.617-3.79,10.288-6.159a.286.286,0,0,1,.292,0,.3.3,0,0,1,.167.244l1.077,14.424a.3.3,0,0,1-.131.268L245.827,228.1A.309.309,0,0,1,245.679,228.113ZM231.332,218.8l14.334,8.67,11.567-8.021L256.2,205.687c-1.952,1.261-8.925,5.724-10.056,5.95s-11.823-3.8-14.876-4.98Z" transform="translate(-119.26 -157.916)" fill="#263238"/>
      <path id="Path_41664" data-name="Path 41664" d="M231.439,218.191l13.906-3.445L231.29,209.01Z" transform="translate(-119.515 -159.579)" fill="#263238"/>
      <path id="Path_41665" data-name="Path 41665" d="M231.236,218.284a.3.3,0,0,1-.184-.059.292.292,0,0,1-.113-.232l-.149-9.187a.3.3,0,0,1,.131-.25.292.292,0,0,1,.28,0l14.055,5.736a.3.3,0,0,1,.184.3.309.309,0,0,1-.226.268L231.308,218.3Zm.161-9.027.131,8.33,12.656-3.136Z" transform="translate(-119.313 -159.381)" fill="#263238"/>
      <path id="Path_41666" data-name="Path 41666" d="M249.142,158.558s-.137-5.8,1.482-9.033a7.6,7.6,0,0,0,0-6.742l1.494-.541a25.7,25.7,0,0,0-2.559-1.886c-.4-.137.268-3.773-.946-5.665a5.36,5.36,0,0,0-2.428-2.291l-.672,2.428s-3.642-4.314-5.665-5.123-7.813-4.719-7.962-2.7a3.642,3.642,0,0,0,.678,2.832s-4.046-2.3-7.14-1.488-6.069,2.7-5.4,3.374,3.642,3.5,3.642,3.5-6.873.268-7.682,1.077a5.95,5.95,0,0,0-1.19,2.16l3.909,2.023s-3.5-.274-4.855,1.886-1.618,2.975-.672,3.368a22.662,22.662,0,0,1,2.7,1.618s-.946,1.618.137,4.314,3.636,8.634,3.636,8.634.946-9.711,1.618-11.6,9.039-6.337,10.247-6.742,9.711,1.886,10.252,1.886,4.04,13.62,4.85,14.156A5.938,5.938,0,0,0,249.142,158.558Z" transform="translate(-111.953 -126.139)" fill="#263238"/>
      <path id="Path_41667" data-name="Path 41667" d="M219.415,160.41a.3.3,0,0,1-.268-.184c0-.06-2.577-5.95-3.648-8.634a5.766,5.766,0,0,1-.232-4.32,20.021,20.021,0,0,0-2.44-1.452,1.113,1.113,0,0,1-.69-.678c-.2-.649.256-1.559,1.232-3.124a5.044,5.044,0,0,1,3.927-2l-2.88-1.488a.286.286,0,0,1-.149-.345,6.183,6.183,0,0,1,1.285-2.285c.738-.738,5.236-1.035,7.188-1.137-.875-.839-2.642-2.529-3.142-3.029a.6.6,0,0,1-.155-.631c.292-1.077,3.243-2.6,5.683-3.237,2.333-.6,5.117.44,6.5,1.077a5.355,5.355,0,0,1-.256-2.154.839.839,0,0,1,.428-.726c.9-.494,2.928.524,5.694,2.023.881.476,1.714.928,2.243,1.142,1.708.678,4.427,3.659,5.415,4.76l.524-1.892a.309.309,0,0,1,.149-.184.268.268,0,0,1,.232,0,5.544,5.544,0,0,1,2.582,2.38c.815,1.267.827,3.225.833,4.522a7.733,7.733,0,0,0,.048,1.059,26.642,26.642,0,0,1,2.565,1.9.309.309,0,0,1,.107.286.3.3,0,0,1-.2.226l-1.19.428a7.819,7.819,0,0,1-.143,6.706c-1.565,3.136-1.452,8.836-1.452,8.9a.3.3,0,0,1-.089.214.28.28,0,0,1-.208.089,6.006,6.006,0,0,1-2.725-.6c-.44-.292-1.083-2.231-2.791-7.914-.768-2.541-1.708-5.677-2.029-6.206-.274-.036-.875-.178-2.16-.476-2.3-.541-7.093-1.672-7.866-1.416-1.261.422-9.449,4.844-10.062,6.545-.649,1.833-1.589,11.425-1.6,11.52a.3.3,0,0,1-.25.268Zm-1.3-19.833c-.881,0-3.243.155-4.249,1.785-.791,1.273-1.3,2.208-1.19,2.63,0,.077.089.2.363.315a22.521,22.521,0,0,1,2.743,1.642.3.3,0,0,1,.089.4,4.955,4.955,0,0,0,.155,4.052c.791,1.976,2.38,5.736,3.183,7.569.274-2.642.976-9,1.517-10.526.756-2.112,9.449-6.593,10.437-6.92.857-.292,4.362.494,8.182,1.392,1.029.244,2.005.47,2.16.476.393,0,.542.226,2.463,6.617.922,3.053,2.178,7.224,2.565,7.6a4.927,4.927,0,0,0,2.083.476c0-1.267.083-5.992,1.517-8.86a7.372,7.372,0,0,0,0-6.468.3.3,0,0,1,.161-.422l.988-.357a18.552,18.552,0,0,0-2.059-1.511c-.351-.113-.351-.541-.363-1.583,0-1.226,0-3.076-.738-4.2a6.028,6.028,0,0,0-1.987-2.029l-.6,2.083a.3.3,0,0,1-.22.214.3.3,0,0,1-.292-.1c-.036-.042-3.618-4.266-5.546-5.04a25.512,25.512,0,0,1-2.309-1.19c-1.785-.958-4.439-2.38-5.123-2.029-.03,0-.107.06-.119.244a3.612,3.612,0,0,0,.6,2.606.292.292,0,0,1,0,.387.3.3,0,0,1-.381.077c-.036,0-3.975-2.219-6.926-1.452-2.761.72-5.093,2.208-5.26,2.82.666.714,3.612,3.523,3.642,3.57a.3.3,0,0,1-.2.512c-2.809.107-6.986.488-7.486.994a5.29,5.29,0,0,0-1.059,1.785l3.683,1.9a.3.3,0,0,1,.149.345.309.309,0,0,1-.309.22A.926.926,0,0,0,218.118,140.577ZM249.447,139.875Z" transform="translate(-111.74 -125.938)" fill="#263238"/>
      <path id="Path_41668" data-name="Path 41668" d="M230.4,146.423s-9.033,8.926-9.169,10.377,3.909,24.539,4.165,25.348,9.842,6.879,12.805,7.551,6.069-.137,6.879-.809,8.628-5.123,9.437-8.765-4.266-28.449-4.861-29.389S236.467,143.721,230.4,146.423Z" transform="translate(-115.439 -133.956)" fill="#fff"/>
      <path id="Path_41669" data-name="Path 41669" d="M240.358,190.069a11.1,11.1,0,0,1-2.41-.256c-2.826-.643-12.686-6.73-13.025-7.735-.369-1.107-4.326-23.992-4.195-25.467s7.735-9.068,9.259-10.568a.238.238,0,0,1,.089-.06c6-2.666,18.952,3.2,19.636,4.439.559.976,5.712,25.866,4.885,29.6-.69,3.112-6.2,6.718-8.551,8.259-.482.315-.857.559-.988.672A8.656,8.656,0,0,1,240.358,190.069Zm-9.991-43.574c-3.469,3.416-8.955,9.158-9.045,10.157-.119,1.339,3.826,24.212,4.165,25.224.417.785,9.616,6.682,12.591,7.355s5.9-.143,6.623-.744c.155-.131.506-.363,1.041-.714,2.291-1.5,7.658-5.01,8.295-7.89.78-3.5-4.284-28.169-4.82-29.157C248.718,149.957,236.359,143.93,230.367,146.494Z" transform="translate(-115.237 -133.777)" fill="#263238"/>
      <path id="Path_41670" data-name="Path 41670" d="M236.64,145.132s3.13,1.547,4.421,2.124,2.719-1.434,2.719-1.434,11.086,3.8,12.139,3.624-2.975-4.344-7.14-5.921S236.664,142.145,236.64,145.132Z" transform="translate(-121.682 -132.665)" fill="#263238"/>
      <path id="Path_41671" data-name="Path 41671" d="M255.641,149.54c-1.434,0-9.782-2.82-11.972-3.57-.417.512-1.69,1.91-2.975,1.357s-4.4-2.118-4.427-2.136a.3.3,0,0,1-.167-.268,2.082,2.082,0,0,1,1.029-1.726c2.38-1.613,8.241-1.4,11.538-.149,3.653,1.386,7.581,4.975,7.474,6.052a.476.476,0,0,1-.411.434Zm-12.079-4.219a.3.3,0,0,1,.1,0c4.112,1.41,10.806,3.57,11.9,3.612-.25-.815-3.463-3.975-7.081-5.355-3.142-1.19-8.83-1.386-10.984.089a1.589,1.589,0,0,0-.762,1.059c.684.333,3.136,1.547,4.231,2.029.875.387,2-.833,2.38-1.333A.286.286,0,0,1,243.562,145.322Z" transform="translate(-121.463 -132.462)" fill="#263238"/>
      <path id="Path_41672" data-name="Path 41672" d="M247.737,178.836a1.416,1.416,0,0,1-.232,0l-.756-.125a10.016,10.016,0,0,1-1.618.131,1.654,1.654,0,0,1-1.505-1.3.3.3,0,0,1,.22-.357.3.3,0,0,1,.357.214c0,.036.232.857.928.857a8.959,8.959,0,0,0,1.559-.131h.131l.809.131a3.421,3.421,0,0,0,2.38-.988,59.655,59.655,0,0,0-1.19-6.278c-.6-2.928-.976-4.76-.976-5.111,0-.881,1.642-2.684,1.97-3.035a.3.3,0,0,1,.422,0,.3.3,0,0,1,0,.422,7.6,7.6,0,0,0-1.785,2.63c0,.333.512,2.809.964,4.992.958,4.635,1.261,6.23,1.19,6.545C250.391,178.075,248.689,178.836,247.737,178.836Z" transform="translate(-124.508 -140.848)" fill="#263238"/>
      <path id="Path_41673" data-name="Path 41673" d="M255.043,186.439a3.356,3.356,0,0,1-.535-.048.3.3,0,0,1-.232-.351.292.292,0,0,1,.351-.232,1.66,1.66,0,0,0,1-.089.328.328,0,0,0,.131-.208l.131-.809a.3.3,0,0,1,.345-.244.291.291,0,0,1,.244.339l-.137.809a.9.9,0,0,1-.375.6,1.654,1.654,0,0,1-.922.238Z" transform="translate(-128.821 -149.635)" fill="#263238"/>
      <path id="Path_41674" data-name="Path 41674" d="M248.236,187.819a.28.28,0,0,1-.167-.054,1.97,1.97,0,0,1-.649-2.225.3.3,0,1,1,.559.19,1.374,1.374,0,0,0,.434,1.553.3.3,0,0,1-.178.536Z" transform="translate(-126.001 -149.979)" fill="#263238"/>
      <path id="Path_41675" data-name="Path 41675" d="M244.6,200.6a.322.322,0,0,1-.2-.071.3.3,0,0,1,0-.423c.048-.054,4.647-5.123,9.907-3.047a.3.3,0,1,1-.22.553c-4.873-1.922-9.2,2.838-9.241,2.892A.3.3,0,0,1,244.6,200.6Z" transform="translate(-124.791 -154.538)" fill="#263238"/>
      <path id="Path_41676" data-name="Path 41676" d="M228.758,168.591a.519.519,0,0,1-.208-.042.6.6,0,0,1-.345-.762,8.628,8.628,0,0,1,3.058-3.79c2.273-1.517,6.212.28,6.379.357a.6.6,0,0,1-.506,1.083c-.964-.452-3.79-1.4-5.212-.452a7.557,7.557,0,0,0-2.606,3.219A.6.6,0,0,1,228.758,168.591Z" transform="translate(-118.251 -141.105)" fill="#263238"/>
      <path id="Path_41677" data-name="Path 41677" d="M263.629,164.933a.6.6,0,0,1-.53-.315,6.141,6.141,0,0,0-2.934-2.559,3.219,3.219,0,0,0-3.166.559.6.6,0,1,1-.8-.881,4.409,4.409,0,0,1,4.385-.791,7.319,7.319,0,0,1,3.57,3.106.6.6,0,0,1-.524.881Z" transform="translate(-129.523 -140.007)" fill="#263238"/>
      <ellipse id="Ellipse_413" data-name="Ellipse 413" cx="1.012" cy="1.416" rx="1.012" ry="1.416" transform="translate(115.5 28.104)" fill="#263238"/>
      <path id="Path_41678" data-name="Path 41678" d="M259.853,171.186c0,.78-.458,1.416-1.012,1.416s-1.012-.637-1.012-1.416.452-1.416,1.012-1.416S259.853,170.407,259.853,171.186Z" transform="translate(-130.263 -143.689)" fill="#263238"/>
      <path id="Path_41679" data-name="Path 41679" d="M221.09,179.587s-2.559-3.636-3.773-.809,0,5.123,1.19,7.015a8.451,8.451,0,0,0,3.773,2.832Z" transform="translate(-113.653 -146.901)" fill="#fff"/>
      <path id="Path_41680" data-name="Path 41680" d="M222.062,188.715a.28.28,0,0,1-.1,0,8.692,8.692,0,0,1-3.921-2.975c-1.363-2.118-2.452-4.463-1.238-7.289a1.785,1.785,0,0,1,1.38-1.255c1.351-.137,2.755,1.785,2.91,2.011a.256.256,0,0,1,.054.131l1.19,9.033a.309.309,0,0,1-.113.274A.3.3,0,0,1,222.062,188.715Zm-3.737-10.925h-.083c-.357.036-.655.339-.893.893-1.16,2.7,0,4.891,1.19,6.736a7.837,7.837,0,0,0,3.16,2.511l-1.136-8.444c-.393-.524-1.428-1.7-2.243-1.7Z" transform="translate(-113.435 -146.693)" fill="#263238"/>
      <path id="Path_41681" data-name="Path 41681" d="M274.286,171.823s.268-2.565,1.351-2.3a3.728,3.728,0,0,1,1.886,5.123c-1.214,2.826-2.428,5.8-2.428,5.8L274,174.924Z" transform="translate(-136.811 -143.582)" fill="#fff"/>
      <path id="Path_41682" data-name="Path 41682" d="M274.927,180.553h0a.3.3,0,0,1-.262-.244l-1.077-5.528a.355.355,0,0,1,0-.083l.268-3.1h0c0-.19.22-1.88.976-2.41a.9.9,0,0,1,.744-.137,3.618,3.618,0,0,1,2.065,1.892,4.165,4.165,0,0,1,0,3.636c-1.19,2.8-2.416,5.766-2.428,5.8A.292.292,0,0,1,274.927,180.553Zm-.779-5.843.881,4.516c.458-1.1,1.255-3.035,2.053-4.885a3.63,3.63,0,0,0,0-3.136,3.035,3.035,0,0,0-1.678-1.583.292.292,0,0,0-.262.048,3.517,3.517,0,0,0-.72,1.981Z" transform="translate(-136.644 -143.386)" fill="#263238"/>
    </g>
    <g id="freepik--Line--inject-4" transform="translate(40.296 279.732)">
      <path id="Path_41683" data-name="Path 41683" d="M299.646,450.155H50.238a.3.3,0,0,1,0-.6H299.646a.3.3,0,0,1,.3.3A.3.3,0,0,1,299.646,450.155Z" transform="translate(-49.94 -449.56)" fill="#263238"/>
    </g>
  </g>
</svg>
